<?xml version="1.0" encoding="utf-8"?>
<!-- Generator: Adobe Illustrator 25.1.0, SVG Export Plug-In . SVG Version: 6.00 Build 0)  -->
<svg version="1.1" id="Layer_1" xmlns="http://www.w3.org/2000/svg" xmlns:xlink="http://www.w3.org/1999/xlink" x="0px" y="0px"
	 viewBox="0 0 100.2 300" style="enable-background:new 0 0 100.2 300;" xml:space="preserve">
<style type="text/css">
	.st0{fill:#E66251;}
	.st1{fill:#DE422F;}
	.st2{fill:#FC8A71;}
	.st3{fill:#D43320;}
	.st4{fill:#9FDAED;}
	.st5{fill:#B3E2F2;}
	.st6{fill:#CBEDFA;}
	.st7{fill:#7FD8EF;}
	.st8{fill:#E3F7FC;}
</style>
<g id="inferior">
	<path class="st0" d="M87.1,168.5c-3.4,0.6-5.3,1.8-6.2,8.5c-1.6,11.9-2.3,53.4-30.1,53.4S21.9,189,20.7,177
		c-0.7-6.9-3.3-8.4-6.3-8.5c0,0,10.7,0,19,6c12.4,8.9,20.4,9.9,35.7,0C77.5,169,87.1,168.5,87.1,168.5z"/>
	<path class="st1" d="M50.8,220.8c-4.6,0-10.5-1.5-15-13.1c-2-5.1-3.2-11-4-16.3c-0.4-2.7,2.4-4.7,4.8-3.5c4.1,2,8.7,3.4,13.9,3.4
		c4.6,0,9.2-1.1,14.4-3.4c2.4-1.1,5.1,0.9,4.7,3.6c-0.8,5.6-2.1,11.7-4.2,17C60.9,219.3,55.2,220.8,50.8,220.8z"/>
	<path class="st0" d="M95.5,182.4c-1.5,10.2-3.5,22.9-12,39.1c-9.5,18.2-25.2,19-30.5,19c-1.4,0-3.1,0-4.5,0c-5.3,0-21-0.9-30.6-19
		c-8.5-16.1-11.2-30.6-12.2-40.9c-0.9-8.7-0.4-10.9,4.3-11.6c1.5-0.2,2.9-0.5,4.3-0.5c3.1,0,5.6,1.6,6.3,8.5
		c1.3,12,2.3,53.4,30.1,53.4S79.6,189,80.8,177c0.8-7.5,3.7-8.7,7.1-8.5c1.1,0.1,2.3,0.3,3.5,0.5C96.2,169.7,96.9,172.9,95.5,182.4z
		"/>
	<g>
		<path class="st2" d="M10,168.9c2.6-0.4,5.7-1.1,7.7,0.5c0.7,0.5,1.3,1.3,1.7,2.1c0.2,0.4,0.4,0.8,0.5,1.2c0.3,1.1,0.1,0.3,0.5,1.9
			c0.2,1.3,0.2,0.9,0.3,1.9c1.2,10,1.9,42.6,20,51.4c6.1,2.9,14.1,3,20.2,0c19.9-9.7,18.8-48,20.5-54c0.2-0.7,0.1-0.4,0.4-1.3
			c0.1-0.4,0-0.1,0.2-0.6c0.1-0.2,0.2-0.4,0.3-0.6c0.4-0.8,0.9-1.5,1.7-2.1c2.1-1.6,5.1-0.9,7.7-0.5v0.2c-2.4-0.3-5.5-0.8-7.4,0.7
			c-0.6,0.5-1.1,1.2-1.4,1.9c-0.1,0.1-0.1,0.2-0.4,0.9c0,0.1,0,0-0.3,0.9c-0.6,2.6-0.5,3.2-0.8,8.4c-0.8,11.9-2.4,25.6-8.2,36
			c-3.8,6.8-9.1,11.8-16.8,13.4c-5.3,1.2-11.3,0.6-16.3-1.8c-3.1-1.5-6-3.9-8.5-7c-11.6-14.7-10.8-42.2-11.7-47
			c-0.1-0.8-0.1-0.5-0.2-1.3c-0.1-0.6-0.5-1.8-0.8-2.4c-0.4-0.7-0.8-1.4-1.4-1.9c-0.3-0.3-0.7-0.5-1-0.6c-2-0.7-4-0.4-6.3-0.1
			L10,168.9z"/>
	</g>
	<g>
		<path class="st3" d="M95.5,182.4c-1.1,7.2-2,13.1-4.1,20.2c-1.9,6.6-4.6,12.9-7.8,19c-1.7,3.2-3.4,5.8-5.9,8.5
			c-6.2,6.7-14.1,10.2-22.8,10.6c-2.1,0.1-6.8,0.2-10.3-0.1c-8.8-0.9-16.4-4.8-22.2-11.9c-1.4-1.7-2.5-3.4-3.7-5.3
			c-7.6-12.6-11.6-27.9-13.1-42.8l0,0c1.1,7,2.5,13.2,4.7,19.9c1.7,5.3,3.2,8.6,4.6,11.9c2.8,6.5,4.5,10.1,8.8,15.2
			c6.2,7.3,14.4,11,23.5,11.2c3.5,0.1,8.7,0.1,12.4-0.6c6.2-1.2,12.1-4.2,16.8-9.3c2.2-2.4,4.1-5.1,5.8-8c5.2-9.6,8.7-18.9,11-28.4
			C94.1,189.1,94.9,185.4,95.5,182.4L95.5,182.4z"/>
	</g>
</g>
<g>
	<path class="st4" d="M16.3,182.1c-1.1,0.2-2.2,0.3-3.2,0.3l0,0c-2.8,0.1-5.3-0.4-5.9-1.1c-1-1.2-1.2-4.6-1.2-6.1
		c0-0.9,0.1-1.9,0.7-2.7c1.2-1.7,4.7-2.4,7.4-2.2l0,0c0.8,0,1.5,0.1,2.1,0.3c3.4,0.9,3.5,3.2,3.5,5.4
		C19.9,180.4,19.4,181.5,16.3,182.1z"/>
	<path class="st5" d="M16.3,182.1c-1.1,0.2-2.2,0.3-3.2,0.3l0,0c-2.2-0.1-4-0.5-4.5-1.1c-1-1.2-1.2-4.6-1.2-6.1
		c0-0.9,0.1-1.9,0.7-2.7c1-1.4,3.6-2.1,5.9-2.2l0,0c0.8,0,1.5,0.1,2.1,0.3c3.4,0.9,3.5,3.2,3.5,5.4
		C19.9,180.4,19.4,181.5,16.3,182.1z"/>
	<path class="st6" d="M13.3,181.7c-2.5-0.1-3.7-0.6-3.9-0.8c-0.6-0.8-1-3.5-1-5.7c0-1,0.2-1.8,0.5-2.3c0.7-1,2.8-1.8,5.4-1.9
		c0.8,0,1.4,0.1,2,0.3c2.8,0.8,2.9,2.3,2.9,4.7v0.1c0.1,2.3,0,3.5-0.4,4.1c-0.3,0.5-0.8,0.9-2.3,1.1
		C15.4,181.5,14.4,181.6,13.3,181.7z"/>
	<path class="st7" d="M14.3,179.3c0,0.3,0.1,0.7,0.3,1s0.5,0.6,0.8,0.6c-0.2,0.3-0.8,0.2-1.1-0.1s-0.3-0.7-0.4-1.2
		c-0.1-0.5-0.1-1-0.2-1.4c0-0.2-0.1-0.5-0.3-0.7s-0.5-0.2-0.8-0.1c-0.3,0.1-0.5,0.2-0.8,0.2s-0.6-0.2-0.9-0.3
		c-0.5-0.1-1.2,0.1-1.5,0.5c-0.1-0.4,0.1-0.8,0.5-1s0.8-0.1,1.2,0s0.8,0.2,1.2,0.2c0.6,0,1.2-0.5,1.4-1c0.2-0.6,0.1-1.3-0.3-1.7
		c-0.1-0.2-0.3-0.3-0.5-0.4c-0.1-0.2-0.2-0.4-0.2-0.6c0.1-0.3,0.5-0.4,0.7-0.3c0.3,0.1,0.5,0.4,0.5,0.7c0.1,0.3,0,0.6,0,0.9
		c0,0.3-0.1,0.6,0,0.9c0.1,0.4,0.4,0.8,0.8,0.7c0.1,0,0.3-0.1,0.4-0.2c0.7-0.4,1.7-0.3,2.3,0.3c0.1,0.1,0.2,0.2,0.2,0.4
		s-0.1,0.3-0.2,0.3c-0.2,0-0.3-0.2-0.5-0.4c-0.3-0.3-0.8-0.3-1.2-0.2c-0.3,0.1-0.7,0.2-1,0.3c-0.2,0.1-0.7,0.3-0.8,0.5
		s0.1,0.8,0.1,1C14.2,178.6,14.2,178.9,14.3,179.3z"/>
	<g>
		<path class="st8" d="M10,179c0-0.2,0.3-0.2,0.4-0.1c0.1,0.2,0.1,0.3,0.2,0.4c0.1,0.3,0.2,0.4,0.4,0.5c0.4,0.2,0.7,0.3,1.1,0.4
			c0.2,0,0.2,0.3,0,0.4c-1,0.4-2.1-0.1-2.2-1.2C10,179.3,10,179.2,10,179z"/>
	</g>
	<g>
		<path class="st8" d="M16.5,180c0.8-0.5,0.9-1.2,1.2-1.8c0.1-0.2,0.3-0.2,0.4,0c0.1,0.5,0.1,1-0.1,1.4c-0.3,0.5-0.8,0.8-1.3,0.7
			C16.4,180.3,16.3,180.1,16.5,180z"/>
	</g>
	<g>
		<path class="st8" d="M15.1,172.5c-0.2-0.1-0.2-0.3,0-0.4c0.5-0.1,1.1,0,1.7,0.3c0.5,0.4,0.8,0.9,0.8,1.5c0,0.2-0.2,0.3-0.3,0.1
			C16.6,173.2,16,172.8,15.1,172.5z"/>
	</g>
	<g>
		<path class="st8" d="M9.7,175.7c0,0.2-0.3,0.2-0.4,0c-0.2-0.5-0.1-1.1,0.2-1.6s0.8-0.8,1.3-0.9c0.2,0,0.3,0.2,0.1,0.3
			C10.3,174.1,10,174.7,9.7,175.7z"/>
	</g>
</g>
<g>
	<path class="st4" d="M22.1,192.6c-0.3,0.9-1,1.7-1.8,2.2c-1.4,0.9-4,1.5-6.2,1.6l0,0c-1.3,0.1-2.5,0-3.1-0.3
		c-3.3-1.5-3.1-10.1-2.9-10.7c0.1-0.6,0.5-1.1,1-1.4c1.6-1.2,4.7-1.7,7.4-1.6c1.1,0,2.2,0.2,3,0.4c0.8,0.3,1.5,0.7,1.9,1.4
		C22.2,186,22.6,191.2,22.1,192.6z"/>
	<path class="st5" d="M22.1,192.6c-0.3,0.9-1,1.7-1.8,2.2c-1.4,0.9-4,1.5-6.2,1.6l0,0c-0.7,0-1.3-0.2-1.6-0.3
		c-3.3-1.5-3.1-10.1-2.9-10.7c0.1-0.6,0.5-1.1,1-1.4c1.3-1,3.6-1.5,5.9-1.6c1.1,0,2.2,0.2,3,0.4c0.8,0.3,1.5,0.7,1.9,1.4
		C22.2,186,22.6,191.2,22.1,192.6z"/>
	<path class="st6" d="M14.3,195.6c-0.8-0.1-1.2-0.2-1.3-0.2c-1-0.5-1.8-2.3-2.2-4.9c-0.4-2.4-0.3-4.6-0.2-4.9
		c0.1-0.3,0.3-0.6,0.6-0.9c1-0.8,3.1-1.3,5.5-1.4c1.1,0,2,0.2,2.7,0.4c0.6,0.2,1.1,0.6,1.4,1c0.8,1.5,1.2,6.6,0.8,7.7
		c-0.2,0.7-0.7,1.3-1.5,1.8C19,194.9,16.6,195.5,14.3,195.6z"/>
	<path class="st7" d="M14.5,189.7c-0.2-0.1-0.5-0.4-0.4-0.6c0.1-0.2,0.5-0.3,0.7-0.1c0.2,0.1,0.4,0.4,0.6,0.5c0.2,0.2,0.6,0.2,0.7,0
		c0.1-0.1,0.1-0.2,0.1-0.4c0-0.6-0.3-1.1-0.8-1.5c-0.2-0.2-0.4-0.3-0.6-0.5c-0.2-0.2-0.4-0.4-0.4-0.6c0-0.3,0.1-0.6,0.4-0.6
		c0.3-0.1,0.5,0.2,0.7,0.4s0.5,0.4,0.8,0.3c0.3-0.1,0.3-0.4,0.4-0.7s0.3-0.6,0.5-0.5c0.2,0,0.3,0.3,0.3,0.4c0,0.2-0.1,0.4-0.2,0.5
		c-0.4,0.9-0.6,1.8-0.6,2.8c0,0.2,0,0.3,0.2,0.4c0.2,0.2,0.5,0,0.7-0.2c0.5-0.4,1.2-0.7,1.8-0.7c0.2,0,0.5,0,0.6,0.2s0,0.4-0.2,0.5
		s-0.4,0.1-0.6,0.2c-0.5,0.1-1.1,0.2-1.6,0.4c-0.9,0.5-1.3,1.8-0.9,2.7c0.1,0.3,0.3,0.5,0.3,0.8s-0.1,0.6-0.4,0.6
		c-0.2,0-0.4-0.2-0.5-0.3c-0.1-0.2-0.1-0.4-0.1-0.6c0-0.5,0-1,0.1-1.5c0-0.4,0.1-0.9-0.2-1.2C15.5,190.1,14.9,189.9,14.5,189.7z"/>
	<g>
		<path class="st8" d="M13.7,185.2c0.2,0,0.2,0.2,0,0.4c-0.6,1.1-0.8,2.3-0.6,3.5c0,0.2,0,0.3,0.1,0.5c0.1,1.2,0.4,1.8,0.8,2.9
			c0.1,0.3-0.3,0.4-0.4,0.2c-1.3-1.7-2.2-5.6-0.4-7.3C13.3,185.3,13.5,185.2,13.7,185.2z"/>
	</g>
	<g>
		<path class="st8" d="M19,193.1c0.6-0.6,0.7-1.5,1.1-2.2c0.1-0.2,0.4-0.2,0.5,0c0.2,0.5,0.2,1.1,0,1.6c-0.3,0.7-0.9,1-1.4,1
			C19,193.4,18.9,193.2,19,193.1z"/>
	</g>
	<g>
		<path class="st8" d="M18.7,185.1c-0.2-0.1-0.2-0.3-0.1-0.4c0.8-0.5,1.8,0.1,1.9,1.3c0,0.2,0,0.4,0,0.6c0,0.2-0.3,0.2-0.4,0.1
			c-0.4-0.5-0.7-1-0.8-1.2C19.1,185.2,19,185.1,18.7,185.1z"/>
	</g>
</g>
<g>
	<path class="st4" d="M21.9,209.1c-0.8,0.3-1.7,0.5-2.5,0.7c-2.5,0.5-4.7,0.5-5.6-0.3c-1.2-1.1-3-6.5-2.8-9.6c0.1-2.3,2.8-3.5,4.3-4
		l0,0c0.6-0.2,1-0.3,1-0.3c5.3-1.2,6.1,0,7,0.7s2.1,5.8,2.3,7.9C25.8,206.5,25.3,208,21.9,209.1z"/>
	<path class="st5" d="M21.9,209.1c-0.8,0.3-1.7,0.5-2.5,0.7c-1.9,0.3-3.5,0.2-4.3-0.5c-1.2-1.1-3-6.6-2.8-9.8c0.1-1.7,1.6-2.8,3-3.5
		l0,0c0.6-0.2,1-0.3,1-0.3c5.3-1.2,6.1,0,7,0.7s2.1,5.8,2.3,7.9C25.8,206.5,25.3,208,21.9,209.1z"/>
	<path class="st6" d="M16.8,208.7c-0.7-0.1-0.9-0.3-1-0.3c-0.8-0.8-2.6-5.9-2.4-8.9c0.1-1.2,1.3-2,2.3-2.5c0.5-0.1,0.8-0.2,0.8-0.2
		c1.7-0.4,3.6-0.7,4.6-0.6c0.6,0.1,1,0.2,1.3,0.4c0.5,0.4,0.9,0.9,1.1,1.5c0.5,1.5,1.2,4.3,1.4,6.2c0.2,1.6-0.5,2.8-3.4,3.7
		c-0.8,0.3-1.6,0.5-2.4,0.6C18.2,208.8,17.4,208.8,16.8,208.7z"/>
	<path class="st7" d="M21.9,206.4c0.2,0,0.5,0,0.7-0.2c0.1-0.2,0-0.5-0.3-0.6c-0.2-0.1-0.5-0.1-0.7,0c-0.2,0-0.5,0.1-0.7,0
		c-0.4-0.1-0.6-0.5-0.7-0.8c-0.2-0.5-0.4-0.9-0.7-1.4c-0.1-0.1-0.1-0.2-0.1-0.4c0-0.3,0.3-0.5,0.5-0.5c0.3,0,0.5,0,0.8,0.1
		c0.6,0.1,1.3,0.1,1.9,0c0.2,0,0.4-0.1,0.5-0.2c0.1-0.1,0.2-0.4,0.1-0.5s-0.3-0.1-0.4-0.1c-0.6,0-1.2-0.1-1.8-0.1
		c-0.4,0-0.9,0-1.3,0.1c-0.4,0.2-0.7,0.5-1.1,0.8c0,0-0.1,0-0.1-0.1c0.2-1.2,0.6-2.4,1.4-3.4c0.2-0.2,0.4-0.5,0.4-0.7
		c0-0.3-0.2-0.6-0.4-0.6c-0.3,0-0.4,0.3-0.5,0.5c-0.1,0.4-0.1,0.8-0.7,0.9c-0.2,0-0.4,0-0.6-0.1c-0.6-0.2-1.3-0.3-1.9-0.3
		c-0.1,0-0.3,0-0.4,0.1c-0.1,0.2,0,0.4,0.1,0.5c0.2,0.1,0.4,0.1,0.6,0.1s0.4-0.1,0.6,0c0.3,0.1,0.5,0.3,0.5,0.6
		c0.1,0.3,0.1,0.6,0.1,0.8c0,0.6-0.1,1.2-0.2,1.8c-0.2,0.6-0.5,1.1-1.1,1.4c-0.2,0.1-0.4,0.2-0.4,0.4s0.1,0.5,0.4,0.5
		c0.4,0.1,0.8-0.1,1-0.4c0.3-0.3,0.7-0.7,1.2-0.6c0.4,0.1,0.7,0.3,0.8,0.7c0.2,0.6,0,1.2-0.4,1.6c-0.2,0.3-0.5,0.6,0,0.8
		c0.4,0.2,0.8-0.2,1.2-0.4C20.8,206.5,21.3,206.4,21.9,206.4z"/>
	<g>
		<path class="st8" d="M21.5,197.7c-0.1-0.1,0-0.3,0.2-0.3s0.5,0.1,0.7,0.3c0.6,0.6,0.8,1.6,0.6,2.5c0,0.2-0.2,0.2-0.4,0.1
			c-0.5-0.5-0.9-1.3-1-2.1C21.6,198.1,21.6,197.9,21.5,197.7z"/>
	</g>
	<g>
		<path class="st8" d="M23.6,203.3c0.9,0.6,0.7,1.9,0,2.3c-0.1,0.1-0.3,0-0.3-0.1c-0.1-0.3-0.2-0.7-0.2-1s0.1-0.7,0.2-1
			C23.3,203.3,23.5,203.2,23.6,203.3z"/>
	</g>
	<g>
		<path class="st8" d="M15.4,199.7c0.2,1,0.2,2.5,0,3.5c0,0.2-0.3,0.2-0.4,0.1c-0.7-1-0.7-2.7,0-3.7
			C15.1,199.5,15.4,199.5,15.4,199.7z"/>
	</g>
	<g>
		<path class="st8" d="M15.8,206.1c0.1-0.2,0.3-0.2,0.4-0.1c0.3,0.3,0.4,0.6,0.8,0.8c0.3,0.2,0.7,0.3,1.1,0.5c0.1,0.1,0.2,0.3,0,0.4
			c-0.6,0.4-1.3,0.5-1.8,0.1C15.8,207.5,15.6,206.8,15.8,206.1z"/>
	</g>
</g>
<g>
	<path class="st4" d="M18.3,210.4c-0.9,0.5-1.7,1-2.2,1.9c-0.6,1.1-0.6,3.2,0.3,4.8c0.5,1,1.4,1.8,2.5,2.1c1,0.3,2.1,0.2,3.1,0
		c3.5-0.8,4.7-3,3.9-5.7c-0.5-1.6-1.4-3.5-3-4C21.3,209,19.7,209.6,18.3,210.4z"/>
	<path class="st5" d="M18.8,210.3c-0.9,0.5-1.7,1-2.2,1.9c-0.6,1.1-0.6,3.2,0.3,4.8c0.5,1,1.4,1.8,2.5,2.1c1,0.3,2.1,0.2,3.1,0
		c3.5-0.8,4.7-3,3.9-5.7c-0.5-1.6-1.4-3.5-3-4C21.8,208.9,20.2,209.5,18.8,210.3z"/>
	<path class="st6" d="M20.7,218.4c-0.3,0-0.6-0.1-0.9-0.2c-0.8-0.3-1.6-0.9-2.1-1.7c-0.8-1.5-0.7-3.3-0.3-4.1
		c0.4-0.7,1.1-1.2,1.9-1.6c0.9-0.5,2.1-1.1,3.2-1c0.3,0,0.5,0.1,0.8,0.1c1.5,0.5,2.3,2.7,2.6,3.6c0.3,1.1,0.3,2-0.2,2.8
		c-0.5,0.9-1.6,1.6-3.2,1.9C21.8,218.4,21.2,218.5,20.7,218.4L20.7,218.4z"/>
	<path class="st7" d="M21.3,217.8c-0.1,0-0.1,0.1-0.2,0.1s-0.2,0-0.2-0.1c-0.1-0.1,0-0.2,0.1-0.3s0.2-0.1,0.3-0.1
		c0.4-0.2,0.7-0.6,0.8-1c0.1-0.4,0.1-0.9,0.1-1.3c0-0.2,0-0.4-0.1-0.6c-0.1-0.2-0.2-0.3-0.4-0.4c-0.2,0-0.4,0-0.5,0
		c-0.2-0.1-0.2-0.4-0.1-0.6c0.1-0.2,0.1-0.4,0.1-0.6c-0.1-0.2-0.3-0.4-0.6-0.4c-0.2,0-0.5,0.1-0.7,0.2c-0.3,0.1-0.6,0.2-0.8,0.4
		c-0.1,0.1-0.3,0.1-0.4,0s-0.1-0.2-0.1-0.3c0.1-0.4,0.4-0.6,0.8-0.6c0.4-0.1,0.7-0.1,1.1-0.2c0.8-0.2,1.4-1.1,2.2-1.1
		c0.1,0.2,0,0.5-0.2,0.7s-0.5,0.3-0.7,0.5c-0.3,0.3-0.2,0.9,0.2,1.2c0.2,0.1,0.4,0.2,0.5,0.3c0.2,0.2,0.3,0.5,0.2,0.7
		c0,0.3-0.1,0.5-0.1,0.8s0.1,0.6,0.3,0.7c0.3,0.2,0.6,0.1,0.9,0c0.2,0,0.5,0.1,0.4,0.3c-0.1,0.1-0.3,0.2-0.4,0.2
		c-0.2,0.1-0.3,0.2-0.5,0.2c-0.3,0.2-0.6,0.3-0.9,0.5C22,217.4,21.7,217.6,21.3,217.8z"/>
	<g>
		<path class="st8" d="M23.7,211.9c-0.1-0.1,0-0.3,0.2-0.3c0.2,0.1,0.3,0.2,0.5,0.4c0.3,0.4,0.7,1.2,0.7,2c0,0.2,0,0.4-0.1,0.6
			c0,0.2-0.3,0.2-0.3,0s-0.1-0.3-0.1-0.5c-0.1-0.3-0.2-0.6-0.3-0.9C24,212.6,24,212.2,23.7,211.9z"/>
	</g>
	<g>
		<path class="st8" d="M18.3,214.2c0.3,1.1,0.8,1.9,1.3,2.7c0.1,0.1-0.1,0.3-0.2,0.2c-0.5-0.3-0.9-0.8-1.2-1.3
			c-0.3-0.6-0.4-1.2-0.2-1.7C18,214.1,18.2,214.1,18.3,214.2z"/>
	</g>
</g>
<g>
	<path class="st4" d="M30.4,222.8c-0.1,1.2-2.1,2.9-3.3,3.8c-0.4,0.3-0.7,0.5-0.9,0.5c-0.9,0.4-1.8,0.4-3.1-0.1
		c-1.2-0.5-2.3-2.7-2.6-3.6c-0.1-0.3-0.1-0.7,0-1.2c0.2-0.8,0.7-1.6,1.3-2.2c0.2-0.1,0.3-0.3,0.5-0.4c1.9-1.3,4.5-1.7,5.2-1.5
		C28.4,218.4,30.5,221.3,30.4,222.8z"/>
	<path class="st5" d="M26.9,226.8c-0.4,0.3-1.1,0.6-1.4,0.7c-1,0.3-2.1,0.1-3.1-0.7s-1.8-2.2-2.1-3.3c-0.1-0.3-0.1-0.7,0-1.2
		c0.2-0.8,0.7-1.6,1.3-2.2c1.9-1.2,4.4-1.6,5.1-1.4c0.9,0.2,3,3,2.9,4.6C29.6,224.4,28.2,225.8,26.9,226.8z"/>
	<path class="st6" d="M21.8,221.4c0.7-0.9,1.7-1.5,2.8-1.5c1.8,0,4.2,3.4,3.5,4.8c-0.6,1.2-1.3,1.8-2.8,2.2
		c-1.4,0.4-2.3-0.4-3.3-1.8C21.3,224.2,20.9,222.5,21.8,221.4z"/>
	<path class="st8" d="M24.6,226.4c0.2-0.1,0.3-0.2,0.3-0.3s-0.1-0.2-0.2-0.2c-1.1-0.8-1.9-1.9-2.4-3.2c0-0.1-0.1-0.2-0.1-0.3
		c-0.2-0.2-0.5-0.1-0.5,0.2s0.1,0.7,0.1,1C22,224.5,23.7,226.7,24.6,226.4z"/>
</g>
<g>
	<path class="st4" d="M36,232.1c-0.5,1.5-1.3,2.8-2.2,3.2c-2.3,1-6-1.5-7-3.8c-0.6-1.3-0.3-2.5,0.6-3.7c0.7-0.9,1.7-1.7,2.9-2.6
		c2.8-1.9,5.1,0.1,5.1,0.1C37.2,226.9,36.7,229.7,36,232.1z"/>
	<path class="st5" d="M36.1,231.1c-0.1,0.9-0.4,1.7-0.8,2.5c-0.4,0.8-1,1.4-1.5,1.6c-2.3,1-6-1.5-7-3.8c-0.4-0.9-0.4-1.8-0.1-2.6
		c0.3-0.7,0.7-1.2,1.3-1.6c0.2-0.1,0.4-0.3,0.6-0.4c1.3-0.9,2.7-1.5,3.7-1.5c1.5-0.1,3.2,1.2,3.6,2.6
		C36.3,228.9,36.3,230,36.1,231.1z"/>
	<path class="st6" d="M32.7,235c-1.8,0.1-4.9-2.2-5.6-3.8c-0.3-0.6-0.3-1.1,0-1.7c0.2-0.4,0.5-0.8,0.9-1.1c0.2-0.1,0.4-0.3,0.6-0.4
		c1.9-1.1,6,2.3,6.4,3.7c0.2,0.8-0.2,1.5-0.5,2.2c-0.5,0.8-1.1,1-1.2,1C33.1,234.9,32.9,235,32.7,235z"/>
	<path class="st8" d="M32.9,234.3c0.2-0.1,0.4-0.3,0.3-0.5c-0.1-0.1-0.2-0.2-0.4-0.2c-1.9-0.7-3.5-1.8-4.6-3.2
		c-0.1-0.1-0.2-0.2-0.3-0.3c-0.4-0.3-0.8,0-0.7,0.3c0.1,0.4,0.3,0.8,0.5,1.2C28.4,232.7,31.7,235,32.9,234.3z"/>
</g>
<g>
	<path class="st4" d="M42.1,238.9c0,0-1,2-4.2,0.3c-3.9-2-3-3.6-3-3.6c0.3-0.8,1-2,1-2.1c0.8-1.3,1.9-3,3.3-4.1c0,0,1-0.8,2.3-0.3
		c0,0,1.7,0.4,1.8,2C43.4,232.8,42.9,237.2,42.1,238.9z"/>
	<path class="st5" d="M43,235.1c0,0.1-0.4,2.6-0.9,3.8c0,0-1,2-4.2,0.3c-3.9-2-3-3.6-3-3.6c0.3-0.8,1-2,1-2.1c0.8-1.1,1.9-2.3,3-3.2
		c0,0,1-0.8,2.3-0.3c0,0,1.7,0.4,1.8,2C43,232.7,43.1,233.8,43,235.1z"/>
	<path class="st6" d="M40.3,239.6c-0.6,0-1.3-0.2-2.1-0.6c-2.6-1.3-3-2.4-2.9-2.7s0.2-0.5,0.4-0.9c0.6-0.9,1.6-1.5,2.6-1.2
		s2.2,0.8,3,1.5c0.7,0.6,1,1.6,0.7,2.4c-0.1,0.3-0.2,0.6-0.4,1C41.5,239.2,41.2,239.6,40.3,239.6z"/>
	<path class="st8" d="M40.8,239.1c0.2-0.1,0.3-0.3,0.2-0.4c-0.1-0.1-0.2-0.1-0.3-0.2c-1.6-0.4-3.1-1.2-4.1-2.2
		c-0.1-0.1-0.2-0.2-0.3-0.2c-0.3-0.2-0.7,0.1-0.6,0.4C36.1,237.6,39.8,239.8,40.8,239.1z"/>
</g>
<g>
	<path class="st4" d="M49.6,241.1c-1.2,0.2-4.6-0.1-5.6-0.3s-0.7-1.9-0.7-1.9s0.2-1.2,0.4-2.5c0.3-1.4,0.6-3,0.8-3.6
		c0.5-1.3,0.6-2.2,2.7-2.2c2.1,0,2.4,2,2.6,2.7c0.1,0.3,0.3,1.8,0.4,3.4l0,0C50.4,238.7,50.3,241,49.6,241.1z"/>
	<path class="st5" d="M49.6,241.1c-1.2,0.2-4.6-0.1-5.6-0.3s-0.7-1.9-0.7-1.9s0.2-1.2,0.4-2.5c0.2-1.2,0.6-2.2,0.7-2.7
		c0.5-1.3,0.8-2.2,2.9-2.2s2.3,2.4,2.5,3.1c0,0.1,0.1,0.4,0.2,0.7c0.2,0.9,0.2,1.8,0.2,2.7C50.4,239.6,50.2,241,49.6,241.1z"/>
	<path class="st6" d="M44.3,240.4c-0.2-0.1-0.5-0.5-0.5-0.7s0.2-1.8,0.4-2.1c0.4-0.6,5.6-0.6,5.6,0.7c0,1-0.1,1.6-0.2,2
		c0,0.2-0.4,0.4-0.6,0.5C48.1,241,45.3,240.8,44.3,240.4z"/>
	<path class="st8" d="M49.4,239.9c0.1-0.1,0.2-0.3,0-0.3c-0.1-0.1-0.2,0-0.4,0.1c-1.4,0.4-2.9,0.3-4.1-0.2c-0.1,0-0.3-0.1-0.4-0.1
		c-0.3-0.1-0.6,0.1-0.4,0.3C44.9,240.4,48.8,240.8,49.4,239.9z"/>
</g>
<g>
	<path class="st4" d="M85.2,182.1c1.1,0.2,2.2,0.3,3.2,0.3l0,0c2.8,0.1,5.3-0.4,5.9-1.1c1-1.2,1.2-4.6,1.2-6.1
		c0-0.9-0.1-1.9-0.7-2.7c-1.2-1.7-4.7-2.4-7.4-2.2l0,0c-0.8,0-1.5,0.1-2.1,0.3c-3.4,0.9-3.5,3.2-3.5,5.4
		C81.6,180.4,82.1,181.5,85.2,182.1z"/>
	<path class="st5" d="M85.2,182.1c1.1,0.2,2.2,0.3,3.2,0.3l0,0c2.2-0.1,4-0.5,4.5-1.1c1-1.2,1.2-4.6,1.2-6.1c0-0.9-0.1-1.9-0.7-2.7
		c-1-1.4-3.6-2.1-5.9-2.2l0,0c-0.8,0-1.5,0.1-2.1,0.3c-3.4,0.9-3.5,3.2-3.5,5.4C81.6,180.4,82.1,181.5,85.2,182.1z"/>
	<path class="st6" d="M88.2,181.7c2.5-0.1,3.7-0.6,3.9-0.8c0.6-0.8,1-3.5,1-5.7c0-1-0.2-1.8-0.5-2.3c-0.7-1-2.8-1.8-5.4-1.9
		c-0.8,0-1.4,0.1-2,0.3c-2.8,0.8-2.9,2.3-2.9,4.7v0.1c-0.1,2.3,0,3.5,0.4,4.1c0.3,0.5,0.8,0.9,2.3,1.1
		C86.1,181.5,87.1,181.6,88.2,181.7z"/>
	<path class="st7" d="M87.3,179.3c0,0.3-0.1,0.7-0.3,1c-0.2,0.3-0.5,0.6-0.8,0.6c0.2,0.3,0.8,0.2,1.1-0.1c0.3-0.3,0.3-0.7,0.4-1.2
		s0.1-1,0.2-1.4c0-0.2,0.1-0.5,0.3-0.7c0.2-0.2,0.5-0.2,0.8-0.1c0.3,0.1,0.5,0.2,0.8,0.2s0.6-0.2,0.9-0.3c0.5-0.1,1.2,0.1,1.5,0.5
		c0.1-0.4-0.1-0.8-0.5-1s-0.8-0.1-1.2,0c-0.4,0.1-0.8,0.2-1.2,0.2c-0.6,0-1.2-0.5-1.4-1c-0.2-0.6-0.1-1.3,0.3-1.7
		c0.1-0.2,0.3-0.3,0.5-0.4c0.1-0.2,0.2-0.4,0.2-0.6c-0.1-0.3-0.5-0.4-0.7-0.3c-0.3,0.1-0.5,0.4-0.5,0.7c-0.1,0.3,0,0.6,0,0.9
		c0,0.3,0.1,0.6,0,0.9c-0.1,0.4-0.4,0.8-0.8,0.7c-0.1,0-0.3-0.1-0.4-0.2c-0.7-0.4-1.7-0.3-2.3,0.3c-0.1,0.1-0.2,0.2-0.2,0.4
		s0.1,0.3,0.2,0.3c0.2,0,0.3-0.2,0.5-0.4c0.3-0.3,0.8-0.3,1.2-0.2c0.3,0.1,0.7,0.2,1,0.3c0.2,0.1,0.7,0.3,0.8,0.5
		c0.1,0.2-0.1,0.8-0.1,1C87.4,178.6,87.3,178.9,87.3,179.3z"/>
	<g>
		<path class="st8" d="M91.5,179c0-0.2-0.3-0.2-0.4-0.1c-0.1,0.2-0.1,0.3-0.2,0.4c-0.1,0.3-0.2,0.4-0.4,0.5
			c-0.4,0.2-0.7,0.3-1.1,0.4c-0.2,0-0.2,0.3,0,0.4c1,0.4,2.1-0.1,2.2-1.2C91.5,179.3,91.5,179.2,91.5,179z"/>
	</g>
	<g>
		<path class="st8" d="M85,180c-0.8-0.5-0.9-1.2-1.2-1.8c-0.1-0.2-0.3-0.2-0.4,0c-0.1,0.5-0.1,1,0.1,1.4c0.3,0.5,0.8,0.8,1.3,0.7
			C85.1,180.3,85.2,180.1,85,180z"/>
	</g>
	<g>
		<path class="st8" d="M86.5,172.5c0.2-0.1,0.2-0.3,0-0.4c-0.5-0.1-1.1,0-1.7,0.3c-0.5,0.4-0.8,0.9-0.8,1.5c0,0.2,0.2,0.3,0.3,0.1
			C84.9,173.2,85.5,172.8,86.5,172.5z"/>
	</g>
	<g>
		<path class="st8" d="M91.8,175.7c0,0.2,0.3,0.2,0.4,0c0.2-0.5,0.1-1.1-0.2-1.6c-0.3-0.5-0.8-0.8-1.4-0.9c-0.2,0-0.3,0.2-0.1,0.3
			C91.2,174.1,91.5,174.7,91.8,175.7z"/>
	</g>
</g>
<g>
	<path class="st4" d="M79.4,192.6c0.3,0.9,1,1.7,1.8,2.2c1.4,0.9,4,1.5,6.2,1.6l0,0c1.3,0.1,2.5,0,3.1-0.3
		c3.3-1.5,3.1-10.1,2.9-10.7c-0.1-0.6-0.5-1.1-1-1.4c-1.6-1.2-4.7-1.7-7.4-1.6c-1.1,0-2.2,0.2-3,0.4c-0.8,0.3-1.5,0.7-1.9,1.4
		C79.3,186,78.9,191.2,79.4,192.6z"/>
	<path class="st5" d="M79.4,192.6c0.3,0.9,1,1.7,1.8,2.2c1.4,0.9,4,1.5,6.2,1.6l0,0c0.7,0,1.3-0.2,1.6-0.3
		c3.3-1.5,3.1-10.1,2.9-10.7c-0.1-0.6-0.5-1.1-1-1.4c-1.3-1-3.6-1.5-5.9-1.6c-1.1,0-2.2,0.2-3,0.4c-0.8,0.3-1.5,0.7-1.9,1.4
		C79.3,186,78.9,191.2,79.4,192.6z"/>
	<path class="st6" d="M87.2,195.6c0.8-0.1,1.2-0.2,1.3-0.2c1-0.5,1.8-2.3,2.2-4.9c0.4-2.4,0.3-4.6,0.2-4.9c-0.1-0.3-0.3-0.6-0.6-0.9
		c-1-0.8-3.1-1.3-5.5-1.4c-1.1,0-2,0.2-2.7,0.4c-0.6,0.2-1.1,0.6-1.4,1c-0.8,1.5-1.2,6.6-0.8,7.7c0.2,0.7,0.7,1.3,1.5,1.8
		C82.5,194.9,84.9,195.5,87.2,195.6z"/>
	<path class="st7" d="M87,189.7c0.2-0.1,0.5-0.4,0.4-0.6c-0.1-0.2-0.5-0.3-0.7-0.1c-0.2,0.1-0.4,0.4-0.6,0.5c-0.2,0.2-0.6,0.2-0.7,0
		c-0.1-0.1-0.1-0.2-0.1-0.4c0-0.6,0.3-1.1,0.8-1.5c0.2-0.2,0.4-0.3,0.6-0.5s0.4-0.4,0.4-0.6c0-0.3-0.1-0.6-0.4-0.6
		c-0.3-0.1-0.5,0.2-0.7,0.4s-0.5,0.4-0.8,0.3c-0.3-0.1-0.3-0.4-0.4-0.7s-0.3-0.6-0.5-0.5c-0.2,0-0.3,0.3-0.3,0.4
		c0,0.2,0.1,0.4,0.2,0.5c0.4,0.9,0.6,1.8,0.6,2.8c0,0.2,0,0.3-0.2,0.4c-0.2,0.2-0.5,0-0.7-0.2c-0.5-0.4-1.2-0.7-1.8-0.7
		c-0.2,0-0.5,0-0.6,0.2s0,0.4,0.2,0.5s0.4,0.1,0.6,0.2c0.5,0.1,1.1,0.2,1.6,0.4c0.9,0.5,1.3,1.8,0.9,2.7c-0.1,0.3-0.3,0.5-0.3,0.8
		s0.1,0.6,0.4,0.6c0.2,0,0.4-0.2,0.5-0.3c0.1-0.2,0.1-0.4,0.1-0.6c0-0.5,0-1-0.1-1.5c0-0.4-0.1-0.9,0.2-1.2
		C86,190.1,86.6,189.9,87,189.7z"/>
	<g>
		<path class="st8" d="M87.8,185.2c-0.2,0-0.2,0.2,0,0.4c0.6,1.1,0.8,2.3,0.6,3.5c0,0.2,0,0.3-0.1,0.5c-0.1,1.2-0.4,1.8-0.8,2.9
			c-0.1,0.3,0.3,0.4,0.4,0.2c1.3-1.7,2.2-5.6,0.4-7.3C88.2,185.3,88,185.2,87.8,185.2z"/>
	</g>
	<g>
		<path class="st8" d="M82.5,193.1c-0.6-0.6-0.7-1.5-1.1-2.2c-0.1-0.2-0.4-0.2-0.5,0c-0.2,0.5-0.2,1.1,0,1.6c0.3,0.7,0.9,1,1.4,1
			C82.5,193.4,82.6,193.2,82.5,193.1z"/>
	</g>
	<g>
		<path class="st8" d="M82.8,185.1c0.2-0.1,0.2-0.3,0.1-0.4c-0.8-0.5-1.8,0.1-1.9,1.3c0,0.2,0,0.4,0,0.6c0,0.2,0.3,0.2,0.4,0.1
			c0.4-0.5,0.7-1,0.8-1.2C82.4,185.2,82.6,185.1,82.8,185.1z"/>
	</g>
</g>
<g>
	<path class="st4" d="M79.9,209.4c0.8,0.3,1.7,0.5,2.5,0.7c2.5,0.5,4.7,0.5,5.6-0.3c1.2-1.1,3-6.5,2.8-9.6c-0.1-2.3-2.8-3.5-4.3-4
		l0,0c-0.6-0.2-1-0.3-1-0.3c-5.3-1.2-6.1,0-7,0.7s-2.1,5.8-2.3,7.9C76,206.8,76.5,208.3,79.9,209.4z"/>
	<path class="st5" d="M79.9,209.4c0.8,0.3,1.7,0.5,2.5,0.7c1.9,0.3,3.5,0.2,4.3-0.5c1.2-1.1,3-6.6,2.8-9.8c-0.1-1.7-1.6-2.8-3-3.5
		l0,0c-0.6-0.2-1-0.3-1-0.3c-5.3-1.2-6.1,0-7,0.7s-2.1,5.8-2.3,7.9C76,206.8,76.5,208.3,79.9,209.4z"/>
	<path class="st6" d="M85,209c0.7-0.1,0.9-0.3,1-0.3c0.8-0.8,2.6-5.9,2.4-8.9c-0.1-1.2-1.3-2-2.3-2.5c-0.5-0.1-0.8-0.2-0.8-0.2
		c-1.7-0.4-3.6-0.7-4.6-0.6c-0.6,0.1-1,0.2-1.3,0.4c-0.5,0.4-0.9,0.9-1.1,1.5c-0.5,1.5-1.2,4.3-1.4,6.2c-0.2,1.6,0.5,2.8,3.4,3.7
		c0.8,0.3,1.6,0.5,2.4,0.6S84.3,209.1,85,209z"/>
	<path class="st7" d="M79.9,206.6c-0.2,0-0.5,0-0.7-0.2c-0.1-0.2,0-0.5,0.3-0.6c0.2-0.1,0.5-0.1,0.7,0c0.2,0,0.5,0.1,0.7,0
		c0.4-0.1,0.6-0.5,0.7-0.8c0.2-0.5,0.4-0.9,0.7-1.4c0.1-0.1,0.1-0.2,0.1-0.4c0-0.3-0.3-0.5-0.5-0.5c-0.3,0-0.5,0-0.8,0.1
		c-0.6,0.1-1.3,0.1-1.9,0c-0.2,0-0.4-0.1-0.5-0.2c-0.1-0.1-0.2-0.4-0.1-0.5s0.3-0.1,0.4-0.1c0.6,0,1.2-0.1,1.8-0.1
		c0.4,0,0.9,0,1.3,0.1c0.4,0.2,0.7,0.5,1.1,0.8c0,0,0.1,0,0.1-0.1c-0.2-1.2-0.6-2.4-1.4-3.4c-0.2-0.2-0.4-0.5-0.4-0.7
		c0-0.3,0.2-0.6,0.4-0.6c0.3,0,0.4,0.3,0.5,0.5c0.1,0.4,0.1,0.8,0.7,0.9c0.2,0,0.4,0,0.6-0.1c0.6-0.2,1.3-0.3,1.9-0.3
		c0.1,0,0.3,0,0.4,0.1c0.1,0.2,0,0.4-0.1,0.5c-0.2,0.1-0.4,0.1-0.6,0.1s-0.4-0.1-0.6,0c-0.3,0.1-0.5,0.3-0.5,0.6
		c-0.1,0.3-0.1,0.6-0.1,0.8c0,0.6,0.1,1.2,0.2,1.8c0.2,0.6,0.5,1.1,1.1,1.4c0.2,0.1,0.4,0.2,0.4,0.4s-0.1,0.5-0.4,0.5
		c-0.4,0.1-0.8-0.1-1-0.4c-0.3-0.3-0.7-0.7-1.2-0.6c-0.4,0.1-0.7,0.3-0.8,0.7c-0.2,0.6,0,1.2,0.4,1.6c0.2,0.3,0.5,0.6,0,0.8
		c-0.4,0.2-0.8-0.2-1.2-0.4C81,206.8,80.5,206.6,79.9,206.6z"/>
	<g>
		<path class="st8" d="M80.3,198c0.1-0.1,0-0.3-0.2-0.3s-0.5,0.1-0.7,0.3c-0.6,0.6-0.8,1.6-0.6,2.5c0,0.2,0.2,0.2,0.4,0.1
			c0.5-0.5,0.9-1.3,1-2.1C80.2,198.3,80.2,198.2,80.3,198z"/>
	</g>
	<g>
		<path class="st8" d="M78.2,203.6c-0.9,0.6-0.7,1.9,0,2.3c0.1,0.1,0.3,0,0.3-0.1c0.1-0.3,0.2-0.7,0.2-1s-0.1-0.7-0.2-1
			S78.3,203.5,78.2,203.6z"/>
	</g>
	<g>
		<path class="st8" d="M86.4,200c-0.2,1-0.2,2.5,0,3.5c0,0.2,0.3,0.2,0.4,0.1c0.7-1,0.7-2.7,0-3.7C86.6,199.8,86.4,199.8,86.4,200z"
			/>
	</g>
	<g>
		<path class="st8" d="M85.9,206.3c-0.1-0.2-0.3-0.2-0.4-0.1c-0.3,0.3-0.4,0.6-0.8,0.8c-0.3,0.2-0.7,0.3-1.1,0.5
			c-0.1,0.1-0.2,0.3,0,0.4c0.6,0.4,1.3,0.5,1.8,0.1C86,207.7,86.2,207,85.9,206.3z"/>
	</g>
</g>
<g>
	<path class="st4" d="M83.2,210.4c0.9,0.5,1.7,1,2.2,1.9c0.6,1.1,0.6,3.2-0.3,4.8c-0.5,1-1.4,1.8-2.5,2.1c-1,0.3-2.1,0.2-3.1,0
		c-3.5-0.8-4.7-3-3.9-5.7c0.5-1.6,1.4-3.5,3-4C80.2,209,81.8,209.6,83.2,210.4z"/>
	<path class="st5" d="M82.7,210.3c0.9,0.5,1.7,1,2.2,1.9c0.6,1.1,0.6,3.2-0.3,4.8c-0.5,1-1.4,1.8-2.5,2.1c-1,0.3-2.1,0.2-3.1,0
		c-3.5-0.8-4.7-3-3.9-5.7c0.5-1.6,1.4-3.5,3-4C79.7,208.9,81.3,209.5,82.7,210.3z"/>
	<path class="st6" d="M80.8,218.4c0.3,0,0.6-0.1,0.9-0.2c0.8-0.3,1.6-0.9,2.1-1.7c0.8-1.5,0.7-3.3,0.3-4.1c-0.4-0.7-1.1-1.2-1.9-1.6
		c-0.9-0.5-2.1-1.1-3.2-1c-0.3,0-0.5,0.1-0.8,0.1c-1.5,0.5-2.3,2.7-2.6,3.6c-0.3,1.1-0.3,2,0.2,2.8c0.5,0.9,1.6,1.6,3.2,1.9
		C79.7,218.4,80.3,218.5,80.8,218.4L80.8,218.4z"/>
	<path class="st7" d="M80.2,217.8c0.1,0,0.1,0.1,0.2,0.1s0.2,0,0.2-0.1c0.1-0.1,0-0.2-0.1-0.3s-0.2-0.1-0.3-0.1
		c-0.4-0.2-0.7-0.6-0.8-1c-0.1-0.4-0.1-0.9-0.1-1.3c0-0.2,0-0.4,0.1-0.6c0.1-0.2,0.2-0.3,0.4-0.4c0.2,0,0.4,0,0.5,0
		c0.2-0.1,0.2-0.4,0.1-0.6c-0.1-0.2-0.1-0.4-0.1-0.6c0.1-0.2,0.3-0.4,0.6-0.4c0.2,0,0.5,0.1,0.7,0.2c0.3,0.1,0.6,0.2,0.8,0.4
		c0.1,0.1,0.3,0.1,0.4,0s0.1-0.2,0.1-0.3c-0.1-0.4-0.4-0.6-0.8-0.6c-0.4-0.1-0.7-0.1-1.1-0.2c-0.8-0.2-1.4-1.1-2.2-1.1
		c-0.1,0.2,0,0.5,0.2,0.7s0.5,0.3,0.7,0.5c0.3,0.3,0.2,0.9-0.2,1.2c-0.2,0.1-0.4,0.2-0.5,0.3c-0.2,0.2-0.3,0.5-0.2,0.7
		c0,0.3,0.1,0.5,0.1,0.8s-0.1,0.6-0.3,0.7c-0.3,0.2-0.6,0.1-0.9,0c-0.2,0-0.5,0.1-0.4,0.3c0.1,0.1,0.3,0.2,0.4,0.2
		c0.2,0.1,0.3,0.2,0.5,0.2c0.3,0.2,0.6,0.3,0.9,0.5C79.5,217.4,79.8,217.6,80.2,217.8z"/>
	<g>
		<path class="st8" d="M77.8,211.9c0.1-0.1,0-0.3-0.2-0.3c-0.2,0.1-0.3,0.2-0.5,0.4c-0.3,0.4-0.7,1.2-0.7,2c0,0.2,0,0.4,0.1,0.6
			c0,0.2,0.3,0.2,0.3,0s0.1-0.3,0.1-0.5c0.1-0.3,0.2-0.6,0.3-0.9C77.5,212.6,77.6,212.2,77.8,211.9z"/>
	</g>
	<g>
		<path class="st8" d="M83.2,214.2c-0.3,1.1-0.8,1.9-1.3,2.7c-0.1,0.1,0.1,0.3,0.2,0.2c0.5-0.3,0.9-0.8,1.2-1.3
			c0.3-0.6,0.4-1.2,0.2-1.7C83.5,214.1,83.3,214.1,83.2,214.2z"/>
	</g>
</g>
<g>
	<path class="st4" d="M71.1,222.8c0.1,1.2,2.1,2.9,3.3,3.8c0.4,0.3,0.7,0.5,0.9,0.5c0.9,0.4,1.8,0.4,3.1-0.1
		c1.2-0.5,2.3-2.7,2.6-3.6c0.1-0.3,0.1-0.7,0-1.2c-0.2-0.8-0.7-1.6-1.3-2.2c-0.2-0.1-0.3-0.3-0.5-0.4c-1.9-1.3-4.5-1.7-5.2-1.5
		C73.1,218.4,71,221.3,71.1,222.8z"/>
	<path class="st5" d="M74.6,226.8c0.4,0.3,1.1,0.6,1.4,0.7c1,0.3,2.1,0.1,3.1-0.7s1.8-2.2,2.1-3.3c0.1-0.3,0.1-0.7,0-1.2
		c-0.2-0.8-0.7-1.6-1.3-2.2c-1.9-1.2-4.4-1.6-5.1-1.4c-0.9,0.2-3,3-2.9,4.6C71.9,224.4,73.4,225.8,74.6,226.8z"/>
	<path class="st6" d="M79.7,221.4c-0.7-0.9-1.7-1.5-2.8-1.5c-1.8,0-4.2,3.4-3.5,4.8c0.6,1.2,1.3,1.8,2.8,2.2
		c1.4,0.4,2.3-0.4,3.3-1.8C80.3,224.2,80.6,222.5,79.7,221.4z"/>
	<path class="st8" d="M76.9,226.4c-0.2-0.1-0.3-0.2-0.3-0.3s0.1-0.2,0.2-0.2c1.1-0.8,1.9-1.9,2.4-3.2c0-0.1,0.1-0.2,0.1-0.3
		c0.2-0.2,0.5-0.1,0.5,0.2s-0.1,0.7-0.1,1C79.5,224.5,77.8,226.7,76.9,226.4z"/>
</g>
<g>
	<path class="st4" d="M65.5,232.1c0.5,1.5,1.3,2.8,2.2,3.2c2.3,1,6-1.5,7-3.8c0.6-1.3,0.3-2.5-0.6-3.7c-0.7-0.9-1.7-1.7-2.9-2.6
		c-2.8-1.9-5.1,0.1-5.1,0.1C64.3,226.9,64.8,229.7,65.5,232.1z"/>
	<path class="st5" d="M65.4,231.1c0.1,0.9,0.4,1.7,0.8,2.5s1,1.4,1.5,1.6c2.3,1,6-1.5,7-3.8c0.4-0.9,0.4-1.8,0.1-2.6
		c-0.3-0.7-0.7-1.2-1.3-1.6c-0.2-0.1-0.4-0.3-0.6-0.4c-1.3-0.9-2.7-1.5-3.7-1.5c-1.5-0.1-3.2,1.2-3.6,2.6
		C65.2,228.9,65.2,230,65.4,231.1z"/>
	<path class="st6" d="M68.8,235c1.8,0.1,4.9-2.2,5.6-3.8c0.3-0.6,0.3-1.1,0-1.7c-0.2-0.4-0.5-0.8-0.9-1.1c-0.2-0.1-0.4-0.3-0.6-0.4
		c-1.9-1.1-6,2.3-6.4,3.7c-0.2,0.8,0.2,1.5,0.5,2.2c0.5,0.8,1.1,1,1.2,1C68.4,234.9,68.6,235,68.8,235z"/>
	<path class="st8" d="M68.6,234.3c-0.2-0.1-0.4-0.3-0.3-0.5c0.1-0.1,0.2-0.2,0.4-0.2c1.9-0.7,3.5-1.8,4.6-3.2
		c0.1-0.1,0.2-0.2,0.3-0.3c0.4-0.3,0.8,0,0.7,0.3c-0.1,0.4-0.3,0.8-0.5,1.2C73.1,232.7,69.8,235,68.6,234.3z"/>
</g>
<g>
	<path class="st4" d="M59.4,238.9c0,0,1,2,4.2,0.3c3.9-2,3-3.6,3-3.6c-0.3-0.8-1-2-1-2.1c-0.8-1.3-1.9-3-3.3-4.1c0,0-1-0.8-2.3-0.3
		c0,0-1.7,0.4-1.8,2C58.1,232.8,58.6,237.2,59.4,238.9z"/>
	<path class="st5" d="M58.5,235.1c0,0.1,0.4,2.6,0.9,3.8c0,0,1,2,4.2,0.3c3.9-2,3-3.6,3-3.6c-0.3-0.8-1-2-1-2.1
		c-0.8-1.1-1.9-2.3-3-3.2c0,0-1-0.8-2.3-0.3c0,0-1.7,0.4-1.8,2C58.5,232.7,58.5,233.8,58.5,235.1z"/>
	<path class="st6" d="M61.2,239.6c0.6,0,1.3-0.2,2.1-0.6c2.6-1.3,3-2.4,2.9-2.7c-0.1-0.3-0.2-0.5-0.4-0.9c-0.6-0.9-1.6-1.5-2.6-1.2
		s-2.2,0.8-3,1.5c-0.7,0.6-1,1.6-0.7,2.4c0.1,0.3,0.2,0.6,0.4,1C60,239.2,60.3,239.6,61.2,239.6z"/>
	<path class="st8" d="M60.7,239.1c-0.2-0.1-0.3-0.3-0.2-0.4c0.1-0.1,0.2-0.1,0.3-0.2c1.6-0.4,3.1-1.2,4.1-2.2
		c0.1-0.1,0.2-0.2,0.3-0.2c0.3-0.2,0.7,0.1,0.6,0.4C65.5,237.6,61.7,239.8,60.7,239.1z"/>
</g>
<g>
	<path class="st4" d="M51.9,241.1c1.2,0.2,4.6-0.1,5.6-0.3s0.7-1.9,0.7-1.9s-0.2-1.2-0.4-2.5c-0.3-1.4-0.6-3-0.8-3.6
		c-0.5-1.3-0.6-2.2-2.7-2.2c-2.1,0-2.4,2-2.6,2.7c-0.1,0.3-0.3,1.8-0.4,3.4l0,0C51.1,238.7,51.2,241,51.9,241.1z"/>
	<path class="st5" d="M51.9,241.1c1.2,0.2,4.6-0.1,5.6-0.3s0.7-1.9,0.7-1.9s-0.2-1.2-0.4-2.5c-0.2-1.2-0.6-2.2-0.7-2.7
		c-0.5-1.3-0.8-2.2-2.9-2.2s-2.3,2.4-2.5,3.1c0,0.1-0.1,0.4-0.2,0.7c-0.2,0.9-0.2,1.8-0.2,2.7C51.2,239.6,51.3,241,51.9,241.1z"/>
	<path class="st6" d="M57.2,240.4c0.2-0.1,0.5-0.5,0.5-0.7s-0.2-1.8-0.4-2.1c-0.4-0.6-5.6-0.6-5.6,0.7c0,1,0.1,1.6,0.2,2
		c0,0.2,0.4,0.4,0.6,0.5C53.4,241,56.2,240.8,57.2,240.4z"/>
	<path class="st8" d="M52.1,239.9c-0.1-0.1-0.2-0.3,0-0.3c0.1-0.1,0.2,0,0.4,0.1c1.4,0.4,2.9,0.3,4.1-0.2c0.1,0,0.3-0.1,0.4-0.1
		c0.3-0.1,0.6,0.1,0.4,0.3C56.6,240.4,52.7,240.8,52.1,239.9z"/>
</g>
<g id="superior">
	<path class="st3" d="M85.6,142.1c-0.1,0-0.2,0-0.3,0c-0.1,0-0.2,0-0.3,0l0,0c-3.4-0.4-11.2-1.8-15.4-7.7
		c-4.1-5.7-11.5-8.5-18.9-8.4c-7.4,0-14.8,2.9-18.8,8.4c-4.1,5.7-11.7,7.3-15.2,7.7c-0.3,0-0.7,0.1-0.9,0.1c0.1,0,0.3,0,0.4-0.1l0,0
		c0.1,0,0.2,0,0.3,0c6-1.1,4.2-14.4,4.2-21.5c0.1-7-1.5-46.1,29.9-46.1h0.1c26.6,0,29.6,27.7,30,40.7c0.1,2.4,0,4.3,0,5.5
		c0.1,7.1-1.8,20.4,4.2,21.5c0.1,0,0.1,0,0.2,0C85.2,142.1,85.4,142.1,85.6,142.1z"/>
	<path class="st1" d="M85.4,142.1c-2.9-0.2-11.5-1.5-16.1-7.8c-4-5.6-11.4-8.4-18.7-8.4c-7.5,0-14.9,2.8-19,8.4s-11.4,7.2-14.9,7.7
		c-0.2,0-0.3,0-0.5,0.1l0,0c-0.2,0-0.4,0-0.6,0.1c0.2,0,0.5-0.1,0.7-0.1c5.5-1,4.4-12.2,4.2-19.5c0-0.7,0-1.3,0-2
		c0.1-7.1-1.5-46.1,30-46.1h0.1c24.8,0.1,29.1,24.2,29.8,38c0.2,3.7,0.1,6.7,0.1,8.2c0,0.6,0,1.3,0,2c-0.2,7.3-1.3,18.5,4.2,19.5
		c0.1,0,0.2,0,0.3,0l0,0C85.1,142.1,85.2,142.1,85.4,142.1z"/>
	<path class="st0" d="M85.4,142.1c-2.9-0.2-11.5-1.5-16.1-7.8c-4-5.6-11.4-8.4-18.7-8.4c-7.4,0-14.8,2.9-18.8,8.4
		c-4.1,5.7-11.7,7.3-15.2,7.7l-0.9,0.1l1-0.2c5.1-1.6,4.1-12.6,3.9-19.9c0.2-12.6,3.3-41.5,30.4-41.5c21.4,0,27.6,18,29.3,31.8
		c0.1,0.9,0.2,1.8,0.3,2.7c0.2,2.6,0.3,5,0.4,7c-0.2,7.2-1.1,18.6,4.1,20c0.1,0,0.1,0,0.2,0C85.3,142.1,85.3,142.1,85.4,142.1z"/>
	<path class="st1" d="M69,122.2c-10.1-8-25.6-8.1-35.8-0.6c-0.9,0.7-2.2,0-2.2-1.2l0,0c0.2-9,1.5-16.4,3.8-22
		c3.3-7.7,8.5-11.2,16.3-11.2c6.4,0,10.9,2.3,14.2,7.3c4.6,6.9,5.8,17.4,6,25.9c0,0.2,0,0.4,0,0.6C71.2,122.3,69.9,123,69,122.2z"/>
	<path class="st0" d="M92.3,138.6c0,0-1.1,3.7-5.7,3.6c-0.4,0-0.7,0-1-0.1c-0.3,0-0.5-0.1-0.7-0.1c-6-1.1-4.2-14.4-4.2-21.5
		c-0.1-7.1,1.5-46.1-30-46.1c-31.6,0-30,39.1-30,46.1c0,2.9,0.3,6.8,0.2,10.5c-0.1,5.4-0.9,10.4-4.4,11c-0.5,0.1-1,0.2-1.7,0.2h-0.1
		c-4.6,0-5.6-3.6-5.6-3.6c-0.3-0.9-0.7-1.8-1-2.7c-2.2-6.8-3.4-16.1,2.3-42.1c6.5-29,34.3-30.4,39.4-30.4h1.7
		c5.2,0,33,1.4,39.4,30.4C97.5,123.3,95,131.3,92.3,138.6z"/>
	<g>
		<path class="st3" d="M92.4,138.5c-0.3,0.9-1,1.9-1.8,2.5c-1.6,1.3-3.8,1.5-5.8,1.1c-4.6-0.8-4.7-8.4-4.6-13.1c0-3.1,0.2-6,0.2-8.9
			c0-4.8,0-9.1-0.8-14.7c-2.5-18-11-30.8-29-30.8c-14.4,0-25.9,8.4-29,30.8c-0.5,3.9-0.8,7.8-0.8,11.8v3c-0.1,5.2,0.8,12.9-0.6,17.7
			c-0.6,2.1-1.7,3.9-3.9,4.3c-0.5,0.1-1,0.1-1.5,0.1c-1.4,0-3.1-0.4-4.3-1.3c-0.7-0.6-1.5-1.6-1.8-2.5H9c0.4,0.9,1,1.6,1.8,2.1
			c1.6,1.1,3.1,1.2,5.3,0.7c0.8-0.2,1.4-0.7,1.9-1.3c0.9-1.4,1.2-3.5,1.3-5.2c0.5-6.8-1.7-16.6-0.2-29.7s6.6-25.8,18.8-31
			c7.5-3.2,17.4-3.3,25.2,0c12.2,5.2,17.3,17.9,18.8,31s-0.7,22.9-0.2,29.7c0.1,1.7,0.4,3.8,1.3,5.2c1.8,2.6,6.5,1.8,8.2-0.3
			c0.3-0.4,0.6-0.8,0.8-1.2L92.4,138.5z"/>
	</g>
	<g>
		<path class="st2" d="M10.3,93.8c0.8-3.2,0.5-2.2,1.4-5c0.1-0.4,0.1-0.3,0.9-2.4c0.1-0.2,0.9-2,1.1-2.4c0.5-1,1.1-2,1.7-3
			c2.4-3.9,5.6-7.3,9.3-10c7.4-5.4,17.3-7.9,26-7.8c8.6-0.1,18.5,2.4,26,7.8c3.7,2.7,7,6.1,9.3,10c0.6,1,1.1,2,1.7,3
			c0.1,0.3,1,2.1,1.1,2.4c0.7,2,0.8,2,0.9,2.4c0.9,2.8,0.6,1.8,1.4,5h-0.2c-1.2-3.5-0.7-2.2-1.1-3.2c-1-2.5-0.5-1.3-1.3-3.1
			c-0.6-1.2-0.3-0.6-0.7-1.5c-0.3-0.5-0.5-1-0.8-1.5c-0.6-1-1.1-1.9-1.8-2.8c-1.3-1.8-2.7-3.6-4.2-5.1c-1.6-1.5-3.3-3-5.1-4.2
			c-1-0.6-1.1-0.7-1.4-0.9c-0.5-0.3-0.9-0.6-1.4-0.8c-1.6-0.8,0-0.1-3-1.5c-5.5-2.5-12.7-4.1-19.3-3.9c-6.7-0.1-13.9,1.5-19.3,3.9
			c-2.7,1.3-1.4,0.7-3,1.5c-0.5,0.3-1,0.5-1.4,0.8c-0.3,0.2-0.4,0.2-1.4,0.9c-1.8,1.2-3.5,2.6-5.1,4.2c-1.6,1.5-3,3.3-4.2,5.1
			c-0.7,0.9-1.2,1.9-1.8,2.8c-0.3,0.5-0.5,1-0.8,1.5c-0.4,0.9-0.2,0.4-0.7,1.5c-0.8,1.8-0.3,0.6-1.3,3.1c-0.4,1,0.1-0.3-1.1,3.2
			H10.3z"/>
	</g>
</g>
<g>
	<path class="st4" d="M25.8,85.6c-0.2,0.8-1.5,4.6-4.5,4.4c-1.3-0.1-2.7-0.4-4-0.8c-1.9-0.6-3.4-1.6-3.7-2.3c-1.4-3.3,1.4-8,3.2-9.1
		c0.9-0.5,3.1-0.3,6.2,2.1c0.1,0,0.1,0.1,0.2,0.1C26.2,82.4,26.1,84.4,25.8,85.6z"/>
	<path class="st5" d="M24.5,85.8c-0.9,2.8-2.6,3.5-3.6,3.7c-0.5,0.1-0.8,0.1-0.9,0.1c-0.9,0-1.8-0.2-2.6-0.4
		c-1.9-0.6-3.4-1.6-3.7-2.3c-1.4-3.3,1.4-8,3.2-9.1c0.9-0.5,3.1-0.3,6.2,2.1C25.4,82.3,24.8,85,24.5,85.8z"/>
	<path class="st6" d="M20,88.9c-3.4-0.2-5.9-1.7-6.2-2.3c-1.2-2.9,1.4-7.4,2.8-8.3c0,0,0.5-0.3,0.6-0.4c0.9-0.2,2.3,0,4.8,2
		c2.8,2.2,2,5.1,1.8,5.7C22.7,89.1,20.3,88.9,20,88.9z"/>
	<path class="st7" d="M15.6,85.7c-0.1,0-0.2,0.1-0.3,0.1s-0.2,0.2-0.1,0.3c0,0.1,0.2,0.2,0.3,0.2s0.2-0.1,0.4-0.1
		c0.4-0.2,0.8-0.5,1.2-0.7c0.2-0.1,0.5-0.3,0.7-0.2c0.2,0.1,0.4,0.3,0.5,0.5c0.2,0.3,0.4,0.7,0.6,1c0.1,0.2,0.3,0.4,0.5,0.3
		c0.1-0.1,0.2-0.2,0.1-0.4c-0.1-0.1-0.2-0.2-0.3-0.3c-0.4-0.3-0.7-0.7-0.9-1.1c-0.2-0.7,0.1-1.5,0.4-2.1c0.2-0.4,0.4-0.8,0.8-1.1
		c0.5-0.3,1.1-0.3,1.6-0.4c0.2,0,0.4-0.2,0.4-0.4c0-0.2-0.3-0.2-0.5-0.2c-0.5,0.1-0.9,0.4-1.4,0.3c-0.4-0.1-0.6-0.4-0.8-0.7
		c-0.2-0.3-0.3-0.6-0.5-0.9c-0.2-0.2-0.5-0.4-0.8-0.2c-0.2,0.2-0.2,0.5-0.1,0.7c0.2,0.5,0.6,0.9,0.7,1.3c0.1,0.5,0.1,1-0.1,1.5
		s-0.5,1.1-0.8,1.5C17,85.1,16.3,85.5,15.6,85.7z"/>
	<g>
		<path class="st8" d="M16.4,80.2c0.4-0.2-0.2,0.5-0.8,2.2c-0.6,1.7-0.7,2.9-0.8,2.2C14.6,83.1,15.3,81.2,16.4,80.2z"/>
	</g>
	<g>
		<path class="st8" d="M18.8,79.5C18.6,79,21,79.9,20.5,80C20,80,19.2,79.7,18.8,79.5z"/>
	</g>
	<g>
		<path class="st8" d="M16.2,87c0.5,0,1.3,0.3,1.7,0.5C18,87.9,15.7,87.3,16.2,87z"/>
	</g>
	<g>
		<path class="st8" d="M20.4,86.8c0.4-0.4,0.9-1,1.1-1.5c0.1-0.2,0.1-0.3,0.2-0.6c0.4-1.2,0.4-1.2,0.4-2.5c0.4,0.9,0.6,1.8,0.3,2.7
			c-0.1,0.2-0.1,0.4-0.3,0.6C21.8,86.2,21,86.6,20.4,86.8z"/>
	</g>
</g>
<g>
	<path class="st5" d="M30.5,76.6c-0.3,2.2-2.9,3.6-3.8,3.8c-0.7,0.2-6-2.5-7.6-4.1l0,0c-0.3-0.3-0.6-0.7-0.6-0.9
		c-0.2-1.4,4.5-6.9,6.6-7.1c0.2,0,0.7,0.4,1.2,0.9l0,0C27.9,70.8,30.8,75.1,30.5,76.6z"/>
	<path class="st6" d="M21.3,76.4c-0.5,0.1-1.9-0.7-2.1-1.2s3-5.2,5.7-6.3c0.3-0.1,1.5,1.3,1.6,1.6c0.2,0.7-1.7,1.9-2.8,3.1
		C22.7,74.7,21.8,76.2,21.3,76.4z"/>
	<path class="st4" d="M30.5,76.6c-0.3,2.2-2.9,3.6-3.8,3.8c-0.7,0.2-6-2.5-7.6-4.1c0.1,0.1,6.3,3.4,7.3,3.1c1-0.4,3.1-2,3-3.3
		s-2.1-5.5-3.1-6.9C27.9,70.8,30.8,75.1,30.5,76.6z"/>
	<g>
		<path class="st8" d="M20.6,74.8c0.6-1.6,2.3-3.6,4.2-4.7c0.1,0,0.2,0.1,0.1,0.1c-0.8,0.9-2.7,2.8-4.2,4.7
			C20.7,75,20.6,74.9,20.6,74.8z"/>
	</g>
</g>
<g>
	<path class="st5" d="M27.2,66.8c0.2-1.3,6.2-5.2,8.2-4.8c0.9,0.4,3.7,8.4,2.8,10.4c-0.9,1.9-3.6,2.5-4.4,2.5
		C32.9,74.8,26.9,68.1,27.2,66.8z"/>
	<path class="st4" d="M38.2,72.4c-0.9,1.9-3.6,2.5-4.4,2.5c-0.8,0-6-5.7-6.6-7.8c1.3,1.9,5.6,6.3,6.3,6.4c0.8,0,3.1-0.5,4-2.4
		c0.7-1.4-0.8-6.4-1.6-8.3C37.3,65,38.9,70.8,38.2,72.4z"/>
	<path class="st6" d="M29.4,68.4c-0.5,0-1.6-1.2-1.6-1.7s4.3-4.1,7.1-4.3c0.3,0,1,1.6,1,2c0,0.7-2.1,1.3-3.5,2.2
		C31.2,67.2,29.9,68.4,29.4,68.4z"/>
	<g>
		<path class="st8" d="M28.9,66.2c1-1.4,3.2-2.7,5.3-3.2c0.1,0,0.1,0.1,0.1,0.2c-1,0.6-3.4,1.9-5.3,3.2
			C28.9,66.4,28.8,66.3,28.9,66.2z"/>
	</g>
</g>
<g>
	<g>
		<path class="st5" d="M44.8,72.6c-4.6,0-6.7-8.1-6.8-11l0,0c0-0.2,1.2-2.7,6.2-2.7s6.1,1.1,6.2,1.9C50.5,61.6,49.4,72.6,44.8,72.6z
			"/>
		<path class="st6" d="M44.1,63.5c-3.4,0-4.9,1.2-5.2-1.7c0.3-0.4,1.5-1.9,5.2-1.9c4.5,0,5.1,0.9,5.2,1C50,63.1,48.6,63.2,44.1,63.5
			z"/>
		<path class="st4" d="M44.8,72.6c-4.6,0-6.8-8.1-6.9-11c0.1,0.4,1.8,9.8,6.8,9.5c3.9-0.3,5.6-10.3,5.6-10.3
			C50.5,61.6,49.4,72.6,44.8,72.6z"/>
	</g>
	<g>
		<path class="st8" d="M40.5,61.1c1.9-0.9,5.1-1,7.5-0.3c0.1,0,0.1,0.2,0,0.2c-1.5,0.1-4.6,0.1-7.4,0.3
			C40.4,61.3,40.4,61.1,40.5,61.1z"/>
	</g>
</g>
<g>
	<path class="st4" d="M22.9,96.3c-0.2,0.7-1.1,2.7-1.7,3.2c-0.4,0.3-0.9,0.4-1.4,0.5c-2,0.4-4.2,0.1-6.1-0.8
		c-0.8-0.4-1.6-0.9-2.3-1.6C9.6,96,9.1,94.2,10.2,92c0.3-0.7,0.8-2.2,2-2.7c1.2-0.6,2.9-0.3,4.2-0.1c0.2,0,0.4,0.1,0.6,0.1l0,0
		c0.9,0.2,1.8,0.5,2.6,0.9C22,91.7,23.7,93.5,22.9,96.3z"/>
	<path class="st5" d="M22,96c-0.3,0.9-1.2,2.8-1.7,3.1c-0.4,0.3-0.9,0.4-1.4,0.5c-0.6,0.1-1.2,0.2-1.8,0.2c-0.2,0-0.5,0-0.7,0
		c-0.9-0.1-1.9-0.3-2.8-0.6c-0.8-0.4-1.6-0.9-2.3-1.6C9.6,96,9.1,94.2,10.2,92c0.3-0.7,0.8-2.2,2-2.7c1.2-0.6,2.9-0.3,4.2-0.1
		c0.2,0,0.4,0.1,0.6,0.1l0,0c0.6,0.2,1.2,0.4,1.6,0.7c0.1,0,0.2,0.1,0.2,0.1C21.7,91.9,22.7,93.7,22,96z"/>
	<path class="st6" d="M20.4,95.8c-0.2,0.8-1.2,2.5-1.5,2.9s-1,0.9-2,0.9l0,0c-2.1-0.1-3.6-0.8-5.1-2.2c-1.7-1.6-2.1-3.2-1.1-5.1
		c0.1-0.1,0.1-0.3,0.2-0.4c0.3-0.7,0.7-1.7,1.6-2.1c0.4-0.2,1-0.3,1.7-0.3c0.8,0,1.5,0.1,2.2,0.3c1.3,0.2,1.7,0.4,2.5,0.9
		c0.1,0,0.1,0.1,0.2,0.1C21.6,92.3,21,93.6,20.4,95.8z"/>
	<path class="st7" d="M17.2,94.1c0.2-0.1-0.6-0.4-0.8-0.6c-0.3-0.3-0.5-0.6-0.5-1c0-0.3,0.1-0.5,0.3-0.6c0.2,0,0.4,0,0.5,0.1
		s0.2,0.3,0.4,0.4c0.3,0.3,0.7,0.5,1.1,0.5c0,0,0.1,0,0.1-0.1c0-0.2-0.1-0.4-0.3-0.5c-0.3-0.3-0.6-0.5-0.9-0.8
		c-0.4-0.3-0.8-0.7-1.2-0.9c-0.4-0.2-0.9-0.4-1.4-0.4c-0.1,0-0.1,0-0.1,0.1c0,0.2,0.1,0.3,0.2,0.5c0.2,0.1,0.4,0.2,0.5,0.3
		c0.3,0.2,0.4,0.6,0.5,1c0.1,0.9-0.3,1.9-1.1,2.4C14.3,94.6,14,94.7,14,95c-0.1,0.2,0,0.4,0.1,0.7c0.1,0.2,0.1,0.5-0.1,0.6
		c-0.1,0.1-0.3,0.1-0.5,0.1s-0.4-0.1-0.5-0.1c-0.2,0-0.4,0.2-0.3,0.3c0,0.1,0.2,0.3,0.3,0.3s0.3,0,0.4,0c1-0.2,2.1,0,3,0.4
		c0.2,0.1,0.4,0.2,0.6,0.1c0.1-0.1,0.1-0.3,0.1-0.4c-0.1-0.1-0.2-0.2-0.3-0.3c-0.3-0.1-0.6-0.1-1-0.1s-0.8,0-1.1-0.3
		c-0.1-0.1-0.2-0.3-0.2-0.5c0-0.4,0.3-0.5,0.6-0.6c0.2-0.1,0.5-0.1,0.7-0.2c0.3-0.2,0.4-0.5,0.4-0.8c0-0.2,0.1-0.3,0.3-0.3
		c0.1,0,0.2,0,0.3,0C16.8,93.9,17.1,94.2,17.2,94.1z"/>
	<g>
		<path class="st8" d="M18.1,97.5c-0.1,0-0.2-0.1-0.1-0.2c0.3-0.3,0.6-0.8,0.8-1.1c0.1-0.2,0.1-0.3,0.2-0.6c0.3-1,0.4-1.2,0.4-1.9
			c0-0.1,0.2-0.1,0.2,0c0.3,0.7,0.3,1.4,0.1,2.2c-0.1,0.2-0.1,0.4-0.3,0.6C19.1,97,18.5,97.3,18.1,97.5z"/>
	</g>
	<g>
		<path class="st8" d="M12.8,90.7c-0.1,0.4-0.2,0.5-0.8,2.2c-0.6,1.6-0.5,2.2-0.8,2.2C10.7,94.2,12.1,90.5,12.8,90.7z"/>
	</g>
	<g>
		<path class="st8" d="M16.8,90.5c0.6-0.3,2,0.8,2.1,1.4C18.7,92.4,16.8,90.9,16.8,90.5z"/>
	</g>
	<g>
		<path class="st8" d="M14.1,97.9c-0.2,0.5,2.7,0.9,2.5,0.5C16.1,98.2,14.5,98,14.1,97.9z"/>
	</g>
</g>
<g>
	<path class="st4" d="M20.4,109.3c-0.3,1.7-0.8,3.6-2,4.9c-1.1,1.2-2.7,1.8-4.4,1.9c-1.3,0.1-2.5-0.1-3.7-0.5
		c-0.4-0.1-0.7-0.2-1-0.4c-1.7-0.7-3.4-1.7-4.2-3.3c-0.8-1.6-0.6-3.5-0.4-5.2c0.2-1.6,0.1-3,1.1-4.4c0.9-1.2,2.2-1.9,3.6-2.1
		c0.6-0.1,1.3,0,1.9,0.1c0.6,0.1,1.2,0.2,1.8,0.4c1.6,0.4,3.1,0.8,4.5,1.6c1.4,0.8,2.6,2.1,3,3.6C20.8,107.1,20.6,108.2,20.4,109.3z
		"/>
	<path class="st5" d="M18.4,108.9c-0.3,1.7-0.8,3.6-2,4.9c-1.1,1.2-2.8,1.8-4.4,1.9c-0.6,0-1.2,0-1.7-0.1c-0.4-0.1-0.7-0.2-1-0.4
		c-1.7-0.7-3.4-1.7-4.2-3.3c-0.8-1.6-0.6-3.5-0.4-5.2c0.2-1.6,0.1-3,1.1-4.4c0.9-1.2,2.2-1.9,3.6-2.1c0.6-0.1,1.3,0,1.9,0.1
		c1.5,0.4,3,0.8,4.3,1.5c1.4,0.8,2.6,2.1,3,3.6C18.8,106.6,18.6,107.8,18.4,108.9z"/>
	<path class="st6" d="M9,114.3c-1.8-0.6-2.7-1-3.6-2.7c-0.7-1.4-0.6-3.1-0.3-4.8c0.3-1.7,0.1-3,1-4.2c0.8-1,2.1-1.8,3.6-1.8
		c0.4,0,0.7,0,1.1,0.1c1.6,0.4,1.8,0.2,3,0.9c1.4,0.8,2.3,1.9,2.6,3.1c0.2,1,0,2.1-0.2,3.1c-0.3,1.6-0.7,3.4-1.9,4.6
		C13.3,113.9,11.7,115.4,9,114.3z"/>
	<path class="st7" d="M7.6,111.8c-0.2,0-0.2,0.3,0,0.3c0.7,0.3,1.6,0.3,2.3,0c0.4-0.2,0.9-0.5,1-0.9s0-0.9,0.2-1.3s0.6-0.6,1.1-0.6
		c0.4,0,0.8,0.1,1.2,0.2c0.2,0,0.3,0.1,0.5,0c0.1-0.1,0.3-0.2,0.2-0.4c-0.1-0.2-0.3-0.2-0.6-0.2c-0.6,0-1.2,0.1-1.7,0.1
		c-0.2,0-0.4,0-0.7,0c-0.2-0.1-0.4-0.2-0.5-0.4c-0.1-0.2,0-0.5,0.1-0.7c0.2-0.4,0.4-0.8,0.6-1.2c0.1-0.1,0.1-0.2,0.2-0.3
		c0.3-0.2,0.6,0,0.8,0.3c0.2,0.2,0.3,0.6,0.5,0.7s0.5,0.1,0.5-0.1c0-0.1-0.1-0.3-0.2-0.3c-0.1-0.1-0.3-0.1-0.4-0.1
		c-0.4-0.2-0.6-0.6-0.6-1.1c0-0.4,0-0.9-0.1-1.3c-0.1-0.6-0.5-1.1-0.9-1.6c-0.1-0.2-0.3-0.4-0.5-0.5s-0.5-0.1-0.7,0.1
		s-0.1,0.6,0.1,0.8c0.2,0.2,0.5,0.4,0.6,0.6c0.2,0.3,0.3,0.8,0.2,1.2c-0.1,0.4-0.3,0.8-0.5,1.1c-0.1,0.2-0.3,0.4-0.5,0.5
		c-0.3,0.1-0.7-0.1-0.9-0.3c-0.4-0.3-0.8-0.6-1.2-0.6c-0.2,0-0.4,0.1-0.6,0.3c-0.2,0.4,0.1,0.8,0.4,1c0.3,0.1,0.6,0.1,0.9,0.2
		c0.4,0.1,1,0.3,1,0.7c0.1,0.5-0.4,0.9-0.4,1.4c0.1,0.7,1.1,1.2,0.2,1.8C9,111.4,8.3,111.7,7.6,111.8z"/>
	<g>
		<path class="st8" d="M11.2,113.5c-0.2,0-0.3-0.3-0.1-0.4c0.4-0.3,0.8-0.5,1.3-0.9s0.8-0.8,1.2-1.1c0.1-0.1,0.4,0,0.3,0.2
			C13.7,112.4,12.4,113.4,11.2,113.5z"/>
	</g>
	<g>
		<path class="st8" d="M13.2,103c-0.1-0.1,0-0.4,0.2-0.3c0.6,0.2,1.2,0.6,1.6,1.2c0.4,0.6,0.5,1.3,0.4,2c0,0.2-0.3,0.2-0.4,0
			C14.6,104.7,14.2,103.9,13.2,103z"/>
	</g>
	<g>
		<path class="st8" d="M6.7,104.4c-0.1,0.1-0.3,0.1-0.3-0.1c-0.1-0.4,0.1-0.9,0.3-1.3c0.3-0.4,0.7-0.6,1.1-0.7
			c0.2,0,0.3,0.2,0.2,0.3c-0.1,0.1-0.3,0.4-0.6,0.8C6.9,104,6.8,104.2,6.7,104.4z"/>
	</g>
	<g>
		<path class="st8" d="M6.2,108.2c0.2,0.7,0.3,1.6,0.3,2.4c0,0.2-0.2,0.2-0.4,0.1c-0.5-0.7-0.6-1.7-0.3-2.5
			C5.9,108,6.2,108,6.2,108.2z"/>
	</g>
</g>
<g>
	<path class="st4" d="M19.2,121.1c0,1,0,3.8-1.9,4.9c-1,0.6-2.4,0.9-3.9,1s-3.1,0-4.6-0.1c-3-0.3-3.2-3.2-3.2-4.4
		c0-1.2-0.2-3.3-0.2-3.3c-0.5-4.2,2-4.7,3.4-5.1c0.4-0.1,1-0.1,1.8-0.1c2.1,0.2,5.1,0.9,6.8,1.8C19.5,116.8,19.2,120.1,19.2,121.1z"
		/>
	<path class="st5" d="M17.2,121.1c0,1,0,3.9-1.9,5.1c-0.5,0.3-1.2,0.6-2,0.7c-1.5,0.1-3.1,0-4.6-0.1c-3-0.3-3.2-3.2-3.2-4.4
		c0-1.2-0.2-3.3-0.2-3.3c-0.5-4.2,2-4.7,3.4-5.1c0.4-0.1,1-0.1,1.8-0.1c1.7,0.3,3.6,0.9,4.8,1.5C17.5,116.6,17.2,120.1,17.2,121.1z"
		/>
	<path class="st6" d="M8.4,125.9c-1.6-0.2-2.3-1.3-2.4-3.5c0-1.2-0.2-3.3-0.2-3.4c-0.4-3.2,1.2-3.6,2.5-4c0.4-0.1,1-0.2,1.6-0.1
		c1.7,0.4,3.5,0.9,4.5,1.4c1.5,0.8,1.5,3.2,1.4,4.4c0,0.1,0,0.3,0,0.4c0,2.2-0.5,3.7-1.5,4.3c-0.4,0.3-1,0.5-1.6,0.6
		C11.3,126.1,9.8,126,8.4,125.9z"/>
	<path class="st7" d="M10.4,124.1c0.3-0.1,0.6-0.2,0.9-0.2c0.3-0.1,0.5-0.1,0.8-0.2s0.6-0.1,0.9-0.2c0.1,0,0.2,0,0.3-0.1
		s0-0.3-0.2-0.4c-0.2,0-0.3,0-0.5,0.1c-0.3,0.1-0.7,0.2-1,0.3c-0.1,0-0.2,0.1-0.3,0s-0.2-0.2-0.2-0.3c-0.1-0.4-0.2-0.8-0.2-1.2
		c0.1-0.8,0.6-1.4,1.4-1.6c0.1,0,0.3-0.1,0.4-0.1c0.1-0.1,0.2-0.2,0.2-0.4c0-0.1-0.2-0.2-0.3-0.2s-0.3,0.1-0.4,0.1
		c-0.3,0.1-0.5,0.3-0.8,0.4c-0.1,0.1-0.3,0.1-0.4,0.1c-0.1-0.1-0.2-0.3-0.2-0.4c0-0.3,0-0.7-0.1-1c0-0.3,0-0.7,0.2-0.9
		c0.3-0.2,0.7-0.1,1,0.1s0.6,0.5,1,0.4c0.1,0,0.2,0,0.3-0.1s0.1-0.2,0-0.3c-0.1-0.1-0.2-0.1-0.3-0.2c-0.9-0.2-1.8-0.7-2.4-1.4
		c-0.1-0.2-0.3-0.3-0.4-0.5c-0.2-0.1-0.4-0.2-0.6-0.2s-0.4,0.3-0.3,0.5c0.1,0.3,0.4,0.3,0.6,0.5c0.3,0.2,0.4,0.7,0.4,1.1
		c0,0.5,0,1,0,1.4c0,0.2,0,0.4-0.1,0.6s-0.3,0.3-0.5,0.3s-0.4-0.1-0.5-0.2s-0.3-0.2-0.5-0.2c-0.2-0.1-0.4,0-0.5,0.1
		c-0.1,0.1,0,0.4,0.1,0.5s0.3,0.2,0.5,0.2s0.4,0,0.5,0.1c0.3,0.1,0.5,0.4,0.7,0.7c0.1,0.3,0.2,0.6,0.2,0.9c0.1,0.6,0.1,1.2-0.3,1.6
		c-0.2,0.2-0.5,0.3-0.7,0.5c-0.1,0.1-0.4,0.3-0.4,0.5c0.1,0.2,0.3,0,0.4-0.1C9.6,124.3,10,124.2,10.4,124.1z"/>
	<g>
		<path class="st8" d="M12.3,125.1c-0.1,0-0.2-0.2,0-0.2c0.5-0.2,1.1-0.4,1.4-0.8c0.4-0.4,0.4-0.8,0.6-1.2c0-0.1,0.2-0.1,0.2,0
			c0.1,0.6,0,1.2-0.4,1.6C13.7,124.9,12.9,125.1,12.3,125.1z"/>
	</g>
	<g>
		<path class="st8" d="M13.5,117.2c-0.1-0.1,0.1-0.3,0.2-0.2c0.5,0.3,0.9,0.9,1,1.5s0.1,1.2,0,1.8c0,0.1-0.2,0.1-0.3,0
			C14.2,119.5,14.1,118.4,13.5,117.2z"/>
	</g>
	<g>
		<path class="st8" d="M8.3,116.2c0.2,0.2-0.8,0.3-0.9,0.7c-0.2,0.3-0.2,0.7-0.2,1.2c-0.2,1.7-0.1,3.3,0.2,4.9
			c0.1,0.4,0.2,0.8,0.3,1.2c0,0.4,1.1,0.6,0.8,0.7c-0.3,0-0.7-0.1-0.9-0.3c-0.1-0.1-0.2-0.2-0.2-0.3c-1-2-1.2-4.4-0.8-6.3
			c0.1-0.4,0.2-0.9,0.5-1.2C7.5,116.2,8,116.1,8.3,116.2z"/>
	</g>
</g>
<g>
	<path class="st6" d="M18.4,133.2c0,0.9,0,3.5-1.8,4.5c-0.9,0.5-2.2,0.8-3.7,0.9c-1.4,0.1-2.9,0-4.3-0.1c-2.8-0.3-3-3-3-4.1
		s-0.2-3-0.2-3.1c-0.5-4.1,2.4-4.5,4.7-4.3c1.9,0.2,4.9,0.3,6.4,1.1C18.8,129.2,18.4,132.3,18.4,133.2z M16.6,133.3
		c0,1,0,3.7-1.8,4.7c-0.5,0.3-1.1,0.5-1.8,0.7c-1.4,0.1-2.9,0-4.3-0.1c-2.8-0.3-3-3-3-4.1s-0.2-3-0.2-3.1c-0.5-4.1,2.4-4.7,4.7-4.3
		c1.6,0.3,3.5,0.3,4.6,0.9C16.9,129.1,16.6,132.3,16.6,133.3z M8.4,137.7c-1.5-0.2-2.2-1.2-2.2-3.2c0-1.1-0.2-3.1-0.2-3.2
		c-0.3-2.9,1.1-3.4,2.3-3.8c0.3-0.1,1-0.2,1.5-0.1c1.6,0.3,3.3,0.9,4.2,1.3c1.4,0.7,1.4,3,1.3,4.1c0,0.1,0,0.3,0,0.4
		c0,2.1-0.5,3.4-1.4,4c-0.4,0.2-0.9,0.4-1.5,0.6C11.1,137.9,9.7,137.9,8.4,137.7z M12,137c-0.1,0-0.1-0.2,0-0.2
		c0.4-0.2,1-0.4,1.3-0.7c0.4-0.4,0.4-0.7,0.5-1.1c0-0.1,0.2-0.1,0.2,0c0.1,0.5,0,1.1-0.3,1.5C13.3,136.8,12.6,137,12,137z
		 M13.2,129.6c-0.1-0.1,0.1-0.2,0.2-0.2c0.5,0.3,0.8,0.9,1,1.4c0.1,0.5,0.1,1.1,0,1.7c0,0.1-0.2,0.1-0.3,0
		C13.8,131.7,13.8,130.8,13.2,129.6z M8.4,128.7c0.2,0.1-0.7,0.3-0.8,0.6c-0.2,0.3-0.2,0.7-0.2,1.1c-0.2,1.6-0.1,3.1,0.2,4.6
		c0.1,0.4,0.2,0.8,0.3,1.1c0,0.4,1,0.6,0.8,0.7c-0.3,0-0.7,0-0.9-0.3c-0.1-0.1-0.1-0.2-0.2-0.3c-0.9-1.8-1.1-4.1-0.7-5.9
		c0.1-0.4,0.2-0.8,0.5-1.2C7.6,128.7,8.1,128.6,8.4,128.7z M11.7,129.8c0-0.1,0-0.3-0.1-0.4c-0.1-0.1-0.2-0.1-0.3-0.2
		c-0.3-0.1-0.7-0.2-1-0.3c-0.2-0.1-0.4-0.1-0.6,0c-0.2,0.1-0.4,0.3-0.3,0.5c0.2-0.1,0.6,0,0.7,0.2c0.2,0.2,0.2,0.5,0.2,0.8
		s-0.1,0.6-0.2,0.9c-0.2,0.3-0.5,0.5-0.8,0.5c-0.1,0-0.2,0-0.3,0s-0.2,0.1-0.2,0.2c0,0.1,0.1,0.2,0.2,0.2c0.1,0,0.2,0,0.3,0
		c0.8-0.1,1.7,0.4,2,1.2s-0.1,1.7-0.8,2.1c-0.2,0.1-0.5,0.3-0.4,0.5c0,0.1,0.2,0.2,0.3,0.2s0.3-0.1,0.4-0.1c0.6-0.3,1.1-0.9,1.3-1.6
		c0.1-0.3,0.1-0.5,0.2-0.7c0.1-0.2,0.4-0.4,0.7-0.3c0.3,0.1,0.5,0.5,0.8,0.4c0.2,0,0.2-0.2,0.2-0.4s-0.1-0.3-0.3-0.3
		c-0.5-0.2-1.1,0.2-1.6,0c-0.2-0.1-0.4-0.3-0.6-0.5c-0.2-0.3-0.5-0.5-0.7-0.8c0,0,0.4-1,0.4-1.1c0-0.2,0-0.4,0-0.6
		c0-0.2-0.2-0.3-0.1-0.4C11,129.6,11.4,129.7,11.7,129.8z"/>
</g>
<g>
	<path class="st4" d="M75.6,85.6c0.2,0.8,1.5,4.6,4.5,4.4c1.3-0.1,2.7-0.4,4-0.8c1.9-0.6,3.4-1.6,3.7-2.3c1.4-3.3-1.4-8-3.2-9.1
		c-0.9-0.5-3.1-0.3-6.2,2.1c-0.1,0-0.1,0.1-0.2,0.1C75.2,82.4,75.3,84.4,75.6,85.6z"/>
	<path class="st5" d="M76.9,85.8c0.9,2.8,2.6,3.5,3.6,3.7c0.5,0.1,0.8,0.1,0.9,0.1c0.9,0,1.8-0.2,2.6-0.4c1.9-0.6,3.4-1.6,3.7-2.3
		c1.4-3.3-1.4-8-3.2-9.1c-0.9-0.5-3.1-0.3-6.2,2.1C76,82.3,76.7,85,76.9,85.8z"/>
	<path class="st6" d="M81.4,88.9c3.4-0.2,5.9-1.7,6.2-2.3c1.2-2.9-1.4-7.4-2.8-8.3c0,0-0.5-0.3-0.6-0.4c-0.9-0.2-2.3,0-4.8,2
		c-2.8,2.2-2,5.1-1.8,5.7C78.7,89.1,81.1,88.9,81.4,88.9z"/>
	<path class="st7" d="M85.8,85.7c0.1,0,0.2,0.1,0.3,0.1c0.1,0.1,0.2,0.2,0.1,0.3c0,0.1-0.2,0.2-0.3,0.2c-0.1,0-0.2-0.1-0.4-0.1
		c-0.4-0.2-0.8-0.5-1.2-0.7c-0.2-0.1-0.5-0.3-0.7-0.2c-0.2,0.1-0.4,0.3-0.5,0.5c-0.2,0.3-0.4,0.7-0.6,1c-0.1,0.2-0.3,0.4-0.5,0.3
		c-0.1-0.1-0.2-0.2-0.1-0.4c0.1-0.1,0.2-0.2,0.3-0.3c0.4-0.3,0.7-0.7,0.9-1.1c0.2-0.7-0.1-1.5-0.4-2.1c-0.2-0.4-0.4-0.8-0.8-1.1
		c-0.5-0.3-1.1-0.3-1.6-0.4c-0.2,0-0.4-0.2-0.4-0.4c0-0.2,0.3-0.2,0.5-0.2c0.5,0.1,0.9,0.4,1.4,0.3c0.4-0.1,0.6-0.4,0.8-0.7
		c0.2-0.3,0.3-0.6,0.5-0.9c0.2-0.2,0.5-0.4,0.8-0.2c0.2,0.2,0.2,0.5,0.1,0.7c-0.2,0.5-0.6,0.9-0.7,1.3c-0.1,0.5-0.1,1,0.1,1.5
		s0.5,1.1,0.8,1.5C84.5,85.1,85.2,85.5,85.8,85.7z"/>
	<g>
		<path class="st8" d="M85,80.2c-0.4-0.2,0.2,0.5,0.8,2.2c0.6,1.7,0.7,2.9,0.8,2.2C86.8,83.1,86.1,81.2,85,80.2z"/>
	</g>
	<g>
		<path class="st8" d="M82.6,79.5c0.3-0.5-2.2,0.4-1.7,0.5C81.4,80,82.2,79.7,82.6,79.5z"/>
	</g>
	<g>
		<path class="st8" d="M85.2,87c-0.5,0-1.3,0.3-1.7,0.5C83.5,87.9,85.7,87.3,85.2,87z"/>
	</g>
	<g>
		<path class="st8" d="M81,86.8c-0.4-0.4-0.9-1-1.1-1.5c-0.1-0.2-0.1-0.3-0.2-0.6c-0.4-1.2-0.4-1.2-0.4-2.5C78.8,83.1,78.6,84,79,85
			c0.1,0.2,0.1,0.4,0.3,0.6C79.6,86.2,80.4,86.6,81,86.8z"/>
	</g>
</g>
<g>
	<path class="st5" d="M70.9,76.6c0.3,2.2,2.9,3.6,3.8,3.8c0.7,0.2,6-2.5,7.6-4.1l0,0c0.3-0.3,0.6-0.7,0.6-0.9
		c0.2-1.4-4.5-6.9-6.6-7.1c-0.2,0-0.7,0.4-1.2,0.9l0,0C73.5,70.8,70.6,75.1,70.9,76.6z"/>
	<path class="st6" d="M80.1,76.4c0.5,0.1,1.9-0.7,2.1-1.2s-3-5.2-5.7-6.3c-0.3-0.1-1.5,1.3-1.6,1.6c-0.2,0.7,1.7,1.9,2.8,3.1
		C78.7,74.7,79.6,76.2,80.1,76.4z"/>
	<path class="st4" d="M70.9,76.6c0.3,2.2,2.9,3.6,3.8,3.8c0.7,0.2,6-2.5,7.6-4.1c-0.1,0.1-6.3,3.4-7.3,3.1c-1-0.4-3.1-2-3-3.3
		s2.1-5.5,3.1-6.9C73.5,70.8,70.6,75.1,70.9,76.6z"/>
	<g>
		<path class="st8" d="M80.8,74.8c-0.6-1.6-2.3-3.6-4.2-4.7c-0.1,0-0.2,0.1-0.1,0.1C77.3,71.1,79.2,73,80.8,74.8
			C80.7,75,80.9,74.9,80.8,74.8z"/>
	</g>
</g>
<g>
	<path class="st5" d="M74.3,66.8c-0.2-1.3-6.2-5.2-8.2-4.8c-0.9,0.4-3.7,8.4-2.8,10.4c0.9,1.9,3.6,2.5,4.4,2.5
		C68.5,74.8,74.5,68.1,74.3,66.8z"/>
	<path class="st4" d="M63.2,72.4c0.9,1.9,3.6,2.5,4.4,2.5c0.8,0,6-5.7,6.6-7.8c-1.3,1.9-5.6,6.3-6.3,6.4c-0.8,0-3.1-0.5-4-2.4
		c-0.7-1.4,0.8-6.4,1.6-8.3C64.2,65,62.5,70.8,63.2,72.4z"/>
	<path class="st6" d="M72,68.4c0.5,0,1.6-1.2,1.6-1.7s-4.3-4.1-7.1-4.3c-0.3,0-1,1.6-1,2c0,0.7,2.1,1.3,3.5,2.2
		C70.2,67.2,71.5,68.4,72,68.4z"/>
	<g>
		<path class="st8" d="M72.6,66.2c-1-1.4-3.2-2.7-5.3-3.2c-0.1,0-0.1,0.1-0.1,0.2c1,0.6,3.4,1.9,5.3,3.2
			C72.5,66.4,72.6,66.3,72.6,66.2z"/>
	</g>
</g>
<g>
	<g>
		<path class="st5" d="M56.6,72.6c4.6,0,6.7-8.1,6.8-11l0,0c0-0.2-1.2-2.7-6.2-2.7S51.1,60,51,60.8C50.9,61.6,52,72.6,56.6,72.6z"/>
		<path class="st6" d="M57.3,63.5c3.4,0,4.9,1.2,5.2-1.7c-0.3-0.4-1.5-1.9-5.2-1.9c-4.5,0-5.1,0.9-5.2,1
			C51.5,63.1,52.8,63.2,57.3,63.5z"/>
		<path class="st4" d="M56.6,72.6c4.6,0,6.8-8.1,6.9-11c-0.1,0.4-1.8,9.8-6.8,9.5c-3.9-0.3-5.6-10.3-5.6-10.3
			C51,61.6,52,72.6,56.6,72.6z"/>
	</g>
	<g>
		<path class="st8" d="M61,61.1c-1.9-0.9-5.1-1-7.5-0.3c-0.1,0-0.1,0.2,0,0.2c1.5,0.1,4.6,0.1,7.4,0.3C61,61.3,61,61.1,61,61.1z"/>
	</g>
</g>
<g>
	<path class="st4" d="M78.5,96.3c0.2,0.7,1.1,2.7,1.7,3.2c0.4,0.3,0.9,0.4,1.4,0.5c2,0.4,4.2,0.1,6.1-0.8c0.8-0.4,1.6-0.9,2.3-1.6
		c1.8-1.7,2.3-3.5,1.2-5.6c-0.3-0.7-0.8-2.2-2-2.7C88,88.7,86.3,89,85,89.2c-0.2,0-0.4,0.1-0.6,0.1l0,0c-0.9,0.2-1.8,0.5-2.6,0.9
		C79.4,91.7,77.7,93.5,78.5,96.3z"/>
	<path class="st5" d="M79.4,96c0.3,0.9,1.2,2.8,1.7,3.1c0.4,0.3,0.9,0.4,1.4,0.5c0.6,0.1,1.2,0.2,1.8,0.2c0.2,0,0.5,0,0.7,0
		c0.9-0.1,1.9-0.3,2.8-0.6c0.8-0.4,1.6-0.9,2.3-1.6c1.8-1.7,2.3-3.5,1.2-5.6c-0.3-0.7-0.8-2.2-2-2.7c-1.2-0.6-2.9-0.3-4.2-0.1
		c-0.2,0-0.4,0.1-0.6,0.1l0,0c-0.6,0.2-1.2,0.4-1.6,0.7c-0.1,0-0.2,0.1-0.2,0.1C79.7,91.9,78.7,93.7,79.4,96z"/>
	<path class="st6" d="M81.1,95.8c0.2,0.8,1.2,2.5,1.5,2.9s1,0.9,2,0.9l0,0c2.1-0.1,3.6-0.8,5.1-2.2c1.7-1.6,2.1-3.2,1.1-5.1
		c-0.1-0.1-0.1-0.3-0.2-0.4c-0.3-0.7-0.7-1.7-1.6-2.1c-0.4-0.2-1-0.3-1.7-0.3c-0.8,0-1.5,0.1-2.2,0.3c-1.3,0.2-1.7,0.4-2.5,0.9
		c-0.1,0-0.1,0.1-0.2,0.1C79.8,92.3,80.5,93.6,81.1,95.8z"/>
	<path class="st7" d="M84.2,94.1C84,94,84.8,93.7,85,93.6c0.3-0.3,0.5-0.6,0.5-1c0-0.3-0.1-0.5-0.3-0.6c-0.2,0-0.4,0-0.5,0.1
		s-0.2,0.3-0.4,0.4C84,92.8,83.6,93,83.2,93c0,0-0.1,0-0.1-0.1c0-0.2,0.1-0.4,0.3-0.5c0.3-0.3,0.6-0.5,0.9-0.8
		c0.4-0.3,0.8-0.7,1.2-0.9c0.4-0.2,0.9-0.4,1.4-0.4c0.1,0,0.1,0,0.1,0.1c0,0.2-0.1,0.3-0.2,0.5c-0.2,0.1-0.4,0.2-0.5,0.3
		c-0.3,0.2-0.4,0.6-0.5,1c-0.1,0.9,0.3,1.9,1.1,2.4c0.2,0.1,0.4,0.2,0.5,0.5c0.1,0.2,0,0.4-0.1,0.7c-0.1,0.2-0.1,0.5,0.1,0.6
		c0.1,0.1,0.3,0.1,0.5,0.1s0.4-0.1,0.5-0.1c0.2,0,0.4,0.2,0.3,0.3c0,0.1-0.2,0.3-0.3,0.3c-0.1,0-0.3,0-0.4,0c-1-0.2-2.1,0-3,0.4
		c-0.2,0.1-0.4,0.2-0.6,0.1c-0.1-0.1-0.1-0.3-0.1-0.4c0.1-0.1,0.2-0.2,0.3-0.3c0.3-0.1,0.6-0.1,1-0.1s0.8,0,1.1-0.3
		c0.1-0.1,0.2-0.3,0.2-0.5c0-0.4-0.3-0.5-0.6-0.6c-0.2-0.1-0.5-0.1-0.7-0.2c-0.3-0.2-0.4-0.5-0.4-0.8c0-0.2-0.1-0.3-0.3-0.3
		c-0.1,0-0.2,0-0.3,0C84.6,93.9,84.4,94.2,84.2,94.1z"/>
	<g>
		<path class="st8" d="M83.4,97.5c0.1,0,0.2-0.1,0.1-0.2c-0.3-0.3-0.6-0.8-0.8-1.1c-0.1-0.2-0.1-0.3-0.2-0.6c-0.3-1-0.4-1.2-0.4-1.9
			c0-0.1-0.2-0.1-0.2,0c-0.3,0.7-0.3,1.4-0.1,2.2c0.1,0.2,0.1,0.4,0.3,0.6C82.4,97,82.9,97.3,83.4,97.5z"/>
	</g>
	<g>
		<path class="st8" d="M88.6,90.7c0.1,0.4,0.2,0.5,0.8,2.2c0.6,1.6,0.5,2.2,0.8,2.2C90.8,94.2,89.4,90.5,88.6,90.7z"/>
	</g>
	<g>
		<path class="st8" d="M84.6,90.5c-0.6-0.3-2,0.8-2.1,1.4C82.7,92.4,84.6,90.9,84.6,90.5z"/>
	</g>
	<g>
		<path class="st8" d="M87.4,97.9c0.2,0.5-2.7,0.9-2.5,0.5C85.3,98.2,86.9,98,87.4,97.9z"/>
	</g>
</g>
<g>
	<path class="st4" d="M80.1,108.1c0.3,1.7,0.8,3.6,2,4.9c1.1,1.2,2.7,1.8,4.4,1.9c1.3,0.1,2.5-0.1,3.7-0.5c0.4-0.1,0.7-0.2,1-0.4
		c1.7-0.7,3.4-1.7,4.2-3.3c0.8-1.6,0.6-3.5,0.4-5.2c-0.2-1.6-0.1-3-1.1-4.4c-0.9-1.2-2.2-1.9-3.6-2.1c-0.6-0.1-1.3,0-1.9,0.1
		s-1.2,0.2-1.8,0.4c-1.6,0.4-3.1,0.8-4.5,1.6c-1.4,0.8-2.6,2.1-3,3.6C79.7,105.8,79.9,107,80.1,108.1z"/>
	<path class="st5" d="M82.1,107.7c0.3,1.7,0.8,3.6,2,4.9c1.1,1.2,2.8,1.8,4.4,1.9c0.6,0,1.2,0,1.7-0.1c0.4-0.1,0.7-0.2,1-0.4
		c1.7-0.7,3.4-1.7,4.2-3.3c0.8-1.6,0.6-3.5,0.4-5.2c-0.2-1.6-0.1-3-1.1-4.4c-0.9-1.2-2.2-1.9-3.6-2.1c-0.6-0.1-1.3,0-1.9,0.1
		c-1.5,0.4-3,0.8-4.3,1.5c-1.4,0.8-2.6,2.1-3,3.6C81.7,105.4,81.9,106.5,82.1,107.7z"/>
	<path class="st6" d="M91.5,113.1c1.8-0.6,2.7-1,3.6-2.7c0.7-1.4,0.6-3.1,0.3-4.8c-0.3-1.7-0.1-3-1-4.2c-0.8-1-2.1-1.8-3.6-1.8
		c-0.4,0-0.7,0-1.1,0.1c-1.6,0.4-1.8,0.2-3,0.9c-1.4,0.8-2.3,1.9-2.6,3.1c-0.2,1,0,2.1,0.2,3.1c0.3,1.6,0.7,3.4,1.9,4.6
		C87.2,112.7,88.7,114.1,91.5,113.1z"/>
	<path class="st7" d="M92.9,110.6c0.2,0,0.2,0.3,0,0.3c-0.7,0.3-1.6,0.3-2.3,0c-0.4-0.2-0.9-0.5-1-0.9s0-0.9-0.2-1.3
		s-0.6-0.6-1.1-0.6c-0.4,0-0.8,0.1-1.2,0.2c-0.2,0-0.3,0.1-0.5,0c-0.1-0.1-0.3-0.2-0.2-0.4c0.1-0.2,0.3-0.2,0.6-0.2
		c0.6,0,1.2,0.1,1.7,0.1c0.2,0,0.4,0,0.7,0c0.2-0.1,0.4-0.2,0.5-0.4c0.1-0.2,0-0.5-0.1-0.7c-0.2-0.4-0.4-0.8-0.6-1.2
		c-0.1-0.1-0.1-0.2-0.2-0.3c-0.3-0.2-0.6,0-0.8,0.3c-0.2,0.2-0.3,0.6-0.5,0.7s-0.5,0.1-0.5-0.1c0-0.1,0.1-0.3,0.2-0.3
		c0.1-0.1,0.3-0.1,0.4-0.1c0.4-0.2,0.6-0.6,0.6-1.1c0-0.4,0-0.9,0.1-1.3c0.1-0.6,0.5-1.1,0.9-1.6c0.1-0.2,0.3-0.4,0.5-0.5
		s0.5-0.1,0.7,0.1s0.1,0.6-0.1,0.8c-0.2,0.2-0.5,0.4-0.6,0.6c-0.2,0.3-0.3,0.8-0.2,1.2c0.1,0.4,0.3,0.8,0.5,1.1
		c0.1,0.2,0.3,0.4,0.5,0.5c0.3,0.1,0.7-0.1,0.9-0.3c0.4-0.3,0.8-0.6,1.2-0.6c0.2,0,0.4,0.1,0.6,0.3c0.2,0.4-0.1,0.8-0.4,1
		c-0.3,0.1-0.6,0.1-0.9,0.2c-0.4,0.1-1,0.3-1,0.7c-0.1,0.5,0.4,0.9,0.4,1.4c-0.1,0.7-1.1,1.2-0.2,1.8
		C91.4,110.2,92.2,110.5,92.9,110.6z"/>
	<g>
		<path class="st8" d="M89.2,112.3c0.2,0,0.3-0.3,0.1-0.4c-0.4-0.3-0.8-0.5-1.3-0.9s-0.8-0.8-1.2-1.1c-0.1-0.1-0.4,0-0.3,0.2
			C86.8,111.2,88,112.2,89.2,112.3z"/>
	</g>
	<g>
		<path class="st8" d="M87.2,101.8c0.1-0.1,0-0.4-0.2-0.3c-0.6,0.2-1.2,0.6-1.6,1.2s-0.5,1.3-0.4,2c0,0.2,0.3,0.2,0.4,0
			C85.8,103.5,86.3,102.7,87.2,101.8z"/>
	</g>
	<g>
		<path class="st8" d="M93.8,103.2c0.1,0.1,0.3,0.1,0.3-0.1c0.1-0.4-0.1-0.9-0.3-1.3c-0.3-0.4-0.7-0.6-1.1-0.7
			c-0.2,0-0.3,0.2-0.2,0.3c0.1,0.1,0.3,0.4,0.6,0.8C93.5,102.8,93.7,103,93.8,103.2z"/>
	</g>
	<g>
		<path class="st8" d="M94.2,106.9c-0.2,0.7-0.3,1.6-0.3,2.4c0,0.2,0.2,0.2,0.4,0.1c0.5-0.7,0.6-1.7,0.3-2.5
			C94.5,106.8,94.3,106.8,94.2,106.9z"/>
	</g>
</g>
<g>
	<path class="st4" d="M82.3,121.1c0,1,0,3.8,1.9,4.9c1,0.6,2.4,0.9,3.9,1s3.1,0,4.6-0.1c3-0.3,3.2-3.2,3.2-4.4
		c0-1.2,0.2-3.3,0.2-3.3c0.5-4.2-2-4.7-3.4-5.1c-0.4-0.1-1-0.1-1.8-0.1c-2.1,0.2-5.1,0.9-6.8,1.8C81.9,116.8,82.3,120.1,82.3,121.1z
		"/>
	<path class="st5" d="M84.2,121.1c0,1,0,3.9,1.9,5.1c0.5,0.3,1.2,0.6,2,0.7c1.5,0.1,3.1,0,4.6-0.1c3-0.3,3.2-3.2,3.2-4.4
		c0-1.2,0.2-3.3,0.2-3.3c0.5-4.2-2-4.7-3.4-5.1c-0.4-0.1-1-0.1-1.8-0.1c-1.7,0.3-3.6,0.9-4.8,1.5C83.9,116.6,84.2,120.1,84.2,121.1z
		"/>
	<path class="st6" d="M93,125.9c1.6-0.2,2.3-1.3,2.4-3.5c0-1.2,0.2-3.3,0.2-3.4c0.4-3.2-1.2-3.6-2.5-4c-0.4-0.1-1-0.2-1.6-0.1
		c-1.7,0.4-3.5,0.9-4.5,1.4c-1.5,0.8-1.5,3.2-1.4,4.4c0,0.1,0,0.3,0,0.4c0,2.2,0.5,3.7,1.5,4.3c0.4,0.3,1,0.5,1.6,0.6
		C90.1,126.1,91.6,126,93,125.9z"/>
	<path class="st7" d="M91,124.1c-0.3-0.1-0.6-0.2-0.9-0.2c-0.3-0.1-0.5-0.1-0.8-0.2s-0.6-0.1-0.9-0.2c-0.1,0-0.2,0-0.3-0.1
		c-0.1-0.1,0-0.3,0.2-0.4c0.2,0,0.3,0,0.5,0.1c0.3,0.1,0.7,0.2,1,0.3c0.1,0,0.2,0.1,0.3,0c0.1-0.1,0.2-0.2,0.2-0.3
		c0.1-0.4,0.2-0.8,0.2-1.2c-0.1-0.8-0.6-1.4-1.4-1.6c-0.1,0-0.3-0.1-0.4-0.1c-0.1-0.1-0.2-0.2-0.2-0.4c0-0.1,0.2-0.2,0.3-0.2
		c0.1,0,0.3,0.1,0.4,0.1c0.3,0.1,0.5,0.3,0.8,0.4c0.1,0.1,0.3,0.1,0.4,0.1c0.1-0.1,0.2-0.3,0.2-0.4c0-0.3,0-0.7,0.1-1
		c0-0.3,0-0.7-0.2-0.9c-0.3-0.2-0.7-0.1-1,0.1s-0.6,0.5-1,0.4c-0.1,0-0.2,0-0.3-0.1c-0.1-0.1-0.1-0.2,0-0.3c0.1-0.1,0.2-0.1,0.3-0.2
		c0.9-0.2,1.8-0.7,2.4-1.4c0.1-0.2,0.3-0.3,0.4-0.5c0.2-0.1,0.4-0.2,0.6-0.2s0.4,0.3,0.3,0.5c-0.1,0.3-0.4,0.3-0.6,0.5
		c-0.3,0.2-0.4,0.7-0.4,1.1c0,0.5,0,1,0,1.4c0,0.2,0,0.4,0.1,0.6s0.3,0.3,0.5,0.3s0.4-0.1,0.5-0.2s0.3-0.2,0.5-0.2
		c0.2-0.1,0.4,0,0.5,0.1s0,0.4-0.1,0.5s-0.3,0.2-0.5,0.2s-0.4,0-0.5,0.1c-0.3,0.1-0.5,0.4-0.7,0.7c-0.1,0.3-0.2,0.6-0.2,0.9
		c-0.1,0.6-0.1,1.2,0.3,1.6c0.2,0.2,0.5,0.3,0.7,0.5c0.1,0.1,0.4,0.3,0.4,0.5c-0.1,0.2-0.3,0-0.4-0.1
		C91.8,124.3,91.4,124.2,91,124.1z"/>
	<g>
		<path class="st8" d="M89.2,125.1c0.1,0,0.2-0.2,0-0.2c-0.5-0.2-1.1-0.4-1.4-0.8c-0.4-0.4-0.4-0.8-0.6-1.2c0-0.1-0.2-0.1-0.2,0
			c-0.1,0.6,0,1.2,0.4,1.6S88.6,125.1,89.2,125.1z"/>
	</g>
	<g>
		<path class="st8" d="M87.9,117.2c0.1-0.1-0.1-0.3-0.2-0.2c-0.5,0.3-0.9,0.9-1,1.5s-0.1,1.2,0,1.8c0,0.1,0.2,0.1,0.3,0
			C87.2,119.5,87.3,118.4,87.9,117.2z"/>
	</g>
	<g>
		<path class="st8" d="M93.1,116.2c-0.2,0.2,0.8,0.3,0.9,0.7c0.2,0.3,0.2,0.7,0.2,1.2c0.2,1.7,0.1,3.3-0.2,4.9
			c-0.1,0.4-0.2,0.8-0.3,1.2c0,0.4-1.1,0.6-0.8,0.7c0.3,0,0.7-0.1,0.9-0.3c0.1-0.1,0.2-0.2,0.2-0.3c1-2,1.2-4.4,0.8-6.3
			c-0.1-0.4-0.2-0.9-0.5-1.2C93.9,116.2,93.4,116.1,93.1,116.2z"/>
	</g>
</g>
<g>
	<path class="st4" d="M83,133.2c0,0.9,0,3.5,1.8,4.5c0.9,0.5,2.2,0.8,3.7,0.9c1.4,0.1,2.9,0,4.3-0.1c2.8-0.3,3-3,3-4.1
		s0.2-3,0.2-3.1c0.5-4.1-2.4-4.5-4.7-4.3c-1.9,0.2-4.9,0.3-6.4,1.1C82.7,129.2,83,132.3,83,133.2z"/>
	<path class="st5" d="M84.8,133.3c0,1,0,3.7,1.8,4.7c0.5,0.3,1.1,0.5,1.8,0.7c1.4,0.1,2.9,0,4.3-0.1c2.8-0.3,3-3,3-4.1
		s0.2-3,0.2-3.1c0.5-4.1-2.4-4.7-4.7-4.3c-1.6,0.3-3.5,0.3-4.6,0.9C84.5,129.1,84.8,132.3,84.8,133.3z"/>
	<path class="st6" d="M93,137.7c1.5-0.2,2.2-1.2,2.2-3.2c0-1.1,0.2-3.1,0.2-3.2c0.3-2.9-1.1-3.4-2.3-3.8c-0.3-0.1-1-0.2-1.5-0.1
		c-1.6,0.3-3.3,0.9-4.2,1.3c-1.4,0.7-1.4,3-1.3,4.1c0,0.1,0,0.3,0,0.4c0,2.1,0.5,3.4,1.4,4c0.4,0.2,0.9,0.4,1.5,0.6
		C90.3,137.9,91.7,137.9,93,137.7z"/>
	<g>
		<path class="st8" d="M89.4,137c0.1,0,0.1-0.2,0-0.2c-0.4-0.2-1-0.4-1.3-0.7c-0.4-0.4-0.4-0.7-0.5-1.1c0-0.1-0.2-0.1-0.2,0
			c-0.1,0.5,0,1.1,0.3,1.5C88.1,136.8,88.8,137,89.4,137z"/>
	</g>
	<g>
		<path class="st8" d="M88.2,129.6c0.1-0.1-0.1-0.2-0.2-0.2c-0.5,0.3-0.8,0.9-1,1.4c-0.1,0.5-0.1,1.1,0,1.7c0,0.1,0.2,0.1,0.3,0
			C87.6,131.7,87.7,130.8,88.2,129.6z"/>
	</g>
	<g>
		<path class="st8" d="M93.1,128.7c-0.2,0.1,0.7,0.3,0.8,0.6c0.2,0.3,0.2,0.7,0.2,1.1c0.2,1.6,0.1,3.1-0.2,4.6
			c-0.1,0.4-0.2,0.8-0.3,1.1c0,0.4-1,0.6-0.8,0.7c0.3,0,0.7,0,0.9-0.3c0.1-0.1,0.1-0.2,0.2-0.3c0.9-1.8,1.1-4.1,0.7-5.9
			c-0.1-0.4-0.2-0.8-0.5-1.2C93.8,128.7,93.4,128.6,93.1,128.7z"/>
	</g>
	<path class="st7" d="M89.7,129.8c0-0.1,0-0.3,0.1-0.4c0.1-0.1,0.2-0.1,0.3-0.2c0.3-0.1,0.7-0.2,1-0.3c0.2-0.1,0.4-0.1,0.6,0
		s0.4,0.3,0.3,0.5c-0.2-0.1-0.6,0-0.7,0.2c-0.2,0.2-0.2,0.5-0.2,0.8s0.1,0.6,0.2,0.9c0.2,0.3,0.5,0.5,0.8,0.5c0.1,0,0.2,0,0.3,0
		c0.1,0,0.2,0.1,0.2,0.2c0,0.1-0.1,0.2-0.2,0.2s-0.2,0-0.3,0c-0.8-0.1-1.7,0.4-2,1.2s0.1,1.7,0.8,2.1c0.2,0.1,0.5,0.3,0.4,0.5
		c0,0.1-0.2,0.2-0.3,0.2c-0.1,0-0.3-0.1-0.4-0.1c-0.6-0.3-1.1-0.9-1.3-1.6c-0.1-0.3-0.1-0.5-0.2-0.7s-0.4-0.4-0.7-0.3
		c-0.3,0.1-0.5,0.5-0.8,0.4c-0.2,0-0.2-0.2-0.2-0.4s0.1-0.3,0.3-0.3c0.5-0.2,1.1,0.2,1.6,0c0.2-0.1,0.4-0.3,0.6-0.5
		c0.2-0.3,0.5-0.5,0.7-0.8c0,0-0.4-1-0.4-1.1c0-0.2,0-0.4,0-0.6c0-0.2,0.2-0.3,0.1-0.4C90.4,129.6,90.1,129.7,89.7,129.8z"/>
</g>
</svg>
