<svg id="Layer_1" data-name="Layer 1" xmlns="http://www.w3.org/2000/svg" viewBox="0 0 450 300"><defs><style>.cls-1{fill:#fff;}.cls-2{fill:#e66251;}.cls-3{fill:#de422f;}.cls-4{fill:#fc8a71;}.cls-5{fill:#d43320;}.cls-6{fill:#9fdaed;}.cls-7{fill:#b3e2f2;}.cls-8{fill:#cbedfa;}.cls-9{fill:#7fd8ef;}.cls-10{fill:#e3f7fc;}.cls-11{font-size:7.31px;font-family:Impact;}</style></defs><rect class="cls-1" width="450" height="300"/><path class="cls-2" d="M393.5,168.48c-3.44.57-5.34,1.82-6.23,8.48-1.59,11.91-2.34,53.39-30.13,53.39S328.29,188.91,327,177c-.74-6.89-3.28-8.43-6.33-8.48,0,0,10.67,0,19,6,12.39,8.93,20.41,9.93,35.72,0A41,41,0,0,1,393.5,168.48Z"/><path class="cls-3" d="M357.14,220.76c-4.61,0-10.48-1.49-15-13.13a76.67,76.67,0,0,1-4-16.35,3.39,3.39,0,0,1,4.85-3.52,31.45,31.45,0,0,0,13.87,3.39,34.31,34.31,0,0,0,14.36-3.39,3.38,3.38,0,0,1,4.73,3.57,75.85,75.85,0,0,1-4.21,17C367.31,219.35,361.61,220.76,357.14,220.76Z"/><path class="cls-2" d="M401.92,182.44c-1.5,10.2-3.49,22.92-12,39.07-9.54,18.16-25.2,19-30.55,19h-4.52c-5.35,0-21-.86-30.57-19a110.19,110.19,0,0,1-12.23-40.9c-.85-8.69-.43-10.9,4.29-11.64a26.24,26.24,0,0,1,4.3-.49c3.05.05,5.59,1.59,6.33,8.48,1.28,11.95,2.34,53.39,30.13,53.39S386,188.91,387.27,177c.8-7.49,3.73-8.66,7.13-8.46,1.14.07,2.32.28,3.5.47C402.62,169.71,403.32,172.87,401.92,182.44Z"/><path class="cls-4" d="M316.36,168.88c2.55-.4,5.66-1.06,7.69.54a5.91,5.91,0,0,1,1.65,2.06,10.75,10.75,0,0,1,.52,1.21,14.46,14.46,0,0,1,.52,1.91,18,18,0,0,1,.31,2c1.21,10,1.89,42.59,20,51.43a24,24,0,0,0,20.16,0c19.89-9.7,18.76-48,20.47-54a9.72,9.72,0,0,1,.37-1.27,5.18,5.18,0,0,1,.24-.61c.1-.2.17-.41.28-.6a5.79,5.79,0,0,1,1.65-2.06c2.08-1.61,5.11-.93,7.68-.54l0,.17c-2.42-.27-5.5-.83-7.38.74a5.3,5.3,0,0,0-1.45,1.94,11,11,0,0,0-.63,1.76c-.58,2.58-.52,3.2-.84,8.35-.76,11.94-2.4,25.58-8.18,36-3.77,6.78-9.15,11.75-16.76,13.41a25.42,25.42,0,0,1-16.3-1.83,24.74,24.74,0,0,1-8.49-7c-11.6-14.73-10.83-42.2-11.66-47a11.74,11.74,0,0,0-.22-1.25,10.61,10.61,0,0,0-.77-2.38,5.47,5.47,0,0,0-1.44-1.94,4.54,4.54,0,0,0-1-.62c-2-.75-4-.39-6.34-.12Z"/><path class="cls-5" d="M401.92,182.44a132.58,132.58,0,0,1-4.06,20.16,108.15,108.15,0,0,1-7.8,19,40.55,40.55,0,0,1-5.87,8.47,32.32,32.32,0,0,1-22.83,10.58,81.21,81.21,0,0,1-10.31-.13,32.29,32.29,0,0,1-22.19-11.87,41,41,0,0,1-3.67-5.3c-7.62-12.56-11.63-27.92-13.1-42.76h0a119.06,119.06,0,0,0,4.72,19.93,114.59,114.59,0,0,0,4.57,11.88c2.82,6.48,4.47,10.11,8.77,15.18a31.08,31.08,0,0,0,23.53,11.2,67.51,67.51,0,0,0,12.45-.58A30.82,30.82,0,0,0,383,229a41.2,41.2,0,0,0,5.76-8,112.69,112.69,0,0,0,11-28.44c.78-3.33,1.63-7.07,2.22-10Z"/><path class="cls-6" d="M322.67,182.1a23.94,23.94,0,0,1-3.21.33h0c-2.85.09-5.32-.36-5.93-1.12-1-1.2-1.18-4.55-1.16-6.05a4.84,4.84,0,0,1,.7-2.72c1.22-1.75,4.68-2.36,7.36-2.23h0a10.14,10.14,0,0,1,2.12.31c3.4.95,3.45,3.19,3.54,5.45C326.26,180.43,325.75,181.55,322.67,182.1Z"/><path class="cls-7" d="M322.67,182.1a23.94,23.94,0,0,1-3.21.33h0c-2.21-.08-4-.49-4.5-1.12-1-1.2-1.18-4.55-1.15-6.05a4.75,4.75,0,0,1,.69-2.72c1-1.45,3.56-2.11,5.93-2.23h0a10.14,10.14,0,0,1,2.12.31c3.4.95,3.45,3.19,3.54,5.45C326.26,180.43,325.75,181.55,322.67,182.1Z"/><path class="cls-8" d="M319.68,181.67c-2.48-.08-3.71-.56-3.91-.78-.65-.79-1-3.51-1-5.67a3.89,3.89,0,0,1,.54-2.27c.71-1,2.81-1.76,5.36-1.88a9,9,0,0,1,1.95.28c2.8.78,2.86,2.32,3,4.67v.07c.09,2.27,0,3.46-.39,4.12-.26.48-.76.86-2.34,1.14A22.39,22.39,0,0,1,319.68,181.67Z"/><path class="cls-9" d="M320.64,179.28a3.14,3.14,0,0,0,.26,1,1,1,0,0,0,.82.56.74.74,0,0,1-1.09-.07,2.05,2.05,0,0,1-.4-1.16l-.21-1.44a1,1,0,0,0-.26-.65.81.81,0,0,0-.76-.09,3,3,0,0,1-.78.18,4,4,0,0,1-.94-.28,1.56,1.56,0,0,0-1.53.5.82.82,0,0,1,.49-1,2,2,0,0,1,1.18,0,4.34,4.34,0,0,0,1.18.19,1.65,1.65,0,0,0,1.11-2.76c-.14-.16-.32-.28-.45-.45a.69.69,0,0,1-.18-.59.58.58,0,0,1,.74-.32.91.91,0,0,1,.52.68,2.66,2.66,0,0,1,0,.89,2.66,2.66,0,0,0,0,.89c.08.39.43.78.81.69a1.72,1.72,0,0,0,.38-.2,2,2,0,0,1,2.3.26.68.68,0,0,1,.23.39.31.31,0,0,1-.25.34c-.2,0-.31-.22-.45-.36a1.19,1.19,0,0,0-1.19-.16,5.52,5.52,0,0,0-1,.35c-.2.09-.74.28-.84.49s.1.8.13,1Z"/><path class="cls-10" d="M316.4,179a.19.19,0,0,1,.36-.07l.19.45a1.08,1.08,0,0,0,.42.54,2.94,2.94,0,0,0,1.15.41.19.19,0,0,1,0,.36,1.49,1.49,0,0,1-2.16-1.18A2.83,2.83,0,0,1,316.4,179Z"/><path class="cls-10" d="M322.87,180a2.93,2.93,0,0,0,1.16-1.84.19.19,0,0,1,.36,0,1.85,1.85,0,0,1-.13,1.44,1.4,1.4,0,0,1-1.31.73A.18.18,0,0,1,322.87,180Z"/><path class="cls-10" d="M321.44,172.5a.19.19,0,0,1,0-.36,2,2,0,0,1,2.52,1.8.19.19,0,0,1-.35.11A3.69,3.69,0,0,0,321.44,172.5Z"/><path class="cls-10" d="M316.12,175.65a.19.19,0,0,1-.36,0,1.86,1.86,0,0,1,.21-1.6,1.89,1.89,0,0,1,1.35-.9.19.19,0,0,1,.14.33A3.88,3.88,0,0,0,316.12,175.65Z"/><path class="cls-6" d="M328.48,192.6a4.43,4.43,0,0,1-1.8,2.23,14.09,14.09,0,0,1-6.24,1.63h0a7.37,7.37,0,0,1-3.11-.33c-3.26-1.5-3.05-10.07-2.91-10.66a2.61,2.61,0,0,1,1-1.44c1.59-1.2,4.74-1.68,7.37-1.58a11.46,11.46,0,0,1,3,.45,3.38,3.38,0,0,1,1.9,1.43C328.55,186,329,191.17,328.48,192.6Z"/><path class="cls-7" d="M328.48,192.6a4.43,4.43,0,0,1-1.8,2.23,14.09,14.09,0,0,1-6.24,1.63h0a4.89,4.89,0,0,1-1.65-.33c-3.26-1.5-3-10.07-2.91-10.66a2.57,2.57,0,0,1,1-1.44,11.14,11.14,0,0,1,8.86-1.13,3.38,3.38,0,0,1,1.9,1.43C328.55,186,329,191.17,328.48,192.6Z"/><path class="cls-8" d="M320.65,195.62a3.82,3.82,0,0,1-1.28-.25c-1-.46-1.82-2.26-2.21-4.93a24.22,24.22,0,0,1-.23-4.94,1.75,1.75,0,0,1,.63-.88,10.49,10.49,0,0,1,8.22-1,2.46,2.46,0,0,1,1.38,1c.84,1.48,1.2,6.56.82,7.72a3.51,3.51,0,0,1-1.46,1.76A13.53,13.53,0,0,1,320.65,195.62Z"/><path class="cls-9" d="M320.89,189.68c-.24-.14-.53-.38-.43-.65s.46-.26.68-.11.37.38.58.54.55.22.71,0a.58.58,0,0,0,.07-.37,2.22,2.22,0,0,0-.78-1.52c-.2-.16-.43-.29-.63-.46a1.06,1.06,0,0,1-.41-.65.54.54,0,0,1,.38-.6c.29-.06.54.18.75.39s.49.42.76.3.32-.45.38-.72.26-.61.53-.54a.41.41,0,0,1,.28.43,1.19,1.19,0,0,1-.18.54,6.17,6.17,0,0,0-.58,2.81.51.51,0,0,0,.16.43c.21.15.48,0,.69-.21a3.13,3.13,0,0,1,1.83-.69c.22,0,.49,0,.58.23a.41.41,0,0,1-.19.49,1.3,1.3,0,0,1-.55.16,4,4,0,0,0-1.56.42,2.25,2.25,0,0,0-.92,2.73,2.66,2.66,0,0,1,.29.77.53.53,0,0,1-.41.62.49.49,0,0,1-.45-.34,1.73,1.73,0,0,1-.06-.6l.07-1.46c0-.37.06-.89-.24-1.17A7.75,7.75,0,0,0,320.89,189.68Z"/><path class="cls-10" d="M320.1,185.23c.19,0,.16.18,0,.41a6,6,0,0,0-.64,3.51l.06.5a13,13,0,0,0,.75,2.89.24.24,0,0,1-.43.22c-1.28-1.7-2.16-5.65-.36-7.31A.77.77,0,0,1,320.1,185.23Z"/><path class="cls-10" d="M325.43,193.05a6,6,0,0,0,1.07-2.19.25.25,0,0,1,.45,0,2,2,0,0,1,0,1.61,1.49,1.49,0,0,1-1.42,1A.25.25,0,0,1,325.43,193.05Z"/><path class="cls-10" d="M325.09,185.06a.25.25,0,0,1-.07-.43c.81-.53,1.79.08,1.93,1.29a1.71,1.71,0,0,1,0,.55.24.24,0,0,1-.42.09c-.41-.5-.68-1-.85-1.19A1,1,0,0,0,325.09,185.06Z"/><path class="cls-6" d="M328.25,209.1c-.85.27-1.7.49-2.53.67-2.48.52-4.68.54-5.55-.26-1.17-1.06-3-6.49-2.81-9.62.15-2.25,2.81-3.47,4.29-4h0a8.44,8.44,0,0,1,1-.28c5.27-1.19,6,0,7,.74s2.07,5.75,2.3,7.94S331.64,208,328.25,209.1Z"/><path class="cls-7" d="M328.25,209.1c-.85.27-1.7.49-2.53.67-1.92.28-3.54.18-4.25-.48-1.17-1.09-3-6.64-2.79-9.85.12-1.7,1.6-2.84,3-3.51h0a8.44,8.44,0,0,1,1-.28c5.27-1.19,6,0,7,.74s2.07,5.75,2.3,7.94S331.64,208,328.25,209.1Z"/><path class="cls-8" d="M323.22,208.75a1.76,1.76,0,0,1-1-.3c-.84-.79-2.62-5.93-2.42-8.93.08-1.18,1.26-2,2.27-2.54.46-.15.76-.22.77-.22a18,18,0,0,1,4.56-.59,2.67,2.67,0,0,1,1.31.44,3.05,3.05,0,0,1,1.15,1.5,32.52,32.52,0,0,1,1.41,6.19c.17,1.59-.46,2.77-3.39,3.71a22.08,22.08,0,0,1-2.38.63A9.45,9.45,0,0,1,323.22,208.75Z"/><path class="cls-9" d="M328.28,206.37c.24,0,.54,0,.66-.22a.44.44,0,0,0-.25-.57,1.16,1.16,0,0,0-.69,0,1.47,1.47,0,0,1-.69,0,1.4,1.4,0,0,1-.73-.83l-.66-1.36a.72.72,0,0,1-.11-.37.58.58,0,0,1,.52-.51,2.07,2.07,0,0,1,.78.07,4.81,4.81,0,0,0,1.89,0,1,1,0,0,0,.5-.22.39.39,0,0,0,.07-.5.61.61,0,0,0-.44-.15l-1.85-.07a3.3,3.3,0,0,0-1.29.11,2.87,2.87,0,0,0-1.06.77.07.07,0,0,1-.11-.06A7.21,7.21,0,0,1,326.2,199a1.66,1.66,0,0,0,.38-.73c0-.27-.15-.6-.43-.59s-.41.28-.48.52-.1.8-.65.9a1.26,1.26,0,0,1-.64-.07,5.59,5.59,0,0,0-1.94-.35.54.54,0,0,0-.41.13.39.39,0,0,0,.14.55,1.07,1.07,0,0,0,.64.06,1.26,1.26,0,0,1,.64,0,.86.86,0,0,1,.53.61,2.55,2.55,0,0,1,0,.83,7,7,0,0,1-.23,1.76,2.31,2.31,0,0,1-1.06,1.38c-.17.09-.36.15-.4.38a.48.48,0,0,0,.36.54,1.12,1.12,0,0,0,1-.39c.35-.31.69-.68,1.22-.58a1.1,1.1,0,0,1,.83.7,1.69,1.69,0,0,1-.36,1.61c-.22.29-.47.59,0,.85s.84-.22,1.21-.37A4.24,4.24,0,0,1,328.28,206.37Z"/><path class="cls-10" d="M327.84,197.71a.21.21,0,0,1,.21-.3,1.1,1.1,0,0,1,.7.34,2.65,2.65,0,0,1,.63,2.45.22.22,0,0,1-.37.09,3.93,3.93,0,0,1-1-2A2.29,2.29,0,0,0,327.84,197.71Z"/><path class="cls-10" d="M330,203.29a1.37,1.37,0,0,1-.05,2.3.21.21,0,0,1-.3-.13,3.35,3.35,0,0,1-.19-1,3.18,3.18,0,0,1,.22-1A.22.22,0,0,1,330,203.29Z"/><path class="cls-10" d="M321.8,199.72a8,8,0,0,1,0,3.52.22.22,0,0,1-.39.07,3.29,3.29,0,0,1,0-3.67A.21.21,0,0,1,321.8,199.72Z"/><path class="cls-10" d="M322.22,206.09a.22.22,0,0,1,.37-.07,3.94,3.94,0,0,0,.79.84,6.36,6.36,0,0,0,1.1.46.22.22,0,0,1,0,.37,1.51,1.51,0,0,1-1.78.12A1.45,1.45,0,0,1,322.22,206.09Z"/><path class="cls-6" d="M324.66,210.42a5,5,0,0,0-2.16,1.91,5.65,5.65,0,0,0,.25,4.82,4.47,4.47,0,0,0,2.52,2.12,6,6,0,0,0,3.06,0c3.54-.79,4.73-3,3.94-5.69-.46-1.55-1.39-3.48-3-4S326.1,209.62,324.66,210.42Z"/><path class="cls-7" d="M325.19,210.32a5,5,0,0,0-2.17,1.91,5.66,5.66,0,0,0,.26,4.82,4.49,4.49,0,0,0,2.51,2.12,6,6,0,0,0,3.06,0c3.54-.79,4.73-3,3.94-5.69-.46-1.55-1.38-3.48-3-4S326.63,209.52,325.19,210.32Z"/><path class="cls-8" d="M327.07,218.44a3.85,3.85,0,0,1-.87-.15,3.69,3.69,0,0,1-2.08-1.74,4.9,4.9,0,0,1-.26-4.09,4.5,4.5,0,0,1,1.88-1.59,6.43,6.43,0,0,1,3.24-1,2.51,2.51,0,0,1,.77.15c1.5.51,2.29,2.65,2.56,3.55a3.47,3.47,0,0,1-.18,2.79,4.81,4.81,0,0,1-3.23,1.9,6.93,6.93,0,0,1-1.83.18Z"/><path class="cls-9" d="M327.71,217.8a.88.88,0,0,1-.24.11.2.2,0,0,1-.14-.38,1.2,1.2,0,0,1,.31-.13,1.44,1.44,0,0,0,.82-1,4.22,4.22,0,0,0,.08-1.33,1.84,1.84,0,0,0-.09-.57.57.57,0,0,0-.41-.37c-.18,0-.38.05-.54,0s-.18-.35-.12-.55a1.2,1.2,0,0,0,.09-.59.59.59,0,0,0-.56-.37,1.7,1.7,0,0,0-.68.19l-.83.36c-.12.05-.28.1-.38,0a.31.31,0,0,1-.06-.28,1,1,0,0,1,.8-.64c.36-.08.73-.06,1.07-.16.8-.24,1.4-1.07,2.23-1.08a.56.56,0,0,1-.22.7,5.17,5.17,0,0,0-.66.46.83.83,0,0,0,.16,1.19,4.44,4.44,0,0,1,.53.28.88.88,0,0,1,.24.75c0,.27-.1.53-.11.8a.81.81,0,0,0,.31.71c.29.18.64,0,.95,0s.55.06.38.31c-.06.1-.32.16-.43.21l-.49.24-1,.51C328.41,217.36,328.06,217.57,327.71,217.8Z"/><path class="cls-10" d="M330.07,211.87a.16.16,0,0,1,.18-.26,1.12,1.12,0,0,1,.5.37,3.43,3.43,0,0,1,.67,2,2.28,2.28,0,0,1-.07.57.16.16,0,0,1-.32,0l-.15-.49c-.1-.32-.19-.63-.29-.93A4,4,0,0,0,330.07,211.87Z"/><path class="cls-10" d="M324.66,214.23A10.08,10.08,0,0,0,326,217a.17.17,0,0,1-.23.23,3.1,3.1,0,0,1-1.15-1.26,2.47,2.47,0,0,1-.25-1.71A.17.17,0,0,1,324.66,214.23Z"/><path class="cls-6" d="M336.76,222.84c-.07,1.21-2.06,2.94-3.35,3.84a6.68,6.68,0,0,1-.88.55,3.5,3.5,0,0,1-3.06-.14c-1.2-.54-2.27-2.66-2.62-3.61a2.14,2.14,0,0,1,0-1.15,4.19,4.19,0,0,1,1.33-2.16,4.57,4.57,0,0,1,.49-.38,9.23,9.23,0,0,1,5.19-1.53C334.76,218.44,336.85,221.28,336.76,222.84Z"/><path class="cls-7" d="M333.31,226.76a7.07,7.07,0,0,1-1.39.74,3.29,3.29,0,0,1-3.07-.67,6.7,6.7,0,0,1-2.09-3.27,2.36,2.36,0,0,1,0-1.15,4.11,4.11,0,0,1,1.32-2.16,9.31,9.31,0,0,1,5.05-1.45c.89.19,3,3,2.89,4.59C336,224.41,334.54,225.81,333.31,226.76Z"/><path class="cls-8" d="M328.16,221.38a3.6,3.6,0,0,1,2.76-1.54c1.84,0,4.23,3.38,3.46,4.84a4,4,0,0,1-2.78,2.24c-1.37.4-2.26-.37-3.27-1.79A3.24,3.24,0,0,1,328.16,221.38Z"/><path class="cls-10" d="M331,226.42c.15,0,.32-.17.29-.32s-.11-.18-.19-.25a7,7,0,0,1-2.4-3.15,1.64,1.64,0,0,0-.14-.3.29.29,0,0,0-.53.16,5.26,5.26,0,0,0,.13,1C328.35,224.53,330.08,226.73,331,226.42Z"/><path class="cls-6" d="M342.36,232.08a5,5,0,0,1-2.22,3.16c-2.31,1-6-1.51-7-3.8a3.39,3.39,0,0,1,.57-3.71,12.51,12.51,0,0,1,2.88-2.57,4.14,4.14,0,0,1,5.07.08C343.59,226.9,343.13,229.67,342.36,232.08Z"/><path class="cls-7" d="M342.5,231.14a6.8,6.8,0,0,1-.82,2.52,3.56,3.56,0,0,1-1.54,1.58c-2.31,1-6-1.51-7-3.8a3.15,3.15,0,0,1-.08-2.6,4,4,0,0,1,1.31-1.63l.61-.43a7.8,7.8,0,0,1,3.73-1.53,4.13,4.13,0,0,1,3.65,2.57A7.27,7.27,0,0,1,342.5,231.14Z"/><path class="cls-8" d="M339.1,235c-1.76.11-4.88-2.22-5.62-3.78a2,2,0,0,1-.05-1.67,2.75,2.75,0,0,1,.93-1.14c.19-.14.37-.29.57-.41,1.94-1.1,6,2.33,6.39,3.7a3,3,0,0,1-.51,2.15,2,2,0,0,1-1.16,1A1.53,1.53,0,0,1,339.1,235Z"/><path class="cls-10" d="M339.31,234.32c.22-.11.43-.29.35-.48s-.22-.19-.37-.25a10.2,10.2,0,0,1-4.58-3.23,1.38,1.38,0,0,0-.31-.33c-.37-.25-.82,0-.74.34a5.07,5.07,0,0,0,.49,1.18C334.76,232.72,338.06,235,339.31,234.32Z"/><path class="cls-6" d="M348.5,238.87s-1,1.95-4.23.33c-3.86-2-3-3.58-3-3.58a19.35,19.35,0,0,1,1-2.06,14.26,14.26,0,0,1,3.33-4.13,2.32,2.32,0,0,1,2.29-.26s1.75.4,1.8,2A25.86,25.86,0,0,1,348.5,238.87Z"/><path class="cls-7" d="M349.4,235.07a18,18,0,0,1-.9,3.8s-1,1.95-4.23.33c-3.86-2-3-3.58-3-3.58a19.35,19.35,0,0,1,1-2.06,17.36,17.36,0,0,1,3-3.22,2.34,2.34,0,0,1,2.29-.27s1.75.4,1.8,2C349.43,232.7,349.44,233.84,349.4,235.07Z"/><path class="cls-8" d="M346.73,239.59a4.87,4.87,0,0,1-2.12-.62c-2.59-1.32-3-2.41-2.94-2.71a2,2,0,0,1,.39-.87,2.53,2.53,0,0,1,2.65-1.24,7.78,7.78,0,0,1,3,1.5,2.32,2.32,0,0,1,.7,2.44c-.08.26-.19.57-.35,1A1.52,1.52,0,0,1,346.73,239.59Z"/><path class="cls-10" d="M347.21,239.13c.17-.11.33-.29.24-.43a.5.5,0,0,0-.33-.17,8.42,8.42,0,0,1-4.14-2.22,1.32,1.32,0,0,0-.29-.24c-.33-.17-.67.06-.58.36C342.44,237.62,346.23,239.79,347.21,239.13Z"/><path class="cls-6" d="M356,241.06a23.5,23.5,0,0,1-5.57-.33c-1-.23-.68-1.88-.68-1.88s.18-1.18.43-2.53a28.19,28.19,0,0,1,.82-3.65c.49-1.29.63-2.21,2.7-2.21s2.4,2,2.63,2.75a21.29,21.29,0,0,1,.36,3.36v0C356.81,238.67,356.72,241,356,241.06Z"/><path class="cls-7" d="M356,241.06a23.5,23.5,0,0,1-5.57-.33c-1-.23-.68-1.88-.68-1.88s.18-1.18.43-2.53a14.85,14.85,0,0,1,.75-2.71c.51-1.29.77-2.18,2.9-2.18s2.28,2.41,2.52,3.11a5.14,5.14,0,0,1,.16.73,16.54,16.54,0,0,1,.22,2.72C356.74,239.59,356.56,241,356,241.06Z"/><path class="cls-8" d="M350.72,240.42a1.07,1.07,0,0,1-.55-.7,8.75,8.75,0,0,1,.44-2.14c.4-.6,5.6-.61,5.65.7a7.86,7.86,0,0,1-.15,2c-.05.23-.38.41-.6.46A12.46,12.46,0,0,1,350.72,240.42Z"/><path class="cls-10" d="M355.8,239.93c.11-.13.17-.26.05-.34s-.25,0-.38.06a6.35,6.35,0,0,1-4.12-.2l-.37-.14c-.33-.1-.58.06-.4.27C351.29,240.42,355.15,240.76,355.8,239.93Z"/><path class="cls-6" d="M391.61,182.1a23.94,23.94,0,0,0,3.21.33h0c2.85.09,5.32-.36,5.93-1.12,1-1.2,1.18-4.55,1.16-6.05a4.84,4.84,0,0,0-.7-2.72c-1.22-1.75-4.68-2.36-7.36-2.23h0a10.14,10.14,0,0,0-2.12.31c-3.41.95-3.46,3.19-3.54,5.45C388,180.43,388.53,181.55,391.61,182.1Z"/><path class="cls-7" d="M391.61,182.1a23.94,23.94,0,0,0,3.21.33h0c2.21-.08,4-.49,4.5-1.12,1-1.2,1.18-4.55,1.15-6.05a4.75,4.75,0,0,0-.69-2.72c-1-1.45-3.56-2.11-5.93-2.23h0a10.14,10.14,0,0,0-2.12.31c-3.41.95-3.46,3.19-3.54,5.45C388,180.43,388.53,181.55,391.61,182.1Z"/><path class="cls-8" d="M394.6,181.67c2.48-.08,3.71-.56,3.91-.78.65-.79,1-3.51,1-5.67a4,4,0,0,0-.54-2.27c-.71-1-2.81-1.76-5.36-1.88a9,9,0,0,0-1.95.28c-2.8.78-2.86,2.32-2.95,4.67v.07c-.09,2.27,0,3.46.39,4.12.26.48.76.86,2.34,1.14A22.39,22.39,0,0,0,394.6,181.67Z"/><path class="cls-9" d="M393.64,179.28a3.14,3.14,0,0,1-.26,1,1,1,0,0,1-.82.56.74.74,0,0,0,1.09-.07,2.05,2.05,0,0,0,.4-1.16l.21-1.44a1,1,0,0,1,.26-.65.81.81,0,0,1,.76-.09,3,3,0,0,0,.78.18,4,4,0,0,0,.94-.28,1.56,1.56,0,0,1,1.53.5.82.82,0,0,0-.49-1,2,2,0,0,0-1.18,0,4.34,4.34,0,0,1-1.18.19,1.66,1.66,0,0,1-1.43-1,1.64,1.64,0,0,1,.32-1.73c.14-.16.32-.28.45-.45a.69.69,0,0,0,.18-.59.58.58,0,0,0-.74-.32.91.91,0,0,0-.52.68,2.66,2.66,0,0,0,0,.89,2.66,2.66,0,0,1,0,.89c-.08.39-.43.78-.81.69a1.72,1.72,0,0,1-.38-.2,2,2,0,0,0-2.3.26.68.68,0,0,0-.23.39.31.31,0,0,0,.25.34c.2,0,.31-.22.45-.36a1.19,1.19,0,0,1,1.19-.16,5.52,5.52,0,0,1,1,.35c.2.09.74.28.84.49s-.1.8-.13,1Z"/><path class="cls-10" d="M397.88,179a.19.19,0,0,0-.36-.07l-.19.45a1.08,1.08,0,0,1-.42.54,2.94,2.94,0,0,1-1.15.41.19.19,0,0,0,0,.36,1.49,1.49,0,0,0,2.16-1.18A2.83,2.83,0,0,0,397.88,179Z"/><path class="cls-10" d="M391.41,180a2.93,2.93,0,0,1-1.16-1.84.19.19,0,0,0-.36,0,1.85,1.85,0,0,0,.13,1.44,1.4,1.4,0,0,0,1.31.73A.18.18,0,0,0,391.41,180Z"/><path class="cls-10" d="M392.84,172.5a.19.19,0,0,0,0-.36,2,2,0,0,0-2.52,1.8.19.19,0,0,0,.35.11A3.69,3.69,0,0,1,392.84,172.5Z"/><path class="cls-10" d="M398.16,175.65a.19.19,0,0,0,.36,0,1.86,1.86,0,0,0-.21-1.6,1.89,1.89,0,0,0-1.35-.9.19.19,0,0,0-.14.33A3.88,3.88,0,0,1,398.16,175.65Z"/><path class="cls-6" d="M385.8,192.6a4.43,4.43,0,0,0,1.8,2.23,14.09,14.09,0,0,0,6.24,1.63h0a7.37,7.37,0,0,0,3.11-.33c3.26-1.5,3.05-10.07,2.91-10.66a2.61,2.61,0,0,0-1-1.44c-1.59-1.2-4.74-1.68-7.37-1.58a11.46,11.46,0,0,0-3,.45,3.38,3.38,0,0,0-1.9,1.43C385.73,186,385.33,191.17,385.8,192.6Z"/><path class="cls-7" d="M385.8,192.6a4.43,4.43,0,0,0,1.8,2.23,14.09,14.09,0,0,0,6.24,1.63h0a4.89,4.89,0,0,0,1.65-.33c3.26-1.5,3.05-10.07,2.91-10.66a2.57,2.57,0,0,0-1-1.44,11.14,11.14,0,0,0-8.86-1.13,3.38,3.38,0,0,0-1.9,1.43C385.73,186,385.33,191.17,385.8,192.6Z"/><path class="cls-8" d="M393.63,195.62a3.82,3.82,0,0,0,1.28-.25c1-.46,1.82-2.26,2.21-4.93a25,25,0,0,0,.23-4.94,1.75,1.75,0,0,0-.63-.88,10.49,10.49,0,0,0-8.22-1,2.46,2.46,0,0,0-1.38,1c-.84,1.48-1.2,6.56-.82,7.72a3.51,3.51,0,0,0,1.46,1.76A13.53,13.53,0,0,0,393.63,195.62Z"/><path class="cls-9" d="M393.39,189.68c.24-.14.53-.38.43-.65s-.46-.26-.68-.11-.37.38-.58.54-.55.22-.71,0a.58.58,0,0,1-.07-.37,2.22,2.22,0,0,1,.78-1.52c.2-.16.43-.29.63-.46a1.06,1.06,0,0,0,.41-.65.54.54,0,0,0-.38-.6c-.29-.06-.54.18-.75.39s-.49.42-.76.3-.32-.45-.38-.72-.26-.61-.53-.54a.41.41,0,0,0-.28.43,1.19,1.19,0,0,0,.18.54,6.17,6.17,0,0,1,.58,2.81.54.54,0,0,1-.16.43c-.21.15-.48,0-.69-.21a3.13,3.13,0,0,0-1.83-.69c-.22,0-.49,0-.58.23a.41.41,0,0,0,.19.49,1.3,1.3,0,0,0,.55.16,4,4,0,0,1,1.56.42,2.25,2.25,0,0,1,.92,2.73,2.66,2.66,0,0,0-.29.77.53.53,0,0,0,.41.62.49.49,0,0,0,.45-.34,1.73,1.73,0,0,0,.06-.6l-.07-1.46c0-.37-.06-.89.24-1.17A7.75,7.75,0,0,1,393.39,189.68Z"/><path class="cls-10" d="M394.18,185.23c-.19,0-.16.18,0,.41a6,6,0,0,1,.64,3.51l-.06.5a13,13,0,0,1-.75,2.89.24.24,0,0,0,.42.22c1.29-1.7,2.17-5.65.37-7.31A.77.77,0,0,0,394.18,185.23Z"/><path class="cls-10" d="M388.85,193.05a6,6,0,0,1-1.07-2.19.25.25,0,0,0-.45,0,2,2,0,0,0,0,1.61,1.49,1.49,0,0,0,1.42,1A.25.25,0,0,0,388.85,193.05Z"/><path class="cls-10" d="M389.19,185.06a.25.25,0,0,0,.07-.43c-.81-.53-1.79.08-1.93,1.29a1.46,1.46,0,0,0,0,.55.24.24,0,0,0,.42.09c.41-.5.68-1,.85-1.19A1,1,0,0,1,389.19,185.06Z"/><path class="cls-6" d="M386.3,209.36a25.67,25.67,0,0,0,2.53.67c2.48.52,4.69.54,5.56-.26,1.16-1.05,3-6.48,2.81-9.61-.15-2.26-2.82-3.47-4.29-4h0c-.57-.19-1-.28-1-.28-5.26-1.19-6.05,0-7,.74s-2.07,5.75-2.3,7.95S382.91,208.27,386.3,209.36Z"/><path class="cls-7" d="M386.3,209.36a25.67,25.67,0,0,0,2.53.67c1.93.28,3.54.18,4.26-.48,1.16-1.09,3-6.64,2.78-9.85-.11-1.7-1.6-2.83-3-3.51h0c-.57-.19-1-.28-1-.28-5.26-1.19-6.05,0-7,.74s-2.07,5.75-2.3,7.95S382.91,208.27,386.3,209.36Z"/><path class="cls-8" d="M391.34,209a1.7,1.7,0,0,0,1-.3c.85-.79,2.63-5.93,2.43-8.93-.08-1.18-1.27-2-2.28-2.54-.45-.15-.76-.22-.76-.22a18,18,0,0,0-4.57-.59,2.67,2.67,0,0,0-1.31.44,3.09,3.09,0,0,0-1.14,1.5,31.71,31.71,0,0,0-1.41,6.2c-.18,1.58.45,2.76,3.38,3.7.8.26,1.6.47,2.38.64A10,10,0,0,0,391.34,209Z"/><path class="cls-9" d="M386.28,206.63c-.25,0-.55,0-.66-.22a.43.43,0,0,1,.25-.57,1.12,1.12,0,0,1,.68,0,1.47,1.47,0,0,0,.69,0c.37-.11.57-.49.74-.83l.66-1.36a1,1,0,0,0,.11-.37.59.59,0,0,0-.52-.51,2.3,2.3,0,0,0-.78.07,4.86,4.86,0,0,1-1.9,0,1,1,0,0,1-.5-.22.4.4,0,0,1-.07-.5.65.65,0,0,1,.45-.15l1.84-.07a3.33,3.33,0,0,1,1.3.11,3,3,0,0,1,1.05.77.07.07,0,0,0,.12-.05,7.3,7.3,0,0,0-1.38-3.45,1.62,1.62,0,0,1-.39-.73c0-.27.15-.6.43-.59s.42.28.48.53.11.79.66.89a1.23,1.23,0,0,0,.63-.07,5.58,5.58,0,0,1,1.94-.34.55.55,0,0,1,.42.12.39.39,0,0,1-.15.55,1,1,0,0,1-.63.06,1.43,1.43,0,0,0-.65,0,.87.87,0,0,0-.52.61,2.57,2.57,0,0,0-.06.83,7,7,0,0,0,.24,1.76,2.33,2.33,0,0,0,1.05,1.38c.17.09.36.16.41.38a.49.49,0,0,1-.36.54,1.13,1.13,0,0,1-1.05-.39c-.34-.31-.68-.67-1.22-.58a1.08,1.08,0,0,0-.82.7,1.66,1.66,0,0,0,.35,1.61c.23.29.47.59,0,.85s-.84-.22-1.21-.37A4.41,4.41,0,0,0,386.28,206.63Z"/><path class="cls-10" d="M386.71,198a.21.21,0,0,0-.2-.31,1.17,1.17,0,0,0-.71.34,2.62,2.62,0,0,0-.62,2.45.21.21,0,0,0,.36.09,3.85,3.85,0,0,0,1-2.05A2.61,2.61,0,0,1,386.71,198Z"/><path class="cls-10" d="M384.56,203.55a1.37,1.37,0,0,0,0,2.3.21.21,0,0,0,.3-.12,2.8,2.8,0,0,0,0-2.08A.23.23,0,0,0,384.56,203.55Z"/><path class="cls-10" d="M392.75,200a8,8,0,0,0,0,3.52.22.22,0,0,0,.39.07,3.29,3.29,0,0,0,0-3.66A.22.22,0,0,0,392.75,200Z"/><path class="cls-10" d="M392.33,206.35a.21.21,0,0,0-.36-.07,4.26,4.26,0,0,1-.8.84,6.36,6.36,0,0,1-1.1.46.22.22,0,0,0-.05.37,1.5,1.5,0,0,0,1.78.12A1.43,1.43,0,0,0,392.33,206.35Z"/><path class="cls-6" d="M389.62,210.42a5,5,0,0,1,2.16,1.91,5.65,5.65,0,0,1-.25,4.82,4.47,4.47,0,0,1-2.52,2.12,6,6,0,0,1-3.06,0c-3.54-.79-4.73-3-3.94-5.69.46-1.55,1.39-3.48,3-4S388.18,209.62,389.62,210.42Z"/><path class="cls-7" d="M389.09,210.32a5,5,0,0,1,2.17,1.91,5.66,5.66,0,0,1-.26,4.82,4.49,4.49,0,0,1-2.51,2.12,6,6,0,0,1-3.06,0c-3.54-.79-4.73-3-3.94-5.69.46-1.55,1.38-3.48,3-4S387.65,209.52,389.09,210.32Z"/><path class="cls-8" d="M387.21,218.44a3.85,3.85,0,0,0,.87-.15,3.69,3.69,0,0,0,2.08-1.74,4.9,4.9,0,0,0,.26-4.09,4.5,4.5,0,0,0-1.88-1.59,6.43,6.43,0,0,0-3.24-1,2.51,2.51,0,0,0-.77.15c-1.5.51-2.29,2.65-2.56,3.55a3.47,3.47,0,0,0,.18,2.79,4.81,4.81,0,0,0,3.23,1.9,6.93,6.93,0,0,0,1.83.18Z"/><path class="cls-9" d="M386.57,217.8a.88.88,0,0,0,.24.11.2.2,0,0,0,.14-.38,1.2,1.2,0,0,0-.31-.13,1.44,1.44,0,0,1-.82-1,4.22,4.22,0,0,1-.08-1.33,1.84,1.84,0,0,1,.09-.57.57.57,0,0,1,.41-.37c.18,0,.38.05.54,0s.18-.35.12-.55a1.2,1.2,0,0,1-.09-.59.59.59,0,0,1,.56-.37,1.7,1.7,0,0,1,.68.19l.83.36c.12.05.28.1.38,0a.31.31,0,0,0,.06-.28,1,1,0,0,0-.8-.64c-.36-.08-.73-.06-1.07-.16-.8-.24-1.4-1.07-2.23-1.08a.56.56,0,0,0,.22.7,5.17,5.17,0,0,1,.66.46.83.83,0,0,1-.16,1.19,4.44,4.44,0,0,0-.53.28.88.88,0,0,0-.24.75c0,.27.1.53.11.8a.81.81,0,0,1-.31.71c-.29.18-.64,0-1,0-.16,0-.55.06-.38.31.06.1.32.16.43.21l.49.24.95.51C385.87,217.36,386.22,217.57,386.57,217.8Z"/><path class="cls-10" d="M384.21,211.87a.16.16,0,0,0-.18-.26,1.12,1.12,0,0,0-.5.37,3.43,3.43,0,0,0-.67,2,2.28,2.28,0,0,0,.07.57.16.16,0,0,0,.32,0l.15-.49c.1-.32.19-.63.29-.93A4,4,0,0,1,384.21,211.87Z"/><path class="cls-10" d="M389.62,214.23a10.08,10.08,0,0,1-1.3,2.74.17.17,0,0,0,.23.23,3.1,3.1,0,0,0,1.15-1.26,2.47,2.47,0,0,0,.25-1.71A.17.17,0,0,0,389.62,214.23Z"/><path class="cls-6" d="M377.52,222.84c.07,1.21,2.06,2.94,3.35,3.84a6.68,6.68,0,0,0,.88.55,3.5,3.5,0,0,0,3.06-.14c1.2-.54,2.27-2.66,2.62-3.61a2.14,2.14,0,0,0,0-1.15,4.19,4.19,0,0,0-1.33-2.16,4.57,4.57,0,0,0-.49-.38,9.23,9.23,0,0,0-5.19-1.53C379.52,218.44,377.43,221.28,377.52,222.84Z"/><path class="cls-7" d="M381,226.76a7.07,7.07,0,0,0,1.39.74,3.29,3.29,0,0,0,3.07-.67,6.7,6.7,0,0,0,2.09-3.27,2.36,2.36,0,0,0,0-1.15,4.11,4.11,0,0,0-1.32-2.16,9.31,9.31,0,0,0-5.05-1.45c-.89.19-3,3-2.89,4.59C378.3,224.41,379.74,225.81,381,226.76Z"/><path class="cls-8" d="M386.12,221.38a3.6,3.6,0,0,0-2.76-1.54c-1.84,0-4.24,3.38-3.46,4.84a4,4,0,0,0,2.78,2.24c1.37.4,2.26-.37,3.27-1.79A3.24,3.24,0,0,0,386.12,221.38Z"/><path class="cls-10" d="M383.3,226.42c-.15,0-.32-.17-.29-.32s.11-.18.19-.25a7,7,0,0,0,2.4-3.15,1.64,1.64,0,0,1,.14-.3.29.29,0,0,1,.53.16,5.26,5.26,0,0,1-.13,1C385.93,224.53,384.2,226.73,383.3,226.42Z"/><path class="cls-6" d="M371.92,232.08a5,5,0,0,0,2.22,3.16c2.31,1,6-1.51,7-3.8a3.39,3.39,0,0,0-.57-3.71,12.51,12.51,0,0,0-2.88-2.57,4.14,4.14,0,0,0-5.07.08C370.69,226.9,371.15,229.67,371.92,232.08Z"/><path class="cls-7" d="M371.78,231.14a6.8,6.8,0,0,0,.82,2.52,3.56,3.56,0,0,0,1.54,1.58c2.31,1,6-1.51,7-3.8a3.15,3.15,0,0,0,.08-2.6,4,4,0,0,0-1.31-1.63l-.61-.43a7.8,7.8,0,0,0-3.73-1.53,4.13,4.13,0,0,0-3.65,2.57A7.27,7.27,0,0,0,371.78,231.14Z"/><path class="cls-8" d="M375.18,235c1.76.11,4.88-2.22,5.62-3.78a2,2,0,0,0,.05-1.67,2.75,2.75,0,0,0-.93-1.14c-.19-.14-.37-.29-.57-.41-1.94-1.1-6,2.33-6.39,3.7a3,3,0,0,0,.51,2.15,2,2,0,0,0,1.16,1A1.53,1.53,0,0,0,375.18,235Z"/><path class="cls-10" d="M375,234.32c-.22-.11-.43-.29-.35-.48s.22-.19.37-.25a10.2,10.2,0,0,0,4.58-3.23,1.38,1.38,0,0,1,.31-.33c.37-.25.82,0,.74.34a5.07,5.07,0,0,1-.49,1.18C379.52,232.72,376.22,235,375,234.32Z"/><path class="cls-6" d="M365.77,238.87s1,1.95,4.24.33c3.86-2,3-3.58,3-3.58a19.35,19.35,0,0,0-1-2.06,14.26,14.26,0,0,0-3.33-4.13,2.32,2.32,0,0,0-2.29-.26s-1.75.4-1.8,2A26.16,26.16,0,0,0,365.77,238.87Z"/><path class="cls-7" d="M364.88,235.07a18.48,18.48,0,0,0,.89,3.8s1,1.95,4.24.33c3.86-2,3-3.58,3-3.58a19.35,19.35,0,0,0-1-2.06,17.36,17.36,0,0,0-3-3.22,2.34,2.34,0,0,0-2.29-.27s-1.75.4-1.8,2C364.85,232.7,364.84,233.84,364.88,235.07Z"/><path class="cls-8" d="M367.55,239.59a4.91,4.91,0,0,0,2.12-.62c2.59-1.32,3-2.41,2.94-2.71a2.1,2.1,0,0,0-.39-.87,2.53,2.53,0,0,0-2.65-1.24,7.71,7.71,0,0,0-2.95,1.5,2.32,2.32,0,0,0-.7,2.44c.08.26.19.57.35,1A1.52,1.52,0,0,0,367.55,239.59Z"/><path class="cls-10" d="M367.07,239.13c-.17-.11-.33-.29-.24-.43a.5.5,0,0,1,.33-.17,8.46,8.46,0,0,0,4.14-2.22,1.13,1.13,0,0,1,.29-.24c.33-.17.67.06.58.36C371.84,237.62,368.05,239.79,367.07,239.13Z"/><path class="cls-6" d="M358.27,241.06a23.5,23.5,0,0,0,5.57-.33c1-.23.68-1.88.68-1.88s-.18-1.18-.43-2.53a28.19,28.19,0,0,0-.82-3.65c-.49-1.29-.63-2.21-2.7-2.21s-2.4,2-2.63,2.75a21.29,21.29,0,0,0-.36,3.36v0C357.47,238.67,357.56,241,358.27,241.06Z"/><path class="cls-7" d="M358.27,241.06a23.5,23.5,0,0,0,5.57-.33c1-.23.68-1.88.68-1.88s-.18-1.18-.43-2.53a14.85,14.85,0,0,0-.75-2.71c-.51-1.29-.77-2.18-2.9-2.18s-2.28,2.41-2.53,3.11c0,.11-.09.37-.15.73a16.54,16.54,0,0,0-.22,2.72C357.54,239.59,357.72,241,358.27,241.06Z"/><path class="cls-8" d="M363.56,240.42a1.07,1.07,0,0,0,.55-.7,8.75,8.75,0,0,0-.44-2.14c-.4-.6-5.6-.61-5.65.7a7.86,7.86,0,0,0,.15,2c.05.23.38.41.6.46A12.46,12.46,0,0,0,363.56,240.42Z"/><path class="cls-10" d="M358.48,239.93c-.11-.13-.17-.26-.05-.34s.25,0,.38.06a6.35,6.35,0,0,0,4.12-.2l.37-.14c.33-.1.58.06.4.27C363,240.42,359.13,240.76,358.48,239.93Z"/><path class="cls-5" d="M391.94,142.12l-.34,0-.26,0h0c-3.36-.35-11.18-1.8-15.44-7.71-4.08-5.67-11.51-8.47-18.93-8.44s-14.78,2.85-18.8,8.44S326.5,141.63,323,142l-.91.09.42-.05h0l.26,0c6-1.06,4.16-14.43,4.21-21.48s-1.53-46.06,29.93-46.14h.1c26.57,0,29.64,27.71,30,40.67.06,2.44,0,4.35,0,5.47.06,7-1.82,20.42,4.21,21.48l.18,0Z"/><path class="cls-3" d="M391.75,142.12c-2.9-.23-11.51-1.45-16.06-7.76-4-5.62-11.38-8.42-18.74-8.44s-14.93,2.81-19,8.44S326.6,141.57,323,142l-.5.06h0l-.61.05c.22,0,.45-.06.69-.1,5.51-1,4.42-12.22,4.24-19.53,0-.69,0-1.35,0-1.95.06-7.06-1.54-46.14,30-46.14h.09c24.77.07,29.05,24.24,29.78,38,.2,3.71.14,6.66.15,8.17,0,.61,0,1.27,0,2-.19,7.31-1.28,18.54,4.23,19.51l.26,0h0Z"/><path class="cls-2" d="M391.75,142.12c-2.9-.23-11.51-1.45-16.06-7.76-4-5.62-11.38-8.42-18.74-8.44s-14.78,2.85-18.8,8.44S326.5,141.63,323,142l-.91.09s1-.15,1-.16c5.1-1.59,4.12-12.61,3.93-19.93.24-12.6,3.26-41.47,30.38-41.47,21.43,0,27.57,18,29.32,31.81q.18,1.38.3,2.7c.24,2.61.34,5,.37,7-.18,7.17-1.09,18.65,4.06,20l.17,0Z"/><path class="cls-3" d="M375.34,122.22c-10.09-8-25.56-8.15-35.83-.59a1.43,1.43,0,0,1-2.23-1.24v0c.18-9,1.47-16.43,3.85-22,3.3-7.67,8.49-11.24,16.33-11.24,6.42,0,10.94,2.32,14.22,7.28,4.57,6.93,5.78,17.44,5.95,25.94,0,.2,0,.41,0,.64A1.42,1.42,0,0,1,375.34,122.22Z"/><path class="cls-2" d="M398.65,138.57a5.63,5.63,0,0,1-5.72,3.61,8.86,8.86,0,0,1-1-.05c-.27,0-.51-.07-.72-.11-6-1.06-4.15-14.43-4.21-21.48s1.54-46.14-30-46.14-30,39.08-30,46.14c0,2.86.27,6.77.23,10.47-.06,5.41-.86,10.38-4.44,11a10.39,10.39,0,0,1-1.67.16H321a5.64,5.64,0,0,1-5.65-3.61c-.32-.88-.65-1.76-1-2.7-2.23-6.81-3.45-16.1,2.33-42.05,6.46-29,34.28-30.38,39.44-30.39h1.65c5.16,0,33,1.4,39.44,30.39C403.85,123.31,401.38,131.29,398.65,138.57Z"/><path class="cls-5" d="M398.82,138.53a5.88,5.88,0,0,1-1.79,2.52,7.22,7.22,0,0,1-5.76,1.14c-4.6-.76-4.69-8.41-4.64-13.13,0-3.15.23-6,.21-8.86a100.93,100.93,0,0,0-.82-14.72c-2.52-18-11-30.81-29-30.78-14.43,0-25.87,8.37-29,30.78a92.44,92.44,0,0,0-.81,11.76v3c-.06,5.24.8,12.88-.58,17.72-.61,2.09-1.71,3.93-3.86,4.27a9.29,9.29,0,0,1-1.49.15,6.93,6.93,0,0,1-4.26-1.29,5.81,5.81,0,0,1-1.77-2.51l.29,0a5.19,5.19,0,0,0,1.79,2.14c1.56,1.06,3.14,1.17,5.29.68a3.06,3.06,0,0,0,1.91-1.34,11.26,11.26,0,0,0,1.35-5.16c.45-6.82-1.69-16.58-.21-29.68s6.63-25.84,18.78-31a33.68,33.68,0,0,1,25.16,0c12.16,5.2,17.31,17.94,18.78,31s-.66,22.91-.21,29.68a11.26,11.26,0,0,0,1.35,5.16c1.78,2.63,6.49,1.8,8.23-.28a4.83,4.83,0,0,0,.75-1.2Z"/><path class="cls-4" d="M316.66,93.8a48.82,48.82,0,0,1,1.39-5c.12-.36.11-.33.91-2.42.08-.2.91-2,1.07-2.35.54-1,1.05-2,1.68-3a34.27,34.27,0,0,1,9.33-10c7.44-5.35,17.28-7.89,26-7.82s18.49,2.44,26,7.82a34.3,34.3,0,0,1,9.34,10c.63,1,1.14,2,1.68,3,.15.31,1,2.14,1.06,2.35.75,2,.78,2,.91,2.42a45.36,45.36,0,0,1,1.39,5l-.18,0a30.51,30.51,0,0,0-1.12-3.23,29.78,29.78,0,0,0-1.3-3.15c-.56-1.23-.27-.61-.73-1.52-.27-.5-.52-1-.78-1.5-.59-1-1.13-1.94-1.79-2.84a33.21,33.21,0,0,0-4.25-5.12,35.18,35.18,0,0,0-5.1-4.19c-1-.64-1.12-.74-1.4-.89-.47-.28-.94-.57-1.43-.83-1.64-.83,0-.08-3-1.47a49.36,49.36,0,0,0-38.65,0c-2.73,1.3-1.39.68-2.95,1.48-.48.26-.95.55-1.43.82-.27.15-.41.25-1.39.89a36.54,36.54,0,0,0-5.1,4.19,32.11,32.11,0,0,0-4.25,5.12c-.66.91-1.21,1.88-1.79,2.84-.27.5-.52,1-.78,1.5-.45.88-.2.35-.74,1.52a32.11,32.11,0,0,0-1.3,3.15,33.25,33.25,0,0,0-1.11,3.23Z"/><path class="cls-6" d="M332.23,85.6c-.2.82-1.53,4.57-4.47,4.43a15.13,15.13,0,0,1-4-.79c-1.91-.64-3.44-1.55-3.74-2.26-1.39-3.27,1.37-8,3.22-9.14.88-.53,3.09-.33,6.17,2.08l.18.14C332.58,82.42,332.52,84.44,332.23,85.6Z"/><path class="cls-7" d="M330.89,85.84c-.89,2.8-2.63,3.53-3.58,3.72a3.6,3.6,0,0,1-.95.06,12.3,12.3,0,0,1-2.56-.38c-1.91-.64-3.44-1.55-3.74-2.26-1.39-3.27,1.37-8,3.22-9.14.88-.53,3.09-.33,6.17,2.08A5.83,5.83,0,0,1,330.89,85.84Z"/><path class="cls-8" d="M326.39,88.92c-3.4-.17-5.87-1.66-6.18-2.31-1.23-2.9,1.36-7.43,2.84-8.32a3.45,3.45,0,0,1,.58-.37c.86-.16,2.31,0,4.76,2a5.19,5.19,0,0,1,1.83,5.73C329.12,89.1,326.7,88.94,326.39,88.92Z"/><path class="cls-9" d="M322,85.66a1,1,0,0,0-.34.11.29.29,0,0,0-.14.31.28.28,0,0,0,.3.18.78.78,0,0,0,.35-.15l1.16-.69a1,1,0,0,1,.71-.2c.24.06.39.29.53.49l.63,1c.12.18.31.38.5.28a.29.29,0,0,0,.11-.37.83.83,0,0,0-.27-.32,2.76,2.76,0,0,1-.88-1.15,3,3,0,0,1,.45-2.13,2.44,2.44,0,0,1,.79-1,4.8,4.8,0,0,1,1.62-.38c.2,0,.44-.2.39-.4s-.31-.22-.5-.18c-.46.11-.91.41-1.38.31a1.32,1.32,0,0,1-.8-.67,8.6,8.6,0,0,0-.55-.92c-.19-.23-.54-.42-.77-.23a.6.6,0,0,0-.06.69,14.52,14.52,0,0,1,.73,1.34,2.08,2.08,0,0,1-.13,1.45,15.21,15.21,0,0,1-.81,1.55A2.71,2.71,0,0,1,322,85.66Z"/><path class="cls-10" d="M322.77,80.19c.42-.23-.17.48-.82,2.2s-.7,2.87-.83,2.21A6.16,6.16,0,0,1,322.77,80.19Z"/><path class="cls-10" d="M325.2,79.48c-.26-.46,2.22.41,1.67.52A5.08,5.08,0,0,1,325.2,79.48Z"/><path class="cls-10" d="M322.57,87a4.21,4.21,0,0,1,1.71.53C324.35,87.9,322.09,87.34,322.57,87Z"/><path class="cls-10" d="M326.81,86.76a5.4,5.4,0,0,0,1.12-1.49,4.23,4.23,0,0,0,.21-.57,6.44,6.44,0,0,0,.44-2.47,3.65,3.65,0,0,1,.28,2.72,3.27,3.27,0,0,1-.25.64A3.32,3.32,0,0,1,326.81,86.76Z"/><path class="cls-7" d="M336.93,76.65c-.33,2.15-2.93,3.56-3.76,3.76-.67.17-6-2.49-7.55-4.06h0a1.89,1.89,0,0,1-.59-.91c-.16-1.36,4.55-6.93,6.65-7a2.78,2.78,0,0,1,1.17.86h0C334.31,70.76,337.17,75.05,336.93,76.65Z"/><path class="cls-8" d="M327.69,76.39a2.79,2.79,0,0,1-2.07-1.23c-.15-.5,3-5.24,5.67-6.3.3-.12,1.49,1.31,1.59,1.63.2.67-1.66,1.92-2.81,3.14C329.09,74.67,328.18,76.24,327.69,76.39Z"/><path class="cls-6" d="M336.93,76.65c-.33,2.15-2.93,3.56-3.76,3.76-.67.17-6-2.49-7.55-4.06.13.08,6.28,3.45,7.27,3.08s3.14-2,3-3.27-2.06-5.45-3.08-6.9C334.31,70.76,337.17,75.05,336.93,76.65Z"/><path class="cls-10" d="M327,74.81a10.17,10.17,0,0,1,4.25-4.7.09.09,0,0,1,.11.13c-.83.94-2.71,2.85-4.21,4.66A.09.09,0,0,1,327,74.81Z"/><path class="cls-7" d="M333.55,66.77c.22-1.32,6.2-5.24,8.21-4.77.87.35,3.74,8.45,2.83,10.38s-3.59,2.5-4.43,2.46S333.32,68.09,333.55,66.77Z"/><path class="cls-6" d="M344.59,72.38c-.91,1.93-3.59,2.5-4.43,2.46s-6-5.75-6.59-7.77c1.31,2,5.64,6.33,6.32,6.36a4.69,4.69,0,0,0,4-2.44c.66-1.39-.83-6.4-1.6-8.3C343.64,65,345.33,70.8,344.59,72.38Z"/><path class="cls-8" d="M335.79,68.38c-.49,0-1.6-1.21-1.6-1.73s4.29-4.08,7.09-4.32c.31,0,1,1.64,1,2,0,.68-2.09,1.34-3.51,2.16C337.58,67.16,336.29,68.38,335.79,68.38Z"/><path class="cls-10" d="M335.26,66.18A10,10,0,0,1,340.58,63a.09.09,0,0,1,.07.16c-1,.64-3.35,1.89-5.28,3.15A.08.08,0,0,1,335.26,66.18Z"/><path class="cls-7" d="M351.21,72.63c-4.58,0-6.69-8.13-6.8-11v0c0-.16,1.22-2.72,6.21-2.72s6.1,1.11,6.2,1.91S355.8,72.63,351.21,72.63Z"/><path class="cls-8" d="M350.53,63.49c-3.42,0-4.94,1.22-5.15-1.69.28-.42,1.53-1.88,5.15-1.88,4.46,0,5.12.91,5.17,1C356.34,63.13,355,63.17,350.53,63.49Z"/><path class="cls-6" d="M351.21,72.63c-4.57,0-6.77-8.11-6.88-11,.06.37,1.8,9.81,6.85,9.49,3.94-.25,5.56-10.34,5.56-10.34C356.84,61.6,355.8,72.63,351.21,72.63Z"/><path class="cls-10" d="M346.86,61.08a11.77,11.77,0,0,1,7.51-.31.08.08,0,0,1,0,.16c-1.45.1-4.58.07-7.45.31A.08.08,0,0,1,346.86,61.08Z"/><path class="cls-6" d="M329.3,96.33a8.38,8.38,0,0,1-1.72,3.16,3.82,3.82,0,0,1-1.44.55,9.72,9.72,0,0,1-6.05-.81,9.52,9.52,0,0,1-2.31-1.57C316,96,315.5,94.2,316.54,92c.32-.67.76-2.16,2-2.75s2.92-.33,4.2-.1l.57.12h0a9,9,0,0,1,2.56.95C328.39,91.73,330.11,93.5,329.3,96.33Z"/><path class="cls-7" d="M328.42,96a9,9,0,0,1-1.67,3.15,3.79,3.79,0,0,1-1.36.51,10.24,10.24,0,0,1-1.84.17c-.24,0-.47,0-.71,0a10.31,10.31,0,0,1-2.75-.59,9.52,9.52,0,0,1-2.31-1.57C316,96,315.5,94.2,316.54,92c.32-.67.76-2.16,2-2.75s2.92-.33,4.2-.1l.57.12h0a8.16,8.16,0,0,1,1.63.71l.23.14C328.11,91.92,329.09,93.69,328.42,96Z"/><path class="cls-8" d="M326.74,95.77a11.76,11.76,0,0,1-1.54,2.91,2.54,2.54,0,0,1-2,.88h0a7.72,7.72,0,0,1-5.09-2.24c-1.71-1.59-2.07-3.16-1.14-5.1l.18-.41a3,3,0,0,1,3.24-2.44,12.81,12.81,0,0,1,2.24.26,6.34,6.34,0,0,1,2.49.86l.21.12C328,92.25,327.35,93.62,326.74,95.77Z"/><path class="cls-9" d="M323.63,94.13c.21-.14-.62-.4-.82-.58a1.52,1.52,0,0,1-.54-1,.57.57,0,0,1,.33-.62.53.53,0,0,1,.49.15c.13.11.24.26.36.38a1.54,1.54,0,0,0,1.13.46.1.1,0,0,0,.09-.06c0-.19-.13-.38-.29-.51l-.94-.81a8.54,8.54,0,0,0-1.24-.93,2.8,2.8,0,0,0-1.38-.4.1.1,0,0,0-.11.1.59.59,0,0,0,.24.46c.17.13.38.21.55.34a1.47,1.47,0,0,1,.49,1,2.52,2.52,0,0,1-1.12,2.44c-.2.12-.44.24-.52.47a1.1,1.1,0,0,0,.09.66.64.64,0,0,1-.06.63.59.59,0,0,1-.5.12,2,2,0,0,0-.54-.06c-.17,0-.35.17-.34.35a.35.35,0,0,0,.3.29,1.33,1.33,0,0,0,.44,0,4.91,4.91,0,0,1,3,.4c.17.09.4.18.55.06a.31.31,0,0,0,.07-.39.57.57,0,0,0-.33-.28,2.49,2.49,0,0,0-.95-.13,1.56,1.56,0,0,1-1.07-.31.65.65,0,0,1-.22-.5c0-.35.31-.52.6-.61A2.37,2.37,0,0,0,322,95a.91.91,0,0,0,.41-.8.28.28,0,0,1,.32-.29l.25,0C323.22,93.94,323.45,94.25,323.63,94.13Z"/><path class="cls-10" d="M324.44,97.5a.11.11,0,0,1-.12-.17,4.59,4.59,0,0,0,.79-1.14,4.43,4.43,0,0,0,.2-.57,5.82,5.82,0,0,0,.41-1.94.1.1,0,0,1,.2,0,3.54,3.54,0,0,1-.19,2.82A2.77,2.77,0,0,1,324.44,97.5Z"/><path class="cls-10" d="M319.17,90.74c-.14.4-.18.47-.84,2.17s-.5,2.17-.84,2.17C317,94.2,318.46,90.51,319.17,90.74Z"/><path class="cls-10" d="M323.21,90.55c.57-.27,2,.8,2.08,1.44C325.07,92.36,323.21,90.93,323.21,90.55Z"/><path class="cls-10" d="M320.44,98c-.25.46,2.65.86,2.48.45A10,10,0,0,0,320.44,98Z"/><path class="cls-6" d="M327.74,108.12a9.66,9.66,0,0,1-2,4.85,6.44,6.44,0,0,1-4.38,1.91,10.31,10.31,0,0,1-3.73-.52c-.35-.11-.7-.23-1-.37a7.53,7.53,0,0,1-4.2-3.28,8.67,8.67,0,0,1-.38-5.19c.25-1.6.06-3,1.1-4.41A5.31,5.31,0,0,1,316.71,99a7.28,7.28,0,0,1,1.92.08c.6.1,1.19.25,1.77.4a17.42,17.42,0,0,1,4.53,1.59,6,6,0,0,1,3,3.64A8.23,8.23,0,0,1,327.74,108.12Z"/><path class="cls-7" d="M325.74,107.67a9.64,9.64,0,0,1-2,4.85,6.46,6.46,0,0,1-4.38,1.91,8.42,8.42,0,0,1-1.74-.07c-.35-.11-.7-.23-1-.37a7.53,7.53,0,0,1-4.2-3.28,8.67,8.67,0,0,1-.38-5.19c.25-1.6.06-3,1.1-4.41A5.31,5.31,0,0,1,316.71,99a7.28,7.28,0,0,1,1.92.08,17,17,0,0,1,4.31,1.54,5.93,5.93,0,0,1,2.95,3.64A8.06,8.06,0,0,1,325.74,107.67Z"/><path class="cls-8" d="M316.34,113.12c-1.79-.57-2.74-1-3.59-2.69a8,8,0,0,1-.29-4.79c.26-1.7.07-3,1-4.16A4.49,4.49,0,0,1,317,99.7a6.84,6.84,0,0,1,1.14.11c1.57.39,1.8.22,3,.93a5.11,5.11,0,0,1,2.59,3.11,7.8,7.8,0,0,1-.16,3.1,9.29,9.29,0,0,1-1.86,4.57C320.66,112.66,319.1,114.14,316.34,113.12Z"/><path class="cls-9" d="M314.94,110.55a.18.18,0,0,0,0,.35,3.12,3.12,0,0,0,2.27,0,1.69,1.69,0,0,0,1-1c.14-.42,0-.92.23-1.32a1.25,1.25,0,0,1,1.06-.57,4.84,4.84,0,0,1,1.25.18.9.9,0,0,0,.46,0,.34.34,0,0,0,.24-.36c-.06-.22-.35-.25-.58-.23l-1.73.14a2.08,2.08,0,0,1-.66,0,.67.67,0,0,1-.49-.4,1,1,0,0,1,.14-.75l.59-1.22a.63.63,0,0,1,.22-.31c.25-.17.6,0,.78.28s.28.56.54.72.49.1.53-.11a.32.32,0,0,0-.19-.33c-.12-.07-.26-.09-.39-.15a1.24,1.24,0,0,1-.61-1.06c0-.43,0-.87-.06-1.29a3.86,3.86,0,0,0-.86-1.59,1.7,1.7,0,0,0-.51-.49.55.55,0,0,0-.66.07.63.63,0,0,0,.11.81c.2.22.47.37.65.6a1.42,1.42,0,0,1,.2,1.17,4.31,4.31,0,0,1-.47,1.11,1,1,0,0,1-.49.53c-.33.11-.66-.13-.92-.35a1.79,1.79,0,0,0-1.25-.58.75.75,0,0,0-.56.33c-.24.42.08.81.45,1a4,4,0,0,0,.92.17c.45.07,1,.29,1,.74s-.43.95-.37,1.45c.09.7,1.08,1.16.2,1.76A4.63,4.63,0,0,1,314.94,110.55Z"/><path class="cls-10" d="M318.63,112.28a.19.19,0,0,1-.1-.36,12.6,12.6,0,0,0,1.3-.93,15,15,0,0,0,1.18-1.1.19.19,0,0,1,.33.18A3.08,3.08,0,0,1,318.63,112.28Z"/><path class="cls-10" d="M320.63,101.82a.2.2,0,0,1,.19-.33,2.85,2.85,0,0,1,1.55,1.24,2.81,2.81,0,0,1,.38,2,.2.2,0,0,1-.38,0A6,6,0,0,0,320.63,101.82Z"/><path class="cls-10" d="M314,103.17a.2.2,0,0,1-.35-.07,1.73,1.73,0,0,1,.33-1.25,1.76,1.76,0,0,1,1.1-.7.2.2,0,0,1,.18.32c-.12.14-.3.38-.64.84Z"/><path class="cls-10" d="M313.59,107a6.76,6.76,0,0,1,.27,2.37.2.2,0,0,1-.35.11,2.65,2.65,0,0,1-.29-2.51A.2.2,0,0,1,313.59,107Z"/><path class="cls-6" d="M325.54,121.07c0,1,0,3.77-1.94,4.88a9.48,9.48,0,0,1-3.92,1,24.94,24.94,0,0,1-4.57-.12c-3-.35-3.18-3.22-3.21-4.37s-.2-3.26-.2-3.33c-.47-4.16,2-4.68,3.38-5.12a5,5,0,0,1,1.76-.06,23,23,0,0,1,6.76,1.75C325.87,116.78,325.54,120.08,325.54,121.07Z"/><path class="cls-7" d="M323.59,121.09c0,1,0,3.94-1.94,5.1a6.52,6.52,0,0,1-2,.73,24.94,24.94,0,0,1-4.57-.12c-3-.35-3.18-3.22-3.21-4.37s-.2-3.26-.2-3.33c-.47-4.16,2-4.68,3.38-5.12a5,5,0,0,1,1.76-.06,20.63,20.63,0,0,1,4.81,1.53C323.92,116.61,323.59,120.06,323.59,121.09Z"/><path class="cls-8" d="M314.77,125.87c-1.59-.18-2.32-1.25-2.38-3.45,0-1.18-.2-3.31-.21-3.43-.36-3.15,1.16-3.62,2.51-4a3.44,3.44,0,0,1,1.57-.09,19.85,19.85,0,0,1,4.51,1.43c1.53.78,1.47,3.24,1.44,4.43,0,.15,0,.28,0,.38,0,2.25-.5,3.69-1.49,4.29a5.42,5.42,0,0,1-1.61.61A24.15,24.15,0,0,1,314.77,125.87Z"/><path class="cls-9" d="M316.82,124.07l.92-.24.79-.2c.31-.07.61-.13.92-.18.12,0,.25,0,.31-.14s0-.34-.19-.39a.88.88,0,0,0-.48.06l-1,.31a.45.45,0,0,1-.3,0c-.12,0-.17-.19-.21-.32a4,4,0,0,1-.18-1.23,1.91,1.91,0,0,1,1.36-1.64,1.9,1.9,0,0,0,.4-.14.34.34,0,0,0,.19-.35.33.33,0,0,0-.34-.23,1,1,0,0,0-.42.13l-.8.39a.48.48,0,0,1-.43.06.5.5,0,0,1-.17-.41l-.06-1a1,1,0,0,1,.23-.86c.28-.23.69-.08,1,.12a1.69,1.69,0,0,0,1,.42.46.46,0,0,0,.31-.13.28.28,0,0,0,0-.32c-.07-.11-.21-.13-.34-.16a4.13,4.13,0,0,1-2.43-1.4,3.12,3.12,0,0,0-.43-.46.67.67,0,0,0-.58-.17.41.41,0,0,0-.32.47c.07.25.39.31.6.47a1.4,1.4,0,0,1,.39,1.14l0,1.44a1,1,0,0,1-.1.56.61.61,0,0,1-.48.27,1.13,1.13,0,0,1-.55-.15,2.23,2.23,0,0,0-.45-.25.39.39,0,0,0-.47.11.37.37,0,0,0,.09.48.86.86,0,0,0,.49.18,3.19,3.19,0,0,1,.54.07,1.17,1.17,0,0,1,.65.66,3.23,3.23,0,0,1,.21.93,2,2,0,0,1-.25,1.6,4.29,4.29,0,0,1-.69.49c-.1.07-.41.34-.36.49s.29,0,.38-.06A4.26,4.26,0,0,1,316.82,124.07Z"/><path class="cls-10" d="M318.65,125.06a.12.12,0,0,1,0-.23A5.07,5.07,0,0,0,320,124a2.91,2.91,0,0,0,.57-1.21.13.13,0,0,1,.24,0,1.83,1.83,0,0,1-.37,1.64A2.48,2.48,0,0,1,318.65,125.06Z"/><path class="cls-10" d="M319.9,117.21a.14.14,0,0,1,.21-.18,2.5,2.5,0,0,1,1,1.52,3.66,3.66,0,0,1,0,1.8.14.14,0,0,1-.27,0A16.94,16.94,0,0,0,319.9,117.21Z"/><path class="cls-10" d="M314.72,116.22c.25.16-.75.32-.91.66a3.51,3.51,0,0,0-.24,1.15,16.06,16.06,0,0,0,.25,4.91c.08.4.17.8.29,1.21s1.09.64.82.73a1.11,1.11,0,0,1-.95-.31,1.08,1.08,0,0,1-.19-.3,9.46,9.46,0,0,1-.76-6.33,3.29,3.29,0,0,1,.49-1.25A1.13,1.13,0,0,1,314.72,116.22Z"/><path class="cls-6" d="M324.83,133.23c0,.93,0,3.51-1.81,4.55a9,9,0,0,1-3.65.91,23.34,23.34,0,0,1-4.26-.12c-2.8-.33-3-3-3-4.07s-.18-3-.19-3.1c-.53-4.06,2.38-4.47,4.69-4.27,1.91.17,4.86.32,6.4,1.07C325.14,129.23,324.83,132.31,324.83,133.23Z"/><path class="cls-7" d="M323,133.25c0,1,0,3.67-1.81,4.75a6.35,6.35,0,0,1-1.83.69,23.34,23.34,0,0,1-4.26-.12c-2.8-.33-3-3-3-4.07s-.18-3-.19-3.1c-.53-4.06,2.42-4.73,4.69-4.27,1.61.33,3.48.3,4.58.86C323.31,129.08,323,132.29,323,133.25Z"/><path class="cls-8" d="M314.8,137.71c-1.49-.18-2.17-1.17-2.23-3.22,0-1.1-.18-3.08-.19-3.2-.33-2.94,1.08-3.37,2.33-3.76a3.46,3.46,0,0,1,1.47-.09,18.24,18.24,0,0,1,4.2,1.34c1.43.73,1.37,3,1.34,4.12v.36c0,2.1-.47,3.44-1.39,4a5.6,5.6,0,0,1-1.5.57A22.6,22.6,0,0,1,314.8,137.71Z"/><path class="cls-10" d="M318.4,137a.12.12,0,0,1,0-.22,4.79,4.79,0,0,0,1.35-.74c.36-.36.36-.74.53-1.13a.12.12,0,0,1,.22,0,1.73,1.73,0,0,1-.35,1.53A2.38,2.38,0,0,1,318.4,137Z"/><path class="cls-10" d="M319.58,129.63a.13.13,0,0,1,.19-.17,2.43,2.43,0,0,1,1,1.42,3.53,3.53,0,0,1,0,1.68.13.13,0,0,1-.25,0A16.46,16.46,0,0,0,319.58,129.63Z"/><path class="cls-10" d="M314.75,128.72c.23.14-.71.29-.85.6a3.41,3.41,0,0,0-.23,1.08,15.13,15.13,0,0,0,.23,4.57c.08.37.17.75.28,1.13s1,.6.76.68a1,1,0,0,1-.88-.28,1.15,1.15,0,0,1-.18-.29,8.79,8.79,0,0,1-.71-5.89,3,3,0,0,1,.46-1.17A1,1,0,0,1,314.75,128.72Z"/><path class="cls-9" d="M318.07,129.75a.33.33,0,0,0-.1-.36.83.83,0,0,0-.34-.2,9.32,9.32,0,0,0-1-.33,1.2,1.2,0,0,0-.65,0,.45.45,0,0,0-.31.5.58.58,0,0,1,.73.17,1.27,1.27,0,0,1,.22.78,1.73,1.73,0,0,1-.23.92,1,1,0,0,1-.78.5,1.74,1.74,0,0,0-.32,0,.24.24,0,0,0-.19.23.21.21,0,0,0,.2.17.67.67,0,0,0,.28,0,1.77,1.77,0,0,1,1.13,3.29c-.2.1-.46.25-.41.47a.33.33,0,0,0,.3.21.77.77,0,0,0,.36-.12,2.69,2.69,0,0,0,1.26-1.6,3.07,3.07,0,0,1,.25-.74.59.59,0,0,1,.65-.32c.28.09.47.47.76.39a.33.33,0,0,0,.21-.37.51.51,0,0,0-.29-.35c-.5-.24-1.12.17-1.65,0a1.56,1.56,0,0,1-.56-.46l-.72-.81a6,6,0,0,0,.41-1.07,1.82,1.82,0,0,0,0-.57c-.05-.16-.16-.25-.12-.44A6.32,6.32,0,0,1,318.07,129.75Z"/><path class="cls-6" d="M382,85.6c.2.82,1.53,4.57,4.48,4.43a15.14,15.14,0,0,0,3.95-.79c1.91-.64,3.44-1.55,3.74-2.26,1.39-3.27-1.37-8-3.22-9.14-.88-.53-3.09-.33-6.17,2.08l-.18.14C381.62,82.42,381.68,84.44,382,85.6Z"/><path class="cls-7" d="M383.31,85.84c.89,2.8,2.63,3.53,3.59,3.72a3.53,3.53,0,0,0,.94.06,12.3,12.3,0,0,0,2.56-.38c1.91-.64,3.44-1.55,3.74-2.26,1.39-3.27-1.37-8-3.22-9.14-.88-.53-3.09-.33-6.17,2.08A5.83,5.83,0,0,0,383.31,85.84Z"/><path class="cls-8" d="M387.81,88.92c3.4-.17,5.87-1.66,6.18-2.31,1.23-2.9-1.36-7.43-2.84-8.32a3.45,3.45,0,0,0-.58-.37c-.86-.16-2.31,0-4.76,2A5.19,5.19,0,0,0,384,85.64C385.09,89.1,387.5,88.94,387.81,88.92Z"/><path class="cls-9" d="M392.17,85.66a1,1,0,0,1,.34.11.31.31,0,0,1,.15.31.3.3,0,0,1-.31.18.78.78,0,0,1-.35-.15l-1.16-.69a1,1,0,0,0-.71-.2c-.24.06-.39.29-.53.49l-.63,1c-.11.18-.31.38-.5.28a.3.3,0,0,1-.11-.37.83.83,0,0,1,.27-.32,2.68,2.68,0,0,0,.88-1.15,2.94,2.94,0,0,0-.45-2.13,2.44,2.44,0,0,0-.79-1,4.8,4.8,0,0,0-1.62-.38c-.2,0-.44-.2-.39-.4s.31-.22.5-.18c.46.11.91.41,1.38.31a1.32,1.32,0,0,0,.8-.67,8.6,8.6,0,0,1,.55-.92c.19-.23.54-.42.77-.23a.6.6,0,0,1,.06.69,14.52,14.52,0,0,0-.73,1.34,2.08,2.08,0,0,0,.13,1.45,15.21,15.21,0,0,0,.81,1.55A2.71,2.71,0,0,0,392.17,85.66Z"/><path class="cls-10" d="M391.43,80.19c-.41-.23.17.48.83,2.2s.69,2.87.82,2.21A6.16,6.16,0,0,0,391.43,80.19Z"/><path class="cls-10" d="M389,79.48c.26-.46-2.22.41-1.67.52A5.08,5.08,0,0,0,389,79.48Z"/><path class="cls-10" d="M391.63,87a4.21,4.21,0,0,0-1.71.53C389.85,87.9,392.11,87.34,391.63,87Z"/><path class="cls-10" d="M387.39,86.76a5.4,5.4,0,0,1-1.12-1.49,4.23,4.23,0,0,1-.21-.57,6.44,6.44,0,0,1-.44-2.47,3.7,3.7,0,0,0-.28,2.72,3.27,3.27,0,0,0,.25.64A3.32,3.32,0,0,0,387.39,86.76Z"/><path class="cls-7" d="M377.27,76.65c.33,2.15,2.93,3.56,3.76,3.76.67.17,6-2.49,7.55-4.06h0a1.89,1.89,0,0,0,.59-.91c.16-1.36-4.55-6.93-6.65-7a2.78,2.78,0,0,0-1.17.86h0C379.89,70.76,377,75.05,377.27,76.65Z"/><path class="cls-8" d="M386.51,76.39a2.78,2.78,0,0,0,2.07-1.23c.15-.5-3-5.24-5.67-6.3-.3-.12-1.49,1.31-1.59,1.63-.2.67,1.66,1.92,2.81,3.14C385.11,74.67,386,76.24,386.51,76.39Z"/><path class="cls-6" d="M377.27,76.65c.33,2.15,2.93,3.56,3.76,3.76.67.17,6-2.49,7.55-4.06-.13.08-6.28,3.45-7.27,3.08s-3.14-2-3-3.27,2.06-5.45,3.08-6.9C379.89,70.76,377,75.05,377.27,76.65Z"/><path class="cls-10" d="M387.2,74.81a10.17,10.17,0,0,0-4.25-4.7.09.09,0,0,0-.11.13c.83.94,2.71,2.85,4.21,4.66A.09.09,0,0,0,387.2,74.81Z"/><path class="cls-7" d="M380.65,66.77c-.22-1.32-6.2-5.24-8.21-4.77-.87.35-3.74,8.45-2.83,10.38s3.59,2.5,4.43,2.46S380.88,68.09,380.65,66.77Z"/><path class="cls-6" d="M369.61,72.38c.91,1.93,3.59,2.5,4.43,2.46s6-5.75,6.6-7.77c-1.32,2-5.65,6.33-6.33,6.36a4.69,4.69,0,0,1-4-2.44c-.65-1.39.83-6.4,1.6-8.3C370.56,65,368.87,70.8,369.61,72.38Z"/><path class="cls-8" d="M378.41,68.38c.49,0,1.6-1.21,1.6-1.73s-4.29-4.08-7.09-4.32c-.31,0-1,1.64-1,2,0,.68,2.09,1.34,3.51,2.16C376.62,67.16,377.91,68.38,378.41,68.38Z"/><path class="cls-10" d="M378.94,66.18A10,10,0,0,0,373.62,63a.09.09,0,0,0-.07.16c1,.64,3.35,1.89,5.28,3.15A.08.08,0,0,0,378.94,66.18Z"/><path class="cls-7" d="M363,72.63c4.58,0,6.69-8.13,6.8-11v0c0-.16-1.22-2.72-6.21-2.72s-6.1,1.11-6.2,1.91S358.4,72.63,363,72.63Z"/><path class="cls-8" d="M363.67,63.49c3.42,0,4.94,1.22,5.15-1.69-.28-.42-1.53-1.88-5.15-1.88-4.45,0-5.12.91-5.17,1C357.86,63.13,359.23,63.17,363.67,63.49Z"/><path class="cls-6" d="M363,72.63c4.57,0,6.77-8.11,6.88-11-.06.37-1.8,9.81-6.85,9.49-3.94-.25-5.56-10.34-5.56-10.34C357.36,61.6,358.4,72.63,363,72.63Z"/><path class="cls-10" d="M367.34,61.08a11.77,11.77,0,0,0-7.51-.31.08.08,0,0,0,0,.16c1.45.1,4.58.07,7.45.31A.08.08,0,0,0,367.34,61.08Z"/><path class="cls-6" d="M384.9,96.33a8.52,8.52,0,0,0,1.72,3.16,3.82,3.82,0,0,0,1.44.55,9.72,9.72,0,0,0,6.05-.81,9.52,9.52,0,0,0,2.31-1.57C398.2,96,398.7,94.2,397.66,92c-.32-.67-.76-2.16-2-2.75s-2.92-.33-4.19-.1l-.58.12h0a9,9,0,0,0-2.56.95C385.81,91.73,384.09,93.5,384.9,96.33Z"/><path class="cls-7" d="M385.78,96a9,9,0,0,0,1.67,3.15,3.79,3.79,0,0,0,1.36.51,10.24,10.24,0,0,0,1.84.17c.24,0,.47,0,.71,0a10.31,10.31,0,0,0,2.75-.59,9.52,9.52,0,0,0,2.31-1.57C398.2,96,398.7,94.2,397.66,92c-.32-.67-.76-2.16-2-2.75s-2.92-.33-4.19-.1l-.58.12h0a8.16,8.16,0,0,0-1.63.71l-.23.14C386.09,91.92,385.12,93.69,385.78,96Z"/><path class="cls-8" d="M387.46,95.77A11.76,11.76,0,0,0,389,98.68a2.54,2.54,0,0,0,2,.88h0a7.72,7.72,0,0,0,5.09-2.24c1.72-1.59,2.07-3.16,1.14-5.1l-.18-.41a3,3,0,0,0-3.24-2.44,12.81,12.81,0,0,0-2.24.26,6.34,6.34,0,0,0-2.49.86l-.21.12C386.23,92.25,386.85,93.62,387.46,95.77Z"/><path class="cls-9" d="M390.57,94.13c-.21-.14.62-.4.82-.58a1.52,1.52,0,0,0,.54-1,.57.57,0,0,0-.33-.62.53.53,0,0,0-.49.15c-.13.11-.24.26-.36.38a1.54,1.54,0,0,1-1.13.46.1.1,0,0,1-.09-.06c0-.19.13-.38.29-.51l.94-.81A8.54,8.54,0,0,1,392,90.6a2.8,2.8,0,0,1,1.38-.4.1.1,0,0,1,.11.1.59.59,0,0,1-.24.46c-.17.13-.38.21-.55.34a1.47,1.47,0,0,0-.49,1,2.52,2.52,0,0,0,1.12,2.44c.2.12.44.24.52.47a1.1,1.1,0,0,1-.09.66.64.64,0,0,0,.06.63.6.6,0,0,0,.5.12,2,2,0,0,1,.54-.06c.17,0,.36.17.34.35a.35.35,0,0,1-.3.29,1.33,1.33,0,0,1-.44,0,4.91,4.91,0,0,0-3,.4c-.17.09-.39.18-.55.06a.31.31,0,0,1-.07-.39.57.57,0,0,1,.33-.28,2.52,2.52,0,0,1,.95-.13,1.56,1.56,0,0,0,1.07-.31.65.65,0,0,0,.22-.5c0-.35-.31-.52-.6-.61a2.37,2.37,0,0,1-.65-.22.91.91,0,0,1-.41-.8.28.28,0,0,0-.32-.29l-.25,0C391,93.94,390.75,94.25,390.57,94.13Z"/><path class="cls-10" d="M389.76,97.5a.11.11,0,0,0,.12-.17,4.59,4.59,0,0,1-.79-1.14,4.43,4.43,0,0,1-.2-.57,5.82,5.82,0,0,1-.41-1.94.1.1,0,0,0-.2,0,3.54,3.54,0,0,0,.19,2.82A2.77,2.77,0,0,0,389.76,97.5Z"/><path class="cls-10" d="M395,90.74c.14.4.18.47.85,2.17s.49,2.17.83,2.17C397.16,94.2,395.74,90.51,395,90.74Z"/><path class="cls-10" d="M391,90.55c-.57-.27-2,.8-2.08,1.44C389.13,92.36,391,90.93,391,90.55Z"/><path class="cls-10" d="M393.76,98c.25.46-2.65.86-2.48.45A10,10,0,0,1,393.76,98Z"/><path class="cls-6" d="M386.46,108.12a9.66,9.66,0,0,0,2,4.85,6.44,6.44,0,0,0,4.38,1.91,10.31,10.31,0,0,0,3.73-.52c.35-.11.7-.23,1-.37a7.5,7.5,0,0,0,4.2-3.28,8.67,8.67,0,0,0,.38-5.19c-.25-1.6-.06-3-1.1-4.41A5.31,5.31,0,0,0,397.49,99a7.28,7.28,0,0,0-1.92.08c-.6.1-1.18.25-1.77.4a17.42,17.42,0,0,0-4.53,1.59,6,6,0,0,0-3,3.64A8.23,8.23,0,0,0,386.46,108.12Z"/><path class="cls-7" d="M388.46,107.67a9.64,9.64,0,0,0,2,4.85,6.48,6.48,0,0,0,4.38,1.91,8.42,8.42,0,0,0,1.74-.07c.35-.11.7-.23,1-.37a7.5,7.5,0,0,0,4.2-3.28,8.67,8.67,0,0,0,.38-5.19c-.25-1.6-.06-3-1.1-4.41A5.31,5.31,0,0,0,397.49,99a7.28,7.28,0,0,0-1.92.08,17,17,0,0,0-4.31,1.54,6,6,0,0,0-2.95,3.64A8.06,8.06,0,0,0,388.46,107.67Z"/><path class="cls-8" d="M397.86,113.12c1.79-.57,2.74-1,3.59-2.69a8.12,8.12,0,0,0,.3-4.79c-.27-1.7-.08-3-1-4.16a4.49,4.49,0,0,0-3.58-1.78,6.84,6.84,0,0,0-1.14.11c-1.57.39-1.8.22-3,.93a5.14,5.14,0,0,0-2.59,3.11,7.8,7.8,0,0,0,.16,3.1,9.29,9.29,0,0,0,1.86,4.57C393.54,112.66,395.1,114.14,397.86,113.12Z"/><path class="cls-9" d="M399.26,110.55a.18.18,0,0,1,0,.35,3.12,3.12,0,0,1-2.27,0,1.69,1.69,0,0,1-1-1c-.14-.42,0-.92-.23-1.32a1.25,1.25,0,0,0-1.06-.57,4.84,4.84,0,0,0-1.25.18.9.9,0,0,1-.46,0,.34.34,0,0,1-.24-.36c.06-.22.35-.25.58-.23l1.73.14a2.08,2.08,0,0,0,.66,0,.65.65,0,0,0,.49-.4,1,1,0,0,0-.14-.75l-.59-1.22a.63.63,0,0,0-.22-.31c-.25-.17-.6,0-.77.28s-.29.56-.55.72-.49.1-.53-.11a.32.32,0,0,1,.19-.33c.12-.07.26-.09.39-.15a1.24,1.24,0,0,0,.61-1.06c0-.43,0-.87.06-1.29a3.89,3.89,0,0,1,.87-1.59,1.56,1.56,0,0,1,.5-.49.55.55,0,0,1,.66.07.63.63,0,0,1-.11.81c-.2.22-.47.37-.65.6a1.42,1.42,0,0,0-.2,1.17,4.31,4.31,0,0,0,.47,1.11,1,1,0,0,0,.49.53c.33.11.66-.13.92-.35a1.79,1.79,0,0,1,1.25-.58.75.75,0,0,1,.56.33c.24.42-.08.81-.45,1a4,4,0,0,1-.92.17c-.45.07-1,.29-1,.74s.43.95.37,1.45c-.09.7-1.08,1.16-.2,1.76A4.63,4.63,0,0,0,399.26,110.55Z"/><path class="cls-10" d="M395.57,112.28a.19.19,0,0,0,.1-.36,12.6,12.6,0,0,1-1.3-.93,15,15,0,0,1-1.18-1.1.19.19,0,0,0-.33.18A3.08,3.08,0,0,0,395.57,112.28Z"/><path class="cls-10" d="M393.58,101.82a.2.2,0,0,0-.2-.33,2.88,2.88,0,0,0-1.93,3.2.2.2,0,0,0,.38,0A6,6,0,0,1,393.58,101.82Z"/><path class="cls-10" d="M400.16,103.17a.2.2,0,0,0,.35-.07,1.73,1.73,0,0,0-.33-1.25,1.76,1.76,0,0,0-1.1-.7.2.2,0,0,0-.18.32c.12.14.3.38.64.84Z"/><path class="cls-10" d="M400.61,107a7,7,0,0,0-.27,2.37.2.2,0,0,0,.35.11,2.65,2.65,0,0,0,.29-2.51A.2.2,0,0,0,400.61,107Z"/><path class="cls-6" d="M388.66,121.07c0,1,0,3.77,1.94,4.88a9.48,9.48,0,0,0,3.92,1,24.94,24.94,0,0,0,4.57-.12c3-.35,3.18-3.22,3.21-4.37s.2-3.26.21-3.33c.46-4.16-2-4.68-3.39-5.12a5,5,0,0,0-1.76-.06,23,23,0,0,0-6.76,1.75C388.33,116.78,388.66,120.08,388.66,121.07Z"/><path class="cls-7" d="M390.62,121.09c0,1,0,3.94,1.93,5.1a6.52,6.52,0,0,0,2,.73,24.94,24.94,0,0,0,4.57-.12c3-.35,3.18-3.22,3.21-4.37s.2-3.26.21-3.33c.46-4.16-2-4.68-3.39-5.12a5,5,0,0,0-1.76-.06,20.63,20.63,0,0,0-4.81,1.53C390.28,116.61,390.62,120.06,390.62,121.09Z"/><path class="cls-8" d="M399.43,125.87c1.59-.18,2.32-1.25,2.38-3.45,0-1.18.2-3.31.21-3.43.36-3.15-1.16-3.62-2.51-4a3.44,3.44,0,0,0-1.57-.09,19.85,19.85,0,0,0-4.51,1.43c-1.53.78-1.47,3.24-1.44,4.43,0,.15,0,.28,0,.38,0,2.25.5,3.69,1.49,4.29a5.42,5.42,0,0,0,1.61.61A24.12,24.12,0,0,0,399.43,125.87Z"/><path class="cls-9" d="M397.38,124.07l-.92-.24-.79-.2c-.31-.07-.61-.13-.92-.18-.12,0-.25,0-.31-.14s0-.34.19-.39a.93.93,0,0,1,.49.06l1,.31a.45.45,0,0,0,.3,0c.13,0,.17-.19.21-.32a4,4,0,0,0,.18-1.23,1.91,1.91,0,0,0-1.36-1.64,1.9,1.9,0,0,1-.4-.14.35.35,0,0,1-.19-.35.33.33,0,0,1,.34-.23,1,1,0,0,1,.42.13l.8.39a.48.48,0,0,0,.43.06.5.5,0,0,0,.17-.41l.06-1a1,1,0,0,0-.23-.86c-.28-.23-.69-.08-1,.12a1.69,1.69,0,0,1-1,.42.46.46,0,0,1-.31-.13.28.28,0,0,1,0-.32c.07-.11.21-.13.34-.16a4.1,4.1,0,0,0,2.43-1.4,3.12,3.12,0,0,1,.43-.46.67.67,0,0,1,.58-.17.41.41,0,0,1,.32.47c-.07.25-.39.31-.6.47a1.4,1.4,0,0,0-.39,1.14c0,.48,0,1,0,1.44a1,1,0,0,0,.1.56.61.61,0,0,0,.49.27,1.12,1.12,0,0,0,.54-.15,2.23,2.23,0,0,1,.45-.25.41.41,0,0,1,.48.11.38.38,0,0,1-.1.48.86.86,0,0,1-.49.18,3.19,3.19,0,0,0-.54.07,1.17,1.17,0,0,0-.65.66,3.23,3.23,0,0,0-.21.93,2,2,0,0,0,.25,1.6,4.79,4.79,0,0,0,.69.49c.1.07.41.34.36.49s-.29,0-.38-.06A4.26,4.26,0,0,0,397.38,124.07Z"/><path class="cls-10" d="M395.55,125.06a.12.12,0,0,0,.05-.23,5.07,5.07,0,0,1-1.44-.8,2.91,2.91,0,0,1-.57-1.21.13.13,0,0,0-.24,0,1.83,1.83,0,0,0,.37,1.64A2.48,2.48,0,0,0,395.55,125.06Z"/><path class="cls-10" d="M394.3,117.21a.14.14,0,0,0-.21-.18,2.54,2.54,0,0,0-1,1.52,3.78,3.78,0,0,0,0,1.8.14.14,0,0,0,.27,0A16.94,16.94,0,0,1,394.3,117.21Z"/><path class="cls-10" d="M399.48,116.22c-.25.16.75.32.91.66a3.51,3.51,0,0,1,.24,1.15,16.39,16.39,0,0,1-.24,4.91c-.09.4-.18.8-.3,1.21s-1.09.64-.81.73a1.1,1.1,0,0,0,.94-.31,1.08,1.08,0,0,0,.19-.3,9.46,9.46,0,0,0,.76-6.33,3.29,3.29,0,0,0-.49-1.25A1.13,1.13,0,0,0,399.48,116.22Z"/><path class="cls-6" d="M389.37,133.23c0,.93,0,3.51,1.81,4.55a9,9,0,0,0,3.65.91,23.34,23.34,0,0,0,4.26-.12c2.8-.33,3-3,3-4.07s.18-3,.19-3.1c.53-4.06-2.38-4.47-4.69-4.27-1.91.17-4.86.32-6.4,1.07C389.06,129.23,389.37,132.31,389.37,133.23Z"/><path class="cls-7" d="M391.19,133.25c0,1,0,3.67,1.81,4.75a6.35,6.35,0,0,0,1.83.69,23.34,23.34,0,0,0,4.26-.12c2.8-.33,3-3,3-4.07s.18-3,.19-3.1c.53-4.06-2.42-4.73-4.69-4.27-1.61.33-3.48.3-4.58.86C390.89,129.08,391.19,132.29,391.19,133.25Z"/><path class="cls-8" d="M399.41,137.71c1.48-.18,2.16-1.17,2.22-3.22,0-1.1.18-3.08.19-3.2.33-2.94-1.08-3.37-2.33-3.76a3.46,3.46,0,0,0-1.47-.09,18.24,18.24,0,0,0-4.2,1.34c-1.43.73-1.37,3-1.34,4.12v.36c0,2.1.47,3.44,1.39,4a5.6,5.6,0,0,0,1.5.57A22.74,22.74,0,0,0,399.41,137.71Z"/><path class="cls-10" d="M395.8,137a.12.12,0,0,0,0-.22,4.79,4.79,0,0,1-1.35-.74,3,3,0,0,1-.53-1.13.12.12,0,0,0-.22,0,1.73,1.73,0,0,0,.35,1.53A2.38,2.38,0,0,0,395.8,137Z"/><path class="cls-10" d="M394.62,129.63a.13.13,0,0,0-.19-.17,2.43,2.43,0,0,0-1,1.42,3.53,3.53,0,0,0,0,1.68.13.13,0,0,0,.25,0A16.46,16.46,0,0,1,394.62,129.63Z"/><path class="cls-10" d="M399.45,128.72c-.23.14.71.29.85.6a3.41,3.41,0,0,1,.23,1.08,15.13,15.13,0,0,1-.23,4.57c-.08.37-.17.75-.27,1.13s-1,.6-.77.68a1,1,0,0,0,.88-.28,1.6,1.6,0,0,0,.19-.29,8.84,8.84,0,0,0,.7-5.89,2.84,2.84,0,0,0-.46-1.17A1,1,0,0,0,399.45,128.72Z"/><path class="cls-9" d="M396.13,129.75a.33.33,0,0,1,.1-.36.9.9,0,0,1,.34-.2,8.83,8.83,0,0,1,1-.33,1.16,1.16,0,0,1,.64,0,.45.45,0,0,1,.31.5.58.58,0,0,0-.73.17,1.27,1.27,0,0,0-.22.78,1.82,1.82,0,0,0,.23.92,1,1,0,0,0,.78.5,1.74,1.74,0,0,1,.32,0,.24.24,0,0,1,.19.23.21.21,0,0,1-.2.17.67.67,0,0,1-.28,0,1.77,1.77,0,0,0-1.13,3.29c.2.1.46.25.41.47a.33.33,0,0,1-.3.21.77.77,0,0,1-.36-.12,2.69,2.69,0,0,1-1.26-1.6,3.07,3.07,0,0,0-.25-.74.59.59,0,0,0-.65-.32c-.28.09-.47.47-.76.39a.34.34,0,0,1-.21-.37.51.51,0,0,1,.29-.35c.5-.24,1.13.17,1.65,0a1.56,1.56,0,0,0,.56-.46l.72-.81a6,6,0,0,1-.41-1.07,1.82,1.82,0,0,1,0-.57c.05-.16.16-.25.12-.44A6.32,6.32,0,0,0,396.13,129.75Z"/><text class="cls-11" transform="translate(341.15 142.34)">Superiores</text><text class="cls-11" transform="translate(343.02 173.74)">Inferiores</text></svg>