<svg xmlns="http://www.w3.org/2000/svg" viewBox="0 0 13.92 13.1"><defs><style>.cls-1{fill:#9fdaed;}.cls-2{fill:#b3e2f2;}.cls-3{fill:#cbedfa;}.cls-4{fill:#7fd8ef;}.cls-5{fill:#e3f7fc;}</style></defs><g id="Capa_2" data-name="Capa 2"><g id="Layer_1" data-name="Layer 1"><path class="cls-1" d="M0,7.2C0,8.19.05,11,2,12.07a9.4,9.4,0,0,0,3.92,1,24.9,24.9,0,0,0,4.57-.13c3-.35,3.19-3.21,3.22-4.36s.19-3.26.2-3.33c.47-4.17-2-4.69-3.39-5.13A5.18,5.18,0,0,0,8.72,0,23.07,23.07,0,0,0,2,1.79C-.31,2.9,0,6.2,0,7.2Z"/><path class="cls-2" d="M2,7.22c0,1,0,3.93,1.94,5.09a6.56,6.56,0,0,0,2,.74,24.9,24.9,0,0,0,4.57-.13c3-.35,3.19-3.21,3.22-4.36s.19-3.26.2-3.33c.47-4.17-2-4.69-3.39-5.13A5.18,5.18,0,0,0,8.72,0,20.8,20.8,0,0,0,3.91,1.57C1.64,2.73,2,6.18,2,7.22Z"/><path class="cls-3" d="M10.78,12c1.59-.19,2.33-1.26,2.39-3.46,0-1.18.19-3.3.21-3.43.35-3.15-1.17-3.62-2.51-4A3.58,3.58,0,0,0,9.3,1,19.17,19.17,0,0,0,4.79,2.42C3.26,3.2,3.32,5.66,3.35,6.84c0,.15,0,.28,0,.38,0,2.25.5,3.7,1.49,4.3a5.71,5.71,0,0,0,1.61.61A25,25,0,0,0,10.78,12Z"/><path class="cls-4" d="M8.73,10.19,7.82,10,7,9.75c-.3-.07-.61-.13-.92-.18-.11,0-.24,0-.3-.14s0-.33.19-.38a.81.81,0,0,1,.48,0l1,.31a.52.52,0,0,0,.3,0c.12,0,.17-.2.2-.33a3.68,3.68,0,0,0,.19-1.23A1.91,1.91,0,0,0,6.78,6.24a2,2,0,0,1-.41-.13.37.37,0,0,1-.19-.36.34.34,0,0,1,.34-.23,1,1,0,0,1,.42.13l.8.4a.5.5,0,0,0,.44,0c.13-.07.15-.25.16-.41l.06-1a1,1,0,0,0-.22-.86.89.89,0,0,0-1,.12,1.68,1.68,0,0,1-1,.43.47.47,0,0,1-.31-.14.27.27,0,0,1,0-.32.49.49,0,0,1,.33-.15,4.21,4.21,0,0,0,2.44-1.4,3.13,3.13,0,0,1,.42-.47.72.72,0,0,1,.59-.17.41.41,0,0,1,.31.47c-.07.25-.39.32-.59.47A1.41,1.41,0,0,0,9,3.84c0,.47,0,1,0,1.43A1,1,0,0,0,9,5.84a.64.64,0,0,0,.49.26A1.08,1.08,0,0,0,10.08,6a2.23,2.23,0,0,1,.45-.25.43.43,0,0,1,.47.11.39.39,0,0,1-.09.48.87.87,0,0,1-.5.18,2.34,2.34,0,0,0-.53.08,1.12,1.12,0,0,0-.65.66A3.24,3.24,0,0,0,9,8.13a2,2,0,0,0,.25,1.6,4.29,4.29,0,0,0,.69.49c.1.07.41.35.35.5s-.28,0-.38-.06A3.9,3.9,0,0,0,8.73,10.19Z"/><path class="cls-5" d="M6.91,11.19A.13.13,0,0,0,7,11a5.26,5.26,0,0,1-1.45-.8,3,3,0,0,1-.57-1.21.12.12,0,0,0-.23,0,1.84,1.84,0,0,0,.36,1.64A2.59,2.59,0,0,0,6.91,11.19Z"/><path class="cls-5" d="M5.65,3.33a.14.14,0,0,0-.2-.18,2.54,2.54,0,0,0-1,1.52,3.91,3.91,0,0,0,0,1.8.15.15,0,0,0,.28,0A16.89,16.89,0,0,1,5.65,3.33Z"/><path class="cls-5" d="M10.83,2.35c-.24.15.76.32.91.65A3.28,3.28,0,0,1,12,4.16a16.34,16.34,0,0,1-.25,4.9c-.09.4-.17.81-.29,1.21s-1.09.65-.82.73a1.09,1.09,0,0,0,.94-.3,1.2,1.2,0,0,0,.2-.3,9.47,9.47,0,0,0,.76-6.33A3,3,0,0,0,12,2.82,1.09,1.09,0,0,0,10.83,2.35Z"/></g></g></svg>