<svg xmlns="http://www.w3.org/2000/svg" viewBox="0 0 10.95 10.23"><defs><style>.cls-1{fill:#9fdaed;}.cls-2{fill:#b3e2f2;}.cls-3{fill:#cbedfa;}.cls-4{fill:#7fd8ef;}.cls-5{fill:#e3f7fc;}</style></defs><g id="Capa_2" data-name="Capa 2"><g id="Layer_1" data-name="Layer 1"><path class="cls-1" d="M8.36,1.19A5,5,0,0,1,10.53,3.1a5.66,5.66,0,0,1-.26,4.82A4.49,4.49,0,0,1,7.76,10,6,6,0,0,1,4.7,10C1.15,9.23,0,7,.76,4.33c.46-1.55,1.38-3.47,3-4S6.92.39,8.36,1.19Z"/><path class="cls-2" d="M7.84,1.09A5.14,5.14,0,0,1,10,3a5.65,5.65,0,0,1-.25,4.82A4.4,4.4,0,0,1,7.23,9.94a6,6,0,0,1-3.06,0C.63,9.13-.56,6.91.23,4.24c.46-1.56,1.39-3.48,3-4S6.4.29,7.84,1.09Z"/><path class="cls-3" d="M6,9.21a3.44,3.44,0,0,0,.87-.15A3.68,3.68,0,0,0,8.91,7.32a4.9,4.9,0,0,0,.26-4.09A4.45,4.45,0,0,0,7.28,1.65,6.41,6.41,0,0,0,4,.64a3.2,3.2,0,0,0-.76.15C1.77,1.3,1,3.44.72,4.34A3.38,3.38,0,0,0,.9,7.13,4.78,4.78,0,0,0,4.12,9,6.21,6.21,0,0,0,6,9.21Z"/><path class="cls-4" d="M5.32,8.57a.54.54,0,0,0,.23.11.21.21,0,0,0,.23-.08.24.24,0,0,0-.09-.3,1.44,1.44,0,0,0-.31-.13,1.43,1.43,0,0,1-.81-1,4.18,4.18,0,0,1-.08-1.32,1.79,1.79,0,0,1,.09-.57A.6.6,0,0,1,5,4.91c.18,0,.38,0,.53,0s.18-.36.13-.56a1.1,1.1,0,0,1-.09-.59.55.55,0,0,1,.55-.36,1.64,1.64,0,0,1,.68.18l.84.36c.12.05.27.1.37,0a.26.26,0,0,0,.06-.27A1,1,0,0,0,7.26,3c-.35-.07-.72-.06-1.07-.16C5.39,2.6,4.8,1.76,4,1.75a.55.55,0,0,0,.23.7,4.39,4.39,0,0,1,.66.47A.82.82,0,0,1,4.68,4.1a4.44,4.44,0,0,0-.53.28.88.88,0,0,0-.23.75c0,.27.1.53.1.8a.79.79,0,0,1-.31.71,1.35,1.35,0,0,1-1,0c-.15,0-.54.07-.38.31s.33.17.43.21l.49.25c.32.16.64.33,1,.51S5,8.35,5.32,8.57Z"/><path class="cls-5" d="M3,2.65a.17.17,0,0,0-.19-.27,1.18,1.18,0,0,0-.5.37,3.45,3.45,0,0,0-.66,2,2.83,2.83,0,0,0,.06.57.17.17,0,0,0,.33,0l.15-.49c.09-.31.19-.63.28-.92A3.86,3.86,0,0,1,3,2.65Z"/><path class="cls-5" d="M8.36,5a9.66,9.66,0,0,1-1.3,2.74c-.08.15.09.33.23.24A3.22,3.22,0,0,0,8.45,6.71,2.41,2.41,0,0,0,8.69,5,.17.17,0,0,0,8.36,5Z"/></g></g></svg>