<svg xmlns="http://www.w3.org/2000/svg" viewBox="0 0 80.72 30.6"><defs><style>.cls-1{fill:#fc8a71;}</style></defs><g id="Capa_2" data-name="Capa 2"><g id="Layer_1" data-name="Layer 1"><path class="cls-1" d="M0,30.56a48.82,48.82,0,0,1,1.39-5c.12-.36.11-.33.91-2.42.08-.2.91-2,1.07-2.35.54-1,1-2,1.68-3a34.4,34.4,0,0,1,9.33-10C21.82,2.47,31.66-.07,40.36,0s18.49,2.44,26,7.82a34.3,34.3,0,0,1,9.34,10c.63,1,1.14,2,1.68,3,.15.32,1,2.14,1.06,2.35.75,2,.78,2,.91,2.42a47.59,47.59,0,0,1,1.4,5l-.19,0a30.51,30.51,0,0,0-1.12-3.23,29.78,29.78,0,0,0-1.3-3.15c-.56-1.23-.27-.6-.73-1.52l-.78-1.5c-.58-1-1.13-1.94-1.79-2.84a32.65,32.65,0,0,0-4.25-5.12,35.18,35.18,0,0,0-5.1-4.19c-1-.63-1.12-.74-1.39-.89-.48-.27-.95-.57-1.43-.83-1.65-.83,0-.08-3-1.47A47.46,47.46,0,0,0,40.36,1.92,47.58,47.58,0,0,0,21,5.86c-2.73,1.3-1.39.68-3,1.48-.48.26-.95.55-1.43.82-.27.15-.41.25-1.39.89a36.54,36.54,0,0,0-5.1,4.19,32.11,32.11,0,0,0-4.25,5.12c-.66.91-1.21,1.88-1.79,2.85-.27.49-.52,1-.78,1.49-.45.88-.2.36-.73,1.53A30.27,30.27,0,0,0,1.3,27.37,33.25,33.25,0,0,0,.19,30.6Z"/></g></g></svg>