<svg xmlns="http://www.w3.org/2000/svg" viewBox="0 0 12.98 11.73"><defs><style>.cls-1{fill:#9fdaed;}.cls-2{fill:#b3e2f2;}.cls-3{fill:#cbedfa;}.cls-4{fill:#e3f7fc;}.cls-5{fill:#7fd8ef;}</style></defs><g id="Capa_2" data-name="Capa 2"><g id="Layer_1" data-name="Layer 1"><path class="cls-1" d="M0,6.23c0,.92,0,3.51,1.8,4.54a8.73,8.73,0,0,0,3.65.91,23.29,23.29,0,0,0,4.26-.12c2.8-.33,3-3,3-4.07s.18-3,.19-3.1c.52-4-2.39-4.47-4.69-4.27C6.31.29,3.37.44,1.82,1.19-.29,2.23,0,5.3,0,6.23Z"/><path class="cls-2" d="M1.84,6.25c0,1,0,3.66,1.8,4.74a6.07,6.07,0,0,0,1.83.69,23.29,23.29,0,0,0,4.26-.12c2.8-.33,3-3,3-4.07s.18-3,.19-3.1c.52-4-2.43-4.72-4.69-4.27C6.61.45,4.75.42,3.64,1,1.53,2.07,1.84,5.28,1.84,6.25Z"/><path class="cls-3" d="M10.05,10.7c1.48-.17,2.16-1.17,2.22-3.22,0-1.1.18-3.08.2-3.2C12.8,1.35,11.38.91,10.13.52A3.44,3.44,0,0,0,8.66.43a18.4,18.4,0,0,0-4.2,1.34C3,2.5,3.09,4.79,3.12,5.89c0,.14,0,.26,0,.36,0,2.1.46,3.44,1.39,4a4.8,4.8,0,0,0,1.5.57A22.66,22.66,0,0,0,10.05,10.7Z"/><path class="cls-4" d="M6.44,10a.12.12,0,0,0,0-.23A4.87,4.87,0,0,1,5.14,9a2.71,2.71,0,0,1-.53-1.13.12.12,0,0,0-.23,0A1.72,1.72,0,0,0,4.73,9.4,2.39,2.39,0,0,0,6.44,10Z"/><path class="cls-4" d="M5.27,2.63a.13.13,0,0,0-.19-.17,2.38,2.38,0,0,0-1,1.41,3.67,3.67,0,0,0,0,1.68.14.14,0,0,0,.26,0A15.45,15.45,0,0,1,5.27,2.63Z"/><path class="cls-4" d="M10.09,1.71c-.23.14.71.3.85.61a3.1,3.1,0,0,1,.23,1.07A15.11,15.11,0,0,1,10.94,8c-.08.38-.16.76-.27,1.13s-1,.6-.76.68a1,1,0,0,0,.88-.28A1.1,1.1,0,0,0,11,9.21a8.88,8.88,0,0,0,.71-5.9,2.9,2.9,0,0,0-.47-1.16A1,1,0,0,0,10.09,1.71Z"/><path class="cls-5" d="M6.77,2.74a.35.35,0,0,1,.1-.36.9.9,0,0,1,.34-.2,9.49,9.49,0,0,1,1-.33,1.16,1.16,0,0,1,.64,0,.43.43,0,0,1,.31.5.57.57,0,0,0-.73.17,1.17,1.17,0,0,0-.21.78,1.84,1.84,0,0,0,.22.92,1,1,0,0,0,.78.49,1.67,1.67,0,0,1,.32,0,.22.22,0,0,1,.19.22.24.24,0,0,1-.19.18,1,1,0,0,1-.29,0A1.83,1.83,0,0,0,7.33,6.25a1.82,1.82,0,0,0,.82,2.12c.2.11.46.25.41.47a.29.29,0,0,1-.29.21.71.71,0,0,1-.37-.12,2.69,2.69,0,0,1-1.26-1.6,3.05,3.05,0,0,0-.24-.74.6.6,0,0,0-.65-.32c-.28.09-.48.47-.76.39a.34.34,0,0,1-.22-.37.53.53,0,0,1,.29-.35c.5-.24,1.13.18,1.65,0a1.56,1.56,0,0,0,.56-.46L8,4.65a5.5,5.5,0,0,1-.4-1.06A1.62,1.62,0,0,1,7.6,3c.05-.16.16-.25.12-.44C7.41,2.59,7.08,2.69,6.77,2.74Z"/></g></g></svg>