<svg xmlns="http://www.w3.org/2000/svg" viewBox="0 0 13.76 12.14"><defs><style>.cls-1{fill:#9fdaed;}.cls-2{fill:#b3e2f2;}.cls-3{fill:#cbedfa;}.cls-4{fill:#7fd8ef;}.cls-5{fill:#e3f7fc;}</style></defs><g id="Capa_2" data-name="Capa 2"><g id="Layer_1" data-name="Layer 1"><path class="cls-1" d="M3.45,11.8a22.41,22.41,0,0,0,3.21.33h0c2.85.09,5.32-.36,5.93-1.11,1-1.21,1.18-4.56,1.16-6.06a4.84,4.84,0,0,0-.7-2.72C11.84.5,8.38-.11,5.7,0h0a10.19,10.19,0,0,0-2.12.3C.17,1.27.12,3.51,0,5.77-.14,10.14.37,11.25,3.45,11.8Z"/><path class="cls-2" d="M3.45,11.8a22.41,22.41,0,0,0,3.21.33h0c2.21-.07,4-.49,4.5-1.11,1-1.21,1.18-4.56,1.15-6.06a4.75,4.75,0,0,0-.69-2.72C10.62.8,8.07.13,5.7,0h0a10.19,10.19,0,0,0-2.12.3C.17,1.27.12,3.51,0,5.77-.14,10.14.37,11.25,3.45,11.8Z"/><path class="cls-3" d="M6.44,11.38c2.48-.09,3.71-.57,3.91-.79.65-.79,1-3.5,1-5.67a4,4,0,0,0-.53-2.27C10.07,1.64,8,.9,5.42.77a9.67,9.67,0,0,0-1.95.28C.67,1.83.61,3.38.52,5.72V5.8C.43,8.06.54,9.26.91,9.92c.26.47.76.85,2.34,1.13A23.94,23.94,0,0,0,6.44,11.38Z"/><path class="cls-4" d="M5.48,9a3,3,0,0,1-.26,1,1,1,0,0,1-.82.56.74.74,0,0,0,1.09-.06,2.05,2.05,0,0,0,.4-1.16L6.1,7.87a1,1,0,0,1,.26-.65.81.81,0,0,1,.76-.09,3,3,0,0,0,.78.18A4,4,0,0,0,8.84,7a1.55,1.55,0,0,1,1.53.49.83.83,0,0,0-.49-1,1.9,1.9,0,0,0-1.18,0,4.33,4.33,0,0,1-1.18.18A1.64,1.64,0,0,1,6.41,4c.14-.15.32-.28.45-.45A.68.68,0,0,0,7,2.92.58.58,0,0,0,6.3,2.6a.91.91,0,0,0-.52.68,2.66,2.66,0,0,0,0,.89,2.72,2.72,0,0,1,0,.9c-.08.38-.43.77-.81.68a1.16,1.16,0,0,1-.38-.2,2,2,0,0,0-2.3.26.72.72,0,0,0-.23.39.3.3,0,0,0,.25.34c.2,0,.31-.22.45-.36A1.19,1.19,0,0,1,4,6a5.23,5.23,0,0,1,1,.35c.2.09.74.29.84.49s-.1.8-.13,1Z"/><path class="cls-5" d="M9.72,8.71a.19.19,0,0,0-.36-.06c-.07.15-.13.3-.19.44a1.16,1.16,0,0,1-.42.55A3.09,3.09,0,0,1,7.6,10a.19.19,0,0,0,0,.36A1.49,1.49,0,0,0,9.74,9.22,2.86,2.86,0,0,0,9.72,8.71Z"/><path class="cls-5" d="M3.25,9.68A2.93,2.93,0,0,1,2.09,7.84a.19.19,0,0,0-.36,0,1.85,1.85,0,0,0,.13,1.44A1.4,1.4,0,0,0,3.17,10,.18.18,0,0,0,3.25,9.68Z"/><path class="cls-5" d="M4.68,2.2a.19.19,0,0,0,0-.36A2,2,0,0,0,3,2.17a2,2,0,0,0-.84,1.47.19.19,0,0,0,.34.12A3.67,3.67,0,0,1,4.68,2.2Z"/><path class="cls-5" d="M10,5.36a.19.19,0,0,0,.36,0,1.88,1.88,0,0,0-.21-1.61,1.92,1.92,0,0,0-1.35-.9.19.19,0,0,0-.14.33A3.87,3.87,0,0,1,10,5.36Z"/></g></g></svg>