<svg xmlns="http://www.w3.org/2000/svg" viewBox="0 0 13.5 11.3"><defs><style>.cls-1{fill:#9fdaed;}.cls-2{fill:#b3e2f2;}.cls-3{fill:#cbedfa;}.cls-4{fill:#7fd8ef;}.cls-5{fill:#e3f7fc;}</style></defs><g id="Capa_2" data-name="Capa 2"><g id="Layer_1" data-name="Layer 1"><path class="cls-1" d="M.2,7.42a8.52,8.52,0,0,0,1.72,3.16,3.82,3.82,0,0,0,1.44.55,9.78,9.78,0,0,0,6.05-.81,9.15,9.15,0,0,0,2.31-1.57C13.51,7.09,14,5.29,13,3.11,12.64,2.43,12.2,1,11,.36S8.07,0,6.8.26L6.22.38h0a8.93,8.93,0,0,0-2.57,1C1.11,2.82-.61,4.59.2,7.42Z"/><path class="cls-2" d="M1.09,7.1a9.2,9.2,0,0,0,1.66,3.15,3.57,3.57,0,0,0,1.37.5A9.31,9.31,0,0,0,6,10.93l.71,0a10.22,10.22,0,0,0,2.75-.59,9.15,9.15,0,0,0,2.31-1.57C13.51,7.09,14,5.29,13,3.11,12.64,2.43,12.2,1,11,.36S8.07,0,6.8.26L6.22.38h0a7.92,7.92,0,0,0-1.63.71l-.24.14C1.4,3,.42,4.78,1.09,7.1Z"/><path class="cls-3" d="M2.77,6.86A12.1,12.1,0,0,0,4.3,9.77a2.59,2.59,0,0,0,2,.88h0a7.79,7.79,0,0,0,5.09-2.24c1.71-1.59,2.06-3.17,1.14-5.1-.06-.12-.12-.26-.18-.41A3.85,3.85,0,0,0,10.79.78,3.79,3.79,0,0,0,9.12.46,12.81,12.81,0,0,0,6.88.72a6.29,6.29,0,0,0-2.48.85l-.22.13C1.53,3.34,2.15,4.71,2.77,6.86Z"/><path class="cls-4" d="M5.87,5.22c-.21-.14.63-.4.82-.58a1.49,1.49,0,0,0,.55-1A.59.59,0,0,0,6.9,3a.54.54,0,0,0-.49.15c-.13.11-.23.26-.35.38A1.58,1.58,0,0,1,4.92,4a.08.08,0,0,1-.08-.07c0-.18.13-.37.28-.51l1-.8A8.45,8.45,0,0,1,7.3,1.69a2.84,2.84,0,0,1,1.38-.41.11.11,0,0,1,.11.11.59.59,0,0,1-.24.46c-.17.13-.38.21-.55.34a1.52,1.52,0,0,0-.49,1A2.52,2.52,0,0,0,8.63,5.58c.2.13.44.25.52.48a1,1,0,0,1-.08.65.65.65,0,0,0,0,.64.61.61,0,0,0,.51.12,1.92,1.92,0,0,1,.53-.06c.18,0,.36.17.35.35a.37.37,0,0,1-.3.29,1.71,1.71,0,0,1-.45,0,4.86,4.86,0,0,0-3,.4c-.18.09-.4.18-.56.06a.34.34,0,0,1-.07-.4.67.67,0,0,1,.33-.27,2.54,2.54,0,0,1,1-.13,1.56,1.56,0,0,0,1.07-.31.65.65,0,0,0,.22-.5c0-.35-.31-.52-.6-.61A2.49,2.49,0,0,1,7.49,6a.88.88,0,0,1-.4-.8A.29.29,0,0,0,6.77,5L6.51,5C6.29,5,6.05,5.33,5.87,5.22Z"/><path class="cls-5" d="M5.07,8.59a.1.1,0,0,0,.11-.17,4.87,4.87,0,0,1-.79-1.14c-.08-.18-.1-.28-.2-.57a5.55,5.55,0,0,1-.4-1.95.11.11,0,0,0-.21,0,3.35,3.35,0,0,0-.06,2.19,3.48,3.48,0,0,0,.26.63A2.78,2.78,0,0,0,5.07,8.59Z"/><path class="cls-5" d="M10.34,1.83c.13.4.17.47.84,2.17s.5,2.17.84,2.17C12.47,5.29,11.05,1.59,10.34,1.83Z"/><path class="cls-5" d="M6.3,1.64c-.58-.27-2,.8-2.08,1.43C4.43,3.45,6.3,2,6.3,1.64Z"/><path class="cls-5" d="M9.07,9c.25.46-2.66.86-2.49.45A10,10,0,0,1,9.07,9Z"/></g></g></svg>