<svg xmlns="http://www.w3.org/2000/svg" viewBox="0 0 89.82 60.16"><defs><style>.cls-1{fill:#d43320;}</style></defs><g id="Capa_2" data-name="Capa 2"><g id="Layer_1" data-name="Layer 1"><path class="cls-1" d="M89.82,1.83a133.41,133.41,0,0,1-4,20.15A107.22,107.22,0,0,1,78,41a40.32,40.32,0,0,1-5.86,8.46A32.34,32.34,0,0,1,49.26,60.06,79.46,79.46,0,0,1,39,59.92,32.2,32.2,0,0,1,16.77,48.06a41.08,41.08,0,0,1-3.68-5.3C5.48,30.19,1.46,14.84,0,0H0A119.06,119.06,0,0,0,4.72,19.93,114.59,114.59,0,0,0,9.29,31.81C12.1,38.29,13.75,41.92,18.06,47A31,31,0,0,0,41.59,58.18,66.52,66.52,0,0,0,54,57.61a30.78,30.78,0,0,0,16.83-9.27,41.81,41.81,0,0,0,5.76-8,112.73,112.73,0,0,0,11-28.44c.78-3.33,1.62-7.07,2.21-10Z"/></g></g></svg>