<svg xmlns="http://www.w3.org/2000/svg" viewBox="0 0 91.79 182.25"><defs><style>.cls-1{fill:#e66251;}.cls-2{fill:#de422f;}.cls-3{fill:#fc8a71;}.cls-4{fill:#d43320;}.cls-5{fill:#9fdaed;}.cls-6{fill:#b3e2f2;}.cls-7{fill:#cbedfa;}.cls-8{fill:#7fd8ef;}.cls-9{fill:#e3f7fc;}.cls-10{font-size:7.31px;font-family:Impact;}</style></defs><g id="Capa_2" data-name="Capa 2"><g id="Layer_1" data-name="Layer 1"><path class="cls-1" d="M82.73,109.61c-3.44.56-5.34,1.81-6.23,8.47-1.59,11.91-2.34,53.4-30.13,53.4S17.52,130,16.24,118.08c-.74-6.89-3.27-8.43-6.33-8.47,0,0,10.67,0,19,6,12.39,8.94,20.42,9.93,35.72,0A40.93,40.93,0,0,1,82.73,109.61Z"/><path class="cls-2" d="M46.37,161.88c-4.61,0-10.48-1.49-15-13.13a76.56,76.56,0,0,1-4-16.34,3.38,3.38,0,0,1,4.84-3.53,31.6,31.6,0,0,0,13.87,3.4,34.3,34.3,0,0,0,14.36-3.4,3.39,3.39,0,0,1,4.74,3.57,76.5,76.5,0,0,1-4.22,17C56.55,160.47,50.84,161.88,46.37,161.88Z"/><path class="cls-1" d="M91.15,123.56c-1.5,10.2-3.49,22.93-12,39.07-9.54,18.16-25.2,19.05-30.55,19H44.12c-5.34,0-21-.86-30.57-19A110.1,110.1,0,0,1,1.33,121.74c-.86-8.7-.44-10.91,4.28-11.65a25.16,25.16,0,0,1,4.3-.48c3.06,0,5.59,1.58,6.33,8.47,1.28,12,2.34,53.4,30.13,53.4S75.22,130,76.5,118.08c.8-7.49,3.73-8.65,7.14-8.46,1.13.07,2.32.29,3.49.47C91.85,110.83,92.56,114,91.15,123.56Z"/><path class="cls-3" d="M5.6,110c2.55-.41,5.65-1.07,7.68.54a5.87,5.87,0,0,1,1.65,2,10.9,10.9,0,0,1,.52,1.22,15.45,15.45,0,0,1,.53,1.9c.24,1.34.17.92.31,2,1.2,10,1.88,42.59,20,51.44a24.07,24.07,0,0,0,20.16,0c19.89-9.71,18.76-48,20.47-54a10.36,10.36,0,0,1,.38-1.26,3.62,3.62,0,0,1,.23-.62c.1-.2.17-.41.28-.6a5.88,5.88,0,0,1,1.65-2.06c2.08-1.61,5.11-.92,7.69-.53l0,.16c-2.42-.27-5.5-.82-7.38.74a5.3,5.3,0,0,0-1.45,1.94,9,9,0,0,0-.35.86c0,.07,0,0-.27.9-.58,2.59-.53,3.21-.85,8.36-.75,11.94-2.4,25.57-8.18,36-3.77,6.78-9.15,11.75-16.76,13.41a25.4,25.4,0,0,1-16.29-1.82,24.59,24.59,0,0,1-8.49-7c-11.61-14.72-10.84-42.2-11.66-47a12,12,0,0,0-.23-1.26,11.28,11.28,0,0,0-.76-2.38A5.58,5.58,0,0,0,13,110.92a5.17,5.17,0,0,0-1-.63c-2-.74-4-.39-6.35-.12Z"/><path class="cls-4" d="M91.15,123.56a132.09,132.09,0,0,1-4.06,20.16,107.18,107.18,0,0,1-7.8,19,40.7,40.7,0,0,1-5.86,8.46A32.38,32.38,0,0,1,50.59,181.8a83.4,83.4,0,0,1-10.31-.14,32.21,32.21,0,0,1-22.19-11.87,41.6,41.6,0,0,1-3.67-5.29C6.8,151.93,2.79,136.57,1.33,121.74h0A118.91,118.91,0,0,0,6,141.66a115.82,115.82,0,0,0,4.57,11.89c2.82,6.47,4.47,10.1,8.77,15.18a31,31,0,0,0,23.53,11.19,66.62,66.62,0,0,0,12.45-.57,30.94,30.94,0,0,0,16.83-9.27A41.57,41.57,0,0,0,78,162a112.54,112.54,0,0,0,11-28.44c.78-3.33,1.63-7.07,2.22-10Z"/><path class="cls-5" d="M11.9,123.22a22.26,22.26,0,0,1-3.21.33h0c-2.85.09-5.32-.36-5.93-1.11-1-1.21-1.18-4.56-1.15-6.06a4.75,4.75,0,0,1,.69-2.72c1.22-1.74,4.68-2.35,7.36-2.22h0a10.09,10.09,0,0,1,2.12.3c3.41,1,3.46,3.19,3.54,5.45C15.49,121.56,15,122.67,11.9,123.22Z"/><path class="cls-6" d="M11.9,123.22a22.26,22.26,0,0,1-3.21.33h0c-2.21-.07-4-.49-4.5-1.11-1-1.21-1.17-4.56-1.15-6.06a4.83,4.83,0,0,1,.69-2.72c1-1.44,3.56-2.11,5.93-2.22h0a10.09,10.09,0,0,1,2.12.3c3.41,1,3.46,3.19,3.54,5.45C15.49,121.56,15,122.67,11.9,123.22Z"/><path class="cls-7" d="M8.92,122.8c-2.49-.09-3.72-.57-3.92-.78-.65-.8-1-3.51-1-5.68a4.07,4.07,0,0,1,.54-2.27c.71-1,2.82-1.75,5.36-1.88a9.67,9.67,0,0,1,2,.28c2.8.78,2.86,2.33,2.95,4.67v.08c.09,2.26,0,3.46-.38,4.12-.27.47-.77.85-2.35,1.13A24,24,0,0,1,8.92,122.8Z"/><path class="cls-8" d="M9.87,120.4a3,3,0,0,0,.26,1A1,1,0,0,0,11,122a.74.74,0,0,1-1.09-.06,2.21,2.21,0,0,1-.4-1.16l-.21-1.45a1,1,0,0,0-.26-.65.84.84,0,0,0-.76-.09,2.69,2.69,0,0,1-.77.18,4.09,4.09,0,0,1-1-.27A1.53,1.53,0,0,0,5,119a.81.81,0,0,1,.48-1,1.9,1.9,0,0,1,1.18,0,4.33,4.33,0,0,0,1.18.18,1.64,1.64,0,0,0,1.11-2.76c-.14-.15-.32-.28-.45-.45a.65.65,0,0,1-.17-.59.57.57,0,0,1,.73-.32.91.91,0,0,1,.52.68,2.72,2.72,0,0,1,0,.9,2.66,2.66,0,0,0,0,.89c.08.39.43.77.82.68a1.22,1.22,0,0,0,.37-.2,2,2,0,0,1,2.3.26.72.72,0,0,1,.23.39A.3.3,0,0,1,13,118c-.2,0-.31-.21-.45-.36a1.19,1.19,0,0,0-1.19-.16,6.48,6.48,0,0,0-1,.35c-.2.09-.74.29-.84.49s.1.8.13,1Z"/><path class="cls-9" d="M5.63,120.13a.19.19,0,0,1,.36-.06c.07.15.13.3.2.44a1.14,1.14,0,0,0,.41.55,3.16,3.16,0,0,0,1.15.4.19.19,0,0,1,0,.36,1.49,1.49,0,0,1-2.16-1.18A2.9,2.9,0,0,1,5.63,120.13Z"/><path class="cls-9" d="M12.1,121.1a2.92,2.92,0,0,0,1.17-1.84.19.19,0,0,1,.35,0,1.81,1.81,0,0,1-.13,1.44,1.41,1.41,0,0,1-1.31.74A.19.19,0,0,1,12.1,121.1Z"/><path class="cls-9" d="M10.67,113.62a.19.19,0,0,1,0-.36,2,2,0,0,1,1.67.33,2,2,0,0,1,.85,1.47.19.19,0,0,1-.35.12A3.67,3.67,0,0,0,10.67,113.62Z"/><path class="cls-9" d="M5.35,116.78a.19.19,0,0,1-.36,0,2,2,0,0,1,.21-1.61,1.92,1.92,0,0,1,1.35-.9.19.19,0,0,1,.14.33A3.92,3.92,0,0,0,5.35,116.78Z"/><path class="cls-5" d="M17.71,133.72a4.39,4.39,0,0,1-1.8,2.23,14.23,14.23,0,0,1-6.24,1.64h0a7.56,7.56,0,0,1-3.11-.33c-3.26-1.5-3-10.08-2.91-10.66a2.6,2.6,0,0,1,1-1.45c1.59-1.2,4.73-1.68,7.37-1.57a11.41,11.41,0,0,1,2.95.44,3.4,3.4,0,0,1,1.9,1.44C17.78,127.11,18.18,132.3,17.71,133.72Z"/><path class="cls-6" d="M17.71,133.72a4.39,4.39,0,0,1-1.8,2.23,14.23,14.23,0,0,1-6.24,1.64h0A5,5,0,0,1,8,137.26C4.76,135.76,5,127.18,5.1,126.6a2.65,2.65,0,0,1,1-1.45c1.3-1,3.65-1.48,5.91-1.57a11.41,11.41,0,0,1,2.95.44,3.4,3.4,0,0,1,1.9,1.44C17.78,127.11,18.18,132.3,17.71,133.72Z"/><path class="cls-7" d="M9.88,136.74a3.55,3.55,0,0,1-1.28-.25c-1-.46-1.82-2.26-2.21-4.93a23.9,23.9,0,0,1-.22-4.94,1.67,1.67,0,0,1,.62-.87,10.76,10.76,0,0,1,5.48-1.42,10.94,10.94,0,0,1,2.74.41,2.43,2.43,0,0,1,1.38,1c.84,1.47,1.2,6.55.82,7.71a3.49,3.49,0,0,1-1.45,1.76A13.54,13.54,0,0,1,9.88,136.74Z"/><path class="cls-8" d="M10.12,130.8c-.24-.14-.53-.38-.43-.64s.46-.26.68-.12a7.41,7.41,0,0,1,.58.54.51.51,0,0,0,.71,0,.62.62,0,0,0,.07-.38A2.18,2.18,0,0,0,11,128.7c-.2-.17-.43-.3-.63-.47a1,1,0,0,1-.41-.64.55.55,0,0,1,.38-.61c.29-.06.54.18.75.39s.49.42.76.3.32-.44.38-.72.26-.6.54-.54a.43.43,0,0,1,.28.44,1.45,1.45,0,0,1-.18.53,6.07,6.07,0,0,0-.59,2.81.54.54,0,0,0,.16.43c.21.16.49,0,.69-.2a3.17,3.17,0,0,1,1.84-.7c.21,0,.48,0,.57.23a.43.43,0,0,1-.19.5,1.29,1.29,0,0,1-.55.15,4,4,0,0,0-1.56.42,2.27,2.27,0,0,0-.92,2.73,2.93,2.93,0,0,1,.3.77c0,.28-.14.61-.42.62a.5.5,0,0,1-.45-.34,1.45,1.45,0,0,1,0-.59l.06-1.47c0-.37.06-.89-.23-1.16A7.88,7.88,0,0,0,10.12,130.8Z"/><path class="cls-9" d="M9.33,126.36c.19,0,.16.18,0,.4a6,6,0,0,0-.64,3.52l.06.49a12.34,12.34,0,0,0,.76,2.89.24.24,0,0,1-.43.22c-1.29-1.7-2.17-5.64-.36-7.31A.78.78,0,0,1,9.33,126.36Z"/><path class="cls-9" d="M14.67,134.17A6.11,6.11,0,0,0,15.73,132a.24.24,0,0,1,.45,0,2.05,2.05,0,0,1,0,1.61,1.5,1.5,0,0,1-1.42,1A.24.24,0,0,1,14.67,134.17Z"/><path class="cls-9" d="M14.32,126.19a.24.24,0,0,1-.06-.43c.8-.54,1.79.07,1.92,1.28a1.76,1.76,0,0,1,0,.56.25.25,0,0,1-.43.09c-.41-.51-.68-1-.84-1.19A1,1,0,0,0,14.32,126.19Z"/><path class="cls-5" d="M17.48,150.22a25.49,25.49,0,0,1-2.52.67c-2.48.52-4.69.54-5.56-.26-1.17-1-3-6.48-2.81-9.61.15-2.26,2.81-3.47,4.29-4h0c.57-.19,1-.28,1-.28,5.26-1.19,6.05,0,7,.74s2.07,5.75,2.31,8S20.87,149.13,17.48,150.22Z"/><path class="cls-6" d="M17.48,150.22a25.49,25.49,0,0,1-2.52.67c-1.93.29-3.55.19-4.26-.48-1.16-1.08-3-6.64-2.79-9.84.12-1.71,1.6-2.84,3-3.52h0c.57-.19,1-.28,1-.28,5.26-1.19,6.05,0,7,.74s2.07,5.75,2.31,8S20.87,149.13,17.48,150.22Z"/><path class="cls-7" d="M12.45,149.87a1.81,1.81,0,0,1-1-.29c-.85-.79-2.63-5.94-2.43-8.94.08-1.18,1.27-2,2.27-2.54.46-.15.77-.22.77-.22a17.91,17.91,0,0,1,4.56-.58,2.65,2.65,0,0,1,1.32.43,3.14,3.14,0,0,1,1.14,1.5,31.88,31.88,0,0,1,1.41,6.2c.17,1.59-.45,2.77-3.38,3.7-.81.26-1.61.47-2.38.64A10,10,0,0,1,12.45,149.87Z"/><path class="cls-8" d="M17.51,147.49c.24,0,.54,0,.66-.22a.45.45,0,0,0-.25-.57,1.16,1.16,0,0,0-.69,0,1.47,1.47,0,0,1-.69,0c-.36-.11-.56-.49-.73-.83l-.66-1.35a.76.76,0,0,1-.11-.38.59.59,0,0,1,.52-.51,2.58,2.58,0,0,1,.78.07,4.86,4.86,0,0,0,1.9,0,1,1,0,0,0,.49-.22.38.38,0,0,0,.07-.5.56.56,0,0,0-.44-.14l-1.85-.08a3.3,3.3,0,0,0-1.29.12,3,3,0,0,0-1.06.76.06.06,0,0,1-.11,0,7.24,7.24,0,0,1,1.38-3.45,1.61,1.61,0,0,0,.38-.73c0-.27-.15-.6-.42-.59s-.42.28-.49.53-.1.8-.65.9a1.29,1.29,0,0,1-.64-.08,5.58,5.58,0,0,0-1.94-.34.54.54,0,0,0-.41.12.39.39,0,0,0,.15.55,1,1,0,0,0,.63.06,1.54,1.54,0,0,1,.64,0,.88.88,0,0,1,.53.61,2.31,2.31,0,0,1,0,.83,6.44,6.44,0,0,1-.23,1.76A2.28,2.28,0,0,1,12,145.09c-.16.09-.36.16-.4.38a.48.48,0,0,0,.36.54,1.12,1.12,0,0,0,1-.39c.35-.31.69-.67,1.23-.58a1.11,1.11,0,0,1,.82.71,1.69,1.69,0,0,1-.35,1.6c-.23.29-.48.59,0,.85s.84-.21,1.21-.37A4.63,4.63,0,0,1,17.51,147.49Z"/><path class="cls-9" d="M17.07,138.84a.22.22,0,0,1,.21-.31,1.2,1.2,0,0,1,.71.34,2.67,2.67,0,0,1,.62,2.45.22.22,0,0,1-.36.1,4,4,0,0,1-1-2A1.71,1.71,0,0,0,17.07,138.84Z"/><path class="cls-9" d="M19.23,144.42a1.37,1.37,0,0,1-.05,2.3.22.22,0,0,1-.3-.13,3.35,3.35,0,0,1-.19-1,3.08,3.08,0,0,1,.22-1A.21.21,0,0,1,19.23,144.42Z"/><path class="cls-9" d="M11,140.84a8.24,8.24,0,0,1,0,3.53.22.22,0,0,1-.39.06,3.28,3.28,0,0,1,0-3.66A.22.22,0,0,1,11,140.84Z"/><path class="cls-9" d="M11.45,147.21a.22.22,0,0,1,.37-.07,4,4,0,0,0,.8.84,6,6,0,0,0,1.1.46.22.22,0,0,1,0,.37,1.48,1.48,0,0,1-1.78.12A1.45,1.45,0,0,1,11.45,147.21Z"/><path class="cls-5" d="M13.89,151.54a5.08,5.08,0,0,0-2.16,1.91,5.65,5.65,0,0,0,.25,4.82,4.46,4.46,0,0,0,2.52,2.12,6,6,0,0,0,3.06,0c3.54-.79,4.73-3,3.94-5.69-.46-1.55-1.39-3.47-3-4S15.34,150.74,13.89,151.54Z"/><path class="cls-6" d="M14.42,151.45a5.08,5.08,0,0,0-2.17,1.9,5.66,5.66,0,0,0,.26,4.82A4.41,4.41,0,0,0,15,160.29a6,6,0,0,0,3.07,0c3.54-.8,4.72-3,3.93-5.69-.46-1.56-1.38-3.48-3-4S15.86,150.65,14.42,151.45Z"/><path class="cls-7" d="M16.3,159.56a3,3,0,0,1-.87-.15,3.65,3.65,0,0,1-2.08-1.74,4.9,4.9,0,0,1-.26-4.09A4.48,4.48,0,0,1,15,152a6.57,6.57,0,0,1,3.24-1,3.19,3.19,0,0,1,.77.15c1.5.51,2.29,2.65,2.56,3.55a3.38,3.38,0,0,1-.18,2.79,4.81,4.81,0,0,1-3.23,1.9,6.18,6.18,0,0,1-1.83.18Z"/><path class="cls-8" d="M16.94,158.92a.54.54,0,0,1-.23.11.24.24,0,0,1-.24-.08.26.26,0,0,1,.09-.3,2,2,0,0,1,.31-.13,1.42,1.42,0,0,0,.82-1,4.18,4.18,0,0,0,.08-1.32,1.79,1.79,0,0,0-.09-.57.6.6,0,0,0-.41-.38c-.18,0-.38.05-.54,0a.48.48,0,0,1-.12-.55,1.26,1.26,0,0,0,.09-.6.58.58,0,0,0-.55-.36,1.6,1.6,0,0,0-.68.18l-.84.36c-.12.05-.28.1-.38,0a.26.26,0,0,1-.05-.27,1,1,0,0,1,.8-.64c.35-.08.72-.07,1.06-.17.81-.23,1.4-1.07,2.23-1.08a.56.56,0,0,1-.22.7,4.39,4.39,0,0,0-.66.47.82.82,0,0,0,.16,1.18,5.52,5.52,0,0,1,.54.28.91.91,0,0,1,.23.75c0,.27-.1.53-.11.8a.81.81,0,0,0,.32.71,1.32,1.32,0,0,0,.94,0c.16,0,.55.07.38.32-.06.09-.32.16-.42.21s-.33.16-.5.24-.63.33-.94.51S17.29,158.7,16.94,158.92Z"/><path class="cls-9" d="M19.3,153a.17.17,0,0,1,.19-.27,1.27,1.27,0,0,1,.5.37,3.53,3.53,0,0,1,.66,2.05,2.39,2.39,0,0,1-.07.57.17.17,0,0,1-.32,0l-.15-.5c-.09-.31-.19-.62-.29-.92A3.67,3.67,0,0,0,19.3,153Z"/><path class="cls-9" d="M13.89,155.35a10.23,10.23,0,0,0,1.3,2.74.17.17,0,0,1-.23.24,3.27,3.27,0,0,1-1.15-1.27,2.47,2.47,0,0,1-.25-1.71A.17.17,0,0,1,13.89,155.35Z"/><path class="cls-5" d="M26,164c-.07,1.21-2.06,2.95-3.35,3.85a7.15,7.15,0,0,1-.88.55,3.48,3.48,0,0,1-3.05-.15c-1.21-.54-2.28-2.66-2.62-3.6a2,2,0,0,1,0-1.15,4.17,4.17,0,0,1,1.33-2.17,4.49,4.49,0,0,1,.49-.37,9.26,9.26,0,0,1,5.19-1.54C24,159.56,26.08,162.41,26,164Z"/><path class="cls-6" d="M22.55,167.89a7.3,7.3,0,0,1-1.4.73,3.27,3.27,0,0,1-3.07-.67A6.68,6.68,0,0,1,16,164.69a2.36,2.36,0,0,1,0-1.15,4.16,4.16,0,0,1,1.32-2.17,9.41,9.41,0,0,1,5.06-1.45c.89.19,3,3,2.88,4.59C25.21,165.53,23.77,166.93,22.55,167.89Z"/><path class="cls-7" d="M17.39,162.5A3.6,3.6,0,0,1,20.16,161c1.83,0,4.23,3.37,3.45,4.83A4,4,0,0,1,20.83,168c-1.37.41-2.26-.36-3.27-1.78A3.27,3.27,0,0,1,17.39,162.5Z"/><path class="cls-9" d="M20.21,167.54c.15,0,.32-.16.29-.32s-.11-.18-.19-.24a7,7,0,0,1-2.4-3.16,1.11,1.11,0,0,0-.14-.29.28.28,0,0,0-.52.16,4.69,4.69,0,0,0,.12,1C17.58,165.65,19.31,167.86,20.21,167.54Z"/><path class="cls-5" d="M31.6,173.2a5.09,5.09,0,0,1-2.23,3.17c-2.31.95-6-1.51-7-3.81a3.42,3.42,0,0,1,.57-3.71,12.74,12.74,0,0,1,2.88-2.57,4.14,4.14,0,0,1,5.07.08C32.83,168,32.36,170.79,31.6,173.2Z"/><path class="cls-6" d="M31.73,172.27a6.57,6.57,0,0,1-.82,2.51,3.59,3.59,0,0,1-1.54,1.59c-2.31.95-6-1.51-7-3.81a3.13,3.13,0,0,1-.08-2.59,3.87,3.87,0,0,1,1.31-1.63l.61-.44a7.76,7.76,0,0,1,3.74-1.52,4.1,4.1,0,0,1,3.64,2.56A7.18,7.18,0,0,1,31.73,172.27Z"/><path class="cls-7" d="M28.34,176.12c-1.77.11-4.89-2.21-5.63-3.78a2,2,0,0,1-.05-1.67,2.75,2.75,0,0,1,.93-1.14c.19-.13.37-.29.58-.41,1.94-1.1,6,2.34,6.38,3.7a3,3,0,0,1-.5,2.15,2.07,2.07,0,0,1-1.17,1A1.53,1.53,0,0,1,28.34,176.12Z"/><path class="cls-9" d="M28.55,175.44c.21-.1.43-.29.34-.48s-.22-.19-.37-.25a10.1,10.1,0,0,1-4.58-3.23,1.38,1.38,0,0,0-.31-.33c-.37-.25-.82,0-.74.35a5.46,5.46,0,0,0,.49,1.18C24,173.84,27.29,176.08,28.55,175.44Z"/><path class="cls-5" d="M37.74,180s-1,1.95-4.23.33c-3.87-2-3-3.57-3-3.57a18.84,18.84,0,0,1,1-2.07,14.36,14.36,0,0,1,3.33-4.12,2.31,2.31,0,0,1,2.29-.27s1.75.4,1.81,2A26.41,26.41,0,0,1,37.74,180Z"/><path class="cls-6" d="M38.63,176.19a18.2,18.2,0,0,1-.89,3.8s-1,1.95-4.23.33c-3.87-2-3-3.57-3-3.57a18.84,18.84,0,0,1,1-2.07,17.62,17.62,0,0,1,3-3.21,2.31,2.31,0,0,1,2.29-.27s1.75.4,1.81,2C38.66,173.83,38.67,175,38.63,176.19Z"/><path class="cls-7" d="M36,180.71a4.87,4.87,0,0,1-2.12-.61c-2.59-1.32-3-2.41-2.94-2.72a2.06,2.06,0,0,1,.39-.86,2.54,2.54,0,0,1,2.65-1.25,7.73,7.73,0,0,1,3,1.51,2.28,2.28,0,0,1,.7,2.43,10.12,10.12,0,0,1-.35,1A1.5,1.5,0,0,1,36,180.71Z"/><path class="cls-9" d="M36.44,180.26c.17-.11.33-.29.24-.44s-.2-.14-.33-.17a8.46,8.46,0,0,1-4.14-2.22,1.34,1.34,0,0,0-.29-.23c-.33-.18-.66.05-.58.36C31.67,178.74,35.46,180.92,36.44,180.26Z"/><path class="cls-5" d="M45.24,182.19a24.64,24.64,0,0,1-5.57-.33c-1-.24-.68-1.88-.68-1.88s.18-1.19.43-2.54a28.19,28.19,0,0,1,.82-3.65c.49-1.29.63-2.2,2.7-2.2s2.4,2,2.63,2.75a20.52,20.52,0,0,1,.37,3.36h0C46,179.8,46,182.08,45.24,182.19Z"/><path class="cls-6" d="M45.24,182.19a24.64,24.64,0,0,1-5.57-.33c-1-.24-.68-1.88-.68-1.88s.18-1.19.43-2.54a14.85,14.85,0,0,1,.75-2.71c.51-1.29.77-2.18,2.91-2.18s2.27,2.41,2.52,3.11c0,.11.09.38.15.74a16.33,16.33,0,0,1,.22,2.71C46,180.71,45.79,182.1,45.24,182.19Z"/><path class="cls-7" d="M40,181.54a1,1,0,0,1-.54-.7,8.32,8.32,0,0,1,.43-2.14c.4-.6,5.6-.61,5.65.7a8,8,0,0,1-.15,2c-.05.22-.38.4-.6.45A12.46,12.46,0,0,1,40,181.54Z"/><path class="cls-9" d="M45,181.06c.11-.14.17-.26,0-.35s-.25,0-.38.07a6.35,6.35,0,0,1-4.12-.21l-.37-.14c-.32-.1-.58.06-.4.27C40.52,181.54,44.38,181.88,45,181.06Z"/><path class="cls-5" d="M80.85,123.22a22.12,22.12,0,0,0,3.21.33h0c2.85.09,5.32-.36,5.94-1.11,1-1.21,1.17-4.56,1.15-6.06a4.84,4.84,0,0,0-.7-2.72c-1.22-1.74-4.67-2.35-7.36-2.22h0a10.19,10.19,0,0,0-2.12.3c-3.4,1-3.45,3.19-3.54,5.45C77.25,121.56,77.76,122.67,80.85,123.22Z"/><path class="cls-6" d="M80.85,123.22a22.12,22.12,0,0,0,3.21.33h0c2.21-.07,4-.49,4.5-1.11,1-1.21,1.18-4.56,1.16-6.06a4.84,4.84,0,0,0-.7-2.72c-1-1.44-3.56-2.11-5.93-2.22h0a10.19,10.19,0,0,0-2.12.3c-3.4,1-3.45,3.19-3.54,5.45C77.25,121.56,77.76,122.67,80.85,123.22Z"/><path class="cls-7" d="M83.83,122.8c2.48-.09,3.71-.57,3.91-.78.65-.8,1-3.51,1-5.68a4,4,0,0,0-.53-2.27c-.72-1-2.82-1.75-5.37-1.88a9.78,9.78,0,0,0-2,.28c-2.8.78-2.86,2.33-3,4.67v.08c-.09,2.26,0,3.46.39,4.12.26.47.76.85,2.34,1.13A23.94,23.94,0,0,0,83.83,122.8Z"/><path class="cls-8" d="M82.87,120.4a3,3,0,0,1-.26,1,1,1,0,0,1-.82.56.74.74,0,0,0,1.09-.06,2.14,2.14,0,0,0,.41-1.16c.06-.49.13-1,.2-1.45a1,1,0,0,1,.26-.65.84.84,0,0,1,.76-.09,2.68,2.68,0,0,0,.78.18,4,4,0,0,0,.94-.27,1.54,1.54,0,0,1,1.53.49.81.81,0,0,0-.49-1,1.9,1.9,0,0,0-1.18,0,4.33,4.33,0,0,1-1.18.18,1.67,1.67,0,0,1-1.43-1,1.7,1.7,0,0,1,.32-1.74c.14-.15.32-.28.46-.45a.68.68,0,0,0,.17-.59.57.57,0,0,0-.73-.32.93.93,0,0,0-.53.68,2.72,2.72,0,0,0,0,.9,2.66,2.66,0,0,1,0,.89c-.08.39-.44.77-.82.68A1.16,1.16,0,0,1,82,117a1.93,1.93,0,0,0-2.29.26.68.68,0,0,0-.24.39.3.3,0,0,0,.25.34c.2,0,.31-.21.45-.36a1.19,1.19,0,0,1,1.19-.16,6.6,6.6,0,0,1,1,.35c.2.09.73.29.83.49s-.09.8-.13,1Z"/><path class="cls-9" d="M87.11,120.13a.18.18,0,0,0-.35-.06c-.08.15-.14.3-.2.44a1.16,1.16,0,0,1-.42.55,3.11,3.11,0,0,1-1.14.4.19.19,0,0,0,0,.36,1.49,1.49,0,0,0,2.16-1.18A2.9,2.9,0,0,0,87.11,120.13Z"/><path class="cls-9" d="M80.64,121.1a2.9,2.9,0,0,1-1.16-1.84.19.19,0,0,0-.36,0,1.85,1.85,0,0,0,.13,1.44,1.43,1.43,0,0,0,1.31.74A.19.19,0,0,0,80.64,121.1Z"/><path class="cls-9" d="M82.08,113.62a.19.19,0,0,0,0-.36,2,2,0,0,0-1.67.33,2,2,0,0,0-.84,1.47.19.19,0,0,0,.34.12A3.69,3.69,0,0,1,82.08,113.62Z"/><path class="cls-9" d="M87.4,116.78a.19.19,0,0,0,.36,0,2,2,0,0,0-1.57-2.51.19.19,0,0,0-.14.33A3.89,3.89,0,0,1,87.4,116.78Z"/><path class="cls-5" d="M75,133.72A4.4,4.4,0,0,0,76.84,136a14.14,14.14,0,0,0,6.23,1.64h0a7.54,7.54,0,0,0,3.11-.33c3.26-1.5,3-10.08,2.92-10.66a2.7,2.7,0,0,0-1-1.45c-1.59-1.2-4.74-1.68-7.37-1.57a11.49,11.49,0,0,0-3,.44,3.34,3.34,0,0,0-1.89,1.44C75,127.11,74.56,132.3,75,133.72Z"/><path class="cls-6" d="M75,133.72A4.4,4.4,0,0,0,76.84,136a14.14,14.14,0,0,0,6.23,1.64h0a5.09,5.09,0,0,0,1.65-.33c3.26-1.5,3-10.08,2.91-10.66a2.6,2.6,0,0,0-1-1.45c-1.3-1-3.64-1.48-5.9-1.57a11.49,11.49,0,0,0-3,.44,3.34,3.34,0,0,0-1.89,1.44C75,127.11,74.56,132.3,75,133.72Z"/><path class="cls-7" d="M82.87,136.74a3.69,3.69,0,0,0,1.28-.25c1-.46,1.81-2.26,2.2-4.93a24.22,24.22,0,0,0,.23-4.94,1.69,1.69,0,0,0-.63-.87,10.7,10.7,0,0,0-5.48-1.42,10.94,10.94,0,0,0-2.74.41,2.47,2.47,0,0,0-1.38,1c-.84,1.47-1.2,6.55-.82,7.71A3.52,3.52,0,0,0,77,135.22,13.54,13.54,0,0,0,82.87,136.74Z"/><path class="cls-8" d="M82.62,130.8c.25-.14.53-.38.43-.64s-.46-.26-.68-.12a7.27,7.27,0,0,0-.57.54c-.21.17-.56.22-.71,0a.56.56,0,0,1-.08-.38,2.26,2.26,0,0,1,.78-1.51c.21-.17.44-.3.64-.47a1,1,0,0,0,.4-.64.55.55,0,0,0-.38-.61c-.28-.06-.54.18-.74.39s-.5.42-.77.3-.31-.44-.37-.72-.27-.6-.54-.54a.41.41,0,0,0-.28.44,1.45,1.45,0,0,0,.18.53,6.07,6.07,0,0,1,.58,2.81.53.53,0,0,1-.15.43c-.21.16-.49,0-.69-.2a3.2,3.2,0,0,0-1.84-.7c-.22,0-.49,0-.58.23a.44.44,0,0,0,.19.5,1.33,1.33,0,0,0,.56.15,4,4,0,0,1,1.55.42,2.25,2.25,0,0,1,.92,2.73,3.28,3.28,0,0,0-.29.77c0,.28.13.61.41.62a.49.49,0,0,0,.45-.34,1.45,1.45,0,0,0,.06-.59L81,132.74c0-.37-.06-.89.23-1.16A7.79,7.79,0,0,1,82.62,130.8Z"/><path class="cls-9" d="M83.42,126.36c-.2,0-.17.18,0,.4a6,6,0,0,1,.64,3.52l-.06.49a12.86,12.86,0,0,1-.75,2.89.24.24,0,0,0,.43.22c1.29-1.7,2.16-5.64.36-7.31A.8.8,0,0,0,83.42,126.36Z"/><path class="cls-9" d="M78.08,134.17A6,6,0,0,1,77,132a.24.24,0,0,0-.45,0,2.09,2.09,0,0,0,0,1.61,1.5,1.5,0,0,0,1.42,1A.24.24,0,0,0,78.08,134.17Z"/><path class="cls-9" d="M78.42,126.19a.25.25,0,0,0,.07-.43c-.81-.54-1.79.07-1.93,1.28a1.77,1.77,0,0,0,0,.56.24.24,0,0,0,.42.09c.41-.51.68-1,.85-1.19A1,1,0,0,1,78.42,126.19Z"/><path class="cls-5" d="M75.54,150.48a24.78,24.78,0,0,0,2.52.67c2.48.52,4.69.54,5.56-.25,1.17-1.06,3-6.49,2.81-9.62-.15-2.26-2.82-3.47-4.29-4h0c-.57-.19-1-.28-1-.28-5.26-1.18-6.05.05-7,.74s-2.07,5.76-2.31,7.95S72.14,149.39,75.54,150.48Z"/><path class="cls-6" d="M75.54,150.48a24.78,24.78,0,0,0,2.52.67c1.93.29,3.55.19,4.26-.48,1.16-1.08,3-6.64,2.79-9.84-.12-1.71-1.61-2.84-3-3.52h0c-.57-.19-1-.28-1-.28-5.26-1.18-6.05.05-7,.74s-2.07,5.76-2.31,7.95S72.14,149.39,75.54,150.48Z"/><path class="cls-7" d="M80.57,150.13a1.75,1.75,0,0,0,1-.29c.85-.79,2.63-5.94,2.43-8.94-.08-1.18-1.27-2-2.28-2.54-.45-.15-.76-.22-.76-.22a17.91,17.91,0,0,0-4.56-.58,2.65,2.65,0,0,0-1.32.44,3,3,0,0,0-1.14,1.5,31.77,31.77,0,0,0-1.41,6.19c-.17,1.59.45,2.77,3.38,3.71.8.25,1.61.47,2.38.63A9.46,9.46,0,0,0,80.57,150.13Z"/><path class="cls-8" d="M75.51,147.76c-.25,0-.54,0-.66-.23a.45.45,0,0,1,.25-.57,1.21,1.21,0,0,1,.68,0,1.51,1.51,0,0,0,.7,0,1.46,1.46,0,0,0,.73-.84l.66-1.35a.87.87,0,0,0,.11-.38.59.59,0,0,0-.52-.51,2.31,2.31,0,0,0-.78.08,5.06,5.06,0,0,1-1.9,0,.94.94,0,0,1-.5-.22.37.37,0,0,1-.06-.49.53.53,0,0,1,.44-.15l1.85-.08a3.3,3.3,0,0,1,1.29.12,3.14,3.14,0,0,1,1.06.76.06.06,0,0,0,.11-.05,7.28,7.28,0,0,0-1.38-3.45,1.75,1.75,0,0,1-.39-.72c0-.28.15-.61.43-.6s.42.28.49.53.1.8.65.9a1.19,1.19,0,0,0,.64-.08,5.77,5.77,0,0,1,1.93-.34.55.55,0,0,1,.42.12.39.39,0,0,1-.15.55,1,1,0,0,1-.63.06,1.54,1.54,0,0,0-.64,0,.88.88,0,0,0-.53.61,2.33,2.33,0,0,0,0,.83A6.44,6.44,0,0,0,80,144,2.3,2.3,0,0,0,81,145.35c.17.09.36.16.41.38a.49.49,0,0,1-.36.55,1.15,1.15,0,0,1-1-.4c-.35-.3-.69-.67-1.23-.58A1.13,1.13,0,0,0,78,146a1.69,1.69,0,0,0,.35,1.6c.23.3.47.6,0,.85s-.84-.21-1.2-.37A4.5,4.5,0,0,0,75.51,147.76Z"/><path class="cls-9" d="M76,139.1a.22.22,0,0,0-.21-.31,1.17,1.17,0,0,0-.71.34,2.65,2.65,0,0,0-.62,2.45.22.22,0,0,0,.36.1,3.92,3.92,0,0,0,1-2.05A2.21,2.21,0,0,1,76,139.1Z"/><path class="cls-9" d="M73.79,144.68a1.37,1.37,0,0,0,0,2.3.23.23,0,0,0,.31-.13,3.06,3.06,0,0,0,.18-1,2.84,2.84,0,0,0-.21-1A.21.21,0,0,0,73.79,144.68Z"/><path class="cls-9" d="M82,141.1a8.24,8.24,0,0,0,0,3.53.22.22,0,0,0,.39.07,3.33,3.33,0,0,0,0-3.67A.22.22,0,0,0,82,141.1Z"/><path class="cls-9" d="M81.56,147.47a.21.21,0,0,0-.36-.06,3.94,3.94,0,0,1-.8.83,6.39,6.39,0,0,1-1.1.47.21.21,0,0,0,0,.36,1.48,1.48,0,0,0,1.78.12A1.43,1.43,0,0,0,81.56,147.47Z"/><path class="cls-5" d="M78.85,151.54A5.16,5.16,0,0,1,81,153.45a5.66,5.66,0,0,1-.26,4.82,4.4,4.4,0,0,1-2.52,2.12,6,6,0,0,1-3.06,0c-3.54-.79-4.72-3-3.93-5.69.45-1.55,1.38-3.47,3-4S77.41,150.74,78.85,151.54Z"/><path class="cls-6" d="M78.32,151.45a5,5,0,0,1,2.17,1.9,5.65,5.65,0,0,1-.25,4.82,4.46,4.46,0,0,1-2.52,2.12,6,6,0,0,1-3.06,0c-3.54-.8-4.73-3-3.94-5.69.46-1.56,1.39-3.48,3-4S76.88,150.65,78.32,151.45Z"/><path class="cls-7" d="M76.44,159.56a3.06,3.06,0,0,0,.88-.15,3.66,3.66,0,0,0,2.07-1.74,4.9,4.9,0,0,0,.26-4.09A4.42,4.42,0,0,0,77.77,152a6.54,6.54,0,0,0-3.24-1,3.39,3.39,0,0,0-.77.15c-1.5.51-2.29,2.65-2.55,3.55a3.38,3.38,0,0,0,.18,2.79,4.78,4.78,0,0,0,3.22,1.9,6.18,6.18,0,0,0,1.83.18Z"/><path class="cls-8" d="M75.8,158.92A.58.58,0,0,0,76,159a.23.23,0,0,0,.23-.08.24.24,0,0,0-.09-.3,1.69,1.69,0,0,0-.31-.13,1.42,1.42,0,0,1-.82-1,4.5,4.5,0,0,1-.08-1.32,1.79,1.79,0,0,1,.09-.57.62.62,0,0,1,.41-.38c.18,0,.38.05.54,0a.48.48,0,0,0,.13-.55,1.06,1.06,0,0,1-.09-.6.56.56,0,0,1,.55-.36,1.68,1.68,0,0,1,.68.18l.83.36c.13.05.28.1.38,0a.26.26,0,0,0,.06-.27,1,1,0,0,0-.8-.64c-.35-.08-.72-.07-1.07-.17-.8-.23-1.4-1.07-2.23-1.08a.56.56,0,0,0,.22.7,3.93,3.93,0,0,1,.66.47.81.81,0,0,1-.16,1.18,4.44,4.44,0,0,0-.53.28.88.88,0,0,0-.24.75c0,.27.1.53.11.8a.78.78,0,0,1-.31.71,1.35,1.35,0,0,1-1,0c-.16,0-.54.07-.38.32.06.09.32.16.43.21l.49.24c.32.16.64.33.95.51S75.45,158.7,75.8,158.92Z"/><path class="cls-9" d="M73.45,153a.17.17,0,0,0-.19-.27,1.27,1.27,0,0,0-.5.37,3.53,3.53,0,0,0-.67,2.05,3.05,3.05,0,0,0,.07.57.17.17,0,0,0,.33,0c0-.17.09-.33.14-.5s.19-.62.29-.92A3.66,3.66,0,0,1,73.45,153Z"/><path class="cls-9" d="M78.85,155.35a9.94,9.94,0,0,1-1.3,2.74.17.17,0,0,0,.23.24,3.29,3.29,0,0,0,1.16-1.27,2.52,2.52,0,0,0,.24-1.71A.17.17,0,0,0,78.85,155.35Z"/><path class="cls-5" d="M66.75,164c.07,1.21,2.06,2.95,3.35,3.85a8,8,0,0,0,.88.55,3.5,3.5,0,0,0,3.06-.15c1.2-.54,2.28-2.66,2.62-3.6a2.14,2.14,0,0,0,0-1.15,4.22,4.22,0,0,0-1.32-2.17,5.72,5.72,0,0,0-.49-.37,9.3,9.3,0,0,0-5.2-1.54C68.75,159.56,66.66,162.41,66.75,164Z"/><path class="cls-6" d="M70.2,167.89a7,7,0,0,0,1.39.73,3.29,3.29,0,0,0,3.08-.67,6.65,6.65,0,0,0,2.08-3.26,2.35,2.35,0,0,0,0-1.15,4.17,4.17,0,0,0-1.33-2.17,9.36,9.36,0,0,0-5-1.45c-.89.19-3,3-2.89,4.59C67.54,165.53,69,166.93,70.2,167.89Z"/><path class="cls-7" d="M75.35,162.5A3.59,3.59,0,0,0,72.59,161c-1.84,0-4.23,3.37-3.45,4.83A4,4,0,0,0,71.91,168c1.37.41,2.26-.36,3.28-1.78A3.27,3.27,0,0,0,75.35,162.5Z"/><path class="cls-9" d="M72.53,167.54c-.15,0-.31-.16-.29-.32s.11-.18.2-.24a6.94,6.94,0,0,0,2.39-3.16,1.14,1.14,0,0,1,.15-.29.28.28,0,0,1,.52.16,5.49,5.49,0,0,1-.13,1C75.16,165.65,73.43,167.86,72.53,167.54Z"/><path class="cls-5" d="M61.15,173.2a5.06,5.06,0,0,0,2.23,3.17c2.3.95,5.95-1.51,7-3.81a3.41,3.41,0,0,0-.58-3.71A12.67,12.67,0,0,0,67,166.28a4.16,4.16,0,0,0-5.08.08C59.92,168,60.39,170.79,61.15,173.2Z"/><path class="cls-6" d="M61,172.27a6.75,6.75,0,0,0,.82,2.51,3.55,3.55,0,0,0,1.55,1.59c2.3.95,5.95-1.51,7-3.81a3.09,3.09,0,0,0,.07-2.59,3.87,3.87,0,0,0-1.31-1.63c-.19-.15-.4-.29-.6-.44a7.8,7.8,0,0,0-3.74-1.52,4.11,4.11,0,0,0-3.65,2.56A7.32,7.32,0,0,0,61,172.27Z"/><path class="cls-7" d="M64.41,176.12c1.76.11,4.89-2.21,5.62-3.78a2,2,0,0,0,0-1.67,2.75,2.75,0,0,0-.93-1.14,6.41,6.41,0,0,0-.57-.41c-1.94-1.1-6,2.34-6.38,3.7a3,3,0,0,0,.5,2.15,2,2,0,0,0,1.16,1A1.58,1.58,0,0,0,64.41,176.12Z"/><path class="cls-9" d="M64.2,175.44c-.21-.1-.43-.29-.35-.48s.22-.19.37-.25a10,10,0,0,0,4.58-3.23,1.38,1.38,0,0,1,.31-.33c.37-.25.82,0,.74.35a5,5,0,0,1-.49,1.18C68.75,173.84,65.46,176.08,64.2,175.44Z"/><path class="cls-5" d="M55,180s1,1.95,4.23.33c3.86-2,3-3.57,3-3.57a21.76,21.76,0,0,0-1-2.07,14.4,14.4,0,0,0-3.34-4.12,2.31,2.31,0,0,0-2.29-.27s-1.75.4-1.8,2A25.76,25.76,0,0,0,55,180Z"/><path class="cls-6" d="M54.12,176.19A17.55,17.55,0,0,0,55,180s1,1.95,4.23.33c3.86-2,3-3.57,3-3.57a21.76,21.76,0,0,0-1-2.07,18,18,0,0,0-3-3.21,2.31,2.31,0,0,0-2.29-.27s-1.75.4-1.8,2C54.08,173.83,54.07,175,54.12,176.19Z"/><path class="cls-7" d="M56.78,180.71a4.84,4.84,0,0,0,2.12-.61c2.59-1.32,3-2.41,2.94-2.72a1.94,1.94,0,0,0-.39-.86,2.52,2.52,0,0,0-2.64-1.25,7.85,7.85,0,0,0-3,1.51,2.3,2.3,0,0,0-.7,2.43,8.23,8.23,0,0,0,.36,1A1.48,1.48,0,0,0,56.78,180.71Z"/><path class="cls-9" d="M56.3,180.26c-.17-.11-.33-.29-.24-.44a.5.5,0,0,1,.33-.17,8.42,8.42,0,0,0,4.14-2.22,1.63,1.63,0,0,1,.29-.23c.34-.18.67.05.58.36C61.07,178.74,57.28,180.92,56.3,180.26Z"/><path class="cls-5" d="M47.5,182.19a24.57,24.57,0,0,0,5.57-.33c1-.24.68-1.88.68-1.88s-.18-1.19-.42-2.54a27.9,27.9,0,0,0-.83-3.65c-.49-1.29-.63-2.2-2.7-2.2s-2.39,2-2.63,2.75a21,21,0,0,0-.36,3.36h0C46.71,179.8,46.79,182.08,47.5,182.19Z"/><path class="cls-6" d="M47.5,182.19a24.57,24.57,0,0,0,5.57-.33c1-.24.68-1.88.68-1.88s-.18-1.19-.42-2.54a16.72,16.72,0,0,0-.75-2.71c-.51-1.29-.77-2.18-2.91-2.18s-2.28,2.41-2.52,3.11a5.4,5.4,0,0,0-.16.74,16.33,16.33,0,0,0-.22,2.71C46.78,180.71,47,182.1,47.5,182.19Z"/><path class="cls-7" d="M52.79,181.54a1.05,1.05,0,0,0,.55-.7,8,8,0,0,0-.44-2.14c-.39-.6-5.6-.61-5.65.7a8,8,0,0,0,.15,2c.05.22.38.4.6.45A12.44,12.44,0,0,0,52.79,181.54Z"/><path class="cls-9" d="M47.71,181.06c-.11-.14-.17-.26,0-.35s.24,0,.38.07a6.33,6.33,0,0,0,4.11-.21l.37-.14c.33-.1.58.06.4.27C52.22,181.54,48.36,181.88,47.71,181.06Z"/><path class="cls-4" d="M81.18,83.25l-.34,0-.27,0h0c-3.37-.35-11.19-1.8-15.44-7.71C61,69.82,53.6,67,46.18,67s-14.77,2.86-18.8,8.44c-4.13,5.75-11.65,7.27-15.15,7.68l-.91.09.42-.06h0l.26,0c6-1.07,4.16-14.44,4.22-21.49S14.69,15.6,46.16,15.53h.09c26.58,0,29.64,27.7,30,40.67.06,2.43,0,4.34,0,5.46.06,7-1.82,20.42,4.22,21.49l.17,0Z"/><path class="cls-2" d="M81,83.25c-2.91-.24-11.52-1.46-16.06-7.77C60.88,69.87,53.54,67.07,46.18,67s-14.93,2.81-19,8.44-11.37,7.21-14.95,7.65l-.5.06h0l-.61.06.69-.1c5.52-1,4.42-12.23,4.24-19.54,0-.69,0-1.34,0-2,.05-7.06-1.54-46.13,30-46.13h.1c24.76.06,29.05,24.23,29.77,38,.2,3.72.14,6.67.15,8.17,0,.61,0,1.27,0,2-.19,7.31-1.27,18.55,4.24,19.52l.26,0h0Z"/><path class="cls-1" d="M81,83.25c-2.91-.24-11.52-1.46-16.06-7.77C60.88,69.87,53.54,67.07,46.18,67s-14.77,2.86-18.8,8.44c-4.13,5.75-11.65,7.27-15.15,7.68l-.91.09s1-.16,1-.17c5.09-1.58,4.11-12.61,3.93-19.92.23-12.6,3.25-41.47,30.37-41.47,21.44,0,27.58,18,29.32,31.8.12.92.22,1.83.3,2.71.24,2.6.34,5,.38,7-.18,7.16-1.09,18.64,4,20l.18,0Z"/><path class="cls-2" d="M64.58,63.34c-10.1-8-25.57-8.14-35.84-.58a1.42,1.42,0,0,1-2.22-1.25v0c.17-9.05,1.46-16.43,3.84-22,3.3-7.67,8.49-11.24,16.33-11.24,6.42,0,10.94,2.31,14.22,7.28,4.57,6.93,5.78,17.44,6,25.94,0,.2,0,.41,0,.63A1.41,1.41,0,0,1,64.58,63.34Z"/><path class="cls-1" d="M87.88,79.69a5.64,5.64,0,0,1-5.72,3.62c-.37,0-.68,0-1-.06l-.71-.1c-6-1.07-4.16-14.44-4.22-21.49s1.54-46.13-30-46.13-30,39.07-30,46.13c0,2.86.27,6.77.22,10.47-.06,5.41-.86,10.38-4.44,11a10.39,10.39,0,0,1-1.67.16h-.08a5.62,5.62,0,0,1-5.64-3.62c-.33-.87-.66-1.76-1-2.69C1.42,70.18.21,60.89,6,35,12.44,6,40.26,4.56,45.42,4.56h1.65c5.16,0,33,1.39,39.44,30.39C93.08,64.44,90.61,72.41,87.88,79.69Z"/><path class="cls-4" d="M88.05,79.66a5.85,5.85,0,0,1-1.79,2.51,7.2,7.2,0,0,1-5.75,1.15c-4.61-.77-4.7-8.42-4.65-13.14,0-3.14.24-6,.21-8.86a99.62,99.62,0,0,0-.82-14.72c-2.51-18-11-30.81-29-30.77-14.43,0-25.87,8.36-29,30.77a90.78,90.78,0,0,0-.8,11.77v3c-.06,5.24.81,12.88-.58,17.72C15.24,81.13,14.14,83,12,83.32a10.58,10.58,0,0,1-1.49.14,7,7,0,0,1-4.26-1.29,5.9,5.9,0,0,1-1.77-2.51h.29a5.22,5.22,0,0,0,1.79,2.13,6.19,6.19,0,0,0,5.3.69,3.14,3.14,0,0,0,1.9-1.34A11.33,11.33,0,0,0,15.1,76c.45-6.82-1.69-16.58-.2-29.68s6.62-25.83,18.77-31a33.73,33.73,0,0,1,25.16,0c12.16,5.19,17.31,17.94,18.78,31S77,69.19,77.41,76a11.09,11.09,0,0,0,1.34,5.16c1.78,2.63,6.49,1.8,8.23-.28a5,5,0,0,0,.76-1.19Z"/><path class="cls-3" d="M5.89,34.93a49.05,49.05,0,0,1,1.39-5c.12-.35.11-.32.91-2.42.09-.2.91-2,1.07-2.35.54-1,1.05-2,1.68-3a34.4,34.4,0,0,1,9.33-10c7.44-5.35,17.28-7.89,26-7.82s18.5,2.44,26,7.82a34.3,34.3,0,0,1,9.34,10c.63,1,1.14,2,1.68,3,.15.32,1,2.14,1.07,2.36.74,2,.77,2,.9,2.41a47.13,47.13,0,0,1,1.4,5l-.19,0a33.09,33.09,0,0,0-1.11-3.24A31.26,31.26,0,0,0,84,28.59c-.56-1.23-.27-.61-.73-1.53-.26-.5-.51-1-.78-1.49-.58-1-1.13-1.94-1.79-2.85a32.65,32.65,0,0,0-4.25-5.12,36.54,36.54,0,0,0-5.1-4.19c-1-.63-1.12-.74-1.39-.89-.48-.27-.95-.56-1.43-.82-1.65-.84,0-.09-3-1.48A47.62,47.62,0,0,0,46.25,6.28a47.61,47.61,0,0,0-19.33,3.94c-2.73,1.3-1.39.68-3,1.48-.48.26-.95.55-1.43.83-.27.15-.41.24-1.39.88a35.92,35.92,0,0,0-5.1,4.2,31.76,31.76,0,0,0-4.25,5.12c-.66.9-1.21,1.88-1.79,2.84l-.78,1.49c-.45.89-.2.36-.73,1.53a31.26,31.26,0,0,0-1.31,3.14A33.09,33.09,0,0,0,6.08,35Z"/><path class="cls-5" d="M21.46,26.72c-.2.82-1.53,4.58-4.47,4.43a14.81,14.81,0,0,1-4-.79c-1.91-.64-3.44-1.55-3.74-2.26-1.39-3.27,1.37-8,3.22-9.14.88-.53,3.09-.33,6.17,2.08l.18.15C21.81,23.54,21.75,25.56,21.46,26.72Z"/><path class="cls-6" d="M20.12,27c-.89,2.8-2.63,3.53-3.58,3.71a4.37,4.37,0,0,1-.95.07A13,13,0,0,1,13,30.36c-1.91-.64-3.44-1.55-3.74-2.26-1.39-3.27,1.37-8,3.22-9.14.88-.53,3.09-.33,6.17,2.08A5.85,5.85,0,0,1,20.12,27Z"/><path class="cls-7" d="M15.62,30.05c-3.4-.18-5.86-1.67-6.18-2.32-1.23-2.89,1.36-7.43,2.84-8.32a2.93,2.93,0,0,1,.58-.36c.86-.17,2.32,0,4.76,2a5.16,5.16,0,0,1,1.83,5.72C18.35,30.23,15.93,30.06,15.62,30.05Z"/><path class="cls-8" d="M11.26,26.78a1,1,0,0,0-.34.12.25.25,0,0,0,.16.48.89.89,0,0,0,.35-.14l1.16-.69a1,1,0,0,1,.72-.2,1,1,0,0,1,.52.49l.63,1c.12.18.31.38.5.29a.3.3,0,0,0,.11-.37.94.94,0,0,0-.27-.33,2.79,2.79,0,0,1-.88-1.14,3,3,0,0,1,.45-2.14,2.59,2.59,0,0,1,.79-1,5.12,5.12,0,0,1,1.62-.38c.2,0,.44-.2.39-.4s-.31-.22-.5-.17c-.46.1-.91.4-1.38.3a1.34,1.34,0,0,1-.8-.66,7.84,7.84,0,0,0-.55-.93c-.18-.23-.53-.42-.77-.23a.61.61,0,0,0-.06.69c.2.47.58.86.73,1.34a2.11,2.11,0,0,1-.13,1.46,14.17,14.17,0,0,1-.81,1.54A2.64,2.64,0,0,1,11.26,26.78Z"/><path class="cls-9" d="M12,21.31c.42-.22-.17.48-.82,2.21s-.7,2.86-.83,2.2A6.2,6.2,0,0,1,12,21.31Z"/><path class="cls-9" d="M14.43,20.6c-.26-.45,2.22.41,1.68.52A4.84,4.84,0,0,1,14.43,20.6Z"/><path class="cls-9" d="M11.8,28.14a4.14,4.14,0,0,1,1.72.52C13.59,29,11.32,28.47,11.8,28.14Z"/><path class="cls-9" d="M16,27.88a5.26,5.26,0,0,0,1.12-1.49,4.23,4.23,0,0,0,.21-.57,6.22,6.22,0,0,0,.44-2.47,3.73,3.73,0,0,1,.29,2.73,4.39,4.39,0,0,1-.26.63A3.32,3.32,0,0,1,16,27.88Z"/><path class="cls-6" d="M26.16,17.77c-.33,2.16-2.93,3.56-3.76,3.77-.67.16-6-2.5-7.55-4.06h0a1.83,1.83,0,0,1-.6-.9c-.16-1.37,4.55-6.94,6.65-7.06a2.81,2.81,0,0,1,1.18.87h0C23.54,11.88,26.4,16.17,26.16,17.77Z"/><path class="cls-7" d="M16.92,17.51a2.78,2.78,0,0,1-2.07-1.22c-.15-.51,3-5.25,5.67-6.3.3-.12,1.49,1.31,1.59,1.63.21.66-1.66,1.92-2.81,3.13C18.32,15.79,17.41,17.37,16.92,17.51Z"/><path class="cls-5" d="M26.16,17.77c-.33,2.16-2.93,3.56-3.76,3.77-.67.16-6-2.5-7.55-4.06.13.08,6.29,3.44,7.28,3.07s3.14-2,3-3.27-2.06-5.45-3.08-6.9C23.54,11.88,26.4,16.17,26.16,17.77Z"/><path class="cls-9" d="M16.23,15.93a10.21,10.21,0,0,1,4.25-4.7.09.09,0,0,1,.11.14c-.83.93-2.71,2.84-4.21,4.65C16.32,16.1,16.2,16,16.23,15.93Z"/><path class="cls-6" d="M22.78,7.89C23,6.57,29,2.65,31,3.13c.87.35,3.74,8.44,2.83,10.37S30.23,16,29.4,16,22.55,9.22,22.78,7.89Z"/><path class="cls-5" d="M33.82,13.5c-.9,1.93-3.59,2.5-4.42,2.46s-6-5.75-6.6-7.77c1.31,2,5.64,6.33,6.32,6.36a4.66,4.66,0,0,0,4-2.44c.66-1.39-.83-6.39-1.6-8.3C32.87,6.08,34.56,11.93,33.82,13.5Z"/><path class="cls-7" d="M25,9.51c-.49,0-1.6-1.22-1.6-1.73s4.29-4.08,7.09-4.33c.31,0,1,1.65,1,2,0,.69-2.09,1.34-3.51,2.16C26.82,8.28,25.52,9.51,25,9.51Z"/><path class="cls-9" d="M24.49,7.3a10,10,0,0,1,5.33-3.18.09.09,0,0,1,.06.16c-1,.64-3.35,1.88-5.28,3.15A.09.09,0,0,1,24.49,7.3Z"/><path class="cls-6" d="M40.44,13.75c-4.58,0-6.69-8.13-6.8-11v0c0-.16,1.22-2.72,6.21-2.72s6.1,1.11,6.2,1.92S45,13.75,40.44,13.75Z"/><path class="cls-7" d="M39.77,4.61c-3.43,0-5,1.23-5.16-1.68C34.9,2.5,36.14,1,39.76,1c4.46,0,5.12.92,5.17,1C45.58,4.26,44.2,4.3,39.77,4.61Z"/><path class="cls-5" d="M40.44,13.75c-4.57,0-6.76-8.11-6.88-11,.07.37,1.81,9.82,6.85,9.5C44.35,12,46,1.92,46,1.92,46.07,2.72,45,13.75,40.44,13.75Z"/><path class="cls-9" d="M36.09,2.2a11.85,11.85,0,0,1,7.51-.31.09.09,0,0,1,0,.17c-1.45.09-4.58.06-7.45.31A.09.09,0,0,1,36.09,2.2Z"/><path class="cls-5" d="M18.53,37.45a8.62,8.62,0,0,1-1.71,3.17,3.93,3.93,0,0,1-1.44.54,9.75,9.75,0,0,1-6.06-.81A9.25,9.25,0,0,1,7,38.78c-1.78-1.65-2.28-3.45-1.24-5.64.33-.67.76-2.16,2-2.74a7.23,7.23,0,0,1,4.2-.1,5.78,5.78,0,0,1,.57.12h0a8.75,8.75,0,0,1,2.57.95C17.63,32.85,19.35,34.63,18.53,37.45Z"/><path class="cls-6" d="M17.65,37.14A9.24,9.24,0,0,1,16,40.28a3.49,3.49,0,0,1-1.37.51,9.41,9.41,0,0,1-1.84.18c-.24,0-.47,0-.71,0a9.93,9.93,0,0,1-2.75-.59A9.25,9.25,0,0,1,7,38.78c-1.78-1.65-2.28-3.45-1.24-5.64.33-.67.76-2.16,2-2.74a7.23,7.23,0,0,1,4.2-.1,5.78,5.78,0,0,1,.57.12h0a7.62,7.62,0,0,1,1.63.7l.23.14C17.34,33.05,18.32,34.81,17.65,37.14Z"/><path class="cls-7" d="M16,36.89a11.76,11.76,0,0,1-1.54,2.91,2.54,2.54,0,0,1-2,.89h0a7.73,7.73,0,0,1-5.09-2.25c-1.71-1.59-2.07-3.16-1.14-5.1a3.31,3.31,0,0,0,.18-.41,3.87,3.87,0,0,1,1.57-2.12,3.83,3.83,0,0,1,1.67-.31,12.8,12.8,0,0,1,2.24.25,6.28,6.28,0,0,1,2.49.86l.21.13C17.21,33.38,16.59,34.75,16,36.89Z"/><path class="cls-8" d="M12.86,35.25c.21-.14-.62-.4-.82-.57a1.56,1.56,0,0,1-.54-1,.58.58,0,0,1,.34-.62.57.57,0,0,1,.48.15,3.33,3.33,0,0,1,.36.39,1.51,1.51,0,0,0,1.13.45A.09.09,0,0,0,13.9,34c0-.19-.13-.38-.29-.51l-.94-.81a8,8,0,0,0-1.24-.92,2.8,2.8,0,0,0-1.37-.41.12.12,0,0,0-.12.11.58.58,0,0,0,.25.45c.16.14.37.21.54.35a1.43,1.43,0,0,1,.49,1,2.52,2.52,0,0,1-1.11,2.43c-.21.13-.44.25-.52.47a1,1,0,0,0,.08.66.63.63,0,0,1-.06.64.55.55,0,0,1-.5.11,1.94,1.94,0,0,0-.53,0,.37.37,0,0,0-.35.34.35.35,0,0,0,.3.29,1.08,1.08,0,0,0,.44,0,4.91,4.91,0,0,1,3,.41c.18.08.4.18.55.06a.32.32,0,0,0,.07-.4.63.63,0,0,0-.32-.28,2.76,2.76,0,0,0-1-.13,1.53,1.53,0,0,1-1.08-.31.72.72,0,0,1-.22-.5c0-.35.32-.52.6-.6a2.78,2.78,0,0,0,.65-.23.89.89,0,0,0,.41-.79A.28.28,0,0,1,12,35l.25,0C12.45,35.07,12.69,35.37,12.86,35.25Z"/><path class="cls-9" d="M13.67,38.62a.1.1,0,0,1-.12-.16,4.51,4.51,0,0,0,.79-1.14,4.43,4.43,0,0,0,.2-.57,5.87,5.87,0,0,0,.41-2,.1.1,0,0,1,.2,0,3.32,3.32,0,0,1,.06,2.2,3.09,3.09,0,0,1-.25.62A2.71,2.71,0,0,1,13.67,38.62Z"/><path class="cls-9" d="M8.4,31.86c-.14.41-.18.48-.84,2.17s-.5,2.18-.84,2.18C6.27,35.33,7.69,31.63,8.4,31.86Z"/><path class="cls-9" d="M12.44,31.67c.57-.27,2,.81,2.08,1.44C14.3,33.48,12.44,32.06,12.44,31.67Z"/><path class="cls-9" d="M9.67,39.07c-.25.46,2.65.87,2.48.45A10.33,10.33,0,0,0,9.67,39.07Z"/><path class="cls-5" d="M16,50.45a9.74,9.74,0,0,1-2,4.86,6.55,6.55,0,0,1-4.38,1.91,10.79,10.79,0,0,1-3.74-.52c-.35-.11-.7-.24-1-.37A7.58,7.58,0,0,1,.59,53a8.56,8.56,0,0,1-.37-5.18c.24-1.6.05-3,1.1-4.42A5.3,5.3,0,0,1,5,41.36a6.88,6.88,0,0,1,1.92.09c.59.1,1.18.24,1.76.39a17.44,17.44,0,0,1,4.53,1.6,5.93,5.93,0,0,1,3,3.63A8.21,8.21,0,0,1,16,50.45Z"/><path class="cls-6" d="M14,50a9.65,9.65,0,0,1-2,4.86,6.53,6.53,0,0,1-4.38,1.91,10.14,10.14,0,0,1-1.74-.07c-.35-.11-.7-.24-1-.37A7.58,7.58,0,0,1,.59,53a8.56,8.56,0,0,1-.37-5.18c.24-1.6.05-3,1.1-4.42A5.3,5.3,0,0,1,5,41.36a6.88,6.88,0,0,1,1.92.09A16.72,16.72,0,0,1,11.17,43a6,6,0,0,1,3,3.63A8.22,8.22,0,0,1,14,50Z"/><path class="cls-7" d="M4.58,55.46c-1.8-.58-2.75-1-3.6-2.7A8.12,8.12,0,0,1,.69,48c.26-1.69.08-3,1-4.15A4.46,4.46,0,0,1,5.22,42a6.88,6.88,0,0,1,1.15.1c1.57.4,1.79.23,3,.94A5.15,5.15,0,0,1,12,46.19a7.58,7.58,0,0,1-.17,3.09A9.25,9.25,0,0,1,10,53.85C8.9,55,7.34,56.48,4.58,55.46Z"/><path class="cls-8" d="M3.17,52.89a.18.18,0,0,0,0,.35,3.15,3.15,0,0,0,2.28,0,1.68,1.68,0,0,0,1-.94c.14-.43,0-.92.23-1.32a1.24,1.24,0,0,1,1.06-.58A5.23,5.23,0,0,1,9,50.56a.83.83,0,0,0,.47,0,.32.32,0,0,0,.23-.36C9.6,50,9.3,50,9.08,50l-1.73.13a2.14,2.14,0,0,1-.67,0,.7.7,0,0,1-.49-.41,1,1,0,0,1,.15-.74l.58-1.23a.79.79,0,0,1,.23-.31c.25-.17.59,0,.77.28a2.66,2.66,0,0,0,.54.73c.18.12.49.09.54-.12A.34.34,0,0,0,8.8,48c-.12-.06-.26-.09-.38-.14a1.25,1.25,0,0,1-.62-1.07c0-.43,0-.86-.06-1.29a3.93,3.93,0,0,0-.86-1.59,1.7,1.7,0,0,0-.51-.49.56.56,0,0,0-.66.08.64.64,0,0,0,.12.8c.2.22.47.37.65.61A1.47,1.47,0,0,1,6.68,46a4.26,4.26,0,0,1-.48,1.12,1,1,0,0,1-.49.52c-.32.11-.65-.12-.92-.35a1.76,1.76,0,0,0-1.24-.57.69.69,0,0,0-.56.33.69.69,0,0,0,.44,1,4.05,4.05,0,0,0,.92.18c.45.06,1,.29,1,.74S5,49.9,5,50.41c.09.7,1.07,1.16.19,1.75A4.56,4.56,0,0,1,3.17,52.89Z"/><path class="cls-9" d="M6.87,54.62a.2.2,0,0,1-.11-.36,12.87,12.87,0,0,0,1.31-.94,13.06,13.06,0,0,0,1.17-1.1.2.2,0,0,1,.33.18A3.09,3.09,0,0,1,6.87,54.62Z"/><path class="cls-9" d="M8.86,44.15a.19.19,0,0,1,.19-.32A2.84,2.84,0,0,1,11,47a.2.2,0,0,1-.38,0A6,6,0,0,0,8.86,44.15Z"/><path class="cls-9" d="M2.28,45.5a.19.19,0,0,1-.35-.07,1.68,1.68,0,0,1,.33-1.25,1.7,1.7,0,0,1,1.1-.69.2.2,0,0,1,.17.31l-.64.85C2.53,45.14,2.37,45.37,2.28,45.5Z"/><path class="cls-9" d="M1.82,49.28a7.07,7.07,0,0,1,.28,2.38.2.2,0,0,1-.35.11,2.65,2.65,0,0,1-.29-2.51A.19.19,0,0,1,1.82,49.28Z"/><path class="cls-5" d="M14.77,62.2c0,1,0,3.76-1.94,4.87a9.31,9.31,0,0,1-3.91,1,25,25,0,0,1-4.58-.13c-3-.35-3.18-3.21-3.21-4.36S.94,60.3.93,60.23c-.47-4.17,2-4.69,3.38-5.13A5.25,5.25,0,0,1,6.07,55a22.93,22.93,0,0,1,6.76,1.75C15.1,57.9,14.77,61.2,14.77,62.2Z"/><path class="cls-6" d="M12.82,62.22c0,1,0,3.93-1.94,5.09a6.56,6.56,0,0,1-2,.74,25,25,0,0,1-4.58-.13c-3-.35-3.18-3.21-3.21-4.36S.94,60.3.93,60.23c-.47-4.17,2-4.69,3.38-5.13A5.25,5.25,0,0,1,6.07,55a21,21,0,0,1,4.81,1.53C13.15,57.73,12.82,61.18,12.82,62.22Z"/><path class="cls-7" d="M4,67c-1.59-.19-2.33-1.26-2.39-3.46,0-1.18-.19-3.3-.21-3.43-.35-3.15,1.17-3.62,2.51-4A3.58,3.58,0,0,1,5.49,56,19.33,19.33,0,0,1,10,57.42c1.53.78,1.47,3.24,1.44,4.42,0,.15,0,.28,0,.39,0,2.24-.5,3.69-1.49,4.29a5.71,5.71,0,0,1-1.61.61A25,25,0,0,1,4,67Z"/><path class="cls-8" d="M6.05,65.19,7,65l.8-.2c.3-.07.61-.13.91-.18.12,0,.25,0,.31-.14s0-.33-.19-.38a.79.79,0,0,0-.48,0l-1,.31a.52.52,0,0,1-.3,0c-.12,0-.17-.2-.21-.33a3.94,3.94,0,0,1-.18-1.23A1.91,1.91,0,0,1,8,61.24a1.7,1.7,0,0,0,.4-.13.37.37,0,0,0,.2-.36.36.36,0,0,0-.34-.23,1,1,0,0,0-.42.13l-.81.4c-.13.06-.3.13-.43.05s-.16-.25-.17-.41l-.06-1a1,1,0,0,1,.23-.86.89.89,0,0,1,1,.12,1.65,1.65,0,0,0,1,.43.43.43,0,0,0,.3-.14.27.27,0,0,0,0-.32.49.49,0,0,0-.33-.15,4.21,4.21,0,0,1-2.44-1.4,3.13,3.13,0,0,0-.42-.47.73.73,0,0,0-.59-.17.42.42,0,0,0-.32.47c.08.25.39.32.6.47a1.41,1.41,0,0,1,.39,1.15l0,1.43a.94.94,0,0,1-.1.57.6.6,0,0,1-.48.26A1.08,1.08,0,0,1,4.71,61a2.23,2.23,0,0,0-.45-.25.42.42,0,0,0-.47.11.36.36,0,0,0,.09.48.87.87,0,0,0,.5.18,2.34,2.34,0,0,1,.53.08,1.12,1.12,0,0,1,.65.66,3.24,3.24,0,0,1,.21.92,2,2,0,0,1-.25,1.6,4.29,4.29,0,0,1-.69.49c-.1.07-.41.35-.36.5s.29,0,.38-.06A4,4,0,0,1,6.05,65.19Z"/><path class="cls-9" d="M7.88,66.19a.13.13,0,0,1,0-.24,5.26,5.26,0,0,0,1.45-.8,3,3,0,0,0,.57-1.21.12.12,0,0,1,.23,0,1.84,1.84,0,0,1-.37,1.64A2.55,2.55,0,0,1,7.88,66.19Z"/><path class="cls-9" d="M9.14,58.33a.14.14,0,0,1,.2-.18,2.53,2.53,0,0,1,1,1.52,3.78,3.78,0,0,1,0,1.8.15.15,0,0,1-.28,0A17.68,17.68,0,0,0,9.14,58.33Z"/><path class="cls-9" d="M4,57.35c.24.15-.76.32-.91.65a3.28,3.28,0,0,0-.25,1.16,16.34,16.34,0,0,0,.25,4.9c.08.4.17.81.29,1.21s1.09.65.82.73a1.11,1.11,0,0,1-1-.3A1.48,1.48,0,0,1,3,65.4a9.47,9.47,0,0,1-.76-6.33,3.17,3.17,0,0,1,.49-1.25A1.13,1.13,0,0,1,4,57.35Z"/><path class="cls-5" d="M14.06,74.36c0,.92,0,3.51-1.81,4.54a8.65,8.65,0,0,1-3.65.91,23.34,23.34,0,0,1-4.26-.12c-2.8-.33-3-3-3-4.07s-.18-3-.19-3.1c-.52-4,2.38-4.47,4.69-4.26,1.91.16,4.86.31,6.4,1.06C14.37,70.36,14.06,73.43,14.06,74.36Z"/><path class="cls-6" d="M12.24,74.38c0,1,0,3.66-1.81,4.74a6,6,0,0,1-1.83.69,23.34,23.34,0,0,1-4.26-.12c-2.8-.33-3-3-3-4.07s-.18-3-.19-3.1c-.52-4,2.42-4.72,4.69-4.26,1.61.32,3.48.29,4.58.86C12.55,70.2,12.24,73.41,12.24,74.38Z"/><path class="cls-7" d="M4,78.83c-1.48-.17-2.17-1.17-2.22-3.22,0-1.1-.19-3.08-.2-3.2C1.28,69.48,2.7,69,4,68.66a3.24,3.24,0,0,1,1.46-.1A19,19,0,0,1,9.62,69.9C11,70.63,11,72.92,11,74v.35c0,2.1-.47,3.44-1.39,4a4.9,4.9,0,0,1-1.5.57A22.6,22.6,0,0,1,4,78.83Z"/><path class="cls-9" d="M7.64,78.08a.12.12,0,0,1,0-.23,4.79,4.79,0,0,0,1.35-.74c.36-.36.36-.74.53-1.13a.12.12,0,0,1,.22,0,1.71,1.71,0,0,1-.34,1.52A2.37,2.37,0,0,1,7.64,78.08Z"/><path class="cls-9" d="M8.81,70.76A.13.13,0,0,1,9,70.59,2.32,2.32,0,0,1,10,72a3.41,3.41,0,0,1,0,1.68.13.13,0,0,1-.25,0A16.21,16.21,0,0,0,8.81,70.76Z"/><path class="cls-9" d="M4,69.84c.23.14-.7.3-.85.61a3.34,3.34,0,0,0-.23,1.07,15.1,15.1,0,0,0,.23,4.57c.09.38.17.76.28,1.13s1,.6.76.68a1,1,0,0,1-.88-.28,1.1,1.1,0,0,1-.18-.28,8.82,8.82,0,0,1-.71-5.9,3,3,0,0,1,.46-1.16A1,1,0,0,1,4,69.84Z"/><path class="cls-8" d="M7.31,70.87a.38.38,0,0,0-.1-.36,1.1,1.1,0,0,0-.35-.2,8.67,8.67,0,0,0-1-.33,1.2,1.2,0,0,0-.65,0,.45.45,0,0,0-.31.5.57.57,0,0,1,.73.17,1.17,1.17,0,0,1,.22.78,1.75,1.75,0,0,1-.23.92,1,1,0,0,1-.77.49,1.67,1.67,0,0,0-.32,0,.23.23,0,0,0-.2.22.25.25,0,0,0,.2.18.89.89,0,0,0,.28,0A1.76,1.76,0,0,1,5.92,76.5c-.19.11-.45.25-.4.47a.29.29,0,0,0,.29.21.67.67,0,0,0,.36-.12,2.7,2.7,0,0,0,1.27-1.6,3.2,3.2,0,0,1,.24-.74.59.59,0,0,1,.65-.32c.28.09.47.47.76.39a.32.32,0,0,0,.21-.37A.53.53,0,0,0,9,74.07c-.5-.24-1.12.18-1.65,0a1.46,1.46,0,0,1-.56-.46l-.71-.81a6.25,6.25,0,0,0,.4-1.06,1.62,1.62,0,0,0,0-.58c0-.16-.16-.25-.12-.43A8.36,8.36,0,0,1,7.31,70.87Z"/><path class="cls-5" d="M71.2,26.72c.21.82,1.54,4.58,4.48,4.43a14.74,14.74,0,0,0,3.95-.79c1.91-.64,3.44-1.55,3.75-2.26,1.39-3.27-1.38-8-3.23-9.14-.88-.53-3.09-.33-6.16,2.08l-.19.15C70.85,23.54,70.92,25.56,71.2,26.72Z"/><path class="cls-6" d="M72.55,27c.88,2.8,2.62,3.53,3.58,3.71a4.34,4.34,0,0,0,1,.07,13,13,0,0,0,2.55-.39c1.91-.64,3.44-1.55,3.75-2.26,1.39-3.27-1.38-8-3.23-9.14-.88-.53-3.09-.33-6.16,2.08A5.81,5.81,0,0,0,72.55,27Z"/><path class="cls-7" d="M77.05,30.05c3.39-.18,5.86-1.67,6.17-2.32,1.23-2.89-1.36-7.43-2.83-8.32a3,3,0,0,0-.59-.36c-.86-.17-2.31,0-4.75,2a5.16,5.16,0,0,0-1.83,5.72C74.32,30.23,76.73,30.06,77.05,30.05Z"/><path class="cls-8" d="M81.4,26.78a1,1,0,0,1,.34.12.29.29,0,0,1,.15.3.3.3,0,0,1-.31.18.89.89,0,0,1-.35-.14l-1.16-.69a.93.93,0,0,0-.71-.2,1,1,0,0,0-.52.49c-.22.33-.43.67-.64,1s-.31.38-.5.29a.31.31,0,0,1-.1-.37,1,1,0,0,1,.26-.33,2.71,2.71,0,0,0,.88-1.14,2.92,2.92,0,0,0-.45-2.14,2.5,2.5,0,0,0-.79-1,5.05,5.05,0,0,0-1.62-.38c-.2,0-.44-.2-.39-.4s.31-.22.5-.17c.47.1.91.4,1.38.3a1.31,1.31,0,0,0,.8-.66,9.48,9.48,0,0,1,.55-.93c.19-.23.54-.42.77-.23a.6.6,0,0,1,.06.69c-.2.47-.58.86-.73,1.34A2.11,2.11,0,0,0,79,24.12a16.18,16.18,0,0,0,.81,1.54A2.7,2.7,0,0,0,81.4,26.78Z"/><path class="cls-9" d="M80.66,21.31c-.41-.22.17.48.83,2.21s.69,2.86.82,2.2A6.11,6.11,0,0,0,80.66,21.31Z"/><path class="cls-9" d="M78.23,20.6c.26-.45-2.21.41-1.67.52A4.86,4.86,0,0,0,78.23,20.6Z"/><path class="cls-9" d="M80.86,28.14a4,4,0,0,0-1.71.52C79.08,29,81.34,28.47,80.86,28.14Z"/><path class="cls-9" d="M76.63,27.88a5.11,5.11,0,0,1-1.13-1.49,4.43,4.43,0,0,1-.2-.57,6.05,6.05,0,0,1-.44-2.47,3.68,3.68,0,0,0-.29,2.73,2.89,2.89,0,0,0,.26.63A3.25,3.25,0,0,0,76.63,27.88Z"/><path class="cls-6" d="M66.5,17.77c.33,2.16,2.93,3.56,3.76,3.77.67.16,6-2.5,7.56-4.06h0a1.87,1.87,0,0,0,.59-.9c.16-1.37-4.55-6.94-6.64-7.06a2.69,2.69,0,0,0-1.18.87h0C69.13,11.88,66.26,16.17,66.5,17.77Z"/><path class="cls-7" d="M75.74,17.51a2.76,2.76,0,0,0,2.07-1.22c.15-.51-3-5.25-5.67-6.3-.3-.12-1.49,1.31-1.59,1.63-.2.66,1.66,1.92,2.81,3.13C74.35,15.79,75.26,17.37,75.74,17.51Z"/><path class="cls-5" d="M66.5,17.77c.33,2.16,2.93,3.56,3.76,3.77.67.16,6-2.5,7.56-4.06-.14.08-6.29,3.44-7.28,3.07s-3.14-2-3-3.27,2.07-5.45,3.08-6.9C69.13,11.88,66.26,16.17,66.5,17.77Z"/><path class="cls-9" d="M76.43,15.93a10.16,10.16,0,0,0-4.25-4.7c-.08-.05-.17.06-.11.14.83.93,2.71,2.84,4.21,4.65A.09.09,0,0,0,76.43,15.93Z"/><path class="cls-6" d="M69.89,7.89c-.23-1.32-6.21-5.24-8.22-4.76-.87.35-3.74,8.44-2.83,10.37S62.44,16,63.27,16,70.11,9.22,69.89,7.89Z"/><path class="cls-5" d="M58.84,13.5c.91,1.93,3.6,2.5,4.43,2.46s6-5.75,6.6-7.77c-1.32,2-5.65,6.33-6.33,6.36a4.66,4.66,0,0,1-4-2.44c-.65-1.39.83-6.39,1.6-8.3C59.8,6.08,58.1,11.93,58.84,13.5Z"/><path class="cls-7" d="M67.64,9.51c.5,0,1.6-1.22,1.6-1.73S65,3.7,62.15,3.45c-.31,0-1,1.65-1,2,0,.69,2.09,1.34,3.51,2.16C65.85,8.28,67.14,9.51,67.64,9.51Z"/><path class="cls-9" d="M68.18,7.3a10.05,10.05,0,0,0-5.33-3.18.09.09,0,0,0-.07.16c1,.64,3.36,1.88,5.28,3.15A.09.09,0,0,0,68.18,7.3Z"/><path class="cls-6" d="M52.22,13.75c4.58,0,6.69-8.13,6.8-11v0C59,2.56,57.8,0,52.82,0s-6.11,1.11-6.21,1.92S47.63,13.75,52.22,13.75Z"/><path class="cls-7" d="M52.9,4.61c3.42,0,4.94,1.23,5.15-1.68C57.77,2.5,56.52,1,52.9,1c-4.45,0-5.12.92-5.17,1C47.09,4.26,48.46,4.3,52.9,4.61Z"/><path class="cls-5" d="M52.22,13.75c4.57,0,6.77-8.11,6.88-11-.06.37-1.8,9.82-6.85,9.5C48.31,12,46.7,1.92,46.7,1.92,46.6,2.72,47.63,13.75,52.22,13.75Z"/><path class="cls-9" d="M56.58,2.2a11.87,11.87,0,0,0-7.52-.31.09.09,0,0,0,0,.17c1.45.09,4.58.06,7.45.31A.09.09,0,0,0,56.58,2.2Z"/><path class="cls-5" d="M74.13,37.45a8.64,8.64,0,0,0,1.72,3.17,3.8,3.8,0,0,0,1.44.54,9.72,9.72,0,0,0,6-.81,9.07,9.07,0,0,0,2.31-1.57c1.78-1.65,2.29-3.45,1.24-5.64-.32-.67-.76-2.16-2-2.74a7.2,7.2,0,0,0-4.19-.1,5.41,5.41,0,0,0-.58.12h0a8.69,8.69,0,0,0-2.56.95C75,32.85,73.32,34.63,74.13,37.45Z"/><path class="cls-6" d="M75,37.14a9.24,9.24,0,0,0,1.66,3.14,3.43,3.43,0,0,0,1.37.51,9.23,9.23,0,0,0,1.83.18c.24,0,.47,0,.71,0a9.93,9.93,0,0,0,2.75-.59,9.07,9.07,0,0,0,2.31-1.57c1.78-1.65,2.29-3.45,1.24-5.64-.32-.67-.76-2.16-2-2.74a7.2,7.2,0,0,0-4.19-.1,5.41,5.41,0,0,0-.58.12h0a7.53,7.53,0,0,0-1.62.7l-.24.14C75.33,33.05,74.35,34.81,75,37.14Z"/><path class="cls-7" d="M76.69,36.89a12.46,12.46,0,0,0,1.54,2.91,2.54,2.54,0,0,0,2,.89h0a7.78,7.78,0,0,0,5.1-2.25c1.71-1.59,2.06-3.16,1.13-5.1l-.18-.41a3,3,0,0,0-3.24-2.43,12.8,12.8,0,0,0-2.24.25,6.29,6.29,0,0,0-2.48.86l-.22.13C75.46,33.38,76.08,34.75,76.69,36.89Z"/><path class="cls-8" d="M79.8,35.25c-.21-.14.63-.4.82-.57a1.57,1.57,0,0,0,.55-1,.49.49,0,0,0-.83-.47c-.13.11-.23.26-.36.39a1.49,1.49,0,0,1-1.13.45.09.09,0,0,1-.09-.06.62.62,0,0,1,.29-.51l1-.81a7.88,7.88,0,0,1,1.23-.92,2.84,2.84,0,0,1,1.38-.41.11.11,0,0,1,.11.11.57.57,0,0,1-.24.45c-.17.14-.38.21-.55.35a1.43,1.43,0,0,0-.49,1,2.53,2.53,0,0,0,1.12,2.43c.2.13.44.25.52.47a1.18,1.18,0,0,1-.08.66.63.63,0,0,0,0,.64.57.57,0,0,0,.51.11,1.87,1.87,0,0,1,.53,0c.18,0,.36.16.34.34a.35.35,0,0,1-.3.29,1.11,1.11,0,0,1-.44,0,4.87,4.87,0,0,0-3,.41c-.18.08-.4.18-.56.06a.33.33,0,0,1-.07-.4.65.65,0,0,1,.33-.28,2.76,2.76,0,0,1,.95-.13,1.51,1.51,0,0,0,1.07-.31.65.65,0,0,0,.22-.5c0-.35-.31-.52-.6-.6a3,3,0,0,1-.65-.23.89.89,0,0,1-.41-.79.28.28,0,0,0-.31-.3l-.26,0C80.22,35.07,80,35.37,79.8,35.25Z"/><path class="cls-9" d="M79,38.62a.1.1,0,0,0,.12-.16,5.09,5.09,0,0,1-.79-1.14c-.08-.18-.1-.28-.2-.57a5.87,5.87,0,0,1-.41-2,.1.1,0,0,0-.2,0,3.32,3.32,0,0,0-.06,2.2,3.09,3.09,0,0,0,.25.62A2.76,2.76,0,0,0,79,38.62Z"/><path class="cls-9" d="M84.26,31.86c.14.41.18.48.85,2.17s.5,2.18.84,2.18C86.39,35.33,85,31.63,84.26,31.86Z"/><path class="cls-9" d="M80.22,31.67c-.57-.27-2,.81-2.07,1.44C78.36,33.48,80.22,32.06,80.22,31.67Z"/><path class="cls-9" d="M83,39.07c.25.46-2.66.87-2.49.45A10.41,10.41,0,0,1,83,39.07Z"/><path class="cls-5" d="M75.69,49.24a9.69,9.69,0,0,0,2,4.86A6.55,6.55,0,0,0,82.1,56a10.54,10.54,0,0,0,3.73-.53c.36-.11.7-.23,1-.36a7.53,7.53,0,0,0,4.19-3.29,8.49,8.49,0,0,0,.38-5.18c-.25-1.61-.06-3-1.1-4.42a5.32,5.32,0,0,0-3.63-2.08,6.88,6.88,0,0,0-1.92.09c-.59.09-1.18.24-1.77.39a17.44,17.44,0,0,0-4.53,1.6,6,6,0,0,0-3,3.63A8.22,8.22,0,0,0,75.69,49.24Z"/><path class="cls-6" d="M77.69,48.79a9.64,9.64,0,0,0,2,4.86,6.53,6.53,0,0,0,4.37,1.91,9.15,9.15,0,0,0,1.74-.08c.36-.11.7-.23,1-.36a7.53,7.53,0,0,0,4.19-3.29,8.49,8.49,0,0,0,.38-5.18c-.25-1.61-.06-3-1.1-4.42a5.32,5.32,0,0,0-3.63-2.08,6.88,6.88,0,0,0-1.92.09,16.59,16.59,0,0,0-4.3,1.54,5.9,5.9,0,0,0-3,3.63A8.05,8.05,0,0,0,77.69,48.79Z"/><path class="cls-7" d="M87.09,54.25c1.8-.58,2.74-1,3.6-2.7A8.12,8.12,0,0,0,91,46.76c-.27-1.69-.08-3-1-4.15a4.48,4.48,0,0,0-3.59-1.78,6.86,6.86,0,0,0-1.14.1c-1.57.4-1.8.22-3,.93A5.16,5.16,0,0,0,79.68,45a7.59,7.59,0,0,0,.17,3.09,9.24,9.24,0,0,0,1.85,4.57C82.77,53.79,84.33,55.27,87.09,54.25Z"/><path class="cls-8" d="M88.49,51.68a.18.18,0,0,1,0,.35,3.17,3.17,0,0,1-2.27,0,1.68,1.68,0,0,1-1-.94c-.14-.43,0-.92-.23-1.32A1.26,1.26,0,0,0,84,49.17a5.39,5.39,0,0,0-1.25.18.9.9,0,0,1-.46,0A.32.32,0,0,1,82,49c0-.21.34-.24.57-.23l1.73.14a2.08,2.08,0,0,0,.66,0,.68.68,0,0,0,.49-.41,1,1,0,0,0-.14-.74l-.59-1.23a.63.63,0,0,0-.22-.31c-.25-.17-.6,0-.77.28a2.51,2.51,0,0,1-.55.73c-.18.12-.49.09-.53-.12a.33.33,0,0,1,.19-.33c.12-.06.26-.09.39-.14a1.27,1.27,0,0,0,.62-1.07c0-.43,0-.87,0-1.29a4.07,4.07,0,0,1,.87-1.59,1.5,1.5,0,0,1,.51-.49.54.54,0,0,1,.65.08.62.62,0,0,1-.11.8c-.2.22-.47.37-.65.61a1.43,1.43,0,0,0-.2,1.16,4.06,4.06,0,0,0,.48,1.11,1,1,0,0,0,.48.53c.33.11.66-.13.92-.35a1.78,1.78,0,0,1,1.25-.57.67.67,0,0,1,.56.33.69.69,0,0,1-.45,1,3.48,3.48,0,0,1-.92.17c-.45.07-1,.3-1,.75s.43.94.37,1.44c-.09.7-1.07,1.17-.2,1.76A4.64,4.64,0,0,0,88.49,51.68Z"/><path class="cls-9" d="M84.8,53.4a.19.19,0,0,0,.11-.35,12.18,12.18,0,0,1-2.48-2,.2.2,0,0,0-.33.18A3.08,3.08,0,0,0,84.8,53.4Z"/><path class="cls-9" d="M82.81,42.94a.19.19,0,0,0-.2-.32,2.84,2.84,0,0,0-1.92,3.19.19.19,0,0,0,.37,0A6.1,6.1,0,0,1,82.81,42.94Z"/><path class="cls-9" d="M89.39,44.29a.19.19,0,0,0,.35-.07A1.73,1.73,0,0,0,89.41,43a1.7,1.7,0,0,0-1.1-.69.19.19,0,0,0-.17.31l.63.84Z"/><path class="cls-9" d="M89.85,48.07a6.82,6.82,0,0,0-.28,2.38.19.19,0,0,0,.35.1,2.63,2.63,0,0,0,.29-2.5A.19.19,0,0,0,89.85,48.07Z"/><path class="cls-5" d="M77.89,62.2c0,1,0,3.76,1.94,4.87a9.36,9.36,0,0,0,3.92,1,25,25,0,0,0,4.57-.13c3-.35,3.18-3.21,3.21-4.36s.2-3.26.21-3.33c.46-4.17-2-4.69-3.39-5.13A5.23,5.23,0,0,0,86.59,55a23.09,23.09,0,0,0-6.76,1.75C77.56,57.9,77.89,61.2,77.89,62.2Z"/><path class="cls-6" d="M79.85,62.22c0,1,0,3.93,1.94,5.09a6.36,6.36,0,0,0,2,.74,25,25,0,0,0,4.57-.13c3-.35,3.18-3.21,3.21-4.36s.2-3.26.21-3.33c.46-4.17-2-4.69-3.39-5.13A5.23,5.23,0,0,0,86.59,55a20.86,20.86,0,0,0-4.8,1.53C79.52,57.73,79.85,61.18,79.85,62.22Z"/><path class="cls-7" d="M88.66,67c1.59-.19,2.32-1.26,2.38-3.46,0-1.18.2-3.3.21-3.43.36-3.15-1.16-3.62-2.5-4a3.63,3.63,0,0,0-1.58-.1,19.33,19.33,0,0,0-4.51,1.44c-1.53.78-1.46,3.24-1.43,4.42v.39c0,2.24.5,3.69,1.49,4.29a5.83,5.83,0,0,0,1.61.61A25.08,25.08,0,0,0,88.66,67Z"/><path class="cls-8" d="M86.61,65.19,85.69,65l-.79-.2c-.31-.07-.61-.13-.92-.18a.45.45,0,0,1-.31-.14.29.29,0,0,1,.19-.38.83.83,0,0,1,.49,0l1,.31a.49.49,0,0,0,.29,0,.42.42,0,0,0,.21-.33A3.67,3.67,0,0,0,86,62.88a1.9,1.9,0,0,0-1.35-1.64,1.79,1.79,0,0,1-.41-.13.37.37,0,0,1-.19-.36.34.34,0,0,1,.34-.23,1,1,0,0,1,.42.13l.8.4c.14.06.3.13.43.05s.16-.25.17-.41l.06-1a1,1,0,0,0-.23-.86.88.88,0,0,0-1,.12,1.71,1.71,0,0,1-1,.43.45.45,0,0,1-.31-.14.27.27,0,0,1,0-.32.49.49,0,0,1,.34-.15,4.16,4.16,0,0,0,2.43-1.4,3.2,3.2,0,0,1,.43-.47.71.71,0,0,1,.59-.17.41.41,0,0,1,.31.47c-.07.25-.39.32-.6.47a1.44,1.44,0,0,0-.39,1.15c0,.48,0,.95,0,1.43a1.11,1.11,0,0,0,.1.57.62.62,0,0,0,.49.26A1,1,0,0,0,88,61a2.05,2.05,0,0,1,.46-.25.43.43,0,0,1,.47.11.39.39,0,0,1-.09.48.89.89,0,0,1-.5.18,2.34,2.34,0,0,0-.53.08,1.13,1.13,0,0,0-.66.66,3.24,3.24,0,0,0-.21.92,2,2,0,0,0,.26,1.6,4.29,4.29,0,0,0,.69.49c.09.07.41.35.35.5s-.29,0-.38-.06A4,4,0,0,0,86.61,65.19Z"/><path class="cls-9" d="M84.79,66.19a.13.13,0,0,0,0-.24,5.07,5.07,0,0,1-1.44-.8c-.39-.38-.39-.79-.57-1.21a.13.13,0,0,0-.24,0A1.84,1.84,0,0,0,83,65.61,2.58,2.58,0,0,0,84.79,66.19Z"/><path class="cls-9" d="M83.53,58.33a.14.14,0,0,0-.2-.18,2.54,2.54,0,0,0-1,1.52,3.78,3.78,0,0,0,0,1.8.14.14,0,0,0,.27,0A17.81,17.81,0,0,1,83.53,58.33Z"/><path class="cls-9" d="M88.71,57.35c-.25.15.76.32.91.65a3.79,3.79,0,0,1,.25,1.16,16.34,16.34,0,0,1-.25,4.9c-.09.4-.18.81-.3,1.21s-1.08.65-.81.73a1.1,1.1,0,0,0,.94-.3,1.56,1.56,0,0,0,.2-.3,9.53,9.53,0,0,0,.76-6.33,3.35,3.35,0,0,0-.5-1.25A1.11,1.11,0,0,0,88.71,57.35Z"/><path class="cls-5" d="M78.6,74.36c0,.92,0,3.51,1.81,4.54a8.69,8.69,0,0,0,3.65.91,23.32,23.32,0,0,0,4.26-.12c2.8-.33,3-3,3-4.07s.18-3,.19-3.1c.52-4-2.39-4.47-4.69-4.26-1.92.16-4.86.31-6.41,1.06C78.3,70.36,78.6,73.43,78.6,74.36Z"/><path class="cls-6" d="M80.43,74.38c0,1,0,3.66,1.8,4.74a6.07,6.07,0,0,0,1.83.69,23.32,23.32,0,0,0,4.26-.12c2.8-.33,3-3,3-4.07s.18-3,.19-3.1c.52-4-2.43-4.72-4.69-4.26-1.62.32-3.49.29-4.59.86C80.12,70.2,80.43,73.41,80.43,74.38Z"/><path class="cls-7" d="M88.64,78.83c1.48-.17,2.16-1.17,2.22-3.22,0-1.1.18-3.08.2-3.2.33-2.93-1.09-3.37-2.34-3.75a3.28,3.28,0,0,0-1.47-.1,18.91,18.91,0,0,0-4.2,1.34c-1.42.73-1.37,3-1.34,4.13,0,.13,0,.26,0,.35,0,2.1.46,3.44,1.38,4a5,5,0,0,0,1.51.57A22.66,22.66,0,0,0,88.64,78.83Z"/><path class="cls-9" d="M85,78.08a.12.12,0,0,0,0-.23,4.87,4.87,0,0,1-1.34-.74A2.87,2.87,0,0,1,83.19,76,.12.12,0,0,0,83,76a1.71,1.71,0,0,0,.35,1.52A2.34,2.34,0,0,0,85,78.08Z"/><path class="cls-9" d="M83.86,70.76a.13.13,0,0,0-.19-.17,2.38,2.38,0,0,0-1,1.41,3.67,3.67,0,0,0,0,1.68.14.14,0,0,0,.26,0A15.45,15.45,0,0,1,83.86,70.76Z"/><path class="cls-9" d="M88.68,69.84c-.23.14.71.3.85.61a3.1,3.1,0,0,1,.23,1.07,15.1,15.1,0,0,1-.23,4.57c-.08.38-.16.76-.27,1.13s-1,.6-.76.68a1,1,0,0,0,.87-.28,1.16,1.16,0,0,0,.19-.28,8.81,8.81,0,0,0,.7-5.9,2.75,2.75,0,0,0-.46-1.16A1,1,0,0,0,88.68,69.84Z"/><path class="cls-8" d="M85.36,70.87a.36.36,0,0,1,.1-.36,1.05,1.05,0,0,1,.34-.2,8.83,8.83,0,0,1,1-.33,1.16,1.16,0,0,1,.64,0,.43.43,0,0,1,.31.5.57.57,0,0,0-.73.17,1.17,1.17,0,0,0-.21.78,1.84,1.84,0,0,0,.22.92,1,1,0,0,0,.78.49,1.72,1.72,0,0,1,.32,0,.22.22,0,0,1,.19.22.24.24,0,0,1-.2.18.92.92,0,0,1-.28,0,1.77,1.77,0,0,0-1.13,3.29c.2.11.46.25.41.47a.3.3,0,0,1-.29.21.71.71,0,0,1-.37-.12,2.69,2.69,0,0,1-1.26-1.6,3.2,3.2,0,0,0-.24-.74.61.61,0,0,0-.66-.32c-.28.09-.47.47-.75.39a.34.34,0,0,1-.22-.37.53.53,0,0,1,.29-.35c.5-.24,1.13.18,1.65,0a1.46,1.46,0,0,0,.56-.46l.72-.81a5.5,5.5,0,0,1-.4-1.06,1.62,1.62,0,0,1,0-.58c0-.16.16-.25.12-.43A7.85,7.85,0,0,0,85.36,70.87Z"/><text class="cls-10" transform="translate(30.39 83.47)">Superiores</text><text class="cls-10" transform="translate(32.25 114.87)">Inferiores</text></g></g></svg>