<svg xmlns="http://www.w3.org/2000/svg" viewBox="0 0 12.98 11.73"><defs><style>.cls-1{fill:#9fdaed;}.cls-2{fill:#b3e2f2;}.cls-3{fill:#cbedfa;}.cls-4{fill:#e3f7fc;}.cls-5{fill:#7fd8ef;}</style></defs><g id="Capa_2" data-name="Capa 2"><g id="Layer_1" data-name="Layer 1"><path class="cls-1" d="M13,6.23c0,.92,0,3.51-1.8,4.54a8.73,8.73,0,0,1-3.65.91,23.29,23.29,0,0,1-4.26-.12c-2.81-.33-3-3-3-4.07s-.18-3-.19-3.1C-.46.34,2.45-.08,4.75.12c1.92.17,4.86.32,6.41,1.07C13.27,2.23,13,5.3,13,6.23Z"/><path class="cls-2" d="M11.14,6.25c0,1,0,3.66-1.81,4.74a6,6,0,0,1-1.82.69,23.29,23.29,0,0,1-4.26-.12c-2.81-.33-3-3-3-4.07s-.18-3-.19-3.1C-.46.34,2.48-.33,4.75.12,6.37.45,8.23.42,9.33,1,11.45,2.07,11.14,5.28,11.14,6.25Z"/><path class="cls-3" d="M2.93,10.7C1.45,10.53.76,9.53.71,7.48c0-1.1-.18-3.08-.2-3.2C.18,1.35,1.6.91,2.85.52A3.4,3.4,0,0,1,4.31.43,18.34,18.34,0,0,1,8.52,1.77c1.42.73,1.36,3,1.34,4.12,0,.14,0,.26,0,.36,0,2.1-.47,3.44-1.39,4a4.9,4.9,0,0,1-1.5.57A22.66,22.66,0,0,1,2.93,10.7Z"/><path class="cls-4" d="M6.54,10a.12.12,0,0,1,0-.23A4.87,4.87,0,0,0,7.84,9a2.71,2.71,0,0,0,.53-1.13.12.12,0,0,1,.22,0A1.69,1.69,0,0,1,8.25,9.4,2.42,2.42,0,0,1,6.54,10Z"/><path class="cls-4" d="M7.71,2.63a.13.13,0,0,1,.19-.17,2.32,2.32,0,0,1,1,1.41,3.53,3.53,0,0,1,0,1.68.14.14,0,0,1-.26,0A16.21,16.21,0,0,0,7.71,2.63Z"/><path class="cls-4" d="M2.88,1.71c.23.14-.7.3-.84.61a3.1,3.1,0,0,0-.23,1.07A15.11,15.11,0,0,0,2,8c.08.38.16.76.27,1.13s1,.6.76.68a1,1,0,0,1-.88-.28A1.1,1.1,0,0,1,2,9.21a8.88,8.88,0,0,1-.71-5.9,3,3,0,0,1,.46-1.16A1,1,0,0,1,2.88,1.71Z"/><path class="cls-5" d="M6.21,2.74a.35.35,0,0,0-.1-.36.9.9,0,0,0-.34-.2,9.49,9.49,0,0,0-1-.33,1.16,1.16,0,0,0-.64,0,.44.44,0,0,0-.32.5.58.58,0,0,1,.74.17,1.23,1.23,0,0,1,.21.78,1.84,1.84,0,0,1-.22.92,1,1,0,0,1-.78.49,1.67,1.67,0,0,0-.32,0,.23.23,0,0,0-.2.22.25.25,0,0,0,.2.18,1,1,0,0,0,.29,0,1.83,1.83,0,0,1,2,1.17,1.82,1.82,0,0,1-.82,2.12c-.2.11-.46.25-.41.47a.29.29,0,0,0,.29.21.74.74,0,0,0,.37-.12,2.73,2.73,0,0,0,1.26-1.6,3.05,3.05,0,0,1,.24-.74.59.59,0,0,1,.65-.32c.28.09.48.47.76.39a.33.33,0,0,0,.21-.37.49.49,0,0,0-.28-.35c-.51-.24-1.13.18-1.65,0a1.68,1.68,0,0,1-.57-.46L5,4.65a5.5,5.5,0,0,0,.4-1.06,1.62,1.62,0,0,0,0-.58c0-.16-.15-.25-.12-.44C5.57,2.59,5.9,2.69,6.21,2.74Z"/></g></g></svg>