<svg xmlns="http://www.w3.org/2000/svg" viewBox="0 0 83.58 70.65"><defs><style>.cls-1{fill:#d43320;}</style></defs><g id="Capa_2" data-name="Capa 2"><g id="Layer_1" data-name="Layer 1"><path class="cls-1" d="M83.58,66.84a5.88,5.88,0,0,1-1.79,2.52A7.23,7.23,0,0,1,76,70.5c-4.6-.76-4.69-8.41-4.64-13.13,0-3.15.23-6,.21-8.86a100.85,100.85,0,0,0-.82-14.72c-2.52-18-11-30.82-29-30.78-14.43,0-25.87,8.37-29,30.78A92.44,92.44,0,0,0,12,45.55v3c-.06,5.24.8,12.88-.58,17.72-.61,2.09-1.71,3.93-3.86,4.27A9.29,9.29,0,0,1,6,70.65a6.93,6.93,0,0,1-4.26-1.29A5.81,5.81,0,0,1,0,66.85l.29,0A5.19,5.19,0,0,0,2.08,69c1.56,1.06,3.14,1.17,5.29.68a3.06,3.06,0,0,0,1.91-1.34,11.26,11.26,0,0,0,1.35-5.16c.45-6.82-1.69-16.58-.21-29.68s6.63-25.84,18.77-31a33.71,33.71,0,0,1,25.17,0c12.16,5.2,17.31,17.94,18.77,31s-.65,22.91-.2,29.68a11.26,11.26,0,0,0,1.35,5.16c1.78,2.63,6.49,1.8,8.23-.28a4.83,4.83,0,0,0,.75-1.2Z"/></g></g></svg>