<svg xmlns="http://www.w3.org/2000/svg" viewBox="0 0 14.33 14.05"><defs><style>.cls-1{fill:#9fdaed;}.cls-2{fill:#b3e2f2;}.cls-3{fill:#cbedfa;}.cls-4{fill:#7fd8ef;}.cls-5{fill:#e3f7fc;}</style></defs><g id="Capa_2" data-name="Capa 2"><g id="Layer_1" data-name="Layer 1"><path class="cls-1" d="M14.14,10.16a4.4,4.4,0,0,1-1.81,2.23A14.18,14.18,0,0,1,6.1,14h0A7.72,7.72,0,0,1,3,13.7C-.28,12.2-.08,3.62.06,3A2.62,2.62,0,0,1,1,1.59C2.63.39,5.77-.09,8.41,0a11.75,11.75,0,0,1,2.95.45,3.32,3.32,0,0,1,1.9,1.43C14.21,3.54,14.6,8.74,14.14,10.16Z"/><path class="cls-2" d="M14.14,10.16a4.4,4.4,0,0,1-1.81,2.23A14.18,14.18,0,0,1,6.1,14h0a5.09,5.09,0,0,1-1.65-.33C1.18,12.2,1.39,3.62,1.52,3a2.68,2.68,0,0,1,1-1.44C3.81.61,6.15.11,8.41,0a11.75,11.75,0,0,1,2.95.45,3.32,3.32,0,0,1,1.9,1.43C14.21,3.54,14.6,8.74,14.14,10.16Z"/><path class="cls-3" d="M6.3,13.18A3.62,3.62,0,0,1,5,12.93C4,12.47,3.21,10.67,2.81,8a23.9,23.9,0,0,1-.22-4.94,1.67,1.67,0,0,1,.62-.87A10.77,10.77,0,0,1,8.7.77a10.94,10.94,0,0,1,2.74.41,2.47,2.47,0,0,1,1.38,1c.84,1.47,1.19,6.55.82,7.71a3.56,3.56,0,0,1-1.46,1.76A13.54,13.54,0,0,1,6.3,13.18Z"/><path class="cls-4" d="M6.55,7.24C6.3,7.1,6,6.86,6.12,6.6s.46-.26.68-.12A7.27,7.27,0,0,1,7.37,7c.21.17.56.22.71,0a.63.63,0,0,0,.08-.38,2.23,2.23,0,0,0-.79-1.51c-.2-.17-.43-.3-.63-.47A1,1,0,0,1,6.34,4a.54.54,0,0,1,.38-.6c.28-.06.54.18.74.39s.5.42.77.3.31-.44.37-.72.26-.6.54-.54a.41.41,0,0,1,.28.44,1.45,1.45,0,0,1-.18.53,6.07,6.07,0,0,0-.58,2.81.5.5,0,0,0,.15.43c.21.16.49,0,.69-.21a3.25,3.25,0,0,1,1.84-.69c.22,0,.48,0,.57.23a.42.42,0,0,1-.19.5,1.29,1.29,0,0,1-.55.15,4,4,0,0,0-1.55.42,2.25,2.25,0,0,0-.92,2.73A3.28,3.28,0,0,1,9,11c0,.28-.13.61-.41.62a.49.49,0,0,1-.45-.34,1.31,1.31,0,0,1-.06-.59l.06-1.47c0-.37.06-.89-.23-1.16A7.19,7.19,0,0,0,6.55,7.24Z"/><path class="cls-5" d="M5.75,2.79c.2,0,.16.19,0,.41a6,6,0,0,0-.64,3.52l.06.49A12.86,12.86,0,0,0,6,10.1a.24.24,0,0,1-.43.22C4.25,8.62,3.38,4.68,5.18,3A.85.85,0,0,1,5.75,2.79Z"/><path class="cls-5" d="M11.09,10.61a6,6,0,0,0,1.07-2.19.25.25,0,0,1,.45,0,2.12,2.12,0,0,1,0,1.62,1.5,1.5,0,0,1-1.42,1A.24.24,0,0,1,11.09,10.61Z"/><path class="cls-5" d="M10.75,2.63a.25.25,0,0,1-.07-.43c.81-.54,1.79.07,1.93,1.28a1.79,1.79,0,0,1,0,.56.24.24,0,0,1-.42.09c-.42-.51-.68-1-.85-1.19A.94.94,0,0,0,10.75,2.63Z"/></g></g></svg>