<svg xmlns="http://www.w3.org/2000/svg" viewBox="0 0 11.23 12.88"><defs><style>.cls-1{fill:#b3e2f2;}.cls-2{fill:#9fdaed;}.cls-3{fill:#cbedfa;}.cls-4{fill:#e3f7fc;}</style></defs><g id="Capa_2" data-name="Capa 2"><g id="Layer_1" data-name="Layer 1"><path class="cls-1" d="M11.22,4.81C11,3.48,5-.43,3,0,2.14.39-.73,8.49.18,10.42s3.6,2.49,4.43,2.45S11.45,6.13,11.22,4.81Z"/><path class="cls-2" d="M.18,10.42c.91,1.92,3.6,2.49,4.43,2.45s6-5.74,6.6-7.76c-1.32,1.94-5.65,6.32-6.33,6.35A4.66,4.66,0,0,1,.87,9C.22,7.63,1.7,2.63,2.47.73,1.14,3-.56,8.84.18,10.42Z"/><path class="cls-3" d="M9,6.42c.49,0,1.6-1.21,1.6-1.73S6.29.61,3.49.36c-.31,0-1,1.65-1,2C2.45,3,4.55,3.68,6,4.5,7.19,5.2,8.48,6.42,9,6.42Z"/><path class="cls-4" d="M9.52,4.21A10.05,10.05,0,0,0,4.19,1a.09.09,0,0,0-.07.16c1,.64,3.36,1.89,5.28,3.15A.09.09,0,0,0,9.52,4.21Z"/></g></g></svg>