<svg xmlns="http://www.w3.org/2000/svg" viewBox="0 0 12.5 13.75"><defs><style>.cls-1{fill:#b3e2f2;}.cls-2{fill:#cbedfa;}.cls-3{fill:#9fdaed;}.cls-4{fill:#e3f7fc;}</style></defs><g id="Capa_2" data-name="Capa 2"><g id="Layer_1" data-name="Layer 1"><path class="cls-1" d="M5.62,13.75c4.58,0,6.69-8.13,6.8-11v0C12.42,2.56,11.2,0,6.21,0S.11,1.11,0,1.92,1,13.75,5.62,13.75Z"/><path class="cls-2" d="M6.29,4.61c3.42,0,5,1.23,5.16-1.68C11.16,2.5,9.92,1,6.29,1,1.84,1,1.17,2,1.12,2,.48,4.26,1.86,4.3,6.29,4.61Z"/><path class="cls-3" d="M5.62,13.75c4.57,0,6.76-8.11,6.88-11-.07.37-1.81,9.82-6.85,9.5C1.71,12,.09,1.92.09,1.92,0,2.72,1,13.75,5.62,13.75Z"/><path class="cls-4" d="M10,2.2a11.85,11.85,0,0,0-7.51-.31.09.09,0,0,0,0,.17c1.45.09,4.57.06,7.45.31A.09.09,0,0,0,10,2.2Z"/></g></g></svg>