<svg xmlns="http://www.w3.org/2000/svg" viewBox="0 0 8.54 10.86"><defs><style>.cls-1{fill:#9fdaed;}.cls-2{fill:#b3e2f2;}.cls-3{fill:#cbedfa;}.cls-4{fill:#e3f7fc;}</style></defs><g id="Capa_2" data-name="Capa 2"><g id="Layer_1" data-name="Layer 1"><path class="cls-1" d="M7.33,9.89s-1,1.95-4.23.33c-3.86-2-3-3.58-3-3.58.32-.79,1-2,1-2.07A14.23,14.23,0,0,1,4.44.45,2.34,2.34,0,0,1,6.73.18s1.75.41,1.8,2A25.86,25.86,0,0,1,7.33,9.89Z"/><path class="cls-2" d="M8.22,6.08a17.73,17.73,0,0,1-.89,3.81s-1,1.95-4.23.33c-3.86-2-3-3.58-3-3.58.32-.79,1-2,1-2.07a18,18,0,0,1,3-3.21,2.34,2.34,0,0,1,2.29-.27s1.75.4,1.8,2C8.26,3.72,8.27,4.86,8.22,6.08Z"/><path class="cls-3" d="M5.56,10.61A4.87,4.87,0,0,1,3.44,10C.85,8.67.44,7.58.5,7.28a2,2,0,0,1,.39-.87A2.51,2.51,0,0,1,3.53,5.17a7.83,7.83,0,0,1,3,1.5,2.34,2.34,0,0,1,.7,2.44,9,9,0,0,1-.36,1A1.48,1.48,0,0,1,5.56,10.61Z"/><path class="cls-4" d="M6,10.15c.17-.11.33-.29.24-.43A.5.5,0,0,0,6,9.55,8.42,8.42,0,0,1,1.81,7.33a1.32,1.32,0,0,0-.29-.24c-.34-.17-.67.06-.58.36C1.27,8.64,5.06,10.81,6,10.15Z"/></g></g></svg>