<svg xmlns="http://www.w3.org/2000/svg" viewBox="0 0 88.9 78.75"><defs><style>.cls-1{fill:#e66251;}</style></defs><g id="Capa_2" data-name="Capa 2"><g id="Layer_1" data-name="Layer 1"><path class="cls-1" d="M86.08,75.13a5.63,5.63,0,0,1-5.72,3.62c-.37,0-.68,0-1-.06s-.5-.06-.71-.1c-6-1.06-4.16-14.43-4.22-21.49S76,11,44.45,11s-30,39.08-30,46.13c0,2.87.27,6.78.22,10.48-.06,5.41-.85,10.38-4.44,11a10.39,10.39,0,0,1-1.67.16H8.46a5.62,5.62,0,0,1-5.64-3.62c-.33-.87-.66-1.76-1-2.69-2.24-6.81-3.45-16.1,2.33-42C10.64,1.4,38.46,0,43.62,0h1.65c5.16,0,33,1.4,39.44,30.39C91.28,59.88,88.81,67.86,86.08,75.13Z"/></g></g></svg>