<svg xmlns="http://www.w3.org/2000/svg" viewBox="0 0 7.03 10.66"><defs><style>.cls-1{fill:#9fdaed;}.cls-2{fill:#b3e2f2;}.cls-3{fill:#cbedfa;}.cls-4{fill:#e3f7fc;}</style></defs><g id="Capa_2" data-name="Capa 2"><g id="Layer_1" data-name="Layer 1"><path class="cls-1" d="M.73,10.6a24.07,24.07,0,0,0,5.57-.33C7.31,10,7,8.39,7,8.39S6.8,7.21,6.55,5.85a27.58,27.58,0,0,0-.82-3.64C5.24.92,5.1,0,3,0S.63,2,.4,2.75A21.77,21.77,0,0,0,0,6.11v0C-.07,8.21,0,10.49.73,10.6Z"/><path class="cls-2" d="M.73,10.6a24.07,24.07,0,0,0,5.57-.33C7.31,10,7,8.39,7,8.39S6.8,7.21,6.55,5.85a14.69,14.69,0,0,0-.75-2.7C5.29,1.85,5,1,2.89,1S.62,3.37.37,4.08c0,.1-.09.37-.15.73A16.54,16.54,0,0,0,0,7.53C0,9.12.18,10.52.73,10.6Z"/><path class="cls-3" d="M6,10a1.13,1.13,0,0,0,.55-.7,8.66,8.66,0,0,0-.44-2.14c-.4-.61-5.6-.62-5.65.69a8,8,0,0,0,.15,2c.05.22.38.4.6.46A12.46,12.46,0,0,0,6,10Z"/><path class="cls-4" d="M.94,9.47c-.11-.13-.17-.26,0-.35s.25,0,.38.07A6.42,6.42,0,0,0,5.39,9c.1,0,.26-.11.37-.14.33-.1.58.05.4.27C5.45,10,1.59,10.29.94,9.47Z"/></g></g></svg>