<svg xmlns="http://www.w3.org/2000/svg" viewBox="0 0 13.92 13.1"><defs><style>.cls-1{fill:#9fdaed;}.cls-2{fill:#b3e2f2;}.cls-3{fill:#cbedfa;}.cls-4{fill:#7fd8ef;}.cls-5{fill:#e3f7fc;}</style></defs><g id="Capa_2" data-name="Capa 2"><g id="Layer_1" data-name="Layer 1"><path class="cls-1" d="M13.9,7.2c0,1,0,3.76-1.94,4.87a9.31,9.31,0,0,1-3.91,1,24.9,24.9,0,0,1-4.57-.13C.47,12.57.29,9.71.26,8.56S.07,5.3.06,5.23C-.41,1.06,2.07.54,3.44.1A5.26,5.26,0,0,1,5.2,0,22.93,22.93,0,0,1,12,1.79C14.23,2.9,13.9,6.2,13.9,7.2Z"/><path class="cls-2" d="M12,7.22c0,1,0,3.93-1.94,5.09a6.56,6.56,0,0,1-2,.74,24.9,24.9,0,0,1-4.57-.13C.47,12.57.29,9.71.26,8.56S.07,5.3.06,5.23C-.41,1.06,2.07.54,3.44.1A5.26,5.26,0,0,1,5.2,0,20.8,20.8,0,0,1,10,1.57C12.28,2.73,12,6.18,12,7.22Z"/><path class="cls-3" d="M3.14,12C1.55,11.81.81,10.74.75,8.54c0-1.18-.19-3.3-.21-3.43C.19,2,1.71,1.49,3.05,1.08A3.58,3.58,0,0,1,4.62,1,19.33,19.33,0,0,1,9.13,2.42c1.53.78,1.47,3.24,1.44,4.42,0,.15,0,.28,0,.38,0,2.25-.5,3.7-1.49,4.3a5.71,5.71,0,0,1-1.61.61A25,25,0,0,1,3.14,12Z"/><path class="cls-4" d="M5.18,10.19,6.1,10l.8-.2c.3-.07.61-.13.91-.18.12,0,.25,0,.31-.14s0-.33-.19-.38a.79.79,0,0,0-.48,0l-1,.31a.52.52,0,0,1-.3,0c-.12,0-.17-.2-.21-.33a3.94,3.94,0,0,1-.18-1.23A1.91,1.91,0,0,1,7.14,6.24a1.7,1.7,0,0,0,.4-.13.37.37,0,0,0,.2-.36.35.35,0,0,0-.34-.23A1,1,0,0,0,7,5.65l-.81.4a.47.47,0,0,1-.43,0c-.13-.07-.16-.25-.17-.41l-.05-1a1,1,0,0,1,.22-.86.89.89,0,0,1,1,.12,1.65,1.65,0,0,0,1,.43A.47.47,0,0,0,8,4.26a.29.29,0,0,0,0-.32.49.49,0,0,0-.33-.15,4.21,4.21,0,0,1-2.44-1.4,3.13,3.13,0,0,0-.42-.47.73.73,0,0,0-.59-.17.42.42,0,0,0-.32.47c.08.25.39.32.6.47a1.41,1.41,0,0,1,.39,1.15L5,5.27a.94.94,0,0,1-.1.57.6.6,0,0,1-.48.26A1.08,1.08,0,0,1,3.84,6a2.23,2.23,0,0,0-.45-.25.42.42,0,0,0-.47.11A.36.36,0,0,0,3,6.29a.87.87,0,0,0,.5.18A2.34,2.34,0,0,1,4,6.55a1.12,1.12,0,0,1,.65.66,3.24,3.24,0,0,1,.21.92,2,2,0,0,1-.25,1.6,4.29,4.29,0,0,1-.69.49c-.1.07-.41.35-.36.5s.29,0,.38-.06A4.11,4.11,0,0,1,5.18,10.19Z"/><path class="cls-5" d="M7,11.19A.13.13,0,0,1,7,11a5.26,5.26,0,0,0,1.45-.8A3,3,0,0,0,9,8.94a.12.12,0,0,1,.23,0,1.84,1.84,0,0,1-.37,1.64A2.55,2.55,0,0,1,7,11.19Z"/><path class="cls-5" d="M8.27,3.33a.14.14,0,0,1,.2-.18,2.53,2.53,0,0,1,1,1.52,3.78,3.78,0,0,1,0,1.8.15.15,0,0,1-.28,0A16.89,16.89,0,0,0,8.27,3.33Z"/><path class="cls-5" d="M3.09,2.35c.24.15-.76.32-.91.65a3.28,3.28,0,0,0-.25,1.16,16.34,16.34,0,0,0,.25,4.9c.09.4.17.81.29,1.21s1.09.65.82.73a1.11,1.11,0,0,1-1-.3,1.48,1.48,0,0,1-.19-.3,9.47,9.47,0,0,1-.76-6.33,3,3,0,0,1,.5-1.25A1.09,1.09,0,0,1,3.09,2.35Z"/></g></g></svg>