<svg xmlns="http://www.w3.org/2000/svg" viewBox="0 0 8.54 10.86"><defs><style>.cls-1{fill:#9fdaed;}.cls-2{fill:#b3e2f2;}.cls-3{fill:#cbedfa;}.cls-4{fill:#e3f7fc;}</style></defs><g id="Capa_2" data-name="Capa 2"><g id="Layer_1" data-name="Layer 1"><path class="cls-1" d="M1.2,9.89s1,1.95,4.23.33c3.87-2,3-3.58,3-3.58a21,21,0,0,0-1-2.07A14.36,14.36,0,0,0,4.1.45,2.34,2.34,0,0,0,1.81.18S.06.59,0,2.17A26.51,26.51,0,0,0,1.2,9.89Z"/><path class="cls-2" d="M.31,6.08A18.39,18.39,0,0,0,1.2,9.89s1,1.95,4.23.33c3.87-2,3-3.58,3-3.58a21,21,0,0,0-1-2.07,17.62,17.62,0,0,0-3-3.21,2.34,2.34,0,0,0-2.29-.27s-1.75.4-1.81,2C.28,3.72.27,4.86.31,6.08Z"/><path class="cls-3" d="M3,10.61A4.91,4.91,0,0,0,5.1,10C7.69,8.67,8.1,7.58,8,7.28a2.1,2.1,0,0,0-.39-.87A2.54,2.54,0,0,0,5,5.17a7.71,7.71,0,0,0-2.95,1.5,2.3,2.3,0,0,0-.7,2.44c.08.26.19.57.35,1A1.52,1.52,0,0,0,3,10.61Z"/><path class="cls-4" d="M2.5,10.15c-.17-.11-.33-.29-.24-.43a.5.5,0,0,1,.33-.17A8.46,8.46,0,0,0,6.73,7.33,1.13,1.13,0,0,1,7,7.09c.33-.17.67.06.58.36C7.27,8.64,3.48,10.81,2.5,10.15Z"/></g></g></svg>