<svg xmlns="http://www.w3.org/2000/svg" viewBox="0 0 12.68 12.44"><defs><style>.cls-1{fill:#9fdaed;}.cls-2{fill:#b3e2f2;}.cls-3{fill:#cbedfa;}.cls-4{fill:#7fd8ef;}.cls-5{fill:#e3f7fc;}</style></defs><g id="Capa_2" data-name="Capa 2"><g id="Layer_1" data-name="Layer 1"><path class="cls-1" d="M12.55,8c-.2.82-1.53,4.58-4.47,4.43a14.81,14.81,0,0,1-4-.79C2.21,11,.68,10.09.38,9.38-1,6.11,1.75,1.36,3.6.24c.88-.53,3.09-.33,6.17,2.08l.18.15C12.9,4.82,12.84,6.84,12.55,8Z"/><path class="cls-2" d="M11.21,8.25c-.89,2.8-2.63,3.53-3.58,3.71a4.37,4.37,0,0,1-1,.07,13,13,0,0,1-2.56-.39C2.21,11,.68,10.09.38,9.38-1,6.11,1.75,1.36,3.6.24c.88-.53,3.09-.33,6.17,2.08A5.85,5.85,0,0,1,11.21,8.25Z"/><path class="cls-3" d="M6.71,11.33C3.31,11.15.85,9.66.53,9-.7,6.12,1.89,1.58,3.37.69A2.93,2.93,0,0,1,4,.33c.86-.17,2.31,0,4.76,2A5.16,5.16,0,0,1,10.54,8C9.44,11.51,7,11.34,6.71,11.33Z"/><path class="cls-4" d="M2.35,8.06A1,1,0,0,0,2,8.18a.27.27,0,0,0-.14.3.28.28,0,0,0,.3.18.89.89,0,0,0,.35-.14l1.16-.69a1,1,0,0,1,.71-.21,1,1,0,0,1,.53.5l.63,1c.12.18.31.38.5.29A.3.3,0,0,0,6.16,9a.94.94,0,0,0-.27-.33A2.79,2.79,0,0,1,5,7.57a3,3,0,0,1,.45-2.14,2.5,2.5,0,0,1,.79-1A5.12,5.12,0,0,1,7.87,4c.2,0,.44-.2.39-.4s-.31-.22-.5-.17c-.46.1-.91.4-1.38.3a1.34,1.34,0,0,1-.8-.66A7.84,7.84,0,0,0,5,2.14c-.19-.23-.54-.42-.77-.23a.61.61,0,0,0-.06.69c.2.47.58.86.73,1.34A2.11,2.11,0,0,1,4.8,5.4,16.18,16.18,0,0,1,4,6.94,2.67,2.67,0,0,1,2.35,8.06Z"/><path class="cls-5" d="M3.09,2.59c.42-.22-.17.48-.82,2.21S1.57,7.66,1.44,7A6.16,6.16,0,0,1,3.09,2.59Z"/><path class="cls-5" d="M5.52,1.88c-.26-.45,2.22.41,1.68.52A4.84,4.84,0,0,1,5.52,1.88Z"/><path class="cls-5" d="M2.89,9.42a4.14,4.14,0,0,1,1.72.52C4.67,10.3,2.41,9.75,2.89,9.42Z"/><path class="cls-5" d="M7.13,9.16A5.26,5.26,0,0,0,8.25,7.67a4.23,4.23,0,0,0,.21-.57A6.4,6.4,0,0,0,8.9,4.63a3.68,3.68,0,0,1,.28,2.73A3.45,3.45,0,0,1,8.93,8,3.32,3.32,0,0,1,7.13,9.16Z"/></g></g></svg>