<svg xmlns="http://www.w3.org/2000/svg" viewBox="0 0 81.55 63.44"><defs><style>.cls-1{fill:#fc8a71;}</style></defs><g id="Capa_2" data-name="Capa 2"><g id="Layer_1" data-name="Layer 1"><path class="cls-1" d="M0,.48C2.55.08,5.65-.58,7.68,1A5.93,5.93,0,0,1,9.34,3.08a10.75,10.75,0,0,1,.52,1.21,16.26,16.26,0,0,1,.52,1.91c.24,1.33.17.92.31,2,1.2,10,1.89,42.59,20,51.43a24.05,24.05,0,0,0,20.17,0c19.88-9.7,18.76-48,20.47-54a9.72,9.72,0,0,1,.37-1.27,5.18,5.18,0,0,1,.24-.61,6.46,6.46,0,0,1,.27-.6A5.82,5.82,0,0,1,73.87,1C75.94-.59,79,.09,81.55.48l0,.17c-2.42-.27-5.5-.83-7.38.74A5.19,5.19,0,0,0,72.7,3.33a7.24,7.24,0,0,0-.36.86l-.27.9c-.58,2.58-.53,3.2-.84,8.35-.76,11.94-2.4,25.58-8.18,36-3.77,6.78-9.15,11.75-16.76,13.41A25.42,25.42,0,0,1,30,61a24.64,24.64,0,0,1-8.49-7C9.89,39.26,10.66,11.79,9.84,7a11.74,11.74,0,0,0-.22-1.25,11.15,11.15,0,0,0-.77-2.38A5.38,5.38,0,0,0,7.4,1.39a4.28,4.28,0,0,0-1-.62C4.39,0,2.34.38,0,.65Z"/></g></g></svg>