<svg xmlns="http://www.w3.org/2000/svg" viewBox="0 0 14.61 14.98"><defs><style>.cls-1{fill:#9fdaed;}.cls-2{fill:#b3e2f2;}.cls-3{fill:#cbedfa;}.cls-4{fill:#7fd8ef;}.cls-5{fill:#e3f7fc;}</style></defs><g id="Capa_2" data-name="Capa 2"><g id="Layer_1" data-name="Layer 1"><path class="cls-1" d="M10.91,13.94a25,25,0,0,1-2.53.67c-2.48.52-4.68.54-5.56-.25C1.66,13.3-.19,7.87,0,4.74.16,2.49,2.83,1.27,4.3.78h0c.57-.19,1-.28,1-.28,5.26-1.18,6.05.05,7,.75S14.33,7,14.56,9.18,14.3,12.86,10.91,13.94Z"/><path class="cls-2" d="M10.91,13.94a25,25,0,0,1-2.53.67c-1.93.29-3.54.19-4.25-.48C3,13.05,1.13,7.49,1.34,4.29c.11-1.71,1.6-2.84,3-3.51h0c.57-.19,1-.28,1-.28,5.26-1.18,6.05.05,7,.75S14.33,7,14.56,9.18,14.3,12.86,10.91,13.94Z"/><path class="cls-3" d="M5.88,13.59a1.71,1.71,0,0,1-1-.29c-.84-.79-2.62-5.94-2.42-8.93.08-1.19,1.26-2,2.27-2.54.45-.15.76-.22.77-.23A18.27,18.27,0,0,1,10.08,1a2.67,2.67,0,0,1,1.31.44A3,3,0,0,1,12.53,3,31.76,31.76,0,0,1,14,9.15c.17,1.59-.46,2.77-3.39,3.71-.8.25-1.6.47-2.38.63A9.38,9.38,0,0,1,5.88,13.59Z"/><path class="cls-4" d="M10.93,11.22c.25,0,.55,0,.67-.23a.45.45,0,0,0-.25-.57,1.24,1.24,0,0,0-.69,0,1.61,1.61,0,0,1-.69,0,1.43,1.43,0,0,1-.73-.83L8.58,8.22a.85.85,0,0,1-.12-.38A.59.59,0,0,1,9,7.34a2.12,2.12,0,0,1,.79.07,5,5,0,0,0,1.89,0,1,1,0,0,0,.5-.22.39.39,0,0,0,.07-.5.57.57,0,0,0-.44-.15L9.94,6.44a3.46,3.46,0,0,0-1.29.12,2.87,2.87,0,0,0-1.06.77.07.07,0,0,1-.11-.06A7.37,7.37,0,0,1,8.85,3.82a1.64,1.64,0,0,0,.39-.72c0-.28-.15-.6-.43-.59s-.42.28-.48.52-.11.8-.65.9A1.16,1.16,0,0,1,7,3.85,5.82,5.82,0,0,0,5.1,3.51a.54.54,0,0,0-.41.13.37.37,0,0,0,.14.54,1,1,0,0,0,.64.06,1.38,1.38,0,0,1,.64,0,.87.87,0,0,1,.53.6,3,3,0,0,1,.05.84,7,7,0,0,1-.24,1.76,2.28,2.28,0,0,1-1,1.38C5.23,8.9,5,9,5,9.2a.48.48,0,0,0,.35.54A1.13,1.13,0,0,0,6.4,9.35c.34-.31.68-.68,1.22-.59a1.1,1.1,0,0,1,.82.71,1.66,1.66,0,0,1-.35,1.61c-.23.29-.47.59,0,.85s.84-.22,1.21-.37A4.22,4.22,0,0,1,10.93,11.22Z"/><path class="cls-5" d="M10.5,2.56a.22.22,0,0,1,.21-.31,1.21,1.21,0,0,1,.7.34A2.67,2.67,0,0,1,12,5.05a.23.23,0,0,1-.37.09,4,4,0,0,1-1-2A2.29,2.29,0,0,0,10.5,2.56Z"/><path class="cls-5" d="M12.66,8.14a1.37,1.37,0,0,1-.05,2.3.21.21,0,0,1-.3-.13,3.35,3.35,0,0,1-.19-1,3.06,3.06,0,0,1,.21-1A.22.22,0,0,1,12.66,8.14Z"/><path class="cls-5" d="M4.46,4.57a8,8,0,0,1,0,3.52.22.22,0,0,1-.39.07,3.31,3.31,0,0,1,0-3.67A.22.22,0,0,1,4.46,4.57Z"/><path class="cls-5" d="M4.88,10.93a.22.22,0,0,1,.37-.06,4.19,4.19,0,0,0,.79.84,7.25,7.25,0,0,0,1.1.46.22.22,0,0,1,.05.37,1.5,1.5,0,0,1-1.78.11A1.44,1.44,0,0,1,4.88,10.93Z"/></g></g></svg>