<svg xmlns="http://www.w3.org/2000/svg" viewBox="0 0 12.68 12.44"><defs><style>.cls-1{fill:#9fdaed;}.cls-2{fill:#b3e2f2;}.cls-3{fill:#cbedfa;}.cls-4{fill:#7fd8ef;}.cls-5{fill:#e3f7fc;}</style></defs><g id="Capa_2" data-name="Capa 2"><g id="Layer_1" data-name="Layer 1"><path class="cls-1" d="M.13,8c.2.82,1.53,4.58,4.47,4.43a14.81,14.81,0,0,0,4-.79C10.47,11,12,10.09,12.3,9.38c1.39-3.27-1.37-8-3.22-9.14C8.2-.29,6-.09,2.91,2.32l-.18.15C-.22,4.82-.16,6.84.13,8Z"/><path class="cls-2" d="M1.47,8.25c.89,2.8,2.63,3.53,3.58,3.71A4.37,4.37,0,0,0,6,12a13,13,0,0,0,2.56-.39C10.47,11,12,10.09,12.3,9.38c1.39-3.27-1.37-8-3.22-9.14C8.2-.29,6-.09,2.91,2.32A5.85,5.85,0,0,0,1.47,8.25Z"/><path class="cls-3" d="M6,11.33c3.4-.18,5.86-1.67,6.18-2.32C13.38,6.12,10.79,1.58,9.31.69A2.93,2.93,0,0,0,8.73.33C7.87.16,6.42.36,4,2.32A5.16,5.16,0,0,0,2.14,8C3.24,11.51,5.66,11.34,6,11.33Z"/><path class="cls-4" d="M10.33,8.06a1,1,0,0,1,.34.12.27.27,0,0,1,.14.3.28.28,0,0,1-.3.18.89.89,0,0,1-.35-.14L9,7.83a1,1,0,0,0-.71-.21,1,1,0,0,0-.53.5l-.63,1c-.12.18-.31.38-.5.29A.3.3,0,0,1,6.52,9a.94.94,0,0,1,.27-.33,2.79,2.79,0,0,0,.88-1.14,3,3,0,0,0-.45-2.14,2.59,2.59,0,0,0-.79-1A5.12,5.12,0,0,0,4.81,4c-.2,0-.44-.2-.39-.4s.31-.22.5-.17c.46.1.91.4,1.38.3a1.34,1.34,0,0,0,.8-.66,7.84,7.84,0,0,1,.55-.93c.19-.23.54-.42.77-.23a.61.61,0,0,1,.06.69c-.2.47-.58.86-.73,1.34A2.11,2.11,0,0,0,7.88,5.4a16.18,16.18,0,0,0,.81,1.54A2.64,2.64,0,0,0,10.33,8.06Z"/><path class="cls-5" d="M9.59,2.59c-.42-.22.17.48.82,2.21s.7,2.86.83,2.2A6.2,6.2,0,0,0,9.59,2.59Z"/><path class="cls-5" d="M7.16,1.88c.26-.45-2.22.41-1.68.52A4.84,4.84,0,0,0,7.16,1.88Z"/><path class="cls-5" d="M9.79,9.42a4.14,4.14,0,0,0-1.72.52C8,10.3,10.27,9.75,9.79,9.42Z"/><path class="cls-5" d="M5.55,9.16A5.26,5.26,0,0,1,4.43,7.67a4.23,4.23,0,0,1-.21-.57,6.4,6.4,0,0,1-.44-2.47A3.68,3.68,0,0,0,3.5,7.36,3.45,3.45,0,0,0,3.75,8,3.32,3.32,0,0,0,5.55,9.16Z"/></g></g></svg>