<svg xmlns="http://www.w3.org/2000/svg" viewBox="0 0 7.03 10.66"><defs><style>.cls-1{fill:#9fdaed;}.cls-2{fill:#b3e2f2;}.cls-3{fill:#cbedfa;}.cls-4{fill:#e3f7fc;}</style></defs><g id="Capa_2" data-name="Capa 2"><g id="Layer_1" data-name="Layer 1"><path class="cls-1" d="M6.3,10.6a24.07,24.07,0,0,1-5.57-.33C-.28,10,.05,8.39.05,8.39S.23,7.21.48,5.85A27.58,27.58,0,0,1,1.3,2.21C1.79.92,1.93,0,4,0S6.4,2,6.63,2.75A21.77,21.77,0,0,1,7,6.11v0C7.1,8.21,7,10.49,6.3,10.6Z"/><path class="cls-2" d="M6.3,10.6a24.07,24.07,0,0,1-5.57-.33C-.28,10,.05,8.39.05,8.39S.23,7.21.48,5.85a14.69,14.69,0,0,1,.75-2.7C1.74,1.85,2,1,4.14,1S6.41,3.37,6.66,4.08c0,.1.09.37.15.73A16.54,16.54,0,0,1,7,7.53C7,9.12,6.85,10.52,6.3,10.6Z"/><path class="cls-3" d="M1,10a1.08,1.08,0,0,1-.54-.7A8.16,8.16,0,0,1,.9,7.12c.4-.61,5.6-.62,5.65.69a8,8,0,0,1-.15,2c-.05.22-.38.4-.6.46A12.46,12.46,0,0,1,1,10Z"/><path class="cls-4" d="M6.09,9.47c.11-.13.17-.26,0-.35s-.25,0-.38.07A6.42,6.42,0,0,1,1.64,9c-.1,0-.26-.11-.37-.14-.33-.1-.58.05-.4.27C1.58,10,5.44,10.29,6.09,9.47Z"/></g></g></svg>