<svg xmlns="http://www.w3.org/2000/svg" viewBox="0 0 10.07 9.41"><defs><style>.cls-1{fill:#9fdaed;}.cls-2{fill:#b3e2f2;}.cls-3{fill:#cbedfa;}.cls-4{fill:#e3f7fc;}</style></defs><g id="Capa_2" data-name="Capa 2"><g id="Layer_1" data-name="Layer 1"><path class="cls-1" d="M0,4.61C.07,5.82,2.06,7.56,3.35,8.46A8,8,0,0,0,4.23,9a3.5,3.5,0,0,0,3.06-.15c1.2-.54,2.28-2.66,2.62-3.6a2.14,2.14,0,0,0,0-1.15A4.17,4.17,0,0,0,8.57,1.94a3.7,3.7,0,0,0-.49-.37A9.26,9.26,0,0,0,2.89,0C2,.21-.09,3.06,0,4.61Z"/><path class="cls-2" d="M3.45,8.54a7,7,0,0,0,1.39.73A3.29,3.29,0,0,0,7.92,8.6,6.65,6.65,0,0,0,10,5.34a2.35,2.35,0,0,0,0-1.15A4.17,4.17,0,0,0,8.67,2a9.38,9.38,0,0,0-5-1.45c-.89.19-3,3-2.89,4.59C.79,6.18,2.22,7.58,3.45,8.54Z"/><path class="cls-3" d="M8.6,3.15A3.59,3.59,0,0,0,5.84,1.62C4,1.61,1.61,5,2.39,6.46A4,4,0,0,0,5.16,8.69c1.37.41,2.26-.36,3.28-1.78A3.27,3.27,0,0,0,8.6,3.15Z"/><path class="cls-4" d="M5.78,8.19c-.15,0-.31-.16-.29-.32s.11-.18.2-.24A6.94,6.94,0,0,0,8.08,4.47a1.14,1.14,0,0,1,.15-.29.28.28,0,0,1,.52.16,5.49,5.49,0,0,1-.13,1C8.41,6.3,6.68,8.51,5.78,8.19Z"/></g></g></svg>