<svg xmlns="http://www.w3.org/2000/svg" viewBox="0 0 16.25 15.9"><defs><style>.cls-1{fill:#9fdaed;}.cls-2{fill:#b3e2f2;}.cls-3{fill:#cbedfa;}.cls-4{fill:#7fd8ef;}.cls-5{fill:#e3f7fc;}</style></defs><g id="Capa_2" data-name="Capa 2"><g id="Layer_1" data-name="Layer 1"><path class="cls-1" d="M.27,9.12A9.65,9.65,0,0,0,2.3,14a6.49,6.49,0,0,0,4.38,1.91,10.76,10.76,0,0,0,3.73-.52c.35-.11.7-.24,1.05-.37a7.53,7.53,0,0,0,4.19-3.29A8.49,8.49,0,0,0,16,6.53c-.25-1.6-.06-3-1.1-4.42A5.34,5.34,0,0,0,11.3,0,6.88,6.88,0,0,0,9.38.12C8.79.22,8.2.36,7.61.51a17.44,17.44,0,0,0-4.53,1.6,6,6,0,0,0-3,3.63A8.21,8.21,0,0,0,.27,9.12Z"/><path class="cls-2" d="M2.27,8.67a9.64,9.64,0,0,0,2,4.86,6.57,6.57,0,0,0,4.38,1.91,10.09,10.09,0,0,0,1.74-.07c.35-.11.7-.24,1.05-.37a7.53,7.53,0,0,0,4.19-3.29A8.49,8.49,0,0,0,16,6.53c-.25-1.6-.06-3-1.1-4.42A5.34,5.34,0,0,0,11.3,0,6.88,6.88,0,0,0,9.38.12a16.46,16.46,0,0,0-4.3,1.54,5.93,5.93,0,0,0-3,3.63A8.05,8.05,0,0,0,2.27,8.67Z"/><path class="cls-3" d="M11.67,14.13c1.79-.58,2.74-1,3.59-2.7a8,8,0,0,0,.3-4.79c-.27-1.69-.08-3-1-4.15A4.44,4.44,0,0,0,11,.71a6.77,6.77,0,0,0-1.14.1c-1.57.4-1.8.23-3,.94A5.14,5.14,0,0,0,4.26,4.86,7.75,7.75,0,0,0,4.42,8a9.34,9.34,0,0,0,1.86,4.57C7.35,13.67,8.91,15.15,11.67,14.13Z"/><path class="cls-4" d="M13.07,11.56a.18.18,0,0,1,0,.35,3.12,3.12,0,0,1-2.27,0,1.68,1.68,0,0,1-1-.94c-.14-.43,0-.92-.23-1.32a1.26,1.26,0,0,0-1.06-.58,5.31,5.31,0,0,0-1.25.18.8.8,0,0,1-.46,0,.33.33,0,0,1-.24-.35c.06-.22.35-.25.58-.23l1.73.13a1.83,1.83,0,0,0,.66,0,.68.68,0,0,0,.49-.41,1,1,0,0,0-.14-.74L9.32,6.38a.68.68,0,0,0-.22-.31c-.25-.17-.6,0-.77.28a2.51,2.51,0,0,1-.55.73c-.18.12-.49.09-.53-.12a.33.33,0,0,1,.19-.33c.12-.06.26-.09.39-.14a1.29,1.29,0,0,0,.62-1.07c0-.43,0-.86.05-1.29a4,4,0,0,1,.87-1.59,1.67,1.67,0,0,1,.5-.49.55.55,0,0,1,.66.08.62.62,0,0,1-.11.8c-.2.22-.47.37-.65.61a1.39,1.39,0,0,0-.2,1.16,4,4,0,0,0,.48,1.12,1,1,0,0,0,.48.52A1,1,0,0,0,11.45,6a1.78,1.78,0,0,1,1.25-.57.71.71,0,0,1,.56.33.69.69,0,0,1-.45,1,4.05,4.05,0,0,1-.92.18c-.45.06-1,.29-1,.74s.43.94.37,1.45c-.09.7-1.07,1.16-.2,1.75A4.64,4.64,0,0,0,13.07,11.56Z"/><path class="cls-5" d="M9.38,13.29a.2.2,0,0,0,.11-.36A11.85,11.85,0,0,1,8.18,12,13.33,13.33,0,0,1,7,10.89a.2.2,0,0,0-.33.18A3.09,3.09,0,0,0,9.38,13.29Z"/><path class="cls-5" d="M7.39,2.82a.19.19,0,0,0-.2-.32A2.77,2.77,0,0,0,5.64,3.74a2.78,2.78,0,0,0-.37,2,.19.19,0,0,0,.37,0A6,6,0,0,1,7.39,2.82Z"/><path class="cls-5" d="M14,4.17a.19.19,0,0,0,.35-.07,1.76,1.76,0,0,0-1.43-1.94.19.19,0,0,0-.17.31l.63.85Z"/><path class="cls-5" d="M14.42,8a7.06,7.06,0,0,0-.27,2.38.2.2,0,0,0,.35.11,2.65,2.65,0,0,0,.29-2.51A.2.2,0,0,0,14.42,8Z"/></g></g></svg>