<svg xmlns="http://www.w3.org/2000/svg" viewBox="0 0 69.67 61.56"><defs><style>.cls-1{fill:#e66251;}</style></defs><g id="Capa_2" data-name="Capa 2"><g id="Layer_1" data-name="Layer 1"><path class="cls-1" d="M69.67,61.56c-2.91-.23-11.52-1.46-16.06-7.77-4-5.61-11.39-8.41-18.75-8.44s-14.77,2.86-18.79,8.44C11.93,59.54,4.41,61.07.91,61.47L0,61.56s1-.16,1-.16c5.1-1.59,4.11-12.62,3.93-19.93C5.16,28.87,8.17,0,35.29,0,56.73,0,62.87,18,64.62,31.8c.11.93.21,1.83.29,2.71.24,2.6.34,5,.38,7-.18,7.16-1.09,18.64,4,20l.18,0Z"/></g></g></svg>