<svg xmlns="http://www.w3.org/2000/svg" viewBox="0 0 14.33 14.05"><defs><style>.cls-1{fill:#9fdaed;}.cls-2{fill:#b3e2f2;}.cls-3{fill:#cbedfa;}.cls-4{fill:#7fd8ef;}.cls-5{fill:#e3f7fc;}</style></defs><g id="Capa_2" data-name="Capa 2"><g id="Layer_1" data-name="Layer 1"><path class="cls-1" d="M.19,10.16A4.46,4.46,0,0,0,2,12.39,14.23,14.23,0,0,0,8.24,14h0a7.69,7.69,0,0,0,3.1-.33C14.62,12.2,14.41,3.62,14.27,3a2.62,2.62,0,0,0-1-1.44C11.7.39,8.56-.09,5.92,0A11.82,11.82,0,0,0,3,.46a3.38,3.38,0,0,0-1.9,1.43C.13,3.54-.27,8.74.19,10.16Z"/><path class="cls-2" d="M.19,10.16A4.46,4.46,0,0,0,2,12.39,14.23,14.23,0,0,0,8.24,14h0a5,5,0,0,0,1.64-.33C13.15,12.2,13,3.62,12.81,3a2.62,2.62,0,0,0-1-1.44C10.53.61,8.18.11,5.92,0A11.82,11.82,0,0,0,3,.46a3.38,3.38,0,0,0-1.9,1.43C.13,3.54-.27,8.74.19,10.16Z"/><path class="cls-3" d="M8,13.18a3.55,3.55,0,0,0,1.28-.25c1-.46,1.82-2.26,2.21-4.93a23.9,23.9,0,0,0,.22-4.94,1.67,1.67,0,0,0-.62-.87A10.77,10.77,0,0,0,5.63.77a10.78,10.78,0,0,0-2.73.41,2.4,2.4,0,0,0-1.38,1C.67,3.66.32,8.74.7,9.9a3.54,3.54,0,0,0,1.45,1.76A13.54,13.54,0,0,0,8,13.18Z"/><path class="cls-4" d="M7.79,7.24c.24-.14.53-.38.43-.64s-.46-.26-.68-.12A7.41,7.41,0,0,0,7,7a.51.51,0,0,1-.71,0,.56.56,0,0,1-.07-.38A2.18,2.18,0,0,1,7,5.14c.2-.17.43-.3.63-.47A1.11,1.11,0,0,0,8,4a.55.55,0,0,0-.38-.6c-.29-.06-.54.18-.75.39s-.5.42-.77.3-.31-.44-.37-.72-.26-.6-.54-.54a.42.42,0,0,0-.28.44,1.45,1.45,0,0,0,.18.53,6.07,6.07,0,0,1,.59,2.81.54.54,0,0,1-.16.43c-.21.16-.49,0-.69-.21A3.23,3.23,0,0,0,3,6.16c-.22,0-.48,0-.57.23a.43.43,0,0,0,.19.5A1.29,1.29,0,0,0,3.16,7a3.89,3.89,0,0,1,1.55.42,2.26,2.26,0,0,1,.93,2.73,2.93,2.93,0,0,0-.3.77c0,.28.14.61.42.62a.5.5,0,0,0,.45-.34,1.47,1.47,0,0,0,0-.59L6.2,9.18c0-.37-.06-.89.23-1.16A7.28,7.28,0,0,1,7.79,7.24Z"/><path class="cls-5" d="M8.58,2.79c-.19,0-.16.19,0,.41a6,6,0,0,1,.64,3.52l-.06.49a12.85,12.85,0,0,1-.76,2.89.24.24,0,0,0,.43.22C10.08,8.62,11,4.68,9.15,3A.83.83,0,0,0,8.58,2.79Z"/><path class="cls-5" d="M3.24,10.61A6,6,0,0,1,2.18,8.42a.25.25,0,0,0-.45,0,2.08,2.08,0,0,0,0,1.62,1.5,1.5,0,0,0,1.42,1A.24.24,0,0,0,3.24,10.61Z"/><path class="cls-5" d="M3.59,2.63a.24.24,0,0,0,.06-.43c-.8-.54-1.79.07-1.92,1.28a1.78,1.78,0,0,0,0,.56.25.25,0,0,0,.43.09c.41-.51.68-1,.84-1.19A1,1,0,0,1,3.59,2.63Z"/></g></g></svg>