<svg xmlns="http://www.w3.org/2000/svg" viewBox="0 0 14.61 14.98"><defs><style>.cls-1{fill:#9fdaed;}.cls-2{fill:#b3e2f2;}.cls-3{fill:#cbedfa;}.cls-4{fill:#7fd8ef;}.cls-5{fill:#e3f7fc;}</style></defs><g id="Capa_2" data-name="Capa 2"><g id="Layer_1" data-name="Layer 1"><path class="cls-1" d="M3.7,13.94a25.67,25.67,0,0,0,2.53.67c2.48.52,4.69.54,5.56-.25,1.16-1.06,3-6.49,2.81-9.62-.15-2.25-2.82-3.47-4.29-4h0c-.57-.19-1-.28-1-.28-5.26-1.18-6,.05-7,.75S.28,7,.05,9.18.31,12.86,3.7,13.94Z"/><path class="cls-2" d="M3.7,13.94a25.67,25.67,0,0,0,2.53.67c1.93.29,3.54.19,4.26-.48,1.16-1.08,3-6.64,2.78-9.84-.11-1.71-1.6-2.84-3-3.51h0c-.57-.19-1-.28-1-.28-5.26-1.18-6,.05-7,.75S.28,7,.05,9.18.31,12.86,3.7,13.94Z"/><path class="cls-3" d="M8.74,13.59a1.66,1.66,0,0,0,1-.29c.85-.79,2.63-5.94,2.43-8.93-.08-1.19-1.27-2-2.28-2.54-.45-.15-.76-.22-.76-.23A18.39,18.39,0,0,0,4.53,1a2.67,2.67,0,0,0-1.31.44A3,3,0,0,0,2.08,3,31.77,31.77,0,0,0,.67,9.15c-.18,1.59.45,2.77,3.38,3.71.8.25,1.6.47,2.38.63A9.46,9.46,0,0,0,8.74,13.59Z"/><path class="cls-4" d="M3.68,11.22c-.25,0-.55,0-.66-.23a.43.43,0,0,1,.25-.57,1.21,1.21,0,0,1,.68,0,1.61,1.61,0,0,0,.69,0,1.45,1.45,0,0,0,.74-.83L6,8.22a1,1,0,0,0,.11-.38.58.58,0,0,0-.52-.5,2.07,2.07,0,0,0-.78.07,5.06,5.06,0,0,1-1.9,0,1,1,0,0,1-.5-.22.4.4,0,0,1-.07-.5.6.6,0,0,1,.45-.15l1.84-.08A3.54,3.54,0,0,1,6,6.56a2.92,2.92,0,0,1,1,.77.07.07,0,0,0,.12-.06A7.39,7.39,0,0,0,5.76,3.82a1.64,1.64,0,0,1-.39-.72c0-.28.15-.6.43-.59s.42.28.48.52.11.8.66.9a1.14,1.14,0,0,0,.63-.08,5.82,5.82,0,0,1,1.94-.34.56.56,0,0,1,.42.13.38.38,0,0,1-.15.54,1,1,0,0,1-.63.06,1.43,1.43,0,0,0-.65,0,.85.85,0,0,0-.52.6,2.63,2.63,0,0,0-.06.84,7,7,0,0,0,.24,1.76A2.36,2.36,0,0,0,9.21,8.82c.17.08.36.15.41.38a.49.49,0,0,1-.36.54,1.13,1.13,0,0,1-1-.39C7.87,9,7.53,8.67,7,8.76a1.1,1.1,0,0,0-.82.71,1.66,1.66,0,0,0,.35,1.61c.23.29.47.59,0,.85s-.84-.22-1.21-.37A4.22,4.22,0,0,0,3.68,11.22Z"/><path class="cls-5" d="M4.11,2.56a.21.21,0,0,0-.2-.31,1.23,1.23,0,0,0-.71.34,2.64,2.64,0,0,0-.62,2.46.22.22,0,0,0,.36.09,3.92,3.92,0,0,0,1-2A2.91,2.91,0,0,1,4.11,2.56Z"/><path class="cls-5" d="M2,8.14a1.37,1.37,0,0,0,0,2.3.21.21,0,0,0,.3-.13,2.84,2.84,0,0,0,.19-1,2.84,2.84,0,0,0-.21-1A.21.21,0,0,0,2,8.14Z"/><path class="cls-5" d="M10.15,4.57a8,8,0,0,0,0,3.52.22.22,0,0,0,.39.07,3.31,3.31,0,0,0,0-3.67A.22.22,0,0,0,10.15,4.57Z"/><path class="cls-5" d="M9.73,10.93a.21.21,0,0,0-.36-.06,4.55,4.55,0,0,1-.8.84,7.25,7.25,0,0,1-1.1.46.22.22,0,0,0,0,.37,1.5,1.5,0,0,0,1.78.11A1.43,1.43,0,0,0,9.73,10.93Z"/></g></g></svg>