<svg xmlns="http://www.w3.org/2000/svg" viewBox="0 0 90.82 72.05"><defs><style>.cls-1{fill:#e66251;}</style></defs><g id="Capa_2" data-name="Capa 2"><g id="Layer_1" data-name="Layer 1"><path class="cls-1" d="M90.18,14c-1.5,10.2-3.49,22.92-12,39.07-9.54,18.16-25.2,19-30.55,19H43.15c-5.35,0-21-.86-30.57-19A110.19,110.19,0,0,1,.35,12.13C-.5,3.44-.08,1.23,4.64.49A26.24,26.24,0,0,1,8.94,0c3.05.05,5.59,1.59,6.33,8.48,1.28,12,2.34,53.39,30.13,53.39S74.25,20.43,75.53,8.48C76.33,1,79.26-.18,82.66,0,83.8.09,85,.3,86.16.49,90.88,1.23,91.58,4.39,90.18,14Z"/></g></g></svg>