<svg xmlns="http://www.w3.org/2000/svg" viewBox="0 0 11.93 12.03"><defs><style>.cls-1{fill:#b3e2f2;}.cls-2{fill:#cbedfa;}.cls-3{fill:#9fdaed;}.cls-4{fill:#e3f7fc;}</style></defs><g id="Capa_2" data-name="Capa 2"><g id="Layer_1" data-name="Layer 1"><path class="cls-1" d="M11.91,8.26C11.59,10.42,9,11.82,8.15,12c-.67.16-6-2.5-7.55-4.06h0A1.89,1.89,0,0,1,0,7.06C-.16,5.69,4.55.12,6.65,0A2.81,2.81,0,0,1,7.83.87h0C9.29,2.37,12.15,6.67,11.91,8.26Z"/><path class="cls-2" d="M2.67,8A2.78,2.78,0,0,1,.6,6.78c-.15-.51,3-5.25,5.67-6.3.3-.12,1.49,1.31,1.59,1.63C8.07,2.77,6.2,4,5.05,5.24,4.07,6.28,3.16,7.86,2.67,8Z"/><path class="cls-3" d="M11.91,8.26C11.59,10.42,9,11.82,8.15,12c-.67.16-6-2.5-7.55-4.06.13.08,6.29,3.44,7.28,3.07s3.14-2,3-3.27S8.85,2.32,7.83.87C9.29,2.37,12.15,6.67,11.91,8.26Z"/><path class="cls-4" d="M2,6.42a10.21,10.21,0,0,1,4.25-4.7.09.09,0,0,1,.11.14C5.51,2.8,3.63,4.7,2.13,6.51A.09.09,0,0,1,2,6.42Z"/></g></g></svg>