<svg xmlns="http://www.w3.org/2000/svg" viewBox="0 0 10.24 11.13"><defs><style>.cls-1{fill:#9fdaed;}.cls-2{fill:#b3e2f2;}.cls-3{fill:#cbedfa;}.cls-4{fill:#e3f7fc;}</style></defs><g id="Capa_2" data-name="Capa 2"><g id="Layer_1" data-name="Layer 1"><path class="cls-1" d="M.66,7.75a5.06,5.06,0,0,0,2.23,3.17c2.3.95,5.95-1.51,7-3.81A3.41,3.41,0,0,0,9.34,3.4,12.89,12.89,0,0,0,6.47.83,4.15,4.15,0,0,0,1.39.91C-.57,2.58-.1,5.34.66,7.75Z"/><path class="cls-2" d="M.52,6.82a6.75,6.75,0,0,0,.82,2.51,3.55,3.55,0,0,0,1.55,1.59c2.3.95,5.95-1.51,7-3.81A3.09,3.09,0,0,0,10,4.52,3.87,3.87,0,0,0,8.68,2.89c-.19-.15-.4-.29-.6-.44A7.83,7.83,0,0,0,4.34.93,4.11,4.11,0,0,0,.69,3.49,7.32,7.32,0,0,0,.52,6.82Z"/><path class="cls-3" d="M3.92,10.67c1.76.11,4.89-2.21,5.62-3.78a2,2,0,0,0,.05-1.67,2.75,2.75,0,0,0-.93-1.14,6.41,6.41,0,0,0-.57-.41c-1.94-1.1-6,2.34-6.38,3.7a3,3,0,0,0,.5,2.15,2.12,2.12,0,0,0,1.16,1A1.85,1.85,0,0,0,3.92,10.67Z"/><path class="cls-4" d="M3.71,10c-.21-.1-.43-.29-.35-.48a.58.58,0,0,1,.37-.24A10.14,10.14,0,0,0,8.31,6a1.18,1.18,0,0,1,.31-.32c.37-.26.82,0,.74.34a5,5,0,0,1-.49,1.18C8.26,8.39,5,10.63,3.71,10Z"/></g></g></svg>