<svg xmlns="http://www.w3.org/2000/svg" viewBox="0 0 69.86 67.72"><defs><style>.cls-1{fill:#d43320;}</style></defs><g id="Capa_2" data-name="Capa 2"><g id="Layer_1" data-name="Layer 1"><path class="cls-1" d="M69.86,67.72l-.34,0a2.48,2.48,0,0,1-.27,0h0c-3.37-.35-11.19-1.8-15.44-7.7-4.08-5.67-11.52-8.47-18.94-8.44S20.09,54.37,16.07,60,4.41,67.23.91,67.63L0,67.72a3,3,0,0,0,.42-.06h0l.26,0c6-1.06,4.16-14.43,4.22-21.49S3.37.08,34.84,0h.09c26.58,0,29.64,27.7,30,40.67C65,43.1,65,45,65,46.13c.06,7.06-1.82,20.43,4.22,21.49l.17,0Z"/></g></g></svg>