<svg xmlns="http://www.w3.org/2000/svg" viewBox="0 0 12.5 13.75"><defs><style>.cls-1{fill:#b3e2f2;}.cls-2{fill:#cbedfa;}.cls-3{fill:#9fdaed;}.cls-4{fill:#e3f7fc;}</style></defs><g id="Capa_2" data-name="Capa 2"><g id="Layer_1" data-name="Layer 1"><path class="cls-1" d="M6.88,13.75c-4.58,0-6.69-8.13-6.8-11v0C.08,2.56,1.3,0,6.29,0s6.1,1.11,6.2,1.92S11.47,13.75,6.88,13.75Z"/><path class="cls-2" d="M6.2,4.61c-3.42,0-4.94,1.23-5.15-1.68C1.33,2.5,2.58,1,6.2,1c4.46,0,5.12.92,5.17,1C12,4.26,10.64,4.3,6.2,4.61Z"/><path class="cls-3" d="M6.88,13.75C2.31,13.75.11,5.64,0,2.76c.06.37,1.8,9.82,6.85,9.5C10.79,12,12.41,1.92,12.41,1.92,12.51,2.72,11.47,13.75,6.88,13.75Z"/><path class="cls-4" d="M2.53,2.2A11.84,11.84,0,0,1,10,1.89a.09.09,0,0,1,0,.17c-1.45.09-4.58.06-7.45.31A.09.09,0,0,1,2.53,2.2Z"/></g></g></svg>