<svg xmlns="http://www.w3.org/2000/svg" viewBox="0 0 13.5 11.3"><defs><style>.cls-1{fill:#9fdaed;}.cls-2{fill:#b3e2f2;}.cls-3{fill:#cbedfa;}.cls-4{fill:#7fd8ef;}.cls-5{fill:#e3f7fc;}</style></defs><g id="Capa_2" data-name="Capa 2"><g id="Layer_1" data-name="Layer 1"><path class="cls-1" d="M13.3,7.42a8.38,8.38,0,0,1-1.72,3.16,3.82,3.82,0,0,1-1.44.55,9.79,9.79,0,0,1-6.05-.81A9.52,9.52,0,0,1,1.78,8.75C0,7.09-.5,5.29.54,3.11.86,2.43,1.3,1,2.51.36S5.43,0,6.7.26l.58.12h0a9,9,0,0,1,2.56,1C12.39,2.82,14.11,4.59,13.3,7.42Z"/><path class="cls-2" d="M12.42,7.1a9,9,0,0,1-1.67,3.15,3.58,3.58,0,0,1-1.36.5,9.41,9.41,0,0,1-1.84.18l-.71,0a10.31,10.31,0,0,1-2.75-.59A9.52,9.52,0,0,1,1.78,8.75C0,7.09-.5,5.29.54,3.11.86,2.43,1.3,1,2.51.36S5.43,0,6.7.26l.58.12h0a8.16,8.16,0,0,1,1.63.71l.23.14C12.11,3,13.09,4.78,12.42,7.1Z"/><path class="cls-3" d="M10.74,6.86A11.76,11.76,0,0,1,9.2,9.77a2.57,2.57,0,0,1-2,.88h0A7.77,7.77,0,0,1,2.1,8.41C.38,6.82,0,5.24,1,3.31l.18-.41A3.79,3.79,0,0,1,2.71.78,3.82,3.82,0,0,1,4.38.46,12.81,12.81,0,0,1,6.62.72a6.35,6.35,0,0,1,2.49.85l.21.13C12,3.34,11.35,4.71,10.74,6.86Z"/><path class="cls-4" d="M7.63,5.22c.21-.14-.62-.4-.82-.58a1.52,1.52,0,0,1-.54-1A.57.57,0,0,1,6.6,3a.53.53,0,0,1,.49.15c.13.11.24.26.36.38A1.54,1.54,0,0,0,8.58,4a.1.1,0,0,0,.09-.07c0-.18-.13-.37-.29-.51l-.94-.8A8.54,8.54,0,0,0,6.2,1.69a2.81,2.81,0,0,0-1.38-.41.11.11,0,0,0-.11.11A.59.59,0,0,0,5,1.85c.17.13.38.21.55.34a1.47,1.47,0,0,1,.49,1A2.5,2.5,0,0,1,4.87,5.58c-.2.13-.44.25-.52.48a1.06,1.06,0,0,0,.09.65.65.65,0,0,1-.06.64.59.59,0,0,1-.5.12,2,2,0,0,0-.54-.06c-.17,0-.36.17-.34.35a.35.35,0,0,0,.3.29,1.66,1.66,0,0,0,.44,0,4.91,4.91,0,0,1,3,.4c.17.09.39.18.55.06a.32.32,0,0,0,.07-.4A.6.6,0,0,0,7,7.81a2.52,2.52,0,0,0-1-.13A1.56,1.56,0,0,1,5,7.37a.65.65,0,0,1-.22-.5c0-.35.31-.52.6-.61A2.37,2.37,0,0,0,6,6a.91.91,0,0,0,.41-.8A.28.28,0,0,1,6.74,5L7,5C7.21,5,7.45,5.33,7.63,5.22Z"/><path class="cls-5" d="M8.44,8.59a.11.11,0,0,1-.12-.17,4.59,4.59,0,0,0,.79-1.14,4.43,4.43,0,0,0,.2-.57,5.82,5.82,0,0,0,.41-1.95.1.1,0,0,1,.2,0A3.29,3.29,0,0,1,10,6.93a3.45,3.45,0,0,1-.25.63A2.83,2.83,0,0,1,8.44,8.59Z"/><path class="cls-5" d="M3.17,1.83C3,2.23,3,2.3,2.32,4s-.49,2.17-.83,2.17C1,5.29,2.46,1.59,3.17,1.83Z"/><path class="cls-5" d="M7.21,1.64c.57-.27,2,.8,2.08,1.43C9.07,3.45,7.21,2,7.21,1.64Z"/><path class="cls-5" d="M4.44,9c-.25.46,2.65.86,2.48.45A10,10,0,0,0,4.44,9Z"/></g></g></svg>