<svg xmlns="http://www.w3.org/2000/svg" viewBox="0 0 69.86 67.72"><defs><style>.cls-1{fill:#de422f;}</style></defs><g id="Capa_2" data-name="Capa 2"><g id="Layer_1" data-name="Layer 1"><path class="cls-1" d="M69.86,67.72C67,67.49,58.34,66.26,53.8,60c-4-5.62-11.39-8.42-18.75-8.44s-14.93,2.8-19,8.44S4.7,67.17,1.12,67.61l-.5,0h0L0,67.72c.22,0,.45-.06.69-.1,5.52-1,4.42-12.22,4.24-19.54,0-.69,0-1.34,0-1.95C5,39.08,3.37,0,34.93,0H35C59.79.06,64.08,24.24,64.81,38c.19,3.72.13,6.67.14,8.17,0,.62,0,1.28,0,2-.19,7.32-1.27,18.55,4.24,19.52l.26,0h0A3,3,0,0,0,69.86,67.72Z"/></g></g></svg>