<svg xmlns="http://www.w3.org/2000/svg" viewBox="0 0 16.25 15.9"><defs><style>.cls-1{fill:#9fdaed;}.cls-2{fill:#b3e2f2;}.cls-3{fill:#cbedfa;}.cls-4{fill:#7fd8ef;}.cls-5{fill:#e3f7fc;}</style></defs><g id="Capa_2" data-name="Capa 2"><g id="Layer_1" data-name="Layer 1"><path class="cls-1" d="M16,9.12A9.74,9.74,0,0,1,14,14a6.51,6.51,0,0,1-4.38,1.91,10.79,10.79,0,0,1-3.74-.52c-.35-.11-.7-.24-1-.37a7.58,7.58,0,0,1-4.2-3.29A8.56,8.56,0,0,1,.22,6.53c.24-1.6.05-3,1.1-4.42A5.3,5.3,0,0,1,5,0,6.88,6.88,0,0,1,6.87.12c.59.1,1.18.24,1.76.39a17.44,17.44,0,0,1,4.53,1.6,5.93,5.93,0,0,1,3,3.63A8.21,8.21,0,0,1,16,9.12Z"/><path class="cls-2" d="M14,8.67a9.65,9.65,0,0,1-2,4.86,6.53,6.53,0,0,1-4.38,1.91,10.14,10.14,0,0,1-1.74-.07c-.35-.11-.7-.24-1-.37a7.58,7.58,0,0,1-4.2-3.29A8.56,8.56,0,0,1,.22,6.53c.24-1.6.05-3,1.1-4.42A5.3,5.3,0,0,1,5,0,6.88,6.88,0,0,1,6.87.12a16.72,16.72,0,0,1,4.3,1.54,6,6,0,0,1,3,3.63A8.22,8.22,0,0,1,14,8.67Z"/><path class="cls-3" d="M4.58,14.13c-1.8-.58-2.75-1-3.6-2.7A8.12,8.12,0,0,1,.69,6.64c.26-1.69.08-3,1-4.15A4.46,4.46,0,0,1,5.22.71a6.88,6.88,0,0,1,1.15.1c1.57.4,1.79.23,3,.94A5.17,5.17,0,0,1,12,4.86,7.58,7.58,0,0,1,11.82,8,9.25,9.25,0,0,1,10,12.52C8.9,13.67,7.34,15.15,4.58,14.13Z"/><path class="cls-4" d="M3.17,11.56a.18.18,0,0,0,0,.35,3.15,3.15,0,0,0,2.28,0,1.68,1.68,0,0,0,1-.94c.14-.43,0-.92.23-1.32a1.24,1.24,0,0,1,1.06-.58A5.23,5.23,0,0,1,9,9.23a.83.83,0,0,0,.47,0,.31.31,0,0,0,.23-.35c-.05-.22-.35-.25-.57-.23l-1.73.13a1.88,1.88,0,0,1-.67,0,.7.7,0,0,1-.49-.41,1,1,0,0,1,.15-.74l.58-1.23a.79.79,0,0,1,.23-.31c.25-.17.59,0,.77.28a2.66,2.66,0,0,0,.54.73C8.64,7.2,9,7.17,9,7a.34.34,0,0,0-.2-.33c-.12-.06-.26-.09-.38-.14A1.25,1.25,0,0,1,7.8,5.42c0-.43,0-.86-.06-1.29a3.93,3.93,0,0,0-.86-1.59,1.7,1.7,0,0,0-.51-.49.56.56,0,0,0-.66.08.64.64,0,0,0,.12.8c.2.22.47.37.65.61a1.47,1.47,0,0,1,.2,1.16A4.26,4.26,0,0,1,6.2,5.82a1,1,0,0,1-.49.52c-.32.11-.65-.12-.92-.35a1.76,1.76,0,0,0-1.24-.57A.69.69,0,0,0,3,5.75a.69.69,0,0,0,.44,1,4.05,4.05,0,0,0,.92.18c.45.06,1,.29,1,.74S5,8.57,5,9.08c.09.7,1.07,1.16.19,1.75A4.56,4.56,0,0,1,3.17,11.56Z"/><path class="cls-5" d="M6.87,13.29a.2.2,0,0,1-.11-.36A12.87,12.87,0,0,0,8.07,12a13.06,13.06,0,0,0,1.17-1.1.2.2,0,0,1,.33.18A3.09,3.09,0,0,1,6.87,13.29Z"/><path class="cls-5" d="M8.86,2.82a.19.19,0,0,1,.19-.32A2.85,2.85,0,0,1,11,5.69a.2.2,0,0,1-.38,0A6,6,0,0,0,8.86,2.82Z"/><path class="cls-5" d="M2.28,4.17a.19.19,0,0,1-.35-.07,1.68,1.68,0,0,1,.33-1.25,1.7,1.7,0,0,1,1.1-.69.2.2,0,0,1,.17.31l-.64.85C2.53,3.81,2.37,4,2.28,4.17Z"/><path class="cls-5" d="M1.82,8a7.07,7.07,0,0,1,.28,2.38.2.2,0,0,1-.35.11,2.65,2.65,0,0,1-.29-2.51A.19.19,0,0,1,1.82,8Z"/></g></g></svg>