<svg xmlns="http://www.w3.org/2000/svg" viewBox="0 0 10.24 11.13"><defs><style>.cls-1{fill:#9fdaed;}.cls-2{fill:#b3e2f2;}.cls-3{fill:#cbedfa;}.cls-4{fill:#e3f7fc;}</style></defs><g id="Capa_2" data-name="Capa 2"><g id="Layer_1" data-name="Layer 1"><path class="cls-1" d="M9.58,7.75a5.09,5.09,0,0,1-2.23,3.17c-2.3.95-5.95-1.51-7-3.81A3.41,3.41,0,0,1,.9,3.4,12.67,12.67,0,0,1,3.77.83,4.16,4.16,0,0,1,8.85.91C10.81,2.58,10.34,5.34,9.58,7.75Z"/><path class="cls-2" d="M9.72,6.82A6.93,6.93,0,0,1,8.9,9.33a3.65,3.65,0,0,1-1.55,1.59c-2.3.95-5.95-1.51-7-3.81A3.09,3.09,0,0,1,.25,4.52,3.79,3.79,0,0,1,1.56,2.89c.19-.15.39-.29.6-.44A7.76,7.76,0,0,1,5.9.93,4.1,4.1,0,0,1,9.54,3.49,7.19,7.19,0,0,1,9.72,6.82Z"/><path class="cls-3" d="M6.32,10.67C4.56,10.78,1.43,8.46.7,6.89a2,2,0,0,1,0-1.67,2.75,2.75,0,0,1,.93-1.14,6.41,6.41,0,0,1,.57-.41c1.94-1.1,6,2.34,6.38,3.7A3,3,0,0,1,8,9.52a2.15,2.15,0,0,1-1.16,1A1.85,1.85,0,0,1,6.32,10.67Z"/><path class="cls-4" d="M6.53,10c.21-.1.43-.29.35-.48a.58.58,0,0,0-.38-.24A10.19,10.19,0,0,1,1.92,6a1.31,1.31,0,0,0-.3-.32c-.37-.26-.83,0-.75.34a5,5,0,0,0,.5,1.18C2,8.39,5.27,10.63,6.53,10Z"/></g></g></svg>