<svg xmlns="http://www.w3.org/2000/svg" viewBox="0 0 11.23 12.88"><defs><style>.cls-1{fill:#b3e2f2;}.cls-2{fill:#9fdaed;}.cls-3{fill:#cbedfa;}.cls-4{fill:#e3f7fc;}</style></defs><g id="Capa_2" data-name="Capa 2"><g id="Layer_1" data-name="Layer 1"><path class="cls-1" d="M0,4.81C.23,3.48,6.21-.43,8.22,0,9.09.39,12,8.49,11.05,10.42s-3.59,2.49-4.43,2.45S-.22,6.13,0,4.81Z"/><path class="cls-2" d="M11.05,10.42c-.91,1.92-3.59,2.49-4.43,2.45S.6,7.13,0,5.11c1.32,1.94,5.65,6.32,6.33,6.35a4.66,4.66,0,0,0,4-2.44C11,7.63,9.53,2.63,8.76.73,10.1,3,11.79,8.84,11.05,10.42Z"/><path class="cls-3" d="M2.25,6.42c-.49,0-1.6-1.21-1.6-1.73S4.94.61,7.74.36c.31,0,1,1.65,1,2C8.78,3,6.68,3.68,5.26,4.5,4,5.2,2.75,6.42,2.25,6.42Z"/><path class="cls-4" d="M1.71,4.21A10.05,10.05,0,0,1,7,1a.09.09,0,0,1,.07.16c-1,.64-3.35,1.89-5.28,3.15A.09.09,0,0,1,1.71,4.21Z"/></g></g></svg>