<svg xmlns="http://www.w3.org/2000/svg" viewBox="0 0 11.93 12.03"><defs><style>.cls-1{fill:#b3e2f2;}.cls-2{fill:#cbedfa;}.cls-3{fill:#9fdaed;}.cls-4{fill:#e3f7fc;}</style></defs><g id="Capa_2" data-name="Capa 2"><g id="Layer_1" data-name="Layer 1"><path class="cls-1" d="M0,8.26C.34,10.42,2.94,11.82,3.77,12s6-2.5,7.56-4.06h0a1.93,1.93,0,0,0,.59-.91C12.09,5.69,7.38.12,5.28,0A2.69,2.69,0,0,0,4.1.87h0C2.64,2.37-.23,6.67,0,8.26Z"/><path class="cls-2" d="M9.25,8a2.78,2.78,0,0,0,2.08-1.22c.15-.51-3-5.25-5.68-6.3C5.36.36,4.16,1.79,4.07,2.11,3.86,2.77,5.72,4,6.87,5.24,7.86,6.28,8.77,7.86,9.25,8Z"/><path class="cls-3" d="M0,8.26C.34,10.42,2.94,11.82,3.77,12s6-2.5,7.56-4.06C11.2,8.05,5,11.41,4.05,11s-3.14-2-3-3.27S3.08,2.32,4.1.87C2.64,2.37-.23,6.67,0,8.26Z"/><path class="cls-4" d="M10,6.42A10.27,10.27,0,0,0,5.7,1.72a.09.09,0,0,0-.11.14c.82.94,2.7,2.84,4.21,4.65A.09.09,0,0,0,10,6.42Z"/></g></g></svg>