<svg xmlns="http://www.w3.org/2000/svg" viewBox="0 0 10.95 10.23"><defs><style>.cls-1{fill:#9fdaed;}.cls-2{fill:#b3e2f2;}.cls-3{fill:#cbedfa;}.cls-4{fill:#7fd8ef;}.cls-5{fill:#e3f7fc;}</style></defs><g id="Capa_2" data-name="Capa 2"><g id="Layer_1" data-name="Layer 1"><path class="cls-1" d="M2.59,1.19A5,5,0,0,0,.42,3.1,5.66,5.66,0,0,0,.68,7.92,4.49,4.49,0,0,0,3.19,10a6,6,0,0,0,3.07,0C9.8,9.23,11,7,10.19,4.33c-.46-1.55-1.38-3.47-3-4S4,.39,2.59,1.19Z"/><path class="cls-2" d="M3.11,1.09A5.14,5.14,0,0,0,1,3,5.65,5.65,0,0,0,1.2,7.82,4.4,4.4,0,0,0,3.72,9.94a6,6,0,0,0,3.06,0c3.54-.8,4.73-3,3.94-5.69-.46-1.56-1.39-3.48-3-4S4.55.29,3.11,1.09Z"/><path class="cls-3" d="M5,9.21a3.44,3.44,0,0,1-.87-.15A3.66,3.66,0,0,1,2.05,7.32a4.83,4.83,0,0,1-.26-4.09A4.36,4.36,0,0,1,3.67,1.65a6.41,6.41,0,0,1,3.24-1,3.2,3.2,0,0,1,.76.15C9.18,1.3,10,3.44,10.23,4.34a3.38,3.38,0,0,1-.18,2.79A4.78,4.78,0,0,1,6.83,9,6.21,6.21,0,0,1,5,9.21Z"/><path class="cls-4" d="M5.63,8.57a.49.49,0,0,1-.23.11.21.21,0,0,1-.23-.08.24.24,0,0,1,.09-.3,1.44,1.44,0,0,1,.31-.13,1.41,1.41,0,0,0,.81-1,4.18,4.18,0,0,0,.08-1.32,1.37,1.37,0,0,0-.09-.57A.6.6,0,0,0,6,4.91c-.18,0-.38,0-.53,0s-.18-.36-.13-.56a1.1,1.1,0,0,0,.09-.59.55.55,0,0,0-.55-.36,1.64,1.64,0,0,0-.68.18l-.84.36C3.2,4,3.05,4,3,3.91a.26.26,0,0,1-.06-.27A1,1,0,0,1,3.69,3c.35-.07.72-.06,1.07-.16C5.56,2.6,6.15,1.76,7,1.75a.55.55,0,0,1-.23.7,4.39,4.39,0,0,0-.66.47A.82.82,0,0,0,6.27,4.1a4.44,4.44,0,0,1,.53.28A.92.92,0,0,1,7,5.13a7.32,7.32,0,0,0-.11.8.79.79,0,0,0,.31.71,1.35,1.35,0,0,0,.95,0c.15,0,.54.07.38.31s-.33.17-.43.21l-.49.25c-.32.16-.64.33-1,.51S6,8.35,5.63,8.57Z"/><path class="cls-5" d="M8,2.65a.17.17,0,0,1,.19-.27,1.18,1.18,0,0,1,.5.37,3.45,3.45,0,0,1,.66,2,2.83,2.83,0,0,1-.06.57.17.17,0,0,1-.33,0c0-.16-.1-.32-.15-.49S8.61,4.24,8.52,4A3.66,3.66,0,0,0,8,2.65Z"/><path class="cls-5" d="M2.59,5a9.66,9.66,0,0,0,1.3,2.74A.17.17,0,0,1,3.66,8,3.29,3.29,0,0,1,2.5,6.71,2.46,2.46,0,0,1,2.26,5,.17.17,0,0,1,2.59,5Z"/></g></g></svg>