<svg xmlns="http://www.w3.org/2000/svg" viewBox="0 0 10.07 9.41"><defs><style>.cls-1{fill:#9fdaed;}.cls-2{fill:#b3e2f2;}.cls-3{fill:#cbedfa;}.cls-4{fill:#e3f7fc;}</style></defs><g id="Capa_2" data-name="Capa 2"><g id="Layer_1" data-name="Layer 1"><path class="cls-1" d="M10.07,4.61C10,5.82,8,7.56,6.72,8.46A7.09,7.09,0,0,1,5.83,9a3.48,3.48,0,0,1-3.05-.15C1.58,8.32.5,6.2.16,5.26a2,2,0,0,1,0-1.15A4.16,4.16,0,0,1,1.49,1.94,5.72,5.72,0,0,1,2,1.57,9.3,9.3,0,0,1,7.18,0C8.07.21,10.15,3.06,10.07,4.61Z"/><path class="cls-2" d="M6.62,8.54a6.76,6.76,0,0,1-1.4.73A3.28,3.28,0,0,1,2.15,8.6,6.65,6.65,0,0,1,.07,5.34a2.35,2.35,0,0,1,0-1.15A4.17,4.17,0,0,1,1.4,2,9.36,9.36,0,0,1,6.45.57c.89.19,3,3,2.89,4.59C9.28,6.18,7.84,7.58,6.62,8.54Z"/><path class="cls-3" d="M1.47,3.15A3.57,3.57,0,0,1,4.23,1.62C6.07,1.61,8.46,5,7.68,6.46A4,4,0,0,1,4.91,8.69c-1.37.41-2.26-.36-3.28-1.78A3.27,3.27,0,0,1,1.47,3.15Z"/><path class="cls-4" d="M4.29,8.19c.15,0,.31-.16.29-.32a.4.4,0,0,0-.2-.24A6.94,6.94,0,0,1,2,4.47a1.14,1.14,0,0,0-.15-.29.28.28,0,0,0-.52.16,4.71,4.71,0,0,0,.13,1C1.66,6.3,3.39,8.51,4.29,8.19Z"/></g></g></svg>