<svg xmlns="http://www.w3.org/2000/svg" viewBox="0 0 13.76 12.14"><defs><style>.cls-1{fill:#9fdaed;}.cls-2{fill:#b3e2f2;}.cls-3{fill:#cbedfa;}.cls-4{fill:#7fd8ef;}.cls-5{fill:#e3f7fc;}</style></defs><g id="Capa_2" data-name="Capa 2"><g id="Layer_1" data-name="Layer 1"><path class="cls-1" d="M10.3,11.8a22.12,22.12,0,0,1-3.21.33h0c-2.85.09-5.32-.36-5.94-1.11C.17,9.81,0,6.46,0,5A4.84,4.84,0,0,1,.7,2.24C1.92.5,5.37-.11,8.05,0h0a10.29,10.29,0,0,1,2.12.3c3.4,1,3.45,3.19,3.54,5.45C13.9,10.14,13.39,11.25,10.3,11.8Z"/><path class="cls-2" d="M10.3,11.8a22.12,22.12,0,0,1-3.21.33h0c-2.21-.07-4-.49-4.5-1.11C1.6,9.81,1.41,6.46,1.43,5a4.84,4.84,0,0,1,.7-2.72C3.14.8,5.69.13,8.05,0h0a10.29,10.29,0,0,1,2.12.3c3.4,1,3.45,3.19,3.54,5.45C13.9,10.14,13.39,11.25,10.3,11.8Z"/><path class="cls-3" d="M7.32,11.38c-2.49-.09-3.71-.57-3.92-.79-.64-.79-1-3.5-1-5.67A4,4,0,0,1,3,2.65C3.69,1.64,5.79.9,8.34.77a9.78,9.78,0,0,1,1.95.28c2.8.78,2.86,2.33,3,4.67V5.8c.09,2.26,0,3.46-.39,4.12-.26.47-.76.85-2.34,1.13A23.94,23.94,0,0,1,7.32,11.38Z"/><path class="cls-4" d="M8.28,9a3,3,0,0,0,.26,1,1,1,0,0,0,.82.56.74.74,0,0,1-1.09-.06,2.14,2.14,0,0,1-.41-1.16c-.07-.49-.13-1-.2-1.45a1,1,0,0,0-.26-.65.82.82,0,0,0-.76-.09,3,3,0,0,1-.78.18A4,4,0,0,1,4.92,7a1.54,1.54,0,0,0-1.53.49.81.81,0,0,1,.49-1,1.9,1.9,0,0,1,1.18,0,4.33,4.33,0,0,0,1.18.18,1.67,1.67,0,0,0,1.43-1A1.7,1.7,0,0,0,7.35,4c-.15-.15-.32-.28-.46-.45a.68.68,0,0,1-.17-.59.57.57,0,0,1,.73-.32A1,1,0,0,1,8,3.28a2.66,2.66,0,0,1,0,.89,3,3,0,0,0,0,.9c.08.38.43.77.82.68a1.16,1.16,0,0,0,.38-.2,1.93,1.93,0,0,1,2.29.26.61.61,0,0,1,.23.39.29.29,0,0,1-.24.34c-.2,0-.31-.22-.45-.36A1.19,1.19,0,0,0,9.8,6a5.33,5.33,0,0,0-1,.35c-.2.09-.73.29-.83.49s.09.8.12,1Z"/><path class="cls-5" d="M4,8.71a.18.18,0,0,1,.35-.06c.08.15.14.3.2.44A1.16,1.16,0,0,0,5,9.64a3.11,3.11,0,0,0,1.14.4.19.19,0,0,1,0,.36A1.49,1.49,0,0,1,4,9.22,2.86,2.86,0,0,1,4,8.71Z"/><path class="cls-5" d="M10.51,9.68a2.93,2.93,0,0,0,1.16-1.84.19.19,0,0,1,.36,0,1.85,1.85,0,0,1-.13,1.44,1.4,1.4,0,0,1-1.31.73A.18.18,0,0,1,10.51,9.68Z"/><path class="cls-5" d="M9.07,2.2a.19.19,0,0,1,0-.36,2,2,0,0,1,2.51,1.8.19.19,0,0,1-.34.12A3.69,3.69,0,0,0,9.07,2.2Z"/><path class="cls-5" d="M3.75,5.36a.19.19,0,0,1-.36,0,1.92,1.92,0,0,1,.22-1.61A1.9,1.9,0,0,1,5,2.87a.19.19,0,0,1,.14.33A3.89,3.89,0,0,0,3.75,5.36Z"/></g></g></svg>